<?xml version="1.0" encoding="utf-8"?>
<!-- Generator: Adobe Illustrator 18.1.0, SVG Export Plug-In . SVG Version: 6.00 Build 0)  -->
<svg version="1.1" id="Layer_1" xmlns="http://www.w3.org/2000/svg" xmlns:xlink="http://www.w3.org/1999/xlink" x="0px" y="0px"
	 viewBox="473.5 42.9 473.1 473.1" enable-background="new 473.5 42.9 473.1 473.1" xml:space="preserve">
<g>
	<g>
		<g>
			<defs>
				<rect id="SVGID_1_" x="473.5" y="42.9" width="473.1" height="473.1"/>
			</defs>
			<clipPath id="SVGID_2_">
				<use xlink:href="#SVGID_1_"  overflow="visible"/>
			</clipPath>
			<rect x="473.5" y="42.9" clip-path="url(#SVGID_2_)" fill="#00457C" width="473.1" height="473.1"/>
		</g>
		<g>
			<defs>
				<rect id="SVGID_3_" x="473.5" y="42.9" width="473.1" height="473.1"/>
			</defs>
			<clipPath id="SVGID_4_">
				<use xlink:href="#SVGID_3_"  overflow="visible"/>
			</clipPath>
			<path clip-path="url(#SVGID_4_)" fill="#FFFFFF" d="M680.9,90c0,0,0.1,121.2,0.1,126.8c0,8.9,10.9,49.9,67.5,49.9
				s65.6-40.9,65.6-49.6v-72.5l-43.4-45.5v113.2c0,2.3,0.2,13.8-22.4,13.8c-23.4,0-23.4-11.3-23.4-14.1V90L680.9,90z"/>
		</g>
		<g>
			<defs>
				<rect id="SVGID_5_" x="473.5" y="42.9" width="473.1" height="473.1"/>
			</defs>
			<clipPath id="SVGID_6_">
				<use xlink:href="#SVGID_5_"  overflow="visible"/>
			</clipPath>
			<polygon clip-path="url(#SVGID_6_)" fill="#FFFFFF" points="775.1,90 816.5,132.9 846.4,132.9 846.4,264 891.6,264 891.6,132.9 
				926.5,132.9 926.5,90 			"/>
		</g>
		<g>
			<defs>
				<rect id="SVGID_7_" x="473.5" y="42.9" width="473.1" height="473.1"/>
			</defs>
			<clipPath id="SVGID_8_">
				<use xlink:href="#SVGID_7_"  overflow="visible"/>
			</clipPath>
			<path clip-path="url(#SVGID_8_)" fill="#FFFFFF" d="M658.1,226.6l37,37.6h-49.8L564,179.5h48l12.8,13.1c1.8-4.3,3.1-9.2,3.1-16.5
				c0-26-22-45.8-47.1-45.8c-25.1,0-45.2,21.4-45.2,46.5s20.5,45.8,46.1,45.8c2.8,0,5.3,0,8.3-0.9c0.4-0.1,33.6,35.6,33.3,35.8
				c-9.5,6.7-27.5,10.1-41.6,10.1c-49.5,0-88-42.2-88-90.2s39.1-88.3,89.2-88.3s89.5,40.6,89.5,90.2
				C672.7,199.1,663,219.6,658.1,226.6"/>
		</g>
	</g>
</g>
</svg>
