<?xml version="1.0" encoding="UTF-8"?>
<svg id="Layer_1" xmlns="http://www.w3.org/2000/svg" version="1.1" viewBox="0 0 1005.7 247.02">
  <!-- Generator: Adobe Illustrator 29.0.0, SVG Export Plug-In . SVG Version: 2.1.0 Build 186)  -->
  <defs>
    <style>
      .st0 {
        fill: #1d1d1b;
      }
    </style>
  </defs>
  <path class="st0" d="M52.9,178.9h-8.4v38.73c0,20.05-13.72,21.61-18.06,21.61s-18.04-1.56-18.04-21.61v-38.73H0v38.32c0,21.97,13.49,29.8,26.43,29.8s26.46-7.83,26.46-29.8v-38.32Z"/>
  <polygon class="st0" points="129.91 178.9 129.91 232.09 92.25 178.9 78.95 178.9 83.8 185.4 83.8 245.62 92.18 245.62 92.18 193.17 129.41 245.62 138.3 245.62 138.3 178.9 129.91 178.9"/>
  <rect class="st0" x="173.86" y="178.9" width="8.38" height="66.72"/>
  <path class="st0" d="M219.54,215.74c4.37,12.62,10.19,30.67,10.19,30.67h10.34s7.82-24.49,10-30.21c2.19-5.71,13.62-37.31,13.62-37.31h-9.52l-19.28,57.52-19.22-57.52h-9.56l13.43,36.85Z"/>
  <polygon class="st0" points="286.64 178.9 286.64 245.62 323.44 245.62 326.15 238.13 295.04 238.13 295.04 213.84 313.76 213.84 316.45 206.36 295.04 206.36 295.04 186.39 322.32 186.39 325.04 178.9 286.64 178.9"/>
  <path class="st0" d="M367.66,178.91h-18.77v66.71h8.38v-29.91h10.25l20.94,29.91h10.11l-22.44-31.83.8-.31c7.39-2.98,11.62-8.96,11.62-16.39,0-6.29-4.36-18.17-20.9-18.17M357.27,186.4h9.06c8.17,0,13.24,3.97,13.24,10.37,0,6.88-4.91,11.12-13.12,11.12h-9.17v-21.49Z"/>
  <path class="st0" d="M434.59,177.48c-11.35,0-19.58,7.65-19.58,18.18s9.1,14.73,17.91,18.57c7.57,3.31,14.69,6.42,14.69,13.62,0,6.24-5.58,11.3-12.42,11.3-7.93,0-13.58-4.3-16.77-12.75l-.18-.48-7.5,4.71.16.34c5.51,11.26,12.73,15.85,24.91,15.85,10.28,0,20.9-7.51,20.9-20.08s-10.37-16.69-19.51-20.73c-6.73-2.97-13.1-5.79-13.1-11.35,0-3.45,2.26-9.29,10.7-9.29,5.47,0,10.35,2.84,13.41,7.77l.25.4,6.49-5.2-.22-.31c-4.82-6.89-11.79-10.53-20.14-10.53"/>
  <rect class="st0" x="484.79" y="178.9" width="8.39" height="66.72"/>
  <polygon class="st0" points="515.57 178.9 515.57 186.39 537.24 186.39 537.24 245.62 545.62 245.62 545.62 186.39 563.34 186.39 566 178.9 515.57 178.9"/>
  <polygon class="st0" points="617.28 178.52 600.17 209.28 582.13 178.52 572.24 178.52 595.97 217.32 595.97 245.22 604.37 245.22 604.37 217.32 627.19 178.52 617.28 178.52"/>
  <polygon class="st0" points=".12 2.77 .12 135.99 28.66 135.99 28.66 83.67 66.77 83.67 76.44 57.09 28.66 57.09 28.66 29.34 86.47 29.34 96.11 2.77 .12 2.77"/>
  <polygon class="st0" points="123.14 2.77 127.64 19.54 82.06 135.99 113.2 135.99 122.62 109.56 151.24 109.56 160.23 84.97 131.55 84.97 147.57 40.79 182.4 135.99 213.12 135.99 161.34 2.77 123.14 2.77"/>
  <polygon class="st0" points="231.73 2.77 231.73 135.99 301.98 135.99 311.62 109.43 260.27 109.43 260.27 2.77 231.73 2.77"/>
  <polygon class="st0" points="433.39 2.77 392.75 55.31 352.11 2.77 312.51 2.77 325.13 19.25 325.13 135.99 353.69 135.99 353.69 52.55 392.75 103.03 431.8 52.55 431.8 135.99 460.34 135.99 460.34 2.77 433.39 2.77"/>
  <path class="st0" d="M554.57,138.76c-42.62,0-71.97-35.08-71.97-69.38S511.95,0,554.57,0s71.97,35.08,71.97,69.39-29.35,69.38-71.97,69.38M554.57,26.76c-23.79,0-41.63,18.44-41.63,42.63s17.84,42.62,41.63,42.62,41.63-18.43,41.63-42.62-17.84-42.63-41.63-42.63"/>
  <path class="st0" d="M732.57,2.76v71.95c0,32.74-19.8,36.28-28.61,36.28s-28.62-3.54-28.62-36.28V2.76h-28.57v71.16c0,47.51,29.2,64.45,57.19,64.45s57.16-16.94,57.16-64.45V2.76h-28.55Z"/>
  <polygon class="st0" points="773.52 2.77 773.52 29.34 810.44 29.34 810.44 135.99 838.99 135.99 838.99 29.34 871.1 29.34 880.74 2.77 773.52 2.77"/>
  <path class="st0" d="M977.15,135.99h28.54V2.78h-28.54v133.21ZM891.51,2.77v133.22h28.55v-55.11h43.15l9.75-26.57h-52.9V2.77h-28.55Z"/>
</svg>