<?xml version="1.0" encoding="utf-8"?>
<!-- Generator: Adobe Illustrator 26.5.0, SVG Export Plug-In . SVG Version: 6.00 Build 0)  -->
<svg version="1.1" id="Layer_1" xmlns="http://www.w3.org/2000/svg" xmlns:xlink="http://www.w3.org/1999/xlink" x="0px" y="0px"
	 viewBox="0 0 1009.1 285.2" style="enable-background:new 0 0 1009.1 285.2;" xml:space="preserve">
<style type="text/css">
	.st0{fill:url(#SVGID_1_);}
	.st1{stroke:#000000;stroke-width:0.5;stroke-miterlimit:10;}
</style>
<linearGradient id="SVGID_1_" gradientUnits="userSpaceOnUse" x1="0" y1="138.3405" x2="232.8777" y2="138.3405">
	<stop  offset="0" style="stop-color:#831269"/>
	<stop  offset="1" style="stop-color:#D4007F"/>
</linearGradient>
<path class="st0" d="M132,116.5c0,6.8-4.1,7.8-10.1,7.8H112v-15.7h9.9C127.9,108.6,132,109.7,132,116.5z M130.2,91.9
	c0-4.7-2.9-6.9-8.3-6.9H112v13.9h9.9C127.2,98.8,130.2,96.6,130.2,91.9z M232.9,10.1c0,0,0,76.2,0,138.7
	c0,107.4-116.4,127.9-116.4,127.9S0,256.2,0,148.8C0,86.3,0,10.1,0,10.1S34.8,0,116.4,0C197.9,0,232.9,10.1,232.9,10.1z M88.9,75.1
	H77v46.3l-0.2,0.2L54.4,75.1H35.6v59h11.9V85.3l0.2-0.2l23.3,49.1h18V75.1z M145.5,118.9c0-8.7-5.6-13.8-13-15.4v-0.2
	c5.9-2,10.4-6.5,10.4-12.9c0-11.5-10.8-15.9-21.3-15.3H99.4v59h22.3C130.7,134.8,145.5,130.6,145.5,118.9z M199.3,115.7
	c0-11.9-13.2-14.4-22.2-16.7c-5.1-1.2-10.8-2-10.8-8.3c0-5.2,4.7-7.6,9.4-7.6c6.1,0,9.3,2.9,9.8,8.9h12.2c0-11.9-8.9-18.1-20.4-18.1
	c-12.1,0-24.5,6-24.5,19.5c0,10.5,11.3,14.2,19.5,16.3c5.1,1.3,13.5,1.8,13.5,8.7c0,6.3-6.7,7.8-11.8,7.8c-6.6,0-10.4-4.4-9.9-11
	h-12.9c-0.4,14.9,9.2,20.1,22.6,20.1C186.5,135.4,199.3,130.3,199.3,115.7z"/>
<g>
	<path d="M334.8,13v70.1h-12l-35.4-59.5h-0.2v59.5h-8.6V13h13.3L326,71h0.2V13H334.8z"/>
	<path d="M397.5,58.7c0,15.1-8.3,25.8-24.3,25.8c-16,0-24.3-10.7-24.3-25.8c0-15.1,8.3-25.8,24.3-25.8
		C389.2,32.9,397.5,43.6,397.5,58.7z M373.2,77.9c11,0,14.6-8.7,14.6-19.1s-3.6-19.1-14.6-19.1c-11,0-14.6,8.7-14.6,19.1
		S362.2,77.9,373.2,77.9z"/>
	<path d="M411.6,34.4V24l9.2-2.9v13.3l11.3-0.3V41l-11.3-0.1v31.5c0,3.5,2.7,5.1,6,5.1c1.5,0,3.4-0.2,4.9-0.6V84
		c-2.1,0.1-4.2,0.6-6.3,0.6c-2.2,0-4-0.1-6.2-0.5c-1.5-0.3-3.9-1.1-5.4-3.2c-1.7-2.3-2.1-2.5-2.1-9v-31l-8.3,0.1v-6.9L411.6,34.4z"
		/>
	<path d="M447.1,34.4V24l9.2-2.9v13.3l11.3-0.3V41l-11.3-0.1v31.5c0,3.5,2.7,5.1,6,5.1c1.5,0,3.4-0.2,4.9-0.6V84
		c-2.1,0.1-4.2,0.6-6.3,0.6c-2.2,0-4-0.1-6.2-0.5c-1.5-0.3-3.9-1.1-5.4-3.2c-1.7-2.3-2.1-2.5-2.1-9v-31l-8.3,0.1v-6.9L447.1,34.4z"
		/>
	<path d="M477.2,13h11v10h-11V13z M478.1,83.1V34.4h9.2v48.7H478.1z"/>
	<path d="M512.2,41.6h0.2c3.1-6.1,9.9-8.6,14.8-8.6c3.4,0,18.4,0.9,18.4,16.5v33.7h-9.2V52.4c0-8.1-3.4-12.4-11.2-12.4
		c0,0-5-0.3-8.9,3.6c-1.4,1.4-3.9,3.5-3.9,13v26.5h-9.2V34.4h9V41.6z"/>
	<path d="M595.5,34.4h9.5c-0.3,2.9-0.6,5.8-0.6,8.7v34.3c0,17.9-7.8,25.1-25.6,25.1c-10.5,0-18-4.5-18.1-15.7h9.7
		c0.4,6.5,4.9,9,11.4,9c13.1,0,13.1-10.9,13.4-21.8h-0.3c-2.9,5.8-10,8.3-16,8.3c-14.9,0-20.8-10.5-20.8-24.2
		c0-14.1,7.9-25.1,22.6-25.1c4.8,0,10,1.9,13,6.4c0.2,0.2,1.5,3,1.5,2.3L595.5,34.4z M581.5,75.5c10,0,13.7-8.5,13.7-18
		s-3.7-18-13.7-18c-10.8,0-13.7,10.3-13.7,18S570.7,75.5,581.5,75.5z"/>
	<path d="M620,83.1V13h9.2v27.9h0.2c3.5-5.4,8.7-8,15.8-8c12.7,0,16.7,8.4,16.7,17.2v33h-9.2V54.3c0-8.5-2.2-14.1-10.9-14.3
		c-3.7-0.1-9.3,2.7-11.1,6.8c-2.1,5-1.6,8.5-1.6,11.3v25H620z"/>
	<path d="M706.5,53c0-8.4-0.5-13.4-10.3-13.4c-4.7,0-9,2.7-9.1,7.8h-9.7c0.5-10.7,8.8-14.5,18.4-14.5c10,0,19.9,3,19.9,16.6v23.3
		c0,2.1,0.1,6.2,0.4,10.3h-6.2c-0.9,0-2.5,0.5-2.6-0.7c-0.2-2.2-0.4-4.4-0.5-6.6h-0.2c-3,6.1-8.4,8.7-15.1,8.7
		c-8.4,0-17-4.4-17-13.9c0-13.7,12.1-17.7,23.7-17.7H706.5z M697.2,59.4c-5.6,0.3-13.1,2.3-13.1,9.4c0,6,4.2,9,9.6,9
		c10.9,0,12.9-9.4,12.7-18.4H697.2z"/>
	<path d="M739.8,41.4h0.2c2.9-6.1,8.9-8.4,13.9-8.4c9.2,0,14.7,3.1,17.2,9.1c3.5-6,9-9.1,16.2-9.1c11.3,0,18.2,7.1,18.2,15.8v34.4
		h-9.2V54.3c0-6.7-1-14.3-11.7-14.3c-2.8,0-9,1.6-10.8,7.6c-1.3,4.5-1,9.3-1,10.5v25h-9.2V54.3c0-8.4-1.9-14.3-10.8-14.3
		c-3.8,0-9.2,1.5-12,8c-1.1,2.5-0.7,8.9-0.7,10.1v25h-9.2V34.4h9V41.4z"/>
	<path d="M278.1,189.9v-70.1h25c12,0,22.6,4.7,22.6,18.2c0,7.3-5,13.2-11.8,15.1v0.2c9,1.4,14,9.4,14,18.2c0,8.2-5.3,14.3-12.7,17
		c-3.6,1.4-7.9,1.5-12,1.4H278.1z M287.8,149.3h12c9.2,0.3,15.7-1.4,15.7-10.6c0-9.2-6.5-10.9-15.7-10.6h-12V149.3z M287.8,181.5
		H304c7.5,0,13.7-3.3,13.7-11.9c0-8.6-6.2-11.9-13.7-11.9h-16.2V181.5z"/>
	<path d="M374,141.2h9.2v48.7h-9v-7.2H374c-3.7,6.1-9.9,8.6-16.7,8.6c-10.2,0-16-7.8-16-17.6v-32.6h9.2V170
		c0,8.4,1.9,14.7,10.8,14.7c3.8,0,8.9-1.9,10.9-7c1.7-4.6,1.8-10.3,1.8-11.5V141.2z"/>
	<path d="M415.7,139.7c9.2,0,19.6,3.9,18.9,14.9h-9.7c0.4-6.2-4.4-8.3-9.7-8.3c-5,0-8.9,2.3-8.9,7.8c0,5.4,8.3,5.8,11.8,6.9
		c8.3,2.7,17.8,3.7,17.8,14.7c0,11.9-11.6,15.6-21.6,15.6c-10.2,0-18.7-4.7-18.6-15.9h9.7c0.2,6,4.3,9.2,9.9,9.2
		c5.4,0,11-2.1,11-8.4c0-10.9-29.6-2.7-29.6-21.7C396.5,144.3,406.8,139.7,415.7,139.7z"/>
	<path d="M447.3,119.8h11v10h-11V119.8z M448.2,189.9v-48.7h9.2v48.7H448.2z"/>
	<path d="M482.4,148.3h0.2c3.1-6.1,9.9-8.6,14.8-8.6c3.4,0,18.4,0.9,18.4,16.5v33.7h-9.2v-30.7c0-8.1-3.4-12.4-11.2-12.4
		c0,0-5-0.3-8.9,3.6c-1.4,1.4-3.9,3.5-3.9,13v26.5h-9.2v-48.7h9V148.3z"/>
	<path d="M537.9,167.3c-0.7,8.5,2.8,17.4,12.2,17.4c7.2,0,10.8-2.8,11.8-9.9h9.7c-1.5,11.1-10,16.6-21.6,16.6
		c-15.6,0-21.8-11.1-21.8-25.4c0-14.3,7.2-26.2,22.6-26.2c14.6,0.3,21.5,9.5,21.5,23v4.6H537.9z M562.6,160.9
		c0.2-8.2-3.5-14.5-12.4-14.5c-7.7,0-12.2,6.5-12.2,14.5H562.6z"/>
	<path d="M601.9,139.7c9.2,0,19.6,3.9,18.9,14.9h-9.7c0.4-6.2-4.4-8.3-9.7-8.3c-5,0-8.9,2.3-8.9,7.8c0,5.4,8.3,5.8,11.8,6.9
		c8.3,2.7,17.8,3.7,17.8,14.7c0,11.9-11.6,15.6-21.6,15.6c-10.2,0-18.7-4.7-18.6-15.9h9.7c0.2,6,4.3,9.2,9.9,9.2
		c5.4,0,11-2.1,11-8.4c0-10.9-29.6-2.7-29.6-21.7C582.7,144.3,593,139.7,601.9,139.7z"/>
	<path d="M651.2,139.7c9.2,0,19.6,3.9,18.9,14.9h-9.7c0.4-6.2-4.4-8.3-9.7-8.3c-5,0-8.9,2.3-8.9,7.8c0,5.4,8.3,5.8,11.8,6.9
		c8.3,2.7,17.8,3.7,17.8,14.7c0,11.9-11.7,15.6-21.6,15.6c-10.2,0-18.7-4.7-18.6-15.9h9.7c0.2,6,4.3,9.2,9.9,9.2
		c5.4,0,11-2.1,11-8.4c0-10.9-29.6-2.7-29.6-21.7C632.1,144.3,642.3,139.7,651.2,139.7z"/>
	<path d="M718.1,169.4c0.2,9.9,5.9,13.6,15.3,13.6c8,0,17.7-2.3,17.7-12.1c0-6.8-5.6-9.6-11.5-10.8c-11.6-2.5-30.8-5.1-30.8-20.9
		c0-15.2,13.9-20.9,27-20.9c11.9,0,23.7,5.3,23.7,18.9h-10.2c-0.4-7.9-7-10.6-14-10.6c-6.9,0-16.3,2.5-16.3,10.9
		c0,8,5.6,8.4,11.7,10.4c12.9,4.2,30.5,4.2,30.5,21.8c0,15.9-14.3,21.6-28.4,21.6c-14.7,0-25.3-6.2-24.9-21.9H718.1z"/>
	<path d="M803.1,156.8c-0.5-6.1-3.4-10.4-10-10.4c-8.8,0-12.2,7.7-12.2,19.1c0,11.5,3.4,19.1,12.2,19.1c6.1,0,9.9-4,10.4-11h9.2
		c-0.8,11-8.9,17.7-19.7,17.7c-15.6,0-21.8-11.1-21.8-25.4c0-14.3,7.2-26.2,22.6-26.2c10.3,0,18.1,6.5,18.5,17.1H803.1z"/>
	<path d="M824.4,189.9v-70.1h9.2v27.9h0.2c3.5-5.4,8.7-8,15.8-8c12.7,0,16.7,8.4,16.7,17.2v33h-9.2v-28.8c0-8.5-2.2-14.1-10.9-14.3
		c-3.7-0.1-9.3,2.7-11.1,6.8c-2.1,5-1.6,8.5-1.6,11.3v25H824.4z"/>
	<path d="M927.9,165.5c0,15.1-8.3,25.8-24.3,25.8c-16,0-24.3-10.7-24.3-25.8c0-15.1,8.3-25.8,24.3-25.8
		C919.6,139.7,927.9,150.4,927.9,165.5z M903.6,184.6c11,0,14.6-8.7,14.6-19.1c0-10.4-3.6-19.1-14.6-19.1s-14.6,8.7-14.6,19.1
		C889,175.9,892.6,184.6,903.6,184.6z"/>
	<path d="M986.6,165.5c0,15.1-8.3,25.8-24.3,25.8c-16,0-24.3-10.7-24.3-25.8c0-15.1,8.3-25.8,24.3-25.8
		C978.4,139.7,986.6,150.4,986.6,165.5z M962.3,184.6c11,0,14.6-8.7,14.6-19.1c0-10.4-3.6-19.1-14.6-19.1s-14.6,8.7-14.6,19.1
		C947.8,175.9,951.4,184.6,962.3,184.6z"/>
	<path d="M999.9,189.9v-70.1h9.2v70.1H999.9z"/>
</g>
<g>
	<path d="M309.9,234.7v39.5h-6.8l-20-33.6H283v33.6h-4.9v-39.5h7.5l19.3,32.7h0.1v-32.7H309.9z"/>
	<path d="M345.7,260.5c0,8.5-4.7,14.6-13.7,14.6c-9,0-13.7-6-13.7-14.6c0-8.5,4.7-14.6,13.7-14.6
		C341.1,245.9,345.7,251.9,345.7,260.5z M332.1,271.3c6.2,0,8.2-4.9,8.2-10.8c0-5.9-2-10.8-8.2-10.8s-8.2,4.9-8.2,10.8
		C323.8,266.3,325.9,271.3,332.1,271.3z"/>
	<path d="M354,246.7v-5.9l5.2-1.6v7.5l6.3-0.2v3.9l-6.3-0.1v17.7c0,2,1.5,2.9,3.4,2.9c0.8,0,1.9-0.1,2.7-0.3v4
		c-1.2,0.1-2.4,0.3-3.6,0.3c-1.3,0-2.2-0.1-3.5-0.3c-0.8-0.2-2.2-0.6-3.1-1.8c-0.9-1.3-1.2-1.4-1.2-5.1v-17.5l-4.7,0.1v-3.9
		L354,246.7z"/>
	<path d="M372.2,246.7v-5.9l5.2-1.6v7.5l6.3-0.2v3.9l-6.3-0.1v17.7c0,2,1.5,2.9,3.4,2.9c0.8,0,1.9-0.1,2.7-0.3v4
		c-1.2,0.1-2.4,0.3-3.6,0.3c-1.3,0-2.2-0.1-3.5-0.3c-0.8-0.2-2.2-0.6-3.1-1.8c-0.9-1.3-1.2-1.4-1.2-5.1v-17.5l-4.7,0.1v-3.9
		L372.2,246.7z"/>
	<path d="M389.8,234.7h6.2v5.6h-6.2V234.7z M390.3,274.2v-27.5h5.2v27.5H390.3z"/>
	<path d="M410.5,250.8h0.1c1.8-3.4,5.6-4.9,8.3-4.9c1.9,0,10.4,0.5,10.4,9.3v19h-5.2v-17.3c0-4.5-1.9-7-6.3-7c0,0-2.8-0.2-5,2
		c-0.8,0.8-2.2,2-2.2,7.3v14.9h-5.2v-27.5h5.1V250.8z"/>
	<path d="M457.8,246.7h5.4c-0.2,1.6-0.3,3.3-0.3,4.9V271c0,10.1-4.4,14.2-14.4,14.2c-5.9,0-10.1-2.5-10.2-8.9h5.5
		c0.2,3.7,2.7,5.1,6.4,5.1c7.4,0,7.4-6.1,7.6-12.3h-0.2c-1.6,3.3-5.6,4.7-9,4.7c-8.4,0-11.7-5.9-11.7-13.6c0-7.9,4.4-14.2,12.8-14.2
		c2.7,0,5.6,1.1,7.3,3.6c0.1,0.1,0.8,1.7,0.8,1.3L457.8,246.7z M449.9,270c5.6,0,7.7-4.8,7.7-10.1c0-5.3-2.1-10.1-7.7-10.1
		c-6.1,0-7.7,5.8-7.7,10.1C442.2,264.2,443.8,270,449.9,270z"/>
	<path d="M472.3,274.2v-39.5h5.2v15.7h0.1c2-3.1,4.9-4.5,8.9-4.5c7.2,0,9.4,4.8,9.4,9.7v18.6h-5.2V258c0-4.8-1.3-7.9-6.1-8
		c-2.1-0.1-5.3,1.5-6.2,3.8c-1.2,2.8-0.9,4.8-0.9,6.3v14.1H472.3z"/>
	<path d="M521.8,257.3c0-4.8-0.3-7.6-5.8-7.6c-2.6,0-5.1,1.5-5.1,4.4h-5.5c0.3-6,5-8.2,10.4-8.2c5.6,0,11.2,1.7,11.2,9.4v13.1
		c0,1.2,0.1,3.5,0.2,5.8h-3.5c-0.5,0-1.4,0.3-1.5-0.4c-0.1-1.3-0.2-2.5-0.3-3.7h-0.1c-1.7,3.4-4.8,4.9-8.5,4.9
		c-4.8,0-9.6-2.5-9.6-7.8c0-7.7,6.8-10,13.4-10H521.8z M516.6,260.9c-3.2,0.2-7.4,1.3-7.4,5.3c0,3.4,2.4,5.1,5.4,5.1
		c6.1,0,7.3-5.3,7.2-10.4H516.6z"/>
	<path d="M541.2,250.7h0.1c1.6-3.4,5-4.8,7.8-4.8c5.2,0,8.3,1.8,9.7,5.1c2-3.4,5.1-5.1,9.1-5.1c6.3,0,10.2,4,10.2,8.9v19.4H573V258
		c0-3.8-0.5-8-6.6-8c-1.6,0-5.1,0.9-6.1,4.3c-0.7,2.5-0.5,5.3-0.5,5.9v14.1h-5.2V258c0-4.8-1.1-8-6.1-8c-2.1,0-5.2,0.8-6.8,4.5
		c-0.6,1.4-0.4,5-0.4,5.7v14.1h-5.2v-27.5h5.1V250.7z"/>
	<path d="M612.2,239.4h-13.2v-4.7h32v4.7h-13.2v34.8h-5.5V239.4z"/>
	<path d="M636.9,274.2h-5.2v-27.5h5.2v5.3h0.1c0.8-3.8,4.3-5.7,8-5.7c0.7,0,1.2,0.1,1.8,0.1v4.9c-0.7-0.3-1.5-0.3-2.2-0.3
		c-6.6,0.2-7.7,3.7-7.7,9.5V274.2z"/>
	<path d="M656.1,261.5c-0.4,4.8,1.6,9.8,6.9,9.8c4.1,0,6.1-1.6,6.7-5.6h5.5c-0.8,6.2-5.6,9.4-12.2,9.4c-8.8,0-12.3-6.2-12.3-14.3
		c0-8,4-14.8,12.8-14.8c8.2,0.2,12.1,5.4,12.1,13v2.6H656.1z M670,257.9c0.1-4.6-2-8.2-7-8.2c-4.3,0-6.9,3.7-6.9,8.2H670z"/>
	<path d="M688.3,250.8h0.1c1.8-3.4,5.6-4.9,8.3-4.9c1.9,0,10.4,0.5,10.4,9.3v19H702v-17.3c0-4.5-1.9-7-6.3-7c0,0-2.8-0.2-5,2
		c-0.8,0.8-2.2,2-2.2,7.3v14.9h-5.2v-27.5h5.1V250.8z"/>
	<path d="M717,246.7v-5.9l5.2-1.6v7.5l6.3-0.2v3.9l-6.3-0.1v17.7c0,2,1.5,2.9,3.4,2.9c0.8,0,1.9-0.1,2.7-0.3v4
		c-1.2,0.1-2.4,0.3-3.6,0.3c-1.3,0-2.2-0.1-3.5-0.3c-0.8-0.2-2.2-0.6-3.1-1.8c-0.9-1.3-1.2-1.4-1.2-5.1v-17.5l-4.7,0.1v-3.9
		L717,246.7z"/>
	<path d="M782.5,258.6c0.2,10.2-5.2,16.5-15.9,16.5c-10.7,0-16.1-6.3-15.9-16.5v-23.9h5.5v25.2c0.2,6.8,4.2,10.5,10.5,10.5
		c6.2,0,10.3-3.7,10.5-10.5v-25.2h5.5V258.6z"/>
	<path d="M797.8,250.8h0.1c1.8-3.4,5.6-4.9,8.3-4.9c1.9,0,10.4,0.5,10.4,9.3v19h-5.2v-17.3c0-4.5-1.9-7-6.3-7c0,0-2.8-0.2-5,2
		c-0.8,0.8-2.2,2-2.2,7.3v14.9h-5.2v-27.5h5.1V250.8z"/>
	<path d="M825.8,234.7h6.2v5.6h-6.2V234.7z M826.3,274.2v-27.5h5.2v27.5H826.3z"/>
	<path d="M848.9,274.2l-11.5-27.5h5.7l8.8,21.8l8.5-21.8h5.7l-12,27.5H848.9z"/>
	<path d="M875.2,261.5c-0.4,4.8,1.6,9.8,6.9,9.8c4.1,0,6.1-1.6,6.7-5.6h5.5c-0.8,6.2-5.6,9.4-12.2,9.4c-8.8,0-12.3-6.2-12.3-14.3
		c0-8,4-14.8,12.8-14.8c8.2,0.2,12.1,5.4,12.1,13v2.6H875.2z M889.1,257.9c0.1-4.6-2-8.2-7-8.2c-4.3,0-6.9,3.7-6.9,8.2H889.1z"/>
	<path d="M907.7,274.2h-5.2v-27.5h5.2v5.3h0.1c0.8-3.8,4.3-5.7,8-5.7c0.7,0,1.2,0.1,1.8,0.1v4.9c-0.7-0.3-1.5-0.3-2.2-0.3
		c-6.6,0.2-7.7,3.7-7.7,9.5V274.2z"/>
	<path d="M932.4,245.9c5.2,0,11.1,2.2,10.7,8.4h-5.5c0.2-3.5-2.5-4.7-5.5-4.7c-2.8,0-5,1.3-5,4.4c0,3.1,4.7,3.3,6.7,3.9
		c4.7,1.5,10,2.1,10,8.3c0,6.7-6.6,8.8-12.2,8.8c-5.7,0-10.6-2.6-10.5-9h5.5c0.1,3.4,2.4,5.2,5.6,5.2c3.1,0,6.2-1.2,6.2-4.8
		c0-6.1-16.7-1.5-16.7-12.3C921.6,248.5,927.4,245.9,932.4,245.9z"/>
	<path d="M950.6,234.7h6.2v5.6h-6.2V234.7z M951.1,274.2v-27.5h5.2v27.5H951.1z"/>
	<path d="M966.5,246.7v-5.9l5.2-1.6v7.5l6.3-0.2v3.9l-6.3-0.1v17.7c0,2,1.5,2.9,3.4,2.9c0.8,0,1.9-0.1,2.7-0.3v4
		c-1.2,0.1-2.4,0.3-3.6,0.3c-1.3,0-2.2-0.1-3.5-0.3c-0.8-0.2-2.2-0.6-3.1-1.8c-0.9-1.3-1.2-1.4-1.2-5.1v-17.5l-4.7,0.1v-3.9
		L966.5,246.7z"/>
	<path d="M993,284.7h-5.3l4.2-10.6l-11.4-27.4h5.8l8.6,21.7l8.8-21.7h5.6L993,284.7z"/>
</g>
<line class="st1" x1="278.1" y1="215.7" x2="1009.1" y2="215.7"/>
</svg>
