<?xml version="1.0" encoding="utf-8"?>
<!-- Generator: Adobe Illustrator 27.8.1, SVG Export Plug-In . SVG Version: 6.00 Build 0)  -->
<svg version="1.1" id="Layer_1" xmlns="http://www.w3.org/2000/svg" xmlns:xlink="http://www.w3.org/1999/xlink" x="0px" y="0px"
	 viewBox="0 0 1013 213.7" style="enable-background:new 0 0 1013 213.7;" xml:space="preserve">
<style type="text/css">
	.st0{fill:#1E1E1C;}
	.st1{fill:url(#SVGID_1_);}
	.st2{fill:url(#SVGID_00000091012643421854047380000014113412326808267967_);}
	.st3{fill:#FFFFFF;}
	.st4{fill:#A5A5A4;}
	.st5{fill:url(#SVGID_00000114792319282834428070000001601035973489782941_);}
	.st6{fill:url(#SVGID_00000056429109153938558830000002058700850033707959_);}
	.st7{fill:url(#SVGID_00000031199896160200688030000013702650391942069681_);}
	.st8{fill:url(#SVGID_00000085218262850609609030000008537904084275091844_);}
</style>
<g id="Aber_Uni">
	<path class="st0" d="M231,105.9l-23.7-61.2c-1.8-4.6-2.4-5.3-3.3-5.3c-0.9,0-1.5,0.9-3.3,5.8L167,136.7c-2.7,7.4-5.6,13-12.5,13.9
		c-1.2,0.1-3.3,0.3-4.3,0.3c-0.7,0-1.3,0.3-1.3,0.9c0,0.9,0.9,1.2,2.8,1.2c7,0,15.2-0.5,16.8-0.5c1.6,0,8,0.5,11.6,0.5
		c1.3,0,2.2-0.3,2.2-1.2c0-0.6-0.4-0.9-1.5-0.9h-1.5c-2.5,0-5.7-1.3-5.7-4.3c0-2.6,0.7-6.2,2.1-9.9l8.9-26.1
		c0.3-0.7,0.7-1.2,1.5-1.2h32c0.7,0,1,0.3,1.3,0.9l0.2,0.6c12.1,32.1,24.5,78.7,97.8,88.8l0.4,0C260.2,189.4,245.3,140.4,231,105.9z
		 M216.2,104.2h-28.4c-0.4,0-0.7-0.3-0.4-1l13.1-39.8c0.7-2.2,1.5-2.2,2.2,0l14.1,39.8C217,103.7,217,104.2,216.2,104.2z"/>
	<g>
		<path class="st0" d="M704.6,199.3c0,4.3-0.2,9.5-8.3,9.5c-8.1,0-8.3-5.2-8.3-9.5v-17.5h-6.2v17.7c0,5.1,0.2,14.2,14.5,14.2
			c14.4,0,14.6-9.1,14.6-14.2v-17.7h-6.2V199.3z"/>
		<polygon class="st0" points="745.7,205.1 745.7,205.1 728,181.8 720.8,181.8 720.8,212.8 726.8,212.8 726.8,189.6 726.9,189.6 
			744.7,212.8 751.7,212.8 751.7,181.8 745.7,181.8 		"/>
		<rect x="763.9" y="181.8" class="st0" width="6.2" height="31"/>
		<polygon class="st0" points="793.3,206.7 783.6,181.8 776.6,181.8 789.9,212.8 796.5,212.8 809.5,181.8 802.8,181.8 		"/>
		<polygon class="st0" points="822.3,199.4 841,199.4 841,194.5 822.3,194.5 822.3,186.7 841.8,186.7 841.8,181.8 816.1,181.8 
			816.1,212.8 842.2,212.8 842.2,208 822.3,208 		"/>
		<path class="st0" d="M876.9,197.8L876.9,197.8c2.8-1,4.9-3.5,4.9-7.6c0-4.8-2.5-8.4-10-8.4H853v31h6.2v-12.2h10.6
			c4.6,0,5.2,3.1,5.2,7.6c0,2.3,0.3,3.8,0.7,4.7h6.7c-1.2-1.7-1.2-5.2-1.2-6.6C881.2,201.8,880.4,198.6,876.9,197.8z M870,195.7
			h-10.8v-9H870c3.3,0,5.3,1.3,5.3,4.5C875.3,194.6,873.4,195.7,870,195.7z"/>
		<path class="st0" d="M897.8,190.1c0-2.9,2.7-4.3,6.9-4.3c5.2,0,7.3,2.6,7.5,5h6.7c-0.8-9-9.9-9.9-14.5-9.9
			c-7.2,0-13.1,2.7-13.1,9.6c0,12.7,21.9,6,21.9,13.7c0,3.4-3.5,4.6-7.3,4.6c-5.1,0-8.4-2-8.5-6h-6.7c0.1,6.5,4.4,10.9,15.1,10.9
			c6.3,0,14.3-2.1,14.3-10.1C920,190.4,897.8,197.4,897.8,190.1z"/>
		<rect x="929.8" y="181.8" class="st0" width="6.2" height="31"/>
		<polygon class="st0" points="943.3,186.7 954.4,186.7 954.4,212.8 960.7,212.8 960.7,186.7 971.8,186.7 971.8,181.8 943.3,181.8 
					"/>
		<polygon class="st0" points="991.7,195.6 983.3,181.8 975.7,181.8 988.6,201 988.6,212.8 994.9,212.8 994.9,201 1007.8,181.8 
			1000.2,181.8 		"/>
		<path class="st0" d="M269.9,28H282c6.7,0,9.6-4.8,9.6-9.5c0-5-2.4-9.6-9.6-9.6h-18.3v31h6.2V28z M269.9,13.7h10.5c2.4,0,5,1,5,4.8
			c0,3.7-1.9,4.7-5.4,4.7h-10V13.7z"/>
		<path class="st0" d="M328.4,33.2c0-4.4-0.8-7.6-4.3-8.4v-0.1c2.8-0.9,4.9-3.4,4.9-7.5c0-4.8-2.5-8.4-10-8.4h-18.8v31h6.2V27.6H317
			c4.6,0,5.2,3.1,5.2,7.6c0,2.3,0.3,3.8,0.7,4.7h6.7C328.4,38.1,328.4,34.7,328.4,33.2z M317.2,22.7h-10.8v-9h10.8
			c3.3,0,5.3,1.3,5.3,4.5C322.5,21.7,320.6,22.7,317.2,22.7z"/>
		<rect x="342.1" y="8.9" class="st0" width="6.2" height="31"/>
		<polygon class="st0" points="368.7,26.4 386.1,26.4 386.1,21.5 368.7,21.5 368.7,13.7 387.1,13.7 387.1,8.9 362.4,8.9 362.4,39.8 
			368.7,39.8 		"/>
		<polygon class="st0" points="404.7,39.8 411,39.8 411,28 423.9,8.9 416.3,8.9 407.8,22.7 399.4,8.9 391.8,8.9 404.7,28 		"/>
		<path class="st0" d="M443.8,35.8c-5.1,0-8.4-2-8.5-6h-6.7c0.1,6.5,4.4,10.9,15,10.9c6.3,0,14.3-2.1,14.3-10.1
			c0-13.2-22.1-6.3-22.1-13.5c0-2.9,2.7-4.3,6.9-4.3c5.2,0,7.3,2.6,7.5,5h6.7c-0.8-9-9.9-9.9-14.5-9.9c-7.2,0-13.1,2.7-13.1,9.6
			c0,12.7,21.9,6,21.9,13.7C451.1,34.7,447.6,35.8,443.8,35.8z"/>
		<path class="st0" d="M483.5,40.7c4.7,0,8.9-1.9,11.3-4.9l0.9,4h3.7v-17h-14.6v4.9h8.4c-1,5.1-3.9,8.2-10.3,8.2
			c-5.2,0-10.3-3-10.3-11.3c0-6.8,2.9-11.7,10.6-11.7c4,0,7.8,1.8,8.9,6h6.7C498.2,12.8,492.4,8,483.4,8c-12.1,0-17.3,7.6-17.3,16.4
			C466.1,33.1,471,40.7,483.5,40.7z"/>
		<path class="st0" d="M525.4,40.7c12.6,0,17.5-7.6,17.5-16.4c0-8.7-4.9-16.4-17.5-16.4c-12.6,0-17.5,7.6-17.5,16.4
			C507.9,33.1,512.8,40.7,525.4,40.7z M525.4,12.8c7,0,11,4.7,11,11.5c0,6.8-4,11.5-11,11.5c-7,0-11-4.7-11-11.5
			C514.4,17.5,518.4,12.8,525.4,12.8z"/>
		<polygon class="st0" points="575.7,34.7 557.6,34.7 557.6,8.9 551.4,8.9 551.4,39.8 575.7,39.8 		"/>
		<path class="st0" d="M293.1,105.6c5.9-5.2,11.7-10.7,11.7-19.4c0-5.9-5-16.9-24.3-16.9c-5.4,0-10.8,0.3-13.5,0.3
			c-0.7,0-8.1-0.3-13.4-0.3c-1.3,0-1.8,0.3-1.8,0.9c0,0.4,0.5,0.7,0.9,0.7c1,0,3,0.1,3.9,0.3c3.8,0.5,4.5,2.6,4.7,6.4
			c0.3,3.5,0.3,6.6,0.3,23.8v19.5c0,10.7,0,19.4-0.7,24c-0.5,3.3-0.8,5.7-3,6.1c-1,0.1-2.5,0.5-3.5,0.5c-0.7,0-0.9,0.3-0.9,0.7
			c0,0.7,0.7,0.9,1.8,0.9c1.8,0,4.6-0.1,7-0.3c2.4,0,4.5-0.1,4.7-0.1c0.5,0,3.8,0.1,7.5,0.3c3.7,0.2,7.9,0.4,10,0.4
			c19.7,0,29-12.2,29-24.6C313.4,116.1,301.9,108.2,293.1,105.6z M271.5,74.4c0-0.6,0.4-0.9,1.4-1.2c1.8-0.4,4.6-0.5,5.9-0.5
			c11.6,0,16.3,9.4,16.3,17.8c0,5.3-2,9.1-4.5,11.9c-2.4,2.6-4.9,2.9-11.3,2.9c-4.3,0-6.4-0.4-7.1-0.5c-0.5-0.1-0.8-0.4-0.8-1.2
			V74.4z M285.7,149.3c-2.1,0-7-0.1-10.1-1.6c-3.5-1.7-3.5-3-3.9-8.3c-0.1-1.7-0.1-15-0.1-23.6v-6.1c0-0.5,0.3-0.8,0.7-0.8
			c1.8,0,7.6,0,9.1,0.3c2.8,0.5,6.4,0.4,10.4,2.9c9.1,5.7,11,15.2,11,20.2C302.7,146.5,293.3,149.3,285.7,149.3z"/>
		<path class="st0" d="M338.9,152.6c1.7,0,4.7,0,9.6,0.3c4.7,0.1,11.4,0.4,20.1,0.4c4.5,0,5.6,0,6.4-2.9c0.7-2.3,1.6-9.9,1.6-10.7
			c0-0.8-0.1-1.7-0.8-1.7c-0.7,0-0.9,0.4-1.2,1.7c-0.7,4.4-2.2,6.4-5.3,7.7c-3,1.2-8.5,1.2-11.5,1.2c-11.4,0-13.5-1.4-13.8-8.8
			c-0.1-2.2,0-15.1,0-18.9v-9.2c0-0.4,0.1-0.8,0.8-0.8c2,0,14.3,0.1,17.5,0.5c4.5,0.5,5.5,1.8,5.9,3.4c0.5,1.4,0.5,2.6,0.5,3.7
			c0,0.7,0.3,1,0.8,1c0.8,0,1-1.2,1-2.1c0-0.8,0.3-4.9,0.5-7.2c0.3-3.6,0.9-5.5,0.9-6.1c0-0.6-0.3-0.9-0.6-0.9
			c-0.4,0-0.9,0.7-1.7,1.4c-1.2,1.2-2.9,1.3-5.6,1.6c-2.6,0.3-17.9,0.3-19.3,0.3c-0.7,0-0.7-0.4-0.7-1.2V75.1c0-0.8,0.1-1.2,0.7-1.2
			c1.3,0,14.7,0.1,16.7,0.4c6.3,0.8,7.5,1.6,8.3,3.4c0.5,1.3,0.7,3.1,0.7,3.9c0,0.9,0.3,1.4,0.9,1.4c0.5,0,0.9-0.7,1.1-1.2
			c0.3-1.3,0.5-6.2,0.7-7.3c0.3-3.1,0.9-4.4,0.9-5.2c0-0.5-0.1-1-0.5-1c-0.5,0-1.1,0.4-1.6,0.5c-0.9,0.1-3,0.5-5.2,0.7
			c-2.6,0.1-26.8,0-27.6,0c-0.7,0-8.1-0.3-13.4-0.3c-1.3,0-1.8,0.3-1.8,0.9c0,0.4,0.5,0.9,0.9,0.9c1.1,0,3,0.1,3.9,0.3
			c3.8,0.5,4.5,2.3,4.7,6.1c0.3,3.5,0.3,6.6,0.3,23.8v19.5c0,10.7,0,19.4-0.7,24c-0.5,3.3-0.8,5.5-3,5.9c-1.1,0.1-2.5,0.5-3.5,0.5
			c-0.7,0-0.9,0.5-0.9,0.9c0,0.7,0.7,0.9,1.8,0.9c1.8,0,4.5-0.1,6.7-0.3C336.4,152.6,338.7,152.6,338.9,152.6z"/>
		<path class="st0" d="M388,71c1,0,3,0.1,3.9,0.3c3.8,0.5,4.5,2.3,4.7,6.1c0.3,3.5,0.3,6.6,0.3,23.8v19.5c0,10.7,0,19.4-0.7,23.9
			c-0.5,3.2-0.8,5.3-3,5.9c-1.1,0.3-2.5,0.5-3.5,0.5c-0.7,0-0.9,0.5-0.9,0.9c0,0.6,0.7,0.9,1.8,0.9c3.5,0,11.3-0.4,11.4-0.4
			c0.5,0,7.9,0.4,14.2,0.4c1.3,0,1.8-0.4,1.8-0.9c0-0.4-0.1-0.9-0.9-0.9c-1.1,0-3.5-0.3-5.1-0.5c-3.5-0.5-4.2-2.6-4.6-5.9
			c-0.5-4.5-0.5-13.1-0.5-23.8v-2.6c0-0.7,0.3-0.9,0.8-0.9l14.7,0.3c0.8,0,1.1,0.1,1.6,0.7c2.5,3,7.6,10.1,12.4,16.1
			c6.6,8.3,10.8,13.6,15.7,16.2c2.9,1.6,5.8,2.2,12.3,2.2h20l0,0c3.6,0,10.4-0.2,10.9-0.2c0.7,0,8.1,0.4,14.6,0.4
			c1.2,0,1.8-0.4,1.8-0.9c0-0.4-0.3-0.9-0.9-0.9c-1,0-3.7-0.3-5.3-0.5c-3.4-0.5-4.2-2.6-4.5-5.9c-0.4-4.6-0.4-9.2-0.4-11.1v-9.5
			c0-3.6-0.5-7.2,1.4-11.1c2.4-4.7,18.6-30.7,22.5-35.2c2.5-3,3.5-4.2,5.8-5.5c1.8-1,4.1-1.4,5.4-1.4c0.9,0,1.4-0.6,1.4-1.2
			c0-0.4-0.7-0.6-1.4-0.6c-2.2,0-10.5,0.3-11.3,0.3c-0.9,0-5-0.3-8-0.3c-1.2,0-1.8,0.3-1.8,0.6c0,0.5,0.7,1,1.7,1.3
			c1.3,0.4,1.8,1.3,1.8,2.9c0,1.4-0.5,3.3-2,5.7c-2.1,3.6-16.5,27.3-18.9,32l-21-34.5c-0.8-1.4-1.6-2.7-1.6-4.3
			c0-0.9,0.5-1.4,1.4-1.8c1.1-0.4,1.8-0.8,1.8-1.2c0-0.5-0.3-0.8-1.6-0.8c-4.5,0-9.2,0.3-10,0.3c-0.5,0-9.2-0.3-11.4-0.3
			c-1.1,0-1.4,0.3-1.4,0.8c0,0.5,0.5,1,1.2,1c0.9,0,3.2,0.5,4.9,1.6c2.1,1.4,4.9,3.9,7.6,8.1c3.9,5.9,19.6,30.5,20.5,32.2
			c1.7,3.1,2.5,5.3,2.5,11.3v9.5c0,1.8,0,6.5-0.3,11.1c-0.3,3.3-1.3,5.6-3.4,5.9c-2.1,0.3-3.8,0.3-3.8,0.3l0,0c-2,0-11.5,0-13.5-0.3
			c-2.9-0.4-6.7-1.4-12.8-7.7c-6.7-6.9-14.7-16.9-24.1-28.6c10.7-9.1,14.2-17,14.2-25.2c0-7.7-5.1-13-8-15.1
			c-6-4.2-14.2-4.8-21.5-4.8c-3.5,0-13.2,0.3-14.4,0.3c-0.7,0-8.4-0.3-13.6-0.3c-1.3,0-1.8,0.3-1.8,0.9C387.1,70.5,387.6,71,388,71z
			 M406.9,75c0-0.6,0.4-1,0.9-1.3c1.2-0.3,4.8-0.7,8.2-0.7c12.3,0,19.9,7.9,19.9,21.7c0,8.4-3,14.3-6.9,16.9c-2.7,1.8-5.9,2-8.6,2
			c-5.1,0-11-0.8-12.7-1.7c-0.5-0.4-0.8-0.8-0.8-1.4V75z"/>
		<path class="st0" d="M562.9,67.5c-15.2,0-25.6,7.8-25.6,20.8c0,7.7,4.1,14.5,16.5,23.7l5.3,3.9c10.2,7.6,14.6,11.3,14.6,19.3
			c0,8.3-5.9,14.7-17.3,14.7c-7.7,0-16.4-2.9-18.3-10.9c-0.4-1.6-0.4-3.1-0.4-4.1c0-0.9-0.4-1.3-1.1-1.3c-0.7,0-0.9,0.7-0.9,1.8
			c-0.1,1.8-0.7,6.3-0.7,11.7c0,3,0.1,3.4,1.7,4.2c4.7,2.2,11.4,3,16.8,3c6.3,0,13.5-0.8,18.4-3.9c8.3-5.3,10.8-12.4,10.8-18.9
			c0-9.5-4.9-17.2-18.9-26.7l-3.3-2.2c-11.4-7.7-15-11.7-15-18.8c0-7.8,7-12,15.4-12c10.4,0,14.2,4.2,15,5.5
			c0.7,1.2,1.6,4.2,1.7,5.5c0.1,0.9,0.3,1.4,1,1.4c0.8,0,0.9-0.8,0.9-2.5c0-7.5,0.5-11.2,0.5-11.7c0-0.6-0.3-0.8-1.2-0.8
			c-0.9,0-1.8,0-4.1-0.5C572.1,68.2,567.5,67.5,562.9,67.5z"/>
		<path class="st0" d="M651.3,69.5l-12.1,0h-33.1l-15.4,0l0,0h0c-0.1,0.9-2.5,11.1-2.5,12.2c0,0.6,0.5,0.9,0.8,0.9c0,0,0,0,0,0
			c0,0,0,0,0,0c0.5,0,0.9-0.1,1.2-1c0.4-0.8,0.5-1.6,1.8-3.5c1.7-2.6,4.5-3.4,11.7-3.5l11.4-0.3v46.5c0,10.7,0,19.4-0.5,24
			c-0.4,3.3-1.1,5.5-3.4,6c-1,0.3-2.4,0.5-3.4,0.5c-0.7,0-0.9,0.4-0.9,0.8c0,0.7,0.5,0.9,1.8,0.9c0,0,0,0,0,0c0,0,0,0,0,0
			c3.4,0,11.3-0.4,11.9-0.4c0.7,0,8,0.4,14.3,0.4c0,0,0,0,0,0c0,0,0,0,0,0c1.3,0,1.8-0.4,1.8-0.9c0-0.4-0.1-0.9-0.9-0.9
			c-1,0-3.7-0.3-5.3-0.5c-3.5-0.5-4.1-2.6-4.5-5.9c-0.5-4.6-0.5-13.3-0.5-24V74.3l9.2,0.3c11,0.3,13.5,2.7,13.9,6.1l0.1,1.2
			c0.1,1.6,0.4,1.9,0.9,1.9c0,0,0,0,0,0c0,0,0,0,0,0c0.5,0,1.1-0.5,1.1-1.4C650.9,81.1,651.3,72.9,651.3,69.5L651.3,69.5L651.3,69.5
			z"/>
		<path class="st0" d="M1012,151.1c-0.9,0-3.5-0.3-5.1-0.5c-3.5-0.5-3.8-2.6-4.2-5.9c-0.5-4.6-0.7-13.3-0.7-24v-19.5
			c0-17.2,0-20.3,0.3-23.8c0.3-3.9,0.9-5.5,3.9-6.1c1.4-0.3,2.1-0.3,2.9-0.3c0.5,0,1-0.5,1-0.9c0-0.6-0.7-0.9-2-0.9
			c-3.4,0-10.8,0.3-11.4,0.3c-0.5,0-8-0.3-13.1-0.3c-1.3,0-1.8,0.3-1.8,0.9c0,0.4,0.4,0.9,0.9,0.9c1.1,0,3,0.1,3.9,0.3
			c3.8,0.5,4.3,2.3,4.6,6.1c0.1,3.5,0.3,6.9,0.3,24.1v2.3c0,0.7-0.3,0.7-0.7,0.7h-48.2c-0.4,0-0.7,0-0.7-0.7v-2.3
			c0-17.2,0-20.6,0.1-24.1c0.3-3.9,0.9-5.5,4.1-6.1c1.3-0.3,2.1-0.3,2.9-0.3c0.4,0,0.9-0.5,0.9-0.9c0-0.6-0.5-0.9-1.8-0.9
			c-3.5,0-10.9,0.3-11.4,0.3c-0.7,0-8-0.3-13.3-0.3c-1.3,0-1.8,0.3-1.8,0.9c0,0.4,0.5,0.9,0.9,0.9c1,0,3,0.1,3.9,0.3
			c3.8,0.5,4.5,2.3,4.7,6.1c0.3,3.5,0.3,6.6,0.3,23.8v19.5c0,10.7,0,19.4-0.7,24c-0.5,3.3-0.8,5.3-3,5.9c-1,0.3-2.5,0.5-3.5,0.5
			c-0.7,0-0.9,0.5-0.9,0.9c0,0.7,0.7,0.9,1.8,0.9c3.5,0,10.9-0.4,11.6-0.4c0.5,0,7.9,0.4,14.3,0.4c1.3,0,1.8-0.4,1.8-0.9
			c0-0.4-0.3-0.9-0.9-0.9c-1.1,0-3.5-0.3-5.2-0.5c-3.4-0.5-3.8-2.6-4.2-5.9c-0.5-4.6-0.5-13-0.5-23.7V110c0-0.5,0.3-0.7,0.7-0.7
			h48.2c0.4,0,0.7,0.1,0.7,0.7v11.1c0,10.7,0,19-0.5,23.6c-0.4,3.3-0.8,5.5-3.1,6c-1,0.3-2.4,0.5-3.4,0.5c-0.7,0-0.9,0.5-0.9,0.9
			c0,0.7,0.5,0.9,1.8,0.9c3.4,0,10.9-0.4,11.4-0.4c0.7,0,8,0.4,14.3,0.4c1.3,0,2-0.4,2-0.9C1013,151.7,1012.8,151.1,1012,151.1z"/>
		<path class="st0" d="M903.3,152c0-0.4-0.1-0.9-0.9-0.9c-1,0-3.7-0.3-5.2-0.5c-3.5-0.5-4.1-2.6-4.5-5.9c-0.5-4.6-0.5-13.3-0.5-24
			V74.3l9.2,0.3c11,0.3,13.5,2.7,13.9,6.1l0.1,1.2c0.1,1.6,0.4,1.9,0.9,1.9c0.5,0,1.1-0.5,1.1-1.4c0-1.3,0.4-9.5,0.4-12.9l-12.1,0
			h-33.1l-15.4,0c-0.1,0.9-2.5,11.1-2.5,12.2c0,0.6,0.5,0.9,0.8,0.9c0.5,0,0.9-0.1,1.2-1c0.4-0.8,0.5-1.6,1.8-3.5
			c1.7-2.6,4.5-3.4,11.7-3.5l11.4-0.3v46.5c0,10.7,0,19.4-0.5,24c-0.4,3.3-1.1,5.5-3.4,6c-1,0.3-2.4,0.5-3.4,0.5
			c-0.7,0-0.9,0.4-0.9,0.8c0,0.7,0.5,0.9,1.8,0.9c3.4,0,11.4-0.4,11.9-0.4c0.7,0,8,0.4,14.3,0.4C902.8,153,903.3,152.6,903.3,152z"
			/>
		<path class="st0" d="M854.2,69.9c0-0.4-0.7-0.6-1.4-0.6c-2.2,0-10.5,0.3-11.3,0.3c-0.9,0-5-0.3-8-0.3c-1.2,0-1.8,0.3-1.8,0.6
			c0,0.5,0.7,1,1.7,1.3c1.3,0.4,1.8,1.3,1.8,2.9c0,1.4-0.5,3.3-2,5.7c-2.1,3.6-16.5,27.3-18.9,32l-21-34.5c-0.8-1.4-1.6-2.7-1.6-4.3
			c0-0.9,0.5-1.4,1.4-1.8c1.1-0.4,1.8-0.8,1.8-1.2c0-0.5-0.3-0.8-1.6-0.8c-4.5,0-9.2,0.3-10,0.3l0,0c-0.3,0-3.2,0.1-5.8,0.1
			c-2.7,0-5.2-0.1-5.2-0.1l0,0l0,0c-1.1,0-5.9-0.3-11.8-0.3c-1.4,0-2,0.3-2,0.8c0,0.4,0.4,1,1,1c5.3,0,6.2,1.3,6.2,3.3
			c0,1.4-0.1,2.7-1.3,6.9c-4.1,14.2-14.4,46.2-17.3,55.3h-0.5l-22.6-61.7c-1.4-3.8-2.4-5.2-3.1-5.2c-0.7,0-1.5,0.6-3.2,5.1
			l-24.1,61.8h-0.3c-1.4-4.6-13.3-45.2-15.1-52.2c-1.3-5-2.2-8.9-2.2-10.3c0-1.4,0.8-2.1,1.6-2.3c1.3-0.7,3.2-0.7,4.1-0.7
			c0.5,0,1.2-0.4,1.2-1c0-0.5-0.5-0.8-2.1-0.8c-5.8,0-11,0.3-12.1,0.3c-1.2,0-5.9-0.3-11.9-0.3c-1,0-1.8,0.3-1.8,0.8
			c0,0.7,0.5,1,1.1,1c0.8,0,1.9,0.1,3.5,0.7c3,1,4.2,2.5,6,8.3l20.5,65.6c2.4,7.6,3.3,8.7,4.5,8.7c1.3,0,2.1-1.2,4.1-5.9
			c4.2-10.3,19.8-50.8,23.8-60.4l22.6,60.5c1.6,4.3,2.6,5.7,3.8,5.7c1.3,0,2-1.3,5-9.5c4.6-12.4,16-47.5,21.1-61.6
			c1.4-3.7,2.6-6.8,4.1-9l0,0c0.5-0.7,0.9-1,1.6-1.2c0.3-0.1,0.9-0.1,1.4,0c1,0.3,2,0.8,6.3,7.5c3.8,5.9,19.6,30.5,20.5,32.2
			c1.7,3.1,2.5,5.3,2.5,11.3v9.5c0,1.8,0,6.5-0.3,11.1c-0.3,3.3-1,5.3-3.4,5.9c-1,0.3-2.4,0.5-3.4,0.5c-0.7,0-0.9,0.5-0.9,0.9
			c0,0.7,0.5,0.9,1.8,0.9c3.4,0,10.8-0.4,11.3-0.4c0.7,0,8.1,0.4,14.6,0.4c1.2,0,1.8-0.4,1.8-0.9c0-0.4-0.3-0.9-0.9-0.9
			c-1.1,0-3.7-0.3-5.3-0.5c-3.4-0.5-4.2-2.6-4.5-5.9c-0.4-4.6-0.4-9.2-0.4-11.1v-9.5c0-3.6-0.5-7.2,1.4-11.1
			c2.4-4.7,18.6-30.7,22.5-35.2c2.5-3,3.5-4.2,5.8-5.5c1.8-1,4.1-1.4,5.4-1.4C853.7,71.1,854.2,70.4,854.2,69.9z"/>
		<path class="st0" d="M333.7,200.7c76.4-1.6,94.8-15.1,151.1-15.1c59.8,0,156.7,25.1,156.7,25.1S554.4,176,484.8,176
			C418.2,176,387.1,198.7,333.7,200.7z"/>
	</g>
</g>
<g id="Crest">
	<linearGradient id="SVGID_1_" gradientUnits="userSpaceOnUse" x1="2.6396" y1="101.5025" x2="146.0732" y2="101.5025">
		<stop  offset="0" style="stop-color:#F1DE9C"/>
		<stop  offset="0.5" style="stop-color:#FDF3D2"/>
		<stop  offset="1" style="stop-color:#F1DE9C"/>
	</linearGradient>
	<path class="st1" d="M2.6,60.7v55.5c1.6,16.3,6.6,30.3,13.2,42.1c5.1-7.1,25.1-33.3,57.7-51.4l0.5-0.3l0.5,0.3
		c33.4,18.5,53.5,45.5,58,51.9c6.8-11.8,11.8-25.9,13.5-42.4V60.7c-2.9-2.6-6.8-4.9-11.6-6.9c-5-2.1-10.8-3.9-17.3-5.3
		c-12.9-2.8-28-4.3-43.1-4.3c-22.7,0-45.4,3.2-60.1,9.5C9.3,55.8,5.5,58.1,2.6,60.7z"/>
	
		<linearGradient id="SVGID_00000081635384330590809770000005772923756209397420_" gradientUnits="userSpaceOnUse" x1="17.0009" y1="159.8707" x2="131.453" y2="159.8707">
		<stop  offset="0" style="stop-color:#58A132"/>
		<stop  offset="0.33" style="stop-color:#94C04E"/>
		<stop  offset="0.66" style="stop-color:#78B13F"/>
		<stop  offset="1" style="stop-color:#58A132"/>
	</linearGradient>
	<path style="fill:url(#SVGID_00000081635384330590809770000005772923756209397420_);" d="M61.5,204.2c6.5,3.9,11.4,6.1,12.8,6.7
		c0.1,0,0.2-0.1,0.3-0.1c0.5-0.2,1.2-0.5,2.1-1c1.8-0.9,4.4-2.2,7.6-4c6.3-3.6,14.7-9.1,23.3-16.7c8.4-7.4,16.9-16.8,23.8-28.4
		c-0.2-0.2-0.3-0.5-0.6-0.8c-0.6-0.9-1.6-2.2-2.9-3.9c-2.5-3.3-6.3-7.9-11.2-13.2c-9.8-10.5-24.2-23.5-42.7-33.8
		c-33.3,18.6-53.2,45.7-57.1,51.3c2.9,5,6.1,9.6,9.5,13.7C38.2,188.4,51.7,198.3,61.5,204.2z"/>
	<g>
		<g>
			<path class="st3" d="M78.5,175.9c3.6-4.2,14.7-1.1,27.7-0.5c1.8,0,3.1,0,4,0.1c-0.7-0.3-1.7-0.9-2.8-1.5
				c-1.8-1.1-3.8-2.4-4.7-3.7c-0.1,0-0.6-0.1-1.3-0.3c-0.9-0.2-2.1-0.4-3.5-0.6c-2.9-0.4-6.7-0.9-10.5-0.9c-2.4,0-4.8,0.2-6.9,0.7
				c-2,0.5-3.7,1.3-4.8,2.4c-0.7,0.7-1.1,1.6-1.2,2.8C75.6,174.8,78.4,175.9,78.5,175.9z"/>
			<path class="st3" d="M74.8,171.6c0.1-0.2,0.2-0.3,0.4-0.5c0.8-0.9,1.9-1.5,3.1-2c2.5-1,5.7-1.3,9-1.3c6.4,0,13,1.2,14.9,1.6
				c-0.1-0.2-0.1-0.6-0.2-1c-0.2-0.9-0.5-2.2-0.9-3.7c-0.7-3.1-1.7-7.2-2.7-11.3c-1.9-8.2-3.9-16.5-3.9-16.5h0l-0.1-0.1
				c0,0-0.1-0.1-0.3-0.2c-0.2-0.1-0.5-0.3-1-0.5c-0.8-0.4-2-1-3.3-1.5c-2.7-1.1-6.1-2.2-9-2.2c-2.8,0-4.3,0.8-5.2,1.6
				c-0.5,0.4-0.7,0.9-0.9,1.2V171.6z"/>
			<path class="st3" d="M103,169.2c0.1,0.2,0.1,0.4,0.1,0.4c0.5,0.9,1.8,1.9,3.2,2.8c1.4,0.9,2.8,1.7,3.8,2.2l-11.5-34.9l-3.2-2.2
				c0.2,0.8,0.5,2,0.9,3.7c0.6,2.7,1.5,6.4,2.4,10.2C100.5,158.9,102.4,167,103,169.2z"/>
			<path class="st3" d="M38,174.9c0.4-0.2,0.8-0.4,1.3-0.7c1.3-0.8,3-1.8,4.2-2.7c0.8-0.6,1.5-1.2,1.7-1.6l0-0.1
				c0-0.1,0.1-0.3,0.2-0.6c0.1-0.5,0.3-1.3,0.6-2.3c0.5-1.9,1.1-4.6,1.8-7.5c1.4-5.9,3.1-13,4.2-17.7c0.4-1.8,0.7-3.2,1-4.1
				l-3.2,2.4L38,174.9z"/>
			<path class="st3" d="M46,169.6c1.9-0.4,8.5-1.6,14.9-1.6c2.5,0,4.9,0.2,7,0.7c2.1,0.5,3.9,1.3,5.1,2.6c0.1,0.1,0.2,0.2,0.2,0.3
				v-36.7c-0.1-0.3-0.3-0.5-0.6-0.8c-0.8-0.8-2.4-1.7-5.3-1.7c-2.5,0-5.5,0.8-8,1.8c-2.5,1-4.6,2-5.4,2.5c-0.2,0.1-0.3,0.1-0.3,0.2
				c-0.7,2.9-5.8,24.8-7.4,31.4C46.2,168.8,46.1,169.3,46,169.6z"/>
			<path class="st3" d="M69.9,175.9c0.1,0,2.8-1.1,3.8-1.5c-0.1-1-0.5-1.9-1.2-2.6c-0.7-0.8-1.7-1.4-2.9-1.8
				c-2.4-0.9-5.5-1.3-8.8-1.3c-5.6,0-11.4,1-14,1.4c-0.7,0.1-1.1,0.2-1.3,0.3c-0.4,0.5-1,1.1-1.7,1.6c-0.9,0.7-1.9,1.3-2.8,1.9
				c-1,0.6-1.9,1.1-2.6,1.5l1.8,0C54.1,175.1,66.1,171.5,69.9,175.9z"/>
		</g>
		<g>
			<path class="st4" d="M59.7,165.3c-4.3,0-6.2,0.5-11.1,1.5c0.1-0.1,3.4-15.2,3.4-15.1c2.5-0.9,5.8-1.6,9.2-1.2
				C61.2,150.6,59.7,165.3,59.7,165.3z"/>
			<path class="st4" d="M71.1,158.9c-1.7-1-6.3-1.5-9-0.7c0,0,2-23.6,2-23.5c1.5-0.3,5.6-0.9,7.5,1L71.1,158.9z"/>
			<path class="st4" d="M61.3,149.7c-4.1-0.4-6.3,0.3-9,1c0.1-0.1,2.6-13,2.6-12.9c2.3-1.2,4.8-2.1,7.8-2.9
				C62.7,135,61.4,149.7,61.3,149.7z"/>
			<path class="st4" d="M71,166.7c-2.5-1-5.7-1.5-9.6-1.5c0,0,0.6-6.1,0.6-6.2c2.6-1.1,7.8-0.2,9.1,0.7C71,159.7,71,166.7,71,166.7z
				"/>
			<path class="st4" d="M87.1,154.9c2.1-0.4,7.6,0.1,9.9,1.3c-0.1-0.1-3.9-18-3.9-17.9c-2.6-1.5-5-2.5-8-3.3
				C85,135,87,154.9,87.1,154.9z"/>
			<path class="st4" d="M76.8,141.7c0.9-0.9,5-1.5,7.6-0.7c0,0-0.5-6.3-0.5-6.3c-1.5-0.3-5.4-0.8-7.1,0.9
				C76.8,135.6,76.8,141.7,76.8,141.7z"/>
			<path class="st4" d="M76.9,166.7c3.5-1.8,6.2-1.4,9.6-1.4c-0.1-0.1-2.2-23.7-2.2-23.6c-1.8-0.6-5.3-0.8-7.5,0.7
				C76.8,142.3,77,166.8,76.9,166.7z"/>
			<path class="st4" d="M88.1,165.3c2.8,0,6,0.3,11,1.2c-0.1-0.1-2.1-9.6-2.1-9.5c-2.1-1.2-8.7-1.7-9.9-1.3
				C87.2,155.7,88,165.3,88.1,165.3z"/>
		</g>
	</g>
	<g>
		
			<linearGradient id="SVGID_00000096759448456483978390000006734914286415196322_" gradientUnits="userSpaceOnUse" x1="7.9737" y1="97.3524" x2="137.9402" y2="97.3524">
			<stop  offset="0" style="stop-color:#B1271B"/>
			<stop  offset="0.5" style="stop-color:#D8352E"/>
			<stop  offset="1" style="stop-color:#B1271B"/>
		</linearGradient>
		<path style="fill:url(#SVGID_00000096759448456483978390000006734914286415196322_);" d="M128,96.4c-0.7,1.3,0.1,2.7,0.1,2.7
			c2.3-3.4,3.8-2.9,3.8-2.9c-1.4,5,1.8,7.9,1.2,9.6c-1,2.3-9.7,2.2-17.1-10.4c0,0-2.9-4.7-3.9-4.8c3.8-1.2,10,3.4,13.8,4.5
			c0.5-2.4,5.6-7.5,11.8-7.1c-2.1-3.1-2.1-11.7,4.1-13.3c-8.1-3.6-3.1-13.1-0.4-15.3c-3.2,0.2-13.3-4.5-24,10.6
			c8.8,8.6,0.3,19.8-6.2,13.3c0.1-2,2-3.2,2.9-5.1c0.4-0.9-1-8.7-1-9.8c0-0.1,1.4-0.1,2.3,0.9c0.3,0.3-0.6-2.7-2.1-2.9
			c-0.4-0.1,1.9-0.3,3.5,0.7c0,0-1.8-3.1-3.8-3.4c0,0,6,0.1,3.9-7.1c0,0-1.7,4.3-7.1,3.9c0,0-5.5-2.3-7.1-2.3
			c-1.2,0-1.3,0.4-1.9,0.8c-0.7,0.4-3.6-1.5-6.6-0.5c0,0,1,0.6,2,0.9c0.4,0.4,0.6,1.7,0.6,3.1c2.5-2,4.2,1.1,4.2,1.1s-2.2,1-3.9,1.4
			c-1.7,0.3-3.3-0.2-3.4-1.4c-0.5,1,0.7,1.8,2.3,2.1c1.5,0.3,5.4-0.4,5.4-0.4c0.1,0.4-0.1,0.7-0.4,0.9c-1.1,0.6-3.5,0.2-4.5,0.5
			c0.2,0.3,0,4.2-0.1,4.5c0.6-0.7,4.2-4.1,5.7-3.6c2.6,0.7,5.6-0.4,5.6-0.4s-1.6,0.8-3.6,1.6c-2,0.8-7.9,4.8-8.3,12.6
			c0,2.2-6.5,8-11.1,1.8c-2.1-0.7-6,0-5.8,3c0,0,5.5-2,4.7-0.1c0,0-3.5,0.9-4.3,1.6c-0.8,0.7-0.9,2.4-0.6,3.5
			c2.1-1.6,3.7-3.7,5.6-2.6c0,0-1.3,0.8-2,3.2c0.1,1.4,0.3,2.3,0.4,2.5c1-2.7,2.6-4.9,5.4-4.4c2.5,0.5,2.7-1.3,7.2,1
			c-0.2-1.5-3.7-2.6-3.7-2.6c3.2-1,6.8-0.6,9.9-4.8c-1.2,2.1-2.2,3.5-5.4,4.6c1.7,7.8,9.2,11.6,12.2,15c-2.6,0-7.3-2.6-8.6,0.8
			c-0.2,3.1,0.9,5.6,1.4,8.5c-1.3,0.6-2.7-0.4-4.1-0.5c-2.6-2.1,0.2-8.6-5.5-7.2l0.7,1.7c0.9,1.1,2.1,2,2.6,3.4
			c-1.4,0.1-2.4-1.9-3.3-3c-0.5-0.8-0.7-2.4-1.9-2.1c-0.8,0.9-2.5-0.3-3.1,1.2c1.9,0.7,3.4,2.3,4.8,3.9c-1.4,0.3-2.3-1.6-3.6-2
			c-1.4,0.2-2.9-0.3-4.1,0.4c0.2,1.2,1.8,1.4,2.7,2c3.3,2.7,7.1,3.7,9.7,6.9c1,0.8,1.2,1.4,1.5,4.7c0.7-1.3,1.2-2.3,0.7-3.7
			l-0.5-1.4c4.4,0.9,12.4,2.6,12.4,6.2c2-0.1-2-8.2-1.4-10.7c0,0,3.9,1.3,5-0.7c0.9-1.7,0.5-2.8,0.3-3.1c1.1,1.6-0.2,3-1.3,7.1
			c2.1,2.4,6.8,2.6,6.5,6.4c-0.7,2.4,2.5,4-1.4,4.5c-2,0.8-5.1-0.2-6.1,2.1c0.2,1.1-0.5,2.6,0.6,3.4c1.2-2.4,3.7-2.5,4.4-1.9
			c-0.7,1.1-2.2,1.5-2.6,3.2c0.1,1.6,0.6,2.5,2.2,3.2c-0.4-3.3,2.1-4,4.1-5.9l1.1-0.1c-1,1.8-0.6,3.6-0.8,5.5c0,0,4.2,3.1,3.5,2.4
			c-2.1-2.9,1.6-5.3,0.6-8.7c2.3-2.9,6.3-1.7,6.8-1.5c-0.4-2.1-5-1-6.5-2.4c-0.2-0.6-0.9,1.4-0.9,0.6c0.8-1.5-2-1.8,0.1-6.1
			c0.5-1.1,0.2-0.9,3.3-1.3c-2.3-1.2-4.4-0.9-4.4-0.9c-0.6-3.7-1.5-4.5-1.5-4.5c6.5,3.3,10.5,2.3,14.5,0.6c1.7-1.1,2.7-2.7,3-4.7
			c1.2-6.6-5.4-8-5.3-12.5c0,0,3.4,0.8,4.5,4.3c0.5-0.7-0.1-3.8-0.2-5.4c0-2.1,0.4-4.4,2.8-4.8C140.5,89.4,131.2,90.2,128,96.4z
			 M104.1,61.9c-0.4,0-0.2-1.4-0.2-1.4s0.4-0.6,2,0.2c1.6,0.8,1.8,1.3,1.8,1.3S105.2,61.7,104.1,61.9z"/>
		
			<linearGradient id="SVGID_00000062892734680576047420000011740145459051059635_" gradientUnits="userSpaceOnUse" x1="7.9737" y1="66.7174" x2="137.9402" y2="66.7174">
			<stop  offset="0" style="stop-color:#B1271B"/>
			<stop  offset="0.5" style="stop-color:#D8352E"/>
			<stop  offset="1" style="stop-color:#B1271B"/>
		</linearGradient>
		<path style="fill:url(#SVGID_00000062892734680576047420000011740145459051059635_);" d="M85.7,63.2c0.4,0.7-0.7,4.5-4.3,2.9
			c0,0,1.3,2.3,4.9,0.6l1.1,0.2c3.2,7.6,8.1,12.7,8.1,12.7c0.2-2.2,0.5-2.6,1.3-3.9c-4.3-8.1-5.4-9.2-6.3-12
			c0.5-2.7,2.7-4.1,0.9-7.6c-1.2-2.4-3.2-1.2-3.2-1.2c2.2,1.5,1.4,3.4,1.4,3.4c-0.9-1-0.5-2.4-2.7-3.3c-1.8-0.5-2.8-1.4-4.5-0.7
			c0.6,1,2.6,1.5,3.5,2.3l0.2,2.2c-1.1-1.3-2.6-2.4-4-2.3c-1.7,0-2.9,0-3.1,2.1C84.2,57.4,84.9,60.3,85.7,63.2z"/>
		
			<linearGradient id="SVGID_00000036968260435741805750000011751928322768483516_" gradientUnits="userSpaceOnUse" x1="7.9737" y1="66.7069" x2="137.9402" y2="66.7069">
			<stop  offset="0" style="stop-color:#B1271B"/>
			<stop  offset="0.5" style="stop-color:#D8352E"/>
			<stop  offset="1" style="stop-color:#B1271B"/>
		</linearGradient>
		<path style="fill:url(#SVGID_00000036968260435741805750000011751928322768483516_);" d="M51.9,75.6c0.8,1.3,1.1,1.8,1.3,3.9
			c0,0,5-5.2,8.2-12.7l1.1-0.2c3.6,1.8,4.9-0.6,4.9-0.6c-3.6,1.6-4.7-2.2-4.3-2.9c0.8-2.8,1.5-5.7,6.7-4.7c-0.2-2.1-1.4-2-3.1-2
			c-1.4-0.1-2.9,1-4,2.3l0.2-2.2c1-0.8,3-1.3,3.5-2.3c-1.8-0.6-2.8,0.2-4.5,0.7c-2.3,0.8-1.9,2.2-2.7,3.2c0,0-0.8-1.9,1.4-3.4
			c0,0-2-1.1-3.2,1.2c-1.8,3.5,0.4,4.9,0.9,7.6C57.3,66.3,56.2,67.4,51.9,75.6z"/>
		
			<linearGradient id="SVGID_00000096024286110745477640000006850543584631640503_" gradientUnits="userSpaceOnUse" x1="7.9737" y1="97.3429" x2="137.9402" y2="97.3429">
			<stop  offset="0" style="stop-color:#B1271B"/>
			<stop  offset="0.5" style="stop-color:#D8352E"/>
			<stop  offset="1" style="stop-color:#B1271B"/>
		</linearGradient>
		<path style="fill:url(#SVGID_00000096024286110745477640000006850543584631640503_);" d="M65.1,85.8c-0.9-1.9,4.7,0.1,4.7,0.1
			c0.2-3-3.7-3.7-5.8-3c-4.7,6.3-11.2,0.4-11.2-1.8c-0.4-7.7-6.3-11.7-8.3-12.5c-2-0.8-3.6-1.6-3.6-1.6s3,1.2,5.6,0.4
			c1.6-0.5,5.1,2.9,5.7,3.6c0-0.2-0.2-4.2-0.1-4.5c-1-0.3-3.4,0.1-4.5-0.5c-0.4-0.2-0.6-0.4-0.4-0.9c0,0,3.9,0.7,5.4,0.4
			c1.6-0.3,2.8-1.1,2.3-2.1c-0.1,1.2-1.7,1.7-3.4,1.4c-1.7-0.3-3.9-1.4-3.9-1.4s1.7-3,4.2-1.1c0-1.4,0.2-2.8,0.6-3.1
			c1-0.3,2-0.9,2-0.9c-3-0.9-5.9,0.9-6.5,0.5c-0.6-0.4-0.7-0.8-1.9-0.8c-1.6,0-7.1,2.3-7.1,2.3c-5.4,0.3-7.1-3.9-7.1-3.9
			c-2.1,7.2,3.9,7.1,3.9,7.1c-2,0.3-3.8,3.4-3.8,3.4c1.6-1,3.9-0.7,3.5-0.7c-1.5,0.3-2.4,3.2-2.1,2.9c0.9-1,2.3-1,2.3-0.9
			c0,1.1-1.4,8.9-1,9.8c0.8,1.9,2.8,3.1,2.9,5.1c-6.5,6.4-15-4.8-6.2-13.3c-10.7-15.1-20.8-10.3-24-10.6c2.7,2.2,7.7,11.6-0.4,15.3
			c6.2,1.6,6.2,10.2,4.1,13.3c6.2-0.4,11.3,4.7,11.8,7.1c3.8-1.1,10-5.7,13.8-4.5c-1,0.2-3.9,4.8-3.9,4.8
			c-7.5,12.6-16.2,12.7-17.2,10.4c-0.6-1.7,2.6-4.6,1.2-9.6c0,0,1.5-0.5,3.8,2.9c0,0,0.8-1.4,0.1-2.7c-3.2-6.2-12.5-7-13.2-5.7
			c2.4,0.4,2.8,2.7,2.8,4.8c-0.2,1.7-0.7,4.7-0.2,5.4c1.1-3.5,4.5-4.3,4.5-4.3c0.1,4.5-6.5,5.9-5.3,12.5c0.3,2,1.4,3.6,3,4.7
			c4,1.6,7.9,2.7,14.5-0.6c0,0-0.8,0.9-1.5,4.5c0,0-2.1-0.3-4.4,0.9c3.1,0.4,2.7,0.1,3.3,1.2c2.1,4.4-0.7,4.6,0.1,6.1
			c0,0.8-0.7-1.3-0.9-0.6c-1.5,1.5-6,0.3-6.5,2.4c0.5-0.2,4.5-1.5,6.8,1.5c-1,3.4,2.7,5.8,0.6,8.7c-0.6,0.8,3.5-2.4,3.5-2.4
			c-0.2-1.9,0.2-3.7-0.8-5.5l1.1,0.1c2,1.9,4.5,2.6,4.1,5.9c1.6-0.7,2.2-1.6,2.2-3.2c-0.3-1.6-1.8-2.1-2.6-3.2
			c0.7-0.6,3.2-0.5,4.4,1.9c1-0.8,0.4-2.3,0.6-3.4c-1-2.4-4.1-1.3-6.1-2.1c-3.8-0.6-0.6-2.1-1.4-4.5c-0.2-3.8,4.5-4,6.5-6.4
			c-1.1-4.1-2.4-5.4-1.3-7.1c-0.1,0.3-0.6,1.4,0.3,3.1c1.1,1.9,5,0.7,5,0.7c0.6,2.6-3.4,10.6-1.4,10.7c0-3.6,8-5.3,12.4-6.2
			l-0.5,1.4c-0.5,1.4,0,2.4,0.7,3.7c0.4-3.3,0.5-3.8,1.5-4.7c2.6-3.3,6.5-4.3,9.7-6.9c0.9-0.6,2.5-0.9,2.7-2
			c-1.1-0.7-2.7-0.2-4.1-0.4c-1.3,0.5-2.2,2.4-3.6,2c1.4-1.6,2.9-3.2,4.8-3.9c-0.6-1.5-2.3-0.2-3.1-1.2c-1.2-0.3-1.4,1.3-1.9,2.1
			c-0.9,1.1-1.8,3-3.3,3c0.5-1.3,1.7-2.3,2.6-3.4l0.7-1.7c-5.7-1.4-2.9,5.1-5.5,7.2c-1.4,0.2-2.8,1.2-4.1,0.5
			c0.5-2.8,1.5-5.4,1.4-8.5c-1.4-3.4-6.1-0.8-8.6-0.8c2.9-3.4,10.4-7.2,12.2-15c-3.2-1-4.2-2.4-5.4-4.6c3.1,4.2,6.7,3.8,9.9,4.8
			c0,0-3.4,1.1-3.7,2.6c4.4-2.3,4.7-0.5,7.2-1c2.8-0.5,4.4,1.7,5.4,4.4c0.2-0.1,0.3-1,0.4-2.5c-0.7-2.4-2-3.3-2-3.3
			c1.8-1,3.5,1.1,5.6,2.6c0.3-1.1,0.2-2.8-0.6-3.5C68.7,86.7,65.1,85.8,65.1,85.8z M42.8,60.7c1.6-0.8,2-0.2,2-0.2s0.2,1.4-0.2,1.4
			C43.5,61.7,41,62,41,62S41.2,61.5,42.8,60.7z"/>
	</g>
	<path class="st0" d="M148.3,59.2c-3.2-3-7.6-5.6-12.8-7.7C120,44.9,97,41.7,74.1,41.7c-15.3,0-30.6,1.4-43.6,4.3
		C24,47.4,18.1,49.2,13,51.4c-5.1,2.2-9.4,4.7-12.5,7.7L0,59.6v0.6v56.2l0,0.1c3.5,34.8,21.7,59.1,39.2,74.6
		c8.7,7.8,17.3,13.4,23.7,17c3.2,1.8,5.9,3.2,7.8,4.1c1,0.4,1.7,0.8,2.3,1c0.3,0.1,0.5,0.2,0.7,0.3l0.2,0.1l0.1,0c0.1,0,0.1,0,0.3,0
		c0,0,0.1,0,0.4-0.1l0,0l0,0l0.1,0c0.1-0.1,0.5-0.2,1-0.4c4.3-1.9,20.8-9.8,37.2-25.4c16.3-15.5,32.5-38.8,35.7-71.1l0-0.1V59.5
		L148.3,59.2z M107.6,189.1c-8.6,7.6-17,13.1-23.3,16.7c-3.1,1.8-5.7,3.1-7.6,4c-0.9,0.4-1.6,0.8-2.1,1c-0.1,0.1-0.2,0.1-0.3,0.1
		c-1.5-0.6-6.3-2.7-12.8-6.7c-9.8-5.9-23.3-15.8-35-30.2c-3.4-4.2-6.6-8.8-9.5-13.7c3.8-5.5,23.8-32.7,57.1-51.3
		c18.5,10.4,32.9,23.4,42.7,33.8c4.9,5.3,8.7,9.9,11.2,13.2c1.3,1.7,2.2,3,2.9,3.9c0.2,0.3,0.4,0.6,0.6,0.8
		C124.5,172.3,116,181.7,107.6,189.1z M146.1,116.3c-1.6,16.5-6.7,30.6-13.5,42.4c-4.5-6.4-24.6-33.4-58-51.9l-0.5-0.3l-0.5,0.3
		c-32.6,18.1-52.6,44.3-57.7,51.4c-6.6-11.8-11.6-25.7-13.2-42.1V60.7c2.8-2.6,6.7-4.9,11.4-6.9c14.7-6.3,37.4-9.5,60.1-9.5
		c15.1,0,30.3,1.4,43.1,4.3c6.4,1.4,12.3,3.2,17.3,5.3c4.7,2,8.7,4.3,11.6,6.9V116.3z"/>
	<path class="st0" d="M111.7,176.3l-12.2-37.2L95,136l0,0c0,0-2-1.2-4.7-2.3c-2.7-1.1-6.3-2.3-9.4-2.3c-3.1,0-4.9,1-6,2
		c-0.3,0.3-0.6,0.7-0.8,1c-0.2-0.3-0.4-0.6-0.8-1c-1-1-2.9-2-6-2c-3.1,0-6.7,1.2-9.4,2.3c-2.8,1.1-4.8,2.3-4.8,2.3l0,0l-4.4,3.3
		l-12.4,37.1l0.1,0c-0.1,0.1-0.2,0.2-0.2,0.2c0.1,0,33.1,0.8,33.2,0.9c2.4,2.1,7,2.1,9.3,0c0.1-0.1,33-0.9,33.1-0.9
		C112,176.5,111.9,176.5,111.7,176.3z M38.5,175.4c0.7-0.4,1.6-0.9,2.6-1.5c1-0.6,2-1.3,2.8-1.9c0.7-0.6,1.3-1.1,1.7-1.6
		c0.1,0,0.6-0.1,1.3-0.3c2.6-0.5,8.4-1.4,14-1.4c3.3,0,6.4,0.3,8.8,1.3c1.2,0.5,2.2,1.1,2.9,1.8c0.6,0.7,1,1.5,1.2,2.6
		c-1.1,0.4-3.8,1.5-3.8,1.5c-3.8-4.4-15.8-0.8-29.5-0.4L38.5,175.4z M78.5,175.9c-0.1,0-2.9-1.2-4-1.6c0.1-1.1,0.5-2,1.2-2.8
		c1-1.1,2.7-1.9,4.8-2.4c2-0.5,4.4-0.7,6.9-0.7c3.7,0,7.6,0.4,10.5,0.9c1.5,0.2,2.7,0.4,3.5,0.6c0.7,0.1,1.2,0.2,1.3,0.3
		c1,1.3,2.9,2.7,4.7,3.7c1.1,0.7,2.1,1.2,2.8,1.5c-0.8,0-2.2,0-4-0.1C93.2,174.8,82.1,171.7,78.5,175.9z M110.1,174.7
		c-1-0.5-2.4-1.3-3.8-2.2c-1.4-0.9-2.7-2-3.2-2.8c0-0.1-0.1-0.2-0.1-0.4c-0.5-2.1-2.5-10.2-4.3-17.8c-0.9-3.8-1.8-7.5-2.4-10.2
		c-0.4-1.6-0.7-2.9-0.9-3.7l3.2,2.2L110.1,174.7z M75.7,134c0.8-0.8,2.4-1.6,5.2-1.6c2.9,0,6.3,1.1,9,2.2c1.3,0.6,2.5,1.1,3.3,1.5
		c0.4,0.2,0.7,0.4,1,0.5c0.2,0.1,0.3,0.2,0.3,0.2l0.1,0.1h0c0,0,1.9,8.2,3.9,16.5c1,4.1,2,8.2,2.7,11.3c0.4,1.5,0.7,2.8,0.9,3.7
		c0.1,0.4,0.2,0.7,0.2,1c-1.9-0.4-8.5-1.6-14.9-1.6c-3.3,0-6.5,0.3-9,1.3c-1.3,0.5-2.3,1.1-3.1,2c-0.1,0.2-0.3,0.3-0.4,0.5v-36.4
		C74.9,134.9,75.2,134.4,75.7,134z M59.4,134.1c2.5-1,5.5-1.8,8-1.8c2.9,0,4.4,0.9,5.3,1.7c0.3,0.3,0.5,0.6,0.6,0.8v36.7
		c-0.1-0.1-0.2-0.2-0.2-0.3c-1.2-1.3-3-2.1-5.1-2.6c-2.1-0.5-4.6-0.7-7-0.7c-6.4,0-13,1.2-14.9,1.6c0.1-0.3,0.2-0.8,0.4-1.4
		c1.6-6.6,6.8-28.6,7.4-31.4c0,0,0.1-0.1,0.3-0.2C54.9,136.2,56.9,135.1,59.4,134.1z M49.7,139.8l3.2-2.4c-0.2,0.9-0.5,2.3-1,4.1
		c-1.1,4.7-2.8,11.8-4.2,17.7c-0.7,3-1.3,5.6-1.8,7.5c-0.2,1-0.4,1.7-0.6,2.3c-0.1,0.3-0.1,0.5-0.2,0.6l0,0.1
		c-0.2,0.4-0.9,1-1.7,1.6c-1.2,0.9-2.9,1.9-4.2,2.7c-0.5,0.3-0.9,0.5-1.3,0.7L49.7,139.8z"/>
</g>
<path id="_x31_872" class="st0" d="M32.3,11.5c-2.6,0.4-5.1,0.9-7.7,1.4c0-1.2,0-2.5,0-3.7c0.5-0.1,1-0.2,1.5-0.3
	c2.5-0.5,6.6-1.8,7.4-5.9c1.3-0.2,2.7-0.4,4.1-0.6c0,8.7,0,17.4,0,26.1c-1.8,0.3-3.5,0.5-5.3,0.8C32.3,23.4,32.3,17.5,32.3,11.5z
	 M52.8,12.8C52.8,12.8,52.8,12.7,52.8,12.8c-2.6-0.6-4.3-2.2-4.3-4.9c0-3.7,2.7-7.3,11-7.9c8.2-0.5,11,2.7,11,6.5
	c0,2.7-1.6,4.5-4.3,5.4c0,0,0,0.1,0,0.1c3.9,0.8,5.4,3.4,5.4,6.5c0,2.9-2,7.8-12.1,8.4c-10.1,0.7-12.1-4-12.1-6.9
	C47.5,16.8,49,14.1,52.8,12.8z M59.6,22.9c4.3-0.3,6.3-2.1,6.3-4.6c0-2.6-2-4.3-6.3-4c-4.3,0.3-6.3,2.2-6.3,4.8
	C53.3,21.7,55.3,23.2,59.6,22.9z M65,7.1c0-2.2-1.9-3.3-5.4-3.1c-3.6,0.2-5.4,1.6-5.4,3.8c0,2.1,1.9,3.1,5.4,2.9
	C63.1,10.4,65,9.1,65,7.1z M77.6,0.1c7.7,0,15.4,0.3,23.1,1c0,1.5,0,3,0,4.5c-5,5-10.9,12.9-12.1,20.4c-2.2-0.1-4.3-0.2-6.5-0.2
	c0.7-7.1,8.1-16.5,13-20.7c-5.8-0.4-11.7-0.6-17.5-0.6C77.6,3,77.6,1.5,77.6,0.1z M106.2,27.2c0-6.5,4.9-9.2,10.3-10.7
	c5.4-1.6,7.5-2,7.5-4.9c0-3.2-3.2-4.8-5.3-5.1c-4-0.6-6.1,1.3-6.4,4.6c-1.8-0.2-3.7-0.5-5.6-0.6c0-6.3,4.9-8.9,11.3-8
	c5.9,0.9,11.4,4.2,11.4,10.6c0,4.3-3.6,5.7-7.5,6.7c-3.9,0.9-8.2,1.4-9.6,4c5.7,0.7,11.4,1.6,17.1,2.7c0,1.4,0,2.8,0,4.1
	C121.8,29.2,114,28,106.2,27.2z"/>
</svg>
