<?xml version="1.0" encoding="utf-8"?>
<!-- Generator: Adobe Illustrator 26.5.0, SVG Export Plug-In . SVG Version: 6.00 Build 0)  -->
<svg version="1.1" id="Layer_1" xmlns="http://www.w3.org/2000/svg" xmlns:xlink="http://www.w3.org/1999/xlink" x="0px" y="0px"
	 viewBox="0 0 1190.6 680.3" style="enable-background:new 0 0 1190.6 680.3;" xml:space="preserve">
<style type="text/css">
	.st0{fill:url(#SVGID_1_);}
	.st1{fill:#1B1F3E;}
	.st2{fill:url(#SVGID_00000160900062459605036740000011949512624943206079_);}
	.st3{fill:url(#SVGID_00000065783636949227075790000014671433167390213289_);}
	.st4{fill:url(#SVGID_00000023972979992514964470000016079094362291438008_);}
	.st5{fill:url(#SVGID_00000124158348440130754100000012964937926551377079_);}
	.st6{fill:url(#SVGID_00000083786084250715622880000017801918859225564859_);}
	.st7{fill:url(#SVGID_00000161612129665350898880000010096127272014448285_);}
	.st8{fill:url(#SVGID_00000045600816801672553450000014806674249747760280_);}
	.st9{fill:url(#SVGID_00000002374144158244568640000018139240267060552115_);}
	.st10{fill:url(#SVGID_00000097491620802330325530000015134079102160675228_);}
	.st11{fill:#4E4E50;}
</style>
<linearGradient id="SVGID_1_" gradientUnits="userSpaceOnUse" x1="235.0479" y1="359.5693" x2="92.0614" y2="359.5693" gradientTransform="matrix(1 0 0 -1 0 681.1494)">
	<stop  offset="0" style="stop-color:#455B89"/>
	<stop  offset="9.089999e-02" style="stop-color:#2E4874"/>
	<stop  offset="0.1546" style="stop-color:#223E69"/>
	<stop  offset="0.2787" style="stop-color:#1E325C"/>
	<stop  offset="0.487" style="stop-color:#1F2649"/>
	<stop  offset="0.7155" style="stop-color:#1D2241"/>
	<stop  offset="1" style="stop-color:#1C203E"/>
</linearGradient>
<path class="st0" d="M234.7,429.5c0.4-4.7-17.5-5.9-17.5-5.9s-21.1-2.1-51.4,0.7c-39,3.7-75.1,11.5-75.1,11.5V220.3
	c0,0,36.1-7.7,75.1-11.5c30.3-2.9,51.4-0.7,51.4-0.7s18,1.2,17.5,5.9V429.5z"/>
<path class="st1" d="M234.7,214.1c0,0,1.2,3.5-13.2,6.7c-14.5,3.2-19,5.9-19,9.9s0,26.6,0,26.6h32.3V214.1z"/>
<linearGradient id="SVGID_00000001642691988172552820000018027834222082983558_" gradientUnits="userSpaceOnUse" x1="234.7288" y1="360.381" x2="90.7087" y2="360.381" gradientTransform="matrix(1 0 0 -1 0 681.1494)">
	<stop  offset="0" style="stop-color:#FFFFFF"/>
	<stop  offset="0.4541" style="stop-color:#FFFFFF"/>
	<stop  offset="0.5498" style="stop-color:#EAEAEA"/>
	<stop  offset="0.797" style="stop-color:#B9B9B9"/>
	<stop  offset="0.9193" style="stop-color:#A6A6A6"/>
</linearGradient>
<path style="fill:url(#SVGID_00000001642691988172552820000018027834222082983558_);" d="M217.2,283.4c0,0-21.1-2.1-51.4,0.7
	c-39,3.7-75.1,11.5-75.1,11.5v63.3c0,0,36.1-7.7,75.1-11.5c30.3-2.9,51.4-0.7,51.4-0.7s18,1.2,17.5,5.9v-63.3
	C235.2,284.6,217.2,283.4,217.2,283.4z"/>
<linearGradient id="SVGID_00000018925006741286503740000004128097488845888924_" gradientUnits="userSpaceOnUse" x1="394.4648" y1="416.2434" x2="272.4298" y2="416.2434" gradientTransform="matrix(1 0 0 -1 0 681.1494)">
	<stop  offset="0" style="stop-color:#455B89"/>
	<stop  offset="9.089999e-02" style="stop-color:#2E4874"/>
	<stop  offset="0.1546" style="stop-color:#223E69"/>
	<stop  offset="0.2787" style="stop-color:#1E325C"/>
	<stop  offset="0.487" style="stop-color:#1F2649"/>
	<stop  offset="0.7155" style="stop-color:#1D2241"/>
	<stop  offset="1" style="stop-color:#1C203E"/>
</linearGradient>
<path style="fill:url(#SVGID_00000018925006741286503740000004128097488845888924_);" d="M339.6,297.5c34.4-3,54.8,3.4,54.8,3.4
	v-77.4c0,0-20.5-6.4-54.8-3.4c-25.5,2.2-42.8,8.3-67.2,13v77.4C296.8,305.9,314.1,299.8,339.6,297.5z"/>
<linearGradient id="SVGID_00000034088769614150714700000011466837947329650601_" gradientUnits="userSpaceOnUse" x1="394.4648" y1="277.6602" x2="272.4298" y2="277.6602" gradientTransform="matrix(1 0 0 -1 0 681.1494)">
	<stop  offset="0" style="stop-color:#455B89"/>
	<stop  offset="9.089999e-02" style="stop-color:#2E4874"/>
	<stop  offset="0.1546" style="stop-color:#223E69"/>
	<stop  offset="0.2787" style="stop-color:#1E325C"/>
	<stop  offset="0.487" style="stop-color:#1F2649"/>
	<stop  offset="0.7155" style="stop-color:#1D2241"/>
	<stop  offset="1" style="stop-color:#1C203E"/>
</linearGradient>
<path style="fill:url(#SVGID_00000034088769614150714700000011466837947329650601_);" d="M394.5,438.5v-75.4c0,0-20.5-6.4-54.8-3.4
	c-25.5,2.2-42.8,8.3-67.2,13v75.4c24.3-4.7,41.7-10.8,67.2-13C374,432.1,394.5,438.5,394.5,438.5z"/>
<linearGradient id="SVGID_00000151537762758144666540000003022089637318858371_" gradientUnits="userSpaceOnUse" x1="199.1942" y1="339.329" x2="391.8883" y2="339.329" gradientTransform="matrix(1 0 0 -1 0 681.1494)">
	<stop  offset="0" style="stop-color:#B8B8B8"/>
	<stop  offset="1.030000e-02" style="stop-color:#C5C5C4"/>
	<stop  offset="4.030000e-02" style="stop-color:#E4E4E3"/>
	<stop  offset="6.550000e-02" style="stop-color:#F9F9F9"/>
	<stop  offset="8.280000e-02" style="stop-color:#FFFFFF"/>
	<stop  offset="0.1247" style="stop-color:#F9F9F9"/>
	<stop  offset="0.1863" style="stop-color:#E4E4E3"/>
	<stop  offset="0.2598" style="stop-color:#C5C5C4"/>
	<stop  offset="0.2841" style="stop-color:#B8B8B8"/>
	<stop  offset="0.4729" style="stop-color:#A2A1A1"/>
	<stop  offset="0.6181" style="stop-color:#C5C5C4"/>
	<stop  offset="0.7762" style="stop-color:#E4E4E3"/>
	<stop  offset="0.9092" style="stop-color:#F9F9F9"/>
	<stop  offset="1" style="stop-color:#FFFFFF"/>
</linearGradient>
<path style="fill:url(#SVGID_00000151537762758144666540000003022089637318858371_);" d="M339.6,297.5c-25.5,2.2-42.8,8.3-67.2,13
	v-77.4c-8.5,1.6-17.8,3.1-28.6,4.1c-40.9,3.9-41.4-6.2-41.4-6.6V308v62.1v0v75.4c0,0-0.4,10.7,41.4,6.6c10.8-1,20.1-2.5,28.6-4.1
	v-75.4c24.3-4.7,41.7-10.8,67.2-13c34.4-3,54.8,3.4,54.8,3.4V301C394.5,301,374,294.5,339.6,297.5z"/>
<linearGradient id="SVGID_00000041974716683700343740000006880314703800871328_" gradientUnits="userSpaceOnUse" x1="215.2856" y1="406.6989" x2="251.4933" y2="406.6989" gradientTransform="matrix(1 0 0 -1 0 681.1494)">
	<stop  offset="0.2057" style="stop-color:#32497B"/>
	<stop  offset="0.6907" style="stop-color:#212A52"/>
	<stop  offset="1" style="stop-color:#1C203E"/>
</linearGradient>
<path style="fill:url(#SVGID_00000041974716683700343740000006880314703800871328_);" d="M233,253.4l5.7,11c0,0,3.6-0.7,6.8-1.6
	c3.2-0.9,4.8-1.6,4.8-1.6l-4.7,11.5l8.4,6.7c0,0-4.2,1.7-6,2.4c-1.8,0.6-4.6,1.4-4.6,1.4v12.3L233,288l-8.9,7.2v-12.4
	c0,0-3.9-1.4-5.9-2.4c-2-1.1-2.8-1.7-2.8-1.7s2.6-2.9,3.7-3.9c1.1-1,2.9-2.6,2.9-2.6s-2.1-5.7-2.5-7c-0.5-1.3-1.5-4.7-1.5-4.7
	s3.2,1.6,5.2,2.4c2,0.8,4.5,1.5,4.5,1.5L233,253.4z"/>
<linearGradient id="SVGID_00000098929328418471106230000006970727315371495320_" gradientUnits="userSpaceOnUse" x1="215.2856" y1="341.0497" x2="251.4933" y2="341.0497" gradientTransform="matrix(1 0 0 -1 0 681.1494)">
	<stop  offset="0.2057" style="stop-color:#32497B"/>
	<stop  offset="0.6907" style="stop-color:#212A52"/>
	<stop  offset="1" style="stop-color:#1C203E"/>
</linearGradient>
<path style="fill:url(#SVGID_00000098929328418471106230000006970727315371495320_);" d="M233,319l5.7,11c0,0,3.6-0.7,6.8-1.6
	c3.2-0.8,4.8-1.6,4.8-1.6l-4.7,11.5l8.4,6.7c0,0-4.2,1.7-6,2.4c-1.8,0.6-4.6,1.4-4.6,1.4v12.3l-10.4-7.5l-8.9,7.2v-12.4
	c0,0-3.9-1.4-5.9-2.4c-2-1.1-2.8-1.7-2.8-1.7s2.6-2.9,3.7-3.9c1.1-1,2.9-2.6,2.9-2.6s-2.1-5.7-2.5-7c-0.5-1.3-1.5-4.7-1.5-4.7
	s3.2,1.6,5.2,2.4c2,0.8,4.5,1.5,4.5,1.5L233,319z"/>
<linearGradient id="SVGID_00000016765136201499183930000000424144814796143246_" gradientUnits="userSpaceOnUse" x1="215.2856" y1="272.8129" x2="251.4933" y2="272.8129" gradientTransform="matrix(1 0 0 -1 0 681.1494)">
	<stop  offset="0.2057" style="stop-color:#32497B"/>
	<stop  offset="0.6907" style="stop-color:#212A52"/>
	<stop  offset="1" style="stop-color:#1C203E"/>
</linearGradient>
<path style="fill:url(#SVGID_00000016765136201499183930000000424144814796143246_);" d="M233,387.3l5.7,11c0,0,3.6-0.7,6.8-1.6
	c3.2-0.9,4.8-1.6,4.8-1.6l-4.7,11.5l8.4,6.7c0,0-4.2,1.7-6,2.4c-1.8,0.6-4.6,1.4-4.6,1.4v12.3l-10.4-7.5l-8.9,7.2v-12.4
	c0,0-3.9-1.4-5.9-2.4c-2-1.1-2.8-1.7-2.8-1.7s2.6-2.9,3.7-3.9c1.1-1,2.9-2.6,2.9-2.6s-2.1-5.7-2.5-7c-0.5-1.3-1.5-4.7-1.5-4.7
	s3.2,1.6,5.2,2.4c2,0.8,4.5,1.5,4.5,1.5L233,387.3z"/>
<linearGradient id="SVGID_00000078740082030499975910000014106812107137188519_" gradientUnits="userSpaceOnUse" x1="170.0887" y1="366.7906" x2="138.7699" y2="363.4228" gradientTransform="matrix(1 0 0 -1 0 681.1494)">
	<stop  offset="6.379728e-03" style="stop-color:#32497B"/>
	<stop  offset="0.2512" style="stop-color:#2C4375"/>
	<stop  offset="0.5714" style="stop-color:#203363"/>
	<stop  offset="0.9321" style="stop-color:#1E2445"/>
	<stop  offset="1" style="stop-color:#1C203E"/>
</linearGradient>
<path style="fill:url(#SVGID_00000078740082030499975910000014106812107137188519_);" d="M148.2,295.3l5.6,10.7l12.6-3.1l-5.4,11.2
	l9.8,7.6l-12.3,2.9l0.1,12.4l-10.4-7.1l-9.3,8.6v-12.4l-10.5-1.2l8.1-8.9l-4.6-10.5l10.8,1.2L148.2,295.3z"/>
<linearGradient id="SVGID_00000149354423239510614000000003996278152111137424_" gradientUnits="userSpaceOnUse" x1="358.5819" y1="353.409" x2="314.1295" y2="351.3885" gradientTransform="matrix(1 0 0 -1 0 681.1494)">
	<stop  offset="6.379728e-03" style="stop-color:#32497B"/>
	<stop  offset="0.2512" style="stop-color:#2C4375"/>
	<stop  offset="0.5714" style="stop-color:#203363"/>
	<stop  offset="0.9321" style="stop-color:#1E2445"/>
	<stop  offset="1" style="stop-color:#1C203E"/>
</linearGradient>
<path style="fill:url(#SVGID_00000149354423239510614000000003996278152111137424_);" d="M330.3,308l5.5,10.6l12.4-3l-5.3,11
	l9.6,7.4l-12,2.8l0.1,12.2l-10.2-7l-9.1,8.5v-12.1l-10.3-1.1l8-8.7l-4.5-10.3l10.6,1.2L330.3,308z"/>
<g>
	<path class="st11" d="M975.2,252.3c23.9,0,43.1,17,43.1,41c0,24.1-19.2,41-42.9,41c-23.9,0-43.1-16.9-43.1-41
		C932.2,269.4,951.4,252.3,975.2,252.3 M975.3,317.7c12.6,0,23.2-9.8,23.2-24.4c0-14.4-10.6-24.4-23.2-24.4
		c-12.7,0-23.3,10-23.3,24.4C952,307.9,962.6,317.7,975.3,317.7"/>
	<path class="st11" d="M1026.2,254.2h18.7v9.1c0,2.9-0.3,5.4-0.3,5.4h0.3c3.4-6.6,12-16.3,27.8-16.3c17.3,0,27.1,9.1,27.1,29.8v50.3
		h-19.3v-46.3c0-9.5-2.5-16-12.4-16c-10.4,0-18.1,6.6-21,16c-1.1,3.2-1.4,6.8-1.4,10.4v35.9h-19.5L1026.2,254.2z"/>
	<path class="st11" d="M808.5,252.3c-13.4,0-22.9,0.1-27.2,0.2v0c0,7.8,5.6,14.4,13,15.9h12.4c8.6,0,15,3.5,15,13.8v1.1H819
		c-12.7,0-46.3,1.7-46.3,26.5c0,15.6,12.6,24.4,26.5,24.4c17.8,0,23.9-13.8,23.8-13.8h0.3c0,0-0.3,2.5-0.3,5.5v6.5H841v-48.9
		C841,263.7,829,252.3,808.5,252.3 M821.8,298.5c0,9.5-7.4,20.6-17.6,20.6c-8,0-11.8-4.9-11.8-10.1c0-10.9,16.1-12.3,26.1-12.3h3.4
		V298.5z"/>
	<path class="st11" d="M476.3,271.4h-32.9v-30.8h47.5v-17h-67.2v108.9h19.8v-44h22.8C472.2,285.1,476.3,278.7,476.3,271.4"/>
	<path class="st11" d="M904.9,273.6l-0.1,0.7v58.1h19.5v-78.2C913.6,254.2,904.9,262.8,904.9,273.6"/>
	<path class="st11" d="M891.5,316c-5.4,0-15.5-1.8-15.5-14.7v-30.4h17.8v-15.5H876v-26.1c-9.5,0-17.3,6.8-19,15.7v10.4h-10.6v15.5
		h10.1v32.8c0,26.2,21.6,29.5,32.5,29.5c3.7,0,6-0.5,6-0.5v-17C895,315.7,893.6,316,891.5,316"/>
	<path class="st11" d="M619,241.3l-0.1,0.7v15.8c0,2.5,0.1,4.4,0.1,4.4h-0.3c0,0-5.4-10-22.5-10c-20.7,0-35.4,16.1-35.4,41
		c0,24.2,13.5,41,34.7,41c17.9,0,24.5-13.3,24.5-13.3h0.3c0,0-0.3,2.2-0.3,5.1v6.5h18.4V221.9C627.7,221.9,619,230.6,619,241.3
		 M599.9,317.8c-11.5,0-19.5-9.7-19.5-24.5c0-15.5,8.9-24.2,19.6-24.2c13,0,19.5,12,19.5,24.1C619.5,310.5,610,317.8,599.9,317.8"/>
	<path class="st11" d="M925,238.9c0,5.3-4.3,9.6-9.6,9.6c-5.3,0-9.6-4.3-9.6-9.6s4.3-9.6,9.6-9.6C920.7,229.3,925,233.6,925,238.9"
		/>
	<path class="st11" d="M545,309.7c-2.5,1.9-11.2,8-21.8,8c-11.7,0-22.2-7.1-23.5-20.7h54c0,0,0.5-5.2,0.5-7.5
		c0-20.7-12.1-37.1-34.7-37.1c-23.3,0-39.7,16.9-39.7,41c0,22.2,16.1,41,42,41c16.7,0,28.5-11.3,32.3-15.5L545,309.7z M519,267.4
		c8.6,0,15.2,5.7,15.5,16.3h-34.2C502.2,273.5,509.1,267.4,519,267.4"/>
	<path class="st11" d="M711.3,309.6c-2.5,1.9-11.2,8-21.8,8c-11.7,0-22.2-7.1-23.5-20.7h54c0,0,0.5-5.2,0.5-7.5
		c0-20.7-12.1-37.1-34.7-37.1c-23.3,0-39.7,16.9-39.7,41c0,22.2,16.1,41,42,41c16.7,0,28.5-11.3,32.3-15.5L711.3,309.6z
		 M685.3,267.4c8.6,0,15.2,5.7,15.5,16.3h-34.2C668.4,273.5,675.3,267.4,685.3,267.4"/>
	<path class="st11" d="M729,254.2h18.7v12.6c0,2.9-0.3,5.5-0.3,5.5h0.3c3.5-11.2,12.9-20.1,24.8-20.1c1.8,0,3.5,0.3,3.5,0.3v19.2
		c0,0-2-0.3-4.6-0.3c-8.3,0-17.6,4.8-21.3,16.4c-1.2,3.8-1.7,8.1-1.7,12.7v31.9H729L729,254.2"/>
	<path class="st11" d="M1026.2,254.2h18.7v9.1c0,2.9-0.3,5.4-0.3,5.4h0.3c3.4-6.6,12-16.3,27.8-16.3c17.3,0,27.1,9.1,27.1,29.8v50.3
		h-19.3v-46.3c0-9.5-2.5-16-12.4-16c-10.4,0-18.1,6.6-21,16c-1.1,3.2-1.4,6.8-1.4,10.4v35.9h-19.5L1026.2,254.2z"/>
	<path class="st11" d="M423.5,355.9h5.5v59c0,17,11.1,27.4,28.1,27.4c17,0,28.2-10.4,28.2-27.7v-58.7h5.5v59.2
		c0,19.8-13.8,32.4-33.6,32.4c-19.8,0-33.7-12.6-33.7-32.4L423.5,355.9z"/>
	<path class="st11" d="M504.1,381.7h5.4V393c0,3-0.5,5.3-0.5,5.3h0.3c2.2-6.1,11.2-18.2,27.3-18.2c16.7,0,21.2,9.9,21.2,25.1v40.8
		h-5.4v-38.9c0-11.2-1.4-21.8-15.8-21.8c-12.1,0-22.8,8.5-26,20.5c-0.8,2.7-1,5.7-1,8.8v31.4h-5.4L504.1,381.7L504.1,381.7z"/>
	<path class="st11" d="M572.8,381.7h5.4V446h-5.4V381.7z"/>
	<path class="st11" d="M590.5,381.7h5.8l19.8,50.5c1.2,3.1,2.2,7,2.2,7h0.3c0,0,1-3.9,2.2-7l19.8-50.5h5.7L621,446h-5.2L590.5,381.7
		z"/>
	<path class="st11" d="M680.4,380.1c17.5,0,26.3,13.8,26.3,29.3c0,1.4-0.3,3.5-0.3,3.5h-51.6c0,18.7,12.6,29.3,27.5,29.3
		c12.4,0,20-8.1,20-8.1l3,4.5c0,0-9,8.9-22.9,8.9c-18.2,0-33.2-13.1-33.2-33.6C649.1,392.2,663.9,380.1,680.4,380.1z M701,407.9
		c-0.6-15.7-10.1-22.8-20.7-22.8c-11.9,0-22.8,7.7-25.1,22.8H701z"/>
	<path class="st11" d="M718.7,381.7h5.4v12.2c0,3-0.5,5.3-0.5,5.3h0.3c3.2-9.9,10.4-18,20.6-18c1.9,0,3.7,0.4,3.7,0.4v5.4
		c0,0-1.5-0.3-3-0.3c-10.1,0-16.4,8.5-19.2,18c-1.4,4.5-1.9,9.3-1.9,13.5V446h-5.4L718.7,381.7L718.7,381.7z"/>
	<path class="st11" d="M758.1,434.2c0,0,7.2,8.1,20,8.1c7.9,0,14.8-4.1,14.8-12.1c0-16.4-35.4-11.7-35.4-32.7
		c0-11.5,9.7-17.4,20.6-17.4c13.1,0,19.1,7,19.1,7l-3.2,4.4c0,0-5.3-6.1-16.2-6.1c-7.3,0-14.6,3.4-14.6,11.7
		c0,16.7,35.4,11.7,35.4,33.1c0,10.3-8.8,17.4-20.6,17.4c-15.6,0-23.3-9.3-23.3-9.3L758.1,434.2z"/>
	<path class="st11" d="M813.1,381.7h5.4V446h-5.4V381.7z"/>
	<path class="st11" d="M840.2,387h-8.5v-4.9h8.5v-18.3h5.4v18.3h16.9v4.9h-16.9v35.4c0,17,10.2,19.2,15.3,19.2c1.8,0,3-0.3,3-0.3v5
		c0,0-1.3,0.3-3.2,0.3c-6.7,0-20.5-2.4-20.5-23.8L840.2,387L840.2,387z"/>
	<path class="st11" d="M872.6,464.9c0,0,3.6,3.1,8,3.1c6.2,0,10.1-5.5,12.6-11.6l4.6-10.7l-26.6-64h5.8l21.2,51.4
		c1.3,3.1,2.3,6.1,2.3,6.1h0.3c0,0,0.9-3,2.2-6.1l21.2-51.4h5.8l-33.1,79.4c-2.8,6.7-8.2,12-16.4,12c-6.2,0-10.4-3.6-10.4-3.6
		L872.6,464.9z"/>
	<path class="st11" d="M813.1,355.9h5.4v9.4h-5.4V355.9z"/>
	<path class="st11" d="M572.8,355.9h5.4v9.4h-5.4V355.9z"/>
</g>
</svg>
