<?xml version="1.0" encoding="utf-8"?>
<!-- Generator: Adobe Illustrator 19.2.1, SVG Export Plug-In . SVG Version: 6.00 Build 0)  -->
<svg version="1.1" id="Layer_1" xmlns="http://www.w3.org/2000/svg" xmlns:xlink="http://www.w3.org/1999/xlink" x="0px" y="0px"
	 viewBox="0 0 1010.3 209.9" style="enable-background:new 0 0 1010.3 209.9;" xml:space="preserve">
<style type="text/css">
	.st0{fill:none;stroke:#FFDD00;stroke-width:0.4297;stroke-miterlimit:10;}
	.st1{fill:none;stroke:#000000;stroke-width:0.4297;stroke-miterlimit:10;}
	.st2{fill:#131108;}
	.st3{fill:#FFFFFF;}
	.st4{fill:#E63329;}
	.st5{fill:#FFDD00;}
</style>
<g>
	<path class="st0" d="M170.6,115.8c-0.4,9.3-1.7,17.8-4.1,25.3c-2.3,7.2-5.5,13.6-9.6,19c-7.7,10.1-17,15.2-23.2,18.6
		c-0.5,0.3-4.2,2.2-21.8,10.9v-73.8H170.6"/>
</g>
<path class="st0" d="M67,115.8v73.8c-17.6-8.8-21.3-10.6-21.8-10.9c-6.2-3.4-15.5-8.4-23.2-18.6c-4.1-5.4-7.4-11.8-9.6-19
	c-2.3-7.4-3.7-15.9-4.1-25.3H67"/>
<path class="st1" d="M170.7,10.6H112v60.2h58.8V10.6L170.7,10.6z"/>
<path class="st1" d="M67,10.6H8.2v60.2H67V10.6L67,10.6z"/>
<path class="st2" d="M89.5,209.9l-1.8-1c-2.6-1.3-44-21.9-46.4-23.2C27.9,178.5,0,163.4,0,110.3V2.4h178.9v107.9
	c0,53.1-27.9,68.2-41.3,75.5c-2.5,1.3-44,22-46.4,23.2L89.5,209.9z"/>
<path class="st3" d="M107.7,75.1V6.3H71.3v68.8H3.9v35.3l0,0c0,0.4,0,0.8,0,1.1h67.4v85c9.7,4.8,18.2,9.1,18.2,9.1c0,0,0,0,0,0
	s0,0,0,0c0,0,8.5-4.2,18.2-9.1v-85H175c0-0.4,0-0.8,0-1.1V75.1H107.7z"/>
<g>
	<rect x="3.9" y="6.3" class="st4" width="67.4" height="68.8"/>
	<rect x="107.7" y="6.3" class="st4" width="67.4" height="68.8"/>
	<path class="st4" d="M71.3,111.5H3.9c0.4,49.3,25.7,63.6,39.2,70.9c1.4,0.7,15.8,7.9,28.2,14.1V111.5z"/>
	<path class="st4" d="M107.7,111.5v85c12.4-6.2,26.8-13.4,28.2-14.1c13.6-7.4,38.8-21.7,39.2-70.9H107.7z"/>
</g>
<g>
	<path class="st2" d="M130.8,93.8l1.4-1.7l-1.8-2.1l-1.8,2.1l1.4,1.7c0,0.8,0.1,8.1-4.2,10.7c0,0,1.4,0.3,3.4-0.1
		c0,0,0.3,1.9,1.2,4.1c0.9-2.2,1.2-4.1,1.2-4.1c1.9,0.4,3.4,0.1,3.4,0.1C130.7,101.9,130.8,94.6,130.8,93.8z"/>
	<path class="st2" d="M141.8,81.4l1.4-1.7l-1.8-2.1l-1.8,2.1l1.4,1.7c0,0.8,0.1,8.1-4.2,10.7c0,0,1.4,0.3,3.4-0.1
		c0,0,0.3,1.9,1.2,4.1c0.9-2.2,1.2-4.1,1.2-4.1c1.9,0.4,3.4,0.1,3.4,0.1C141.7,89.5,141.8,82.2,141.8,81.4z"/>
	<path class="st2" d="M152.8,93.8l1.4-1.7l-1.8-2.1l-1.8,2.1l1.4,1.7c0,0.8,0.1,8.1-4.2,10.7c0,0,1.4,0.3,3.4-0.1
		c0,0,0.3,1.9,1.2,4.1c0.9-2.2,1.2-4.1,1.2-4.1c1.9,0.4,3.4,0.1,3.4,0.1C152.7,101.9,152.7,94.6,152.8,93.8z"/>
	<path class="st2" d="M163.7,81.4l1.4-1.7l-1.8-2.1l-1.8,2.1l1.4,1.7c0,0.8,0.1,8.1-4.2,10.7c0,0,1.4,0.3,3.4-0.1
		c0,0,0.3,1.9,1.2,4.1c0.9-2.2,1.2-4.1,1.2-4.1c1.9,0.4,3.4,0.1,3.4,0.1C163.7,89.5,163.7,82.2,163.7,81.4z"/>
	<path class="st2" d="M119.8,81.4l1.4-1.7l-1.8-2.1l-1.8,2.1l1.4,1.7c0,0.8,0.1,8.1-4.2,10.7c0,0,1.4,0.3,3.4-0.1
		c0,0,0.3,1.9,1.2,4.1c0.9-2.2,1.2-4.1,1.2-4.1c1.9,0.4,3.4,0.1,3.4,0.1C119.8,89.5,119.8,82.2,119.8,81.4z"/>
</g>
<g>
	<path class="st2" d="M26.9,93.8l1.4-1.7L26.5,90l-1.8,2.1l1.4,1.7c0,0.8,0.1,8.1-4.2,10.7c0,0,1.4,0.3,3.4-0.1c0,0,0.3,1.9,1.2,4.1
		c0.9-2.2,1.2-4.1,1.2-4.1c1.9,0.4,3.4,0.1,3.4,0.1C26.8,101.9,26.9,94.6,26.9,93.8z"/>
	<path class="st2" d="M37.9,81.4l1.4-1.7l-1.8-2.1l-1.8,2.1l1.4,1.7c0,0.8,0.1,8.1-4.2,10.7c0,0,1.4,0.3,3.4-0.1
		c0,0,0.3,1.9,1.2,4.1c0.9-2.2,1.2-4.1,1.2-4.1c1.9,0.4,3.4,0.1,3.4,0.1C37.8,89.5,37.8,82.2,37.9,81.4z"/>
	<path class="st2" d="M48.8,93.8l1.4-1.7L48.5,90l-1.8,2.1l1.4,1.7c0,0.8,0.1,8.1-4.2,10.7c0,0,1.4,0.3,3.4-0.1c0,0,0.3,1.9,1.2,4.1
		c0.9-2.2,1.2-4.1,1.2-4.1c1.9,0.4,3.4,0.1,3.4,0.1C48.8,101.9,48.8,94.6,48.8,93.8z"/>
	<path class="st2" d="M59.8,81.4l1.4-1.7l-1.8-2.1l-1.8,2.1l1.4,1.7c0,0.8,0.1,8.1-4.2,10.7c0,0,1.4,0.3,3.4-0.1
		c0,0,0.3,1.9,1.2,4.1c0.9-2.2,1.2-4.1,1.2-4.1c1.9,0.4,3.4,0.1,3.4,0.1C59.7,89.5,59.8,82.2,59.8,81.4z"/>
	<path class="st2" d="M15.9,81.4l1.4-1.7l-1.8-2.1l-1.8,2.1l1.4,1.7c0,0.8,0.1,8.1-4.2,10.7c0,0,1.4,0.3,3.4-0.1
		c0,0,0.3,1.9,1.2,4.1c0.9-2.2,1.2-4.1,1.2-4.1c1.9,0.4,3.4,0.1,3.4,0.1C15.8,89.5,15.9,82.2,15.9,81.4z"/>
</g>
<g>
	<path class="st2" d="M89.9,121.7l1.4-1.7l-1.8-2.1l-1.8,2.1l1.4,1.7c0,0.8,0.1,8.1-4.2,10.7c0,0,1.4,0.3,3.4-0.1
		c0,0,0.3,1.9,1.2,4.1c0.9-2.2,1.2-4.1,1.2-4.1c1.9,0.4,3.4,0.1,3.4,0.1C89.8,129.8,89.9,122.5,89.9,121.7z"/>
	<path class="st2" d="M89.9,159l1.4-1.7l-1.8-2.1l-1.8,2.1l1.4,1.7c0,0.8,0.1,8.1-4.2,10.7c0,0,1.4,0.3,3.4-0.1c0,0,0.3,1.9,1.2,4.1
		c0.9-2.2,1.2-4.1,1.2-4.1c1.9,0.4,3.4,0.1,3.4,0.1C89.8,167.1,89.9,159.8,89.9,159z"/>
	<g>
		<path class="st2" d="M100.1,140.3l1.4-1.7l-1.8-2.1l-1.8,2.1l1.4,1.7c0,0.8,0.1,8.1-4.2,10.7c0,0,1.4,0.3,3.4-0.1
			c0,0,0.3,1.9,1.2,4.1c0.9-2.2,1.2-4.1,1.2-4.1c1.9,0.4,3.4,0.1,3.4,0.1C100,148.5,100.1,141.2,100.1,140.3z"/>
		<path class="st2" d="M79.6,140.3l1.4-1.7l-1.8-2.1l-1.8,2.1l1.4,1.7c0,0.8,0.1,8.1-4.2,10.7c0,0,1.4,0.3,3.4-0.1
			c0,0,0.3,1.9,1.2,4.1c0.9-2.2,1.2-4.1,1.2-4.1c1.9,0.4,3.4,0.1,3.4,0.1C79.5,148.5,79.6,141.2,79.6,140.3z"/>
	</g>
</g>
<g>
	<g>
		<path class="st2" d="M100.1,177.6l1.4-1.7l-1.8-2.1L98,176l1.4,1.7c0,0.8,0.1,8.1-4.2,10.7c0,0,1.4,0.3,3.4-0.1
			c0,0,0.3,1.9,1.2,4.1c0.9-2.2,1.2-4.1,1.2-4.1c1.9,0.4,3.4,0.1,3.4,0.1C100,185.7,100.1,178.4,100.1,177.6z"/>
		<path class="st2" d="M79.6,177.6L81,176l-1.8-2.1l-1.8,2.1l1.4,1.7c0,0.8,0.1,8.1-4.2,10.7c0,0,1.4,0.3,3.4-0.1
			c0,0,0.3,1.9,1.2,4.1c0.9-2.2,1.2-4.1,1.2-4.1c1.9,0.4,3.4,0.1,3.4,0.1C79.5,185.7,79.6,178.4,79.6,177.6z"/>
	</g>
</g>
<g>
	<path class="st2" d="M89.9,36.9l1.4-1.7l-1.8-2.1l-1.8,2.1l1.4,1.7c0,0.8,0.1,8.1-4.2,10.7c0,0,1.4,0.3,3.4-0.1
		c0,0,0.3,1.9,1.2,4.1c0.9-2.2,1.2-4.1,1.2-4.1c1.9,0.4,3.4,0.1,3.4,0.1C89.8,45,89.9,37.7,89.9,36.9z"/>
	<g>
		<path class="st2" d="M100.1,18.2l1.4-1.7l-1.8-2.1L98,16.6l1.4,1.7c0,0.8,0.1,8.1-4.2,10.7c0,0,1.4,0.3,3.4-0.1
			c0,0,0.3,1.9,1.2,4.1c0.9-2.2,1.2-4.1,1.2-4.1c1.9,0.4,3.4,0.1,3.4,0.1C100,26.4,100.1,19.1,100.1,18.2z"/>
		<path class="st2" d="M79.6,18.2l1.4-1.7l-1.8-2.1l-1.8,2.1l1.4,1.7c0,0.8,0.1,8.1-4.2,10.7c0,0,1.4,0.3,3.4-0.1
			c0,0,0.3,1.9,1.2,4.1c0.9-2.2,1.2-4.1,1.2-4.1c1.9,0.4,3.4,0.1,3.4,0.1C79.5,26.4,79.6,19.1,79.6,18.2z"/>
	</g>
	<g>
		<path class="st2" d="M100.1,55.5l1.4-1.7l-1.8-2.1L98,53.8l1.4,1.7c0,0.8,0.1,8.1-4.2,10.7c0,0,1.4,0.3,3.4-0.1
			c0,0,0.3,1.9,1.2,4.1c0.9-2.2,1.2-4.1,1.2-4.1c1.9,0.4,3.4,0.1,3.4,0.1C100,63.6,100.1,56.3,100.1,55.5z"/>
		<path class="st2" d="M79.6,55.5l1.4-1.7l-1.8-2.1l-1.8,2.1l1.4,1.7c0,0.8,0.1,8.1-4.2,10.7c0,0,1.4,0.3,3.4-0.1
			c0,0,0.3,1.9,1.2,4.1c0.9-2.2,1.2-4.1,1.2-4.1c1.9,0.4,3.4,0.1,3.4,0.1C79.5,63.6,79.6,56.3,79.6,55.5z"/>
	</g>
</g>
<g>
	<path class="st2" d="M56.7,40.2l0.2,0.9c0.2,0.8,0.4,1.4,0.5,1.8c0.7,3.3,1.3,4.1,2.9,4.1c0.9,0,1.7-0.5,1.9-1.3l0.3-1.1
		c0.1-0.3,0.3-0.4,0.5-0.4c0.6,0,0.9,0.6,0.9,2.1c0,0.4,0.1,1.3,0.4,2.8c0.2,0.9,0.2,1.7,0.2,2.5c0,0.7-0.1,1-0.3,1.8
		c0.2,1.1,0.3,2.6,0.3,3.5c0,1.4-0.3,2.7-0.7,3.4c0.2,0.9,0.3,1.3,0.3,2.2c0,0.6-0.1,1.3-0.2,1.9c-0.2,1.4-0.3,1.7-0.3,2
		c0,0.3,0,0.5,0.1,0.8c0.1,0.3,0.2,0.6,0.2,0.7c0,0.2-0.1,0.3-0.2,0.3l-1.1-0.5l-1.3-0.7c-0.4-0.2-0.7-0.4-1.3-1
		c-1.1,1-1.4,1.1-4.3,1.9c-0.6,0.2-1,0.3-1.3,0.5c-0.4,0.3-0.6,0.4-0.8,0.4c-0.5,0-0.7-0.8-0.7-2.4c0-1.2,0.1-2.3,0.3-3.2
		c-0.9-0.3-1.6-0.5-2-0.5c-0.1,0-0.4,0-0.9,0.1l-0.2,0c-0.2,0-0.3-0.3-0.3-0.5c0-0.2,0.2-0.8,0.4-1.2l0.6-1.4
		c0.2-0.5,0.7-1.1,1.4-1.7c0.6-0.5,1.1-0.8,1.5-0.9l2.1-0.4c1.2-0.2,2-0.9,2-1.7c0-0.8-0.6-1.4-1.8-1.8l-2.5-0.9
		c-0.6-0.2-1.4-0.6-2.2-1.1c-1.4-0.8-1.6-0.9-1.9-0.9c-0.5,0-0.8,0.4-0.8,1c0,1,0.7,1.7,1.6,1.7c0.2,0,0.4,0,0.6-0.1
		c0.3-0.1,0.5-0.2,0.6-0.2c0.3,0,0.4,0.2,0.4,0.4l0,0.3l-0.1,1c-0.1,0.8-0.6,1.8-1.8,3.4l-0.5,0.7c-0.5,1.8-1.6,3.5-3.1,4.5
		c-0.4,0.2-0.6,0.4-0.6,0.5c0,0.1-0.2,0.3-0.5,0.8C45,64.5,44.7,65,44,65.7c-0.5,0.5-1,1-1.4,1.3c-0.6,0.5-1,0.8-1.1,1l-0.6,1
		c-0.1,0.2-0.3,0.3-0.5,0.3c-0.5,0-1-0.5-1.3-1.4C39,67.2,38.8,67,38.3,67c-0.2,0-0.6,0.1-1,0.2l-0.8,0.1h-2.1c-1,0-2.5,0.3-3.1,0.6
		c-0.3,0.1-0.5,0.2-0.6,0.2c-0.1,0-0.2-0.1-0.4-0.4c-0.1-0.2-0.1-0.3-0.1-0.5c0-1,0.7-3,1.7-4.6c0.6-1,0.8-1.2,1.5-1.8
		c-0.2-1-0.8-1.7-1.6-1.9l-1-0.3c-0.1,0-0.2-0.2-0.2-0.3c0-0.3,0.5-0.7,1.3-1.2c1.1-0.6,2.2-0.9,3.1-0.9c0.9,0,1.9,0.4,2.9,1.2
		c1.5,1.2,2,1.4,2.7,1.4c1.2,0,2.4-1.1,2.4-2.3c0-0.8-0.4-1.6-1.5-3c-1.6-2.1-2.1-3.1-2.1-4.6c0-0.9,0.3-2.1,0.6-2.7l0.6-0.9
		c0.1-0.2,0.2-0.4,0.2-0.6c0-0.4-0.4-0.7-1-0.7c-0.9,0-2.6,0.6-4,1.5c-0.7,0.4-1.2,0.9-1.2,1.2c0,0.2,0.1,0.3,0.2,0.4l0.6,0.4
		c0.1,0,0.1,0.1,0.1,0.2c0,0.1-0.1,0.3-0.2,0.4l-1.1,1.5c-0.6,0.8-1.5,1.7-2.4,2.5c-0.3,0.3-0.5,0.5-0.6,0.6c0,0-0.2,0.3-0.5,0.9
		c-0.4,0.8-1.5,1.9-2.5,2.6c-0.4,0.3-0.7,0.5-0.8,0.6c-0.1,0.1-0.2,0.4-0.5,0.8c-0.1,0.3-0.4,0.7-0.7,1.2c-0.6,0.8-1,1.4-1.4,1.8
		l-1.6,1.6c-0.5,0.5-0.9,1.4-1.6,3.5c-0.4,1.3-0.8,2-1,2c-0.1,0-0.3-0.1-0.4-0.3c-1.1-1.3-2.1-2.1-2.6-2.1c-0.1,0-0.3,0.1-0.6,0.3
		c-0.4,0.3-0.9,0.5-1.5,0.6l-2.1,0.4c-1.6,0.3-2.2,0.6-3.1,1.7c-0.2,0.3-0.4,0.4-0.5,0.4c-0.2,0-0.3-0.3-0.3-0.7l0.1-0.5l0.3-1.5
		c0.3-1.6,0.7-2.9,1.1-3.7l1-1.8c0.2-0.3,0.3-0.7,0.3-0.9c0-1.3-1.4-2.5-3-2.7c-0.4,0-0.6-0.1-0.6-0.4c0-0.3,0.5-0.9,1.1-1.3
		c1.1-0.9,2.6-1.5,3.6-1.5c0.6,0,1.5,0.2,2.6,0.7l1.3,0.5c0.5,0.2,0.9,0.3,1.3,0.3c1.3,0,2.6-1.2,4.2-3.9c0.7-1.2,1-2.1,1-2.9
		c0-1.4-0.7-2.3-1.8-2.3c-0.9,0-1.8,0.4-2.5,1.1c-0.6,0.6-0.9,1.2-0.9,1.8l0,0.6l0,0.1c0,0.5-0.2,0.8-0.5,0.8
		c-0.5,0-1.3-0.8-3.6-3.5c-1.7-2-2-2.9-2.1-4.9c-1.9-2.5-2.4-3.5-2.4-5.3l0.1-1.2c-1.3-1.6-1.7-2.5-1.7-4c0-0.5,0.1-0.9,0.4-1.5
		c-0.7-1-0.9-1.5-1.1-2.2l-0.3-1.2c-0.2-0.8-0.5-1.5-0.9-2.1C6,24,6,23.9,6,23.7c0-0.7,0.5-0.9,2.5-1.4c-0.1-0.6-0.1-1-0.1-1.3
		c0-0.3,0-0.7,0.2-1.4l0.4-2.1c0.2-0.9,0.2-1.5,0.2-1.8c0-0.4-0.1-0.7-0.4-1.8c-0.2-0.7-0.4-1.1-0.5-1.3c-0.2-0.3-0.3-0.7-0.3-0.8
		c0-0.2,0.1-0.3,0.4-0.3c0.6,0,2.1,0.9,3.6,2.2c3.3,2.7,4,3.8,4.4,7.1c0,0.3,0.1,0.6,0.2,1.1c1.6,1.2,2.4,2.5,2.4,4
		c0,1.2-0.4,2.6-1.1,3.7l-1.1,1.8c-0.3,0.5-0.5,1.2-0.5,1.9c0,1.1,0.3,2.1,1.1,3.4c0.9,1.5,1.6,2.2,2.5,2.2c1.5,0,2.8-2.6,2.8-5.6
		v-0.4l0-1c0-0.6,0-1.2,0.1-1.9c0.1-0.9,0.2-1.4,0.2-1.7l0.1-1.4l0-0.9c0-0.3-0.2-0.6-0.6-1.1L21,23.5c-1.8-2-2.8-3.8-2.8-5.2
		c0-1.7,1.2-3,2.9-3c0.3,0,0.6,0.1,1.2,0.2v-0.4c0-2.5,0.5-4.4,1.2-4.4l0.3,0.1l1,0.9l1.3,0.8l0.3,0.3c0-0.7,0-0.8,0.7-1.6
		c0.2-0.2,0.4-0.6,0.8-1.1c0.3-0.4,0.5-0.7,0.6-0.9c0.1-0.1,0.2-0.3,0.3-0.5c0.2-0.3,0.3-0.4,0.5-0.4c0.2,0,0.3,0.2,0.5,0.8
		c0.1,0.4,0.2,0.5,1.2,1.4c0.3,0.3,0.6,0.6,0.7,0.7c0.1,0.2,0.2,0.5,0.5,1.1c0,0.1,0.1,0.3,0.2,0.5c0.4-0.5,0.6-0.7,1.1-1l0.9-0.5
		c0.3-0.2,0.5-0.3,0.6-0.3c0.1,0,0.2,0.1,0.3,0.3c0.1,0.2,0.2,0.5,0.5,0.9c0.6,1.1,0.8,1.6,0.8,2.1l0,0.6v0.7
		c1.9,0.6,2.6,1.6,2.6,3.6c0,1.5-0.8,3.1-2.2,4.9c-1,1.2-1.1,1.4-1.1,2.2c0,4.2,2.9,6.7,8.1,6.8l3.8,0.1c2.5,0,3.9,0.3,6.2,1
		c2.7,0.9,3.5,1.1,4.3,1.1c0.3,0,0.5-0.1,0.7-0.2c0.2-0.1,0.3-0.3,0.3-0.5c0-0.8-1.4-1.4-6-2.7C43.9,29,39.9,25.2,39.9,19
		c0-4.8,4-8.6,9.2-8.6c1.7,0,4.2,0.4,5.7,1l2.3,0.9c0.4,0.2,0.8,0.2,1.2,0.2c0.8,0,1.2-0.7,1.2-2c0-0.7,0.2-1,0.7-1
		c0.7,0,1.7,0.8,2.6,2.1c0.9,1.3,1.5,2.8,1.5,3.7c0,1.3-0.6,2.2-2,3c-1.3,2-2.9,2.9-5,2.9c-1.7,0-4-0.9-7.9-3.1c-1.4-0.8-2-1-2.8-1
		c-1,0-1.7,0.6-1.7,1.5c0,0.8,0.6,1.4,2.3,1.9c2.5,0.9,3.1,1.2,4.1,2.2c2.9,0.5,4.2,1,6,2.4c5,1.6,8.1,5,8.1,8.9
		c0,3.8-2.6,6.6-6.2,6.6C58.5,40.6,58,40.5,56.7,40.2"/>
	<path class="st5" d="M62.4,65.3c-0.2-0.7-0.2-1-0.2-1.4l0-0.4l0.2-0.9l0.1-0.7c0-0.8-0.1-1.4-0.4-1.7l-0.7-0.9
		c-0.2-0.3-0.4-0.7-0.6-1.1c-0.1-0.2-0.1-0.4-0.1-0.5c0-0.3,0.2-0.4,0.4-0.4c0.2,0,0.2,0,0.7,0.3c0.2,0.1,0.4,0.2,0.6,0.2
		c0.3,0,0.5-0.6,0.5-1.5c0-1.1-0.1-1.7-0.3-2l-0.9-1l-0.7-0.6c-0.2-0.2-0.3-0.3-0.3-0.5c0-0.2,0.2-0.4,0.5-0.4
		c0.3,0,0.8,0.1,1.3,0.3l0.3,0.1c0.2,0,0.3-0.1,0.3-0.5l0-0.2l-0.2-1.2l-0.3-1.3c-0.1-0.4-0.2-0.5-0.4-0.5l-0.1,0l-1.4,0.3l-0.2,0
		c-1.9,0-3.9-1.6-4.5-3.6l-1.1-3.7c-0.4-1.1-1.2-2.2-2.7-3.5c-0.5-0.4-0.9-0.6-1.1-0.6l-1-0.1c-0.2,0-0.3-0.1-0.3-0.3
		c0-0.2,0.2-0.3,0.7-0.3l1.9,0.2c0.7,0.1,1.7,0.3,3.1,0.8c1.7,0.6,2.9,0.8,3.8,0.8c2.9,0,4.6-1.5,4.6-4.1c0-1.8-0.9-3.8-2.3-5.1
		c-0.8-0.7-1.6-1.3-1.9-1.3c-0.2,0-0.3,0.1-0.3,0.3L59,29l0,0.1c0,0.3-0.2,0.5-0.4,0.5c-0.3,0-0.6-0.4-1-1.1
		c-1.1-2.2-2.8-3.6-4.6-3.6c-0.3,0-0.5,0.1-0.5,0.3c0,0.1,0.1,0.4,0.3,0.8l0.5,1c0.1,0.3,0.2,0.4,0.2,0.5c0,0.1-0.1,0.1-0.2,0.1
		c-0.3,0-0.7-0.2-1-0.5l-0.9-0.9L50.6,25c-0.6-0.9-1.1-1.3-2.3-2c-0.7-0.4-1.2-0.6-1.4-0.7c-0.3-0.1-0.5-0.2-0.7-0.2
		c-0.2,0-0.3,0.1-0.3,0.3c0,0.2,0.1,0.4,0.2,0.6c0.4,0.7,0.6,1,0.6,1.1c0,0.2-0.1,0.3-0.3,0.3c-0.4,0-1.4-0.9-2.2-2.1
		c-0.7-1-1-2.1-1-3.2c0-2.5,1.8-4.3,4.2-4.3c1.3,0,2.8,0.5,4.3,1.4l2.7,1.7c0.9,0.6,2.3,1,3.1,1c0.4,0,1.1-0.1,1.7-0.3
		c0.2-0.1,0.5-0.2,0.7-0.3c0.2-0.1,0.3-0.2,0.3-0.3c0-0.1-0.1-0.2-0.2-0.2l-0.3-0.1l-1.3-0.2c-0.3-0.1-0.8-0.2-1.5-0.6
		c-1.5-0.7-2.5-1.2-2.9-1.4c-0.9-0.6-1.6-1-1.9-1.1c-0.5-0.2-0.8-0.4-0.8-0.5c0-0.2,0.1-0.3,0.3-0.3c0.2,0,0.4,0.1,0.6,0.2
		c0.8,0.5,1.6,0.8,2.1,0.8l2.5,0.9c1.2,0.4,3,0.8,3.8,0.8c1,0,1.9-0.8,1.9-1.9c0-0.7-0.4-1.7-1-2.5c-0.1-0.2-0.3-0.3-0.4-0.3
		c-0.2,0-0.4,0.2-0.4,0.5l0.1,0.5l0.1,0.7c0,0.7-0.5,1.3-1.1,1.3c-0.2,0-0.5-0.1-0.9-0.2l-3.7-1.2c-3.1-1-4.6-1.3-6.1-1.3
		c-4.4,0-7.8,3.1-7.8,7.1c0,4.5,3.2,7.5,11.1,10.2c7.8,2.7,8.9,3.3,8.9,5.3c0,1.1-1.2,2.2-2.5,2.2c-0.5,0-1,0-1.4-0.1
		c-0.3-0.1-1.6-0.4-3.9-0.9c-2.3-0.6-4.5-0.8-7.1-0.8c-5.6,0-8.7,1-11.4,3.6c-0.7,0.7-0.9,0.8-1.7,0.8l-0.4,0L32.1,39L32,39
		c-0.7,0-1.2,0.3-1.6,1c-0.6,1-0.9,1.5-1,1.5C29.2,41.8,29,42,28.7,42c-0.5,0-0.8-0.4-1.4-1.8c-0.3-0.7-0.7-1.3-1.2-1.7l-1.1-1
		c-0.2-0.2-0.3-0.3-0.3-0.4c0-0.1,0.1-0.3,0.2-0.5c0.5-0.8,0.7-1.2,0.8-1.5c0.2-0.8,0.2-0.8,0.5-0.8c0.4,0,0.5,0.4,0.5,1.7
		c0,0.4,0.2,0.9,0.5,1.5l0.6,1.4c0.1,0.2,0.3,0.3,0.5,0.3c0.6,0,1.3-1.4,1.5-2.9c0.2-1.2,0.3-1.6,0.5-1.6c0.1,0,0.2,0,0.3,0.1
		c0.1,0.1,0.2,0.4,0.5,1c0.2,0.3,0.4,0.6,0.7,0.9c0.3,0.2,0.6,0.4,0.7,0.4l0.1,0c0.5,0,0.6-0.3,0.7-1.4l0.1-0.6l-0.1-0.8l-0.1-0.6
		c0-0.4,0.1-0.6,0.3-0.6c0.1,0,0.3,0.1,0.4,0.2l0.6,0.6c0.4,0.4,0.8,0.6,1.1,0.6c0.5,0,0.8-0.2,0.8-0.5c0-0.3-0.1-0.5-0.5-1.3
		l-0.4-0.7c-0.5-0.9-0.8-1.2-1.3-1.2l-0.6,0.1L33.1,31c-0.2,0.1-0.4,0.1-0.4,0.1c-0.1,0-0.2-0.1-0.2-0.2c0-0.5,0.3-1.3,1-2.3
		c0.5-0.7,0.8-2.3,0.9-4.5c0.2-3,0.6-4.9,1-4.9c0.3,0,0.4,0.2,0.4,0.9l0,0.8l0,0.5c0,0.5,0.1,1,0.3,1c0.5,0,1.1-0.7,1.5-1.9
		c0.2-0.5,0.3-0.9,0.3-1.2L37.7,19l-1.1-2.1l-1.1-0.3c-0.2-0.1-0.4-0.2-0.4-0.3v-0.8v-0.6l-0.1-0.7l-0.2-0.6l-0.3-0.6
		c-1.3,0.7-1.8,1.1-2.3,1.7c-0.4,0.6-0.7,0.8-0.9,0.8c-0.1,0-0.3-0.1-0.3-0.3c0-0.1,0.1-0.4,0.2-0.9l0-0.3c0-1.2-0.7-2.4-2-3.2
		l-0.3,0.5l-0.4,0.6l-0.7,0.8c-0.2,0.3-0.4,0.6-0.6,1.1C27,14,27,14.3,27,14.4l0,0.1l0,0.2c0,0.5-0.1,0.6-0.3,0.6l-0.1-0.1l-0.4-0.6
		L25.6,14l-1-0.6L24.1,13c-0.1,0.2-0.2,0.4-0.2,0.5c-0.2,0.4-0.3,0.7-0.3,0.9l-0.1,0.9l-0.1,1l0,0.2c0,0.5-0.1,0.7-0.4,0.7
		c-0.1,0-0.4-0.1-0.7-0.3c-0.3-0.1-0.5-0.2-0.8-0.2c-0.9,0-1.5,0.6-1.5,1.6c0,1.1,0.3,2.2,0.9,3l0.7,1c0.2,0.3,0.6,0.5,0.6,0.3
		l0.1-1.2l-0.2-1l0-0.4c0-0.4,0.1-0.6,0.3-0.6c0.3,0,0.5,0.4,0.7,1.3l0.5,2.1l0.5,2.7c0.1,0.7,0.4,1.5,0.7,2.3c0.5,1.1,0.8,1.7,1,2
		c0.6,0.8,0.7,0.9,0.7,1.1c0,0.1-0.1,0.3-0.2,0.3c-0.1,0-0.3-0.1-0.5-0.2c-0.2-0.1-0.4-0.2-0.7-0.2l-0.4-0.1c-0.9,0-1.1,0.8-1.1,4.6
		c0,2.3,0.5,5.5,1.1,7l1.2,3c0.2,0.5,0.3,1,0.3,1.4c0,4.2-5.5,10.7-11.6,13.7c-2.3,1.1-3,2.2-3.1,4.7l-0.1,0.7
		c0.9-0.5,1.3-0.6,1.9-0.8c1.7-0.4,2-0.7,2.3-1.5l0.2-0.7c0.1-0.3,0.2-0.4,1.5-1.1c0.5-0.2,0.8-0.5,0.9-0.7c0.3-0.5,0.5-0.7,0.7-0.7
		c0.1,0,0.2,0.1,0.2,0.2l0,0.2l-0.6,1.6l-0.1,0.4c0,1.2,0.7,2.2,1.9,2.8c0.2-1.3,0.3-1.8,0.7-2.4l1-1.6c0.4-0.6,0.5-1.3,0.5-2.4
		c0-0.6-0.1-1.3-0.1-1.8l0-0.5c0-0.3,0.2-0.5,0.4-0.5c0.2,0,0.4,0.1,0.4,0.2l0.2,1.1c0,0.2,0.3,0.4,0.6,0.4c0.5,0,1.3-0.7,2-2
		c0.3-0.5,0.4-1,0.4-1.5l-0.1-0.8l-0.2-0.9l0-0.2c0-0.4,0.2-0.6,0.5-0.6c0.1,0,0.2,0,0.3,0.1l0.3,1.3c0.1,0.4,0.4,0.7,0.7,0.7
		c0.4,0,1-0.7,1.4-1.4c0.3-0.7,0.5-1.5,0.5-2.3c0-1.2,0.1-1.6,0.6-1.6c0.1,0,0.3,0.1,0.3,0.1l0.2,0.7c0.1,0.3,0.2,0.5,0.4,0.5
		c0.2,0,0.9-0.7,1.3-1.4c0.1-0.2,0.2-0.4,0.2-0.5c0-0.2-0.2-0.5-0.5-0.8c-0.6-0.5-0.6-0.6-0.6-1.3c0-0.7,0.1-1.1,0.6-2
		c0.3-0.5,0.5-0.9,0.7-1.4c0.7-1.4,1-1.8,1.2-1.8c0.2,0,0.4,0.2,0.4,0.5c0,0.1,0,0.3-0.1,0.5c-0.2,0.3-0.2,0.5-0.2,0.7
		c0,0.2,0.2,0.4,0.4,0.4c0.3,0,0.6-0.1,1-0.3c0.2-0.1,0.7-0.3,1.6-0.6l1.9-0.7c0.3-0.1,0.7-0.2,1.1-0.2c0.4,0,0.7,0,1,0.1
		c0.7,0.2,1.1,0.2,1.3,0.2c0.5,0,1-0.4,1-1c0-0.4-0.4-1.1-0.9-1.7c-0.2-0.2-0.3-0.4-0.3-0.5l0.1-0.2c0.1-0.1,0.2-0.2,0.3-0.2
		c0.4,0,1.3,1,2.1,2.2c4.9,7.7,6.7,9.6,10,10.6c3.4,1,4.2,1.8,4.2,3.8c0,1.1-0.6,2.4-1.8,4.1c-2.5,3.5-3.1,4.9-3.1,7.2l0,0.4
		c0.3-0.1,0.5-0.2,0.6-0.3c0.5-0.2,0.8-0.4,0.9-0.4l1.4-0.3c0.4-0.1,0.8-0.6,0.8-1.2l0-0.1l-0.2-1.3l0-0.2c0-0.4,0.2-1,0.5-1.2
		c0.1-0.1,0.2-0.1,0.3-0.1c0.2,0,0.4,0.1,0.4,0.4l0.9,1.9C60.7,64.3,61.2,64.7,62.4,65.3"/>
	<path class="st5" d="M16.3,23.8c-0.4,0-0.6,0.4-0.7,1.1l-0.1,1.1c-0.1,1-0.1,1.1-0.1,1.4c0,0.8,0.2,1.4,0.6,1.4
		c0.4,0,0.9-0.7,1.2-1.5c0.2-0.5,0.3-0.9,0.3-1.3c0-0.4-0.1-0.8-0.3-1.3C17,24.2,16.6,23.8,16.3,23.8"/>
	<path class="st5" d="M11.6,15.5l0.8,0.8c1.3,1.3,1.9,3.5,1.9,6.5c0,0.7,0,1.1-0.2,2.9c-0.1,1-0.1,1.7-0.1,2.4
		c0,7.1,2.3,12.4,5.3,12.4c1,0,1.6-0.5,2.5-1.8c0.1-0.2,0.4-0.4,0.5-0.4c0.2,0,0.3,0.1,0.3,0.5l0.1,1.3l0.1,1.1l0.1,1.2l0.2,1.1
		l0,0.1c0,0.3-0.1,0.5-0.4,0.5l-1,0.2c-0.5,0.1-1.1,0.3-1.6,0.6c-0.9,0.5-1.4,0.9-1.5,1.1L18,47.4c-0.1,0.2-0.2,0.3-0.4,0.3
		c-0.3,0-0.9-0.6-1.5-1.6c-0.5-0.9-0.8-1.6-0.8-1.9c0-0.2,0.1-0.3,0.5-0.3H16l0.7,0.1l0.5-0.1l0.5-0.1c0.2,0,0.3-0.2,0.3-0.4
		c0-0.1-0.1-0.3-0.2-0.3l-2.6-1.1c-0.8-0.3-1.5-1-1.9-1.9c-0.7-1.4-1-2.2-1-2.6c0-0.4,0.2-0.6,0.5-0.6c0.1,0,0.2,0,0.4,0.1
		c0.3,0.1,0.6,0.2,0.7,0.2c0.2,0,0.4-0.2,0.4-0.4c0-0.2-0.2-0.4-0.5-0.6c-2.1-1.6-3.4-3.3-3.4-4.9c0-0.4,0.1-0.6,0.3-0.6l0.4,0
		l0.7,0.1h0c0.3,0,0.5-0.2,0.5-0.4c0-0.2-0.2-0.4-0.5-0.5c-0.5-0.3-0.8-0.5-0.9-0.5c-0.3-0.2-0.6-0.5-0.8-0.8
		c-0.1-0.2-0.4-0.8-1-1.8l-0.8-1.5c-0.3-0.6-0.5-0.9-0.5-1c-0.1-0.1-0.2-0.2-0.3-0.5c0.7-0.4,1.2-0.5,1.8-0.5c0.8,0,1.3,0.5,1.8,1.9
		c0.3,0.9,0.7,1.5,0.9,1.5c0.1,0,0.1-0.2,0.1-0.7c0-0.6-0.1-1.1-0.2-1.7c-0.1-0.5-0.2-0.9-0.2-1.3l-0.1-0.8l-0.7-0.3
		c-0.2-0.1-0.3-0.3-0.5-0.6c-0.3-0.5-0.5-0.9-0.5-1.3c0-0.2,0.1-0.6,0.2-1c0.6-2.2,0.8-3,0.8-3.7l0-0.5L11.6,15.5z"/>
	<path class="st5" d="M18.4,56.7c-0.8-0.1-1.2-0.2-1.7-0.4c-0.1-0.1-0.5-0.2-1.1-0.5c-0.9-0.4-1.6-0.6-2.2-0.6c-0.9,0-1.6,0.3-2.4,1
		l0.5,0.4l1.1,0.8l1.1,0.9c0.3,0.2,0.6,0.3,0.9,0.3C15.9,58.6,16.9,58.1,18.4,56.7"/>
	<path class="st5" d="M40.4,67.1c0.3-0.7,0.5-0.9,1.1-1.5c1.6-1.4,2.3-2.4,2.3-3.2v-0.6v-0.7c0-0.7,0.1-1,0.5-1
		c0.2,0,0.3,0.1,0.4,0.2L45,61c0.1,0.2,0.3,0.3,0.5,0.3c0.2,0,0.5-0.3,0.8-0.7l0.6-0.8c0.3-0.4,0.4-0.7,0.4-1.1c0-0.2,0-0.4-0.1-0.7
		c0-0.1-0.2-0.4-0.4-0.9c-0.1-0.3-0.2-0.7-0.2-0.9c0-0.4,0.2-0.6,0.5-0.6c0.2,0,0.3,0.1,0.4,0.2l0.5,0.6c0.1,0.1,0.3,0.2,0.4,0.2
		c0.2,0,0.5-0.2,0.6-0.5l0.5-0.9c0.1-0.2,0.2-0.4,0.2-0.5c0-0.2-0.2-0.4-0.5-0.5l-0.7-0.3c-1-0.4-1.7-2-1.7-3.7c0-0.2,0-0.4,0.1-0.6
		l0.4-1c0.1-0.3,0.2-0.6,0.2-0.9c0-0.6-0.2-1.2-0.6-1.8c-0.5-0.7-0.7-1.1-0.7-1.2c-0.3-0.9-0.5-1.2-0.8-1.2l-0.3,0.1l-0.4,0.2
		l-0.6,0.3l-0.7,0.9l-0.8,0.4c-0.5,0.2-0.9,1.3-0.9,2.1c0,1.5,0.2,1.9,2.1,5.3c0.8,1.3,1.2,2.4,1.2,3.3c0,2.3-2.1,4-6.3,5l-2.6,0.6
		c-1.9,0.5-3.1,1.8-3.5,4.1c0.8-0.4,1.1-0.5,2.5-0.5l0.8,0l0.1,0c0.8,0,0.9-0.1,1.3-0.7c0.6-0.8,1.1-1.3,1.9-1.6l0.9-0.4l0.7-0.4
		l0.2-0.1c0.2,0,0.3,0.1,0.3,0.2c0,0.2-0.2,0.6-0.5,1c-0.7,0.7-0.9,1.3-0.9,2.2C39.8,66.1,39.9,66.5,40.4,67.1"/>
	<path class="st5" d="M33.2,58.2c0.7,0.4,1.3,1,1.7,1.5c0.5,0.7,0.6,0.8,1.2,0.8c0.2,0,0.5,0,0.8-0.1l0.5-0.1
		c0.9-0.2,1.3-0.3,1.3-0.6c0-0.1-0.1-0.3-0.3-0.5l-0.6-0.6l-0.6-0.6c-0.4-0.4-1.2-0.6-1.9-0.6C34.6,57.5,34.2,57.7,33.2,58.2"/>
	<path class="st5" d="M51.7,61.3l0.3-0.1l0.5-0.1l0.5,0.1l0.3,0c1.3,0,2.5-1.1,2.5-2.2c0-0.4-0.4-0.6-1-0.6
		C53.3,58.5,52.3,59.3,51.7,61.3"/>
	<path class="st2" d="M30.4,21.9c0.1,0.5,0.3,1,0.6,1c0.2,0,0.5-0.6,1.1-1.6c0.8-1.4,1.6-2.7,1.6-3.4c0-0.2-0.1-0.4-0.3-0.4l-0.1,0
		l-0.6,0.6c-0.5,0.4-0.8,0.6-1.9,1c-0.6,0.2-0.9,0.5-0.9,1l0.1,0.5l0.3,0.8L30.4,21.9z"/>
	<path class="st2" d="M26.9,18.9l1,0.5c0.3,0.1,0.4,0.3,0.4,0.5l-0.1,0.4c-0.1,0.5,0,1,0,1.2c0,1-0.8,1-1.1,1
		c-0.2,0-0.1-0.1-0.5-0.6l-1.3-1.4c-0.4-0.4-0.7-1.4-0.9-2.6l0-0.1c0-0.3,0.1-0.4,0.3-0.4c0.2,0,0.4,0.1,0.6,0.3L26.9,18.9z"/>
	<path class="st2" d="M29.2,24.9l-0.3,0l-0.7-0.1c0,0-0.2-0.1-0.7-0.4c-0.3-0.2-0.5-0.2-0.8-0.2c-0.5,0-0.9,0.3-0.9,0.7
		c0,0.5,0.2,1.3,0.8,2.5l0.7,1.8c0.7,1.6,1.3,2.3,2.1,2.3c0.8,0,0.8-0.7,1.4-2c1.1-2.9,1.8-3.3,1.8-4.3c0-0.7-0.2-0.9-0.8-0.9
		l-0.5-0.1l-0.9,0.6L29.2,24.9z"/>
	<path class="st5" d="M29.1,26.5h-0.7c-0.1,0-0.2,0.1-0.3,0.2L28,26.9l0.3,1.4l0.2,1.2c0.1,0.7,0.4,0.9,0.9,0.9c0.6,0,0.9-0.4,1-1.1
		l0.1-1.3c0.1-0.8,0.1-1.3,0.1-1.3c0-0.1-0.1-0.2-0.2-0.3c-0.1-0.1-0.2-0.1-0.3-0.1l-0.1,0L29.1,26.5z"/>
</g>
<g>
	<path class="st2" d="M163.3,40.2l0.2,0.9c0.2,0.8,0.4,1.4,0.5,1.8c0.7,3.3,1.3,4.1,2.9,4.1c0.9,0,1.7-0.5,1.9-1.3l0.3-1.1
		c0.1-0.3,0.3-0.4,0.5-0.4c0.6,0,1,0.7,1,2.1c0,0.5,0.1,1.5,0.3,2.8c0.2,1,0.2,1.8,0.2,2.6c0,0.6-0.1,0.9-0.3,1.6l0.1,0.7
		c0.2,1.1,0.2,1.6,0.2,2.1c0,2.5-0.1,3.2-0.7,4.1c0.2,0.9,0.3,1.4,0.3,2c0,0.4-0.1,1-0.2,2l-0.2,1.7l0.1,1c0.2,0.4,0.2,0.6,0.2,0.7
		c0,0.2-0.1,0.3-0.2,0.3l-1.1-0.5l-1.3-0.7c-0.4-0.2-0.7-0.4-1.3-1c-1.1,1-1.3,1.1-2.6,1.4c-1.9,0.5-2.6,0.8-3,1
		c-0.4,0.3-0.6,0.4-0.8,0.4c-0.4,0-0.8-0.9-0.8-2.1c0-1.8,0.1-2.8,0.4-3.5c-1.1-0.4-1.7-0.5-2.1-0.5c-0.2,0-0.2,0-0.8,0.1l-0.3,0
		c-0.2,0-0.3-0.2-0.3-0.5c0-0.6,0.4-1.7,0.9-2.6c0.7-1.3,1.9-2.3,2.8-2.5l2.1-0.4c1.2-0.2,1.9-0.9,1.9-1.7c0-0.8-0.5-1.4-1.8-1.8
		l-2.4-0.9c-0.8-0.3-1.6-0.7-2.3-1.1c-0.6-0.4-1-0.6-1.3-0.7c-0.2-0.1-0.4-0.2-0.6-0.2c-0.5,0-0.8,0.4-0.8,1c0,1,0.8,1.8,1.7,1.8
		c0.2,0,0.4,0,0.6-0.1c0.3-0.1,0.4-0.2,0.5-0.2c0.3,0,0.4,0.3,0.4,0.6c0,1-0.6,2.8-1.3,3.6l-0.7,0.9l-0.5,0.7
		c-0.2,1.5-1.6,3.6-3.1,4.5c-0.4,0.2-0.6,0.4-0.6,0.5c0,0.1-0.2,0.3-0.5,0.8c-0.1,0.2-0.5,0.7-1.1,1.4c-0.5,0.5-1,1-1.4,1.3
		c-0.6,0.5-1,0.8-1.1,1l-0.6,1c-0.1,0.2-0.3,0.3-0.4,0.3c-0.5,0-1-0.5-1.3-1.4c-0.2-0.7-0.4-0.9-0.8-0.9c-0.2,0-0.6,0.1-1,0.2
		l-0.8,0.1h-2c-1.1,0-2.5,0.3-3.2,0.6c-0.3,0.1-0.5,0.2-0.6,0.2c-0.3,0-0.4-0.3-0.4-0.9c0-1.8,1.4-4.6,3.2-6.3
		c-0.3-1.1-0.8-1.8-1.5-1.9c-0.6-0.2-1-0.3-1-0.3c-0.1-0.1-0.2-0.2-0.2-0.3c0-0.4,0.4-0.7,1.3-1.2c1.6-0.8,2.1-0.9,3-0.9
		c1,0,1.9,0.4,3,1.2c1.5,1.2,2,1.4,2.7,1.4c1.2,0,2.4-1.1,2.4-2.3c0-0.8-0.4-1.7-1.5-3c-1.5-1.9-2.1-3.2-2.1-4.9
		c0-1.1,0.2-1.7,1.2-3.3c0.2-0.3,0.2-0.5,0.2-0.6c0-0.3-0.5-0.6-1.1-0.6c-0.6,0-1.4,0.2-2.4,0.7c-1.7,0.8-2.7,1.5-2.7,2
		c0,0.2,0.1,0.4,0.3,0.5l0.6,0.4c0.1,0.1,0.1,0.1,0.1,0.2c0,0.1-0.1,0.3-0.2,0.4c-0.1,0.1-0.5,0.6-1.1,1.5c-0.8,1.1-1.6,1.9-2.4,2.5
		c-0.3,0.2-0.5,0.4-0.6,0.6l-0.5,0.9c-0.4,0.7-1.5,1.9-2.5,2.6c-0.4,0.3-0.7,0.5-0.8,0.6c-0.1,0.1-0.3,0.4-0.5,0.8
		c-0.6,1-1.5,2.3-2.1,3l-1.5,1.6c-0.4,0.5-1.1,1.8-1.7,3.5c-0.5,1.4-0.8,2-1,2c-0.1,0-0.3-0.1-0.4-0.3c-1.1-1.3-2.1-2.1-2.6-2.1
		c-0.1,0-0.3,0.1-0.7,0.3c-0.4,0.3-1,0.5-1.5,0.6l-2.1,0.4c-1.7,0.3-2.4,0.7-3.2,1.7c-0.2,0.3-0.4,0.4-0.5,0.4
		c-0.2,0-0.4-0.3-0.4-0.7l0.1-0.5c0-0.1,0.1-0.6,0.3-1.5c0.3-1.6,0.7-3,1.1-3.7l1-1.8c0.2-0.3,0.3-0.6,0.3-0.9
		c0-1.3-1.2-2.4-3.1-2.7c-0.4-0.1-0.6-0.2-0.6-0.4c0-0.3,0.4-0.8,1.1-1.3c1.2-0.9,2.5-1.5,3.5-1.5c0.6,0,1.5,0.2,2.6,0.7l1.3,0.5
		c0.5,0.2,0.9,0.3,1.3,0.3c1.3,0,2.6-1.2,4.2-3.9c0.7-1.2,1-2.1,1-2.9c0-1.4-0.7-2.3-1.8-2.3c-0.9,0-1.7,0.4-2.4,1.1
		c-0.6,0.6-0.9,1.3-0.9,1.8l0,0.6l0,0.3c0,0.5-0.2,0.7-0.5,0.7c-0.4,0-0.9-0.4-1.9-1.6c-0.4-0.5-0.9-1.1-1.6-1.9
		c-1.7-2-2.1-2.8-2.2-4.9c-1.9-2.5-2.4-3.8-2.4-5.3l0.1-1.2c-1.4-1.7-1.7-2.3-1.7-4c0-0.7,0-0.9,0.3-1.5c-0.7-1-0.9-1.5-1.1-2.2
		l-0.3-1.2c-0.2-0.8-0.5-1.5-0.9-2.1c-0.5-0.7-0.6-0.8-0.6-1.1c0-0.6,0.6-1,2-1.3l0.5-0.1c-0.1-0.6-0.1-1-0.1-1.3
		c0-0.3,0-0.7,0.2-1.4l0.4-2.1c0.2-0.8,0.2-1.5,0.2-1.9c0-0.5-0.1-0.9-0.3-1.8c-0.2-0.6-0.4-1-0.6-1.3c-0.2-0.3-0.3-0.6-0.3-0.8
		c0-0.2,0.2-0.3,0.5-0.3c0.1,0,0.4,0.1,0.6,0.2c1.9,1.1,4,2.7,5.5,4.4c1.3,1.4,1.7,2.6,2,5.8c1.8,1.3,2.4,2.5,2.4,4.3
		c0,1.1-0.4,2.2-1.1,3.4c-0.7,1.1-1.1,1.7-1.1,1.8c-0.3,0.6-0.5,1.2-0.5,1.9c0,1,0.3,2,1.1,3.4c0.9,1.5,1.6,2.2,2.5,2.2
		c1.5,0,2.9-2.6,2.9-5.4l0-0.6v-1.5l0.2-1.4l0.1-1.7l0.1-1.4l0-0.8c0-0.6-0.1-0.7-1.9-2.6c-1.9-2.1-2.9-3.8-2.9-5.5
		c0-1.5,1.3-2.8,2.9-2.8c0.3,0,0.6,0.1,1.2,0.2v-0.7l0.1-1.2l0.3-1.5c0.3-1.2,0.4-1.4,0.8-1.4l0.3,0.1l1,0.9l1.3,0.8l0.3,0.3
		c0.1-0.7,0.1-0.9,0.7-1.6c0.3-0.4,0.6-0.7,0.8-1.1l0.6-0.9l0.3-0.5c0.2-0.3,0.3-0.4,0.5-0.4c0.2,0,0.3,0.2,0.4,0.8
		c0.1,0.3,0.3,0.5,0.5,0.7l0.7,0.6c0.6,0.5,1,1.3,1.3,2.3c0.5-0.6,0.7-0.8,1.1-1l0.9-0.5c0.3-0.2,0.5-0.3,0.6-0.3
		c0.1,0,0.2,0.1,0.3,0.3c0.1,0.3,0.3,0.6,0.5,0.9c0.7,1.2,0.8,1.4,0.8,2.2l0,0.5v0.7c1.9,0.5,2.6,1.5,2.6,3.6c0,1.5-0.7,3.1-2.2,4.9
		c-1,1.2-1.1,1.5-1.1,2.4c0,4,3,6.5,8.2,6.5l3.8,0.1c2.5,0,4,0.3,6.2,1c2.6,0.9,3.5,1.1,4.3,1.1c0.6,0,1.1-0.3,1.1-0.7
		c0-0.8-1.4-1.5-6-2.8c-9.4-2.7-13.4-6.5-13.4-12.7c0-4.8,4-8.6,9.2-8.6c1.6,0,4.2,0.4,5.7,1l2.3,0.9c0.4,0.2,0.8,0.2,1.2,0.2
		c0.8,0,1.1-0.5,1.2-2c0.1-0.7,0.3-1,0.7-1c0.6,0,1.8,0.9,2.6,2.1c0.9,1.2,1.5,2.8,1.5,3.8c0,1.2-0.6,2.1-2,2.9
		c-1.3,2-2.9,2.9-5,2.9c-1.6,0-4.4-1.1-7.9-3.1c-1.4-0.8-2-1-2.7-1c-1,0-1.7,0.6-1.7,1.5c0,0.8,0.6,1.3,2.3,1.9
		c2.7,1,3.3,1.3,4.1,2.2c2.9,0.5,4.2,1,6,2.4c5.2,1.7,8.1,4.9,8.1,9c0,3.8-2.5,6.5-6.1,6.5C165.1,40.6,164.6,40.5,163.3,40.2"/>
	<path class="st5" d="M168.9,65.3c-0.1-0.5-0.2-0.8-0.2-1l0.1-0.8c0.1-1.1,0.2-1.6,0.2-2.2c0-0.4-0.1-0.8-0.4-1.1l-0.7-0.9
		c-0.4-0.6-0.6-1-0.6-1.6c0-0.3,0.1-0.4,0.3-0.4l0.3,0.1c0,0,0.2,0.1,0.5,0.3c0.2,0.1,0.4,0.2,0.6,0.2c0.3,0,0.5-0.5,0.5-1.6
		c0-1.5-0.3-2.2-1.1-2.9l-0.8-0.6c-0.1-0.1-0.2-0.3-0.2-0.5c0-0.3,0.2-0.5,0.4-0.5c0.2,0,0.4,0,0.7,0.1l0.6,0.2l0.2,0.1
		c0.2,0,0.3-0.2,0.3-0.5l0-0.2l-0.2-1.2c-0.2-1.2-0.4-1.7-0.8-1.7l-0.1,0l-1.5,0.3l-0.3,0c-1.8,0-3.9-1.7-4.4-3.6l-1.1-3.7
		c-0.3-1.1-1.3-2.3-2.7-3.5c-0.5-0.4-0.9-0.6-1.2-0.6l-1-0.1c-0.2,0-0.3-0.1-0.3-0.3c0-0.2,0.2-0.3,0.6-0.3c1.4,0,3,0.3,5.1,1
		c1.9,0.6,2.9,0.8,3.8,0.8c2.9,0,4.6-1.5,4.6-4c0-1.2-0.4-2.8-1.1-3.8c-0.6-0.9-1.5-1.7-2.7-2.5c-0.2-0.1-0.3-0.2-0.4-0.2
		c-0.2,0-0.3,0.1-0.3,0.3l0.1,0.7l0,0.1c0,0.3-0.2,0.5-0.4,0.5c-0.3,0-0.6-0.4-1-1.1c-1.1-2.2-2.7-3.6-4.5-3.6
		c-0.4,0-0.6,0.1-0.6,0.4c0,0.2,0.1,0.4,0.3,0.8c0.2,0.3,0.4,0.6,0.5,1c0.1,0.2,0.1,0.4,0.1,0.5c0,0.1-0.1,0.2-0.3,0.2
		c-0.3,0-0.7-0.2-1-0.5c-0.6-0.6-0.9-0.9-0.9-0.9l-0.7-1.1c-0.6-0.9-1.2-1.4-2.3-2l-1.4-0.7c-0.3-0.1-0.5-0.2-0.7-0.2
		c-0.2,0-0.3,0.1-0.3,0.3c0,0.2,0.1,0.4,0.3,0.7c0.3,0.4,0.5,0.9,0.5,1.1c0,0.2-0.1,0.3-0.3,0.3c-0.4,0-1.1-0.7-2.1-2.1
		c-0.7-1-1.1-2.1-1.1-3.2c0-2.4,1.9-4.3,4.2-4.3c1.2,0,2.8,0.5,4.3,1.4L161,18c1,0.6,2.3,1,3.1,1c0.5,0,0.6,0,1.6-0.3
		c0.3-0.1,0.5-0.2,0.7-0.3c0.1-0.1,0.2-0.2,0.2-0.3c0-0.2-0.1-0.3-0.5-0.3c-1.3-0.1-3.9-1.1-5.6-2.2c-1-0.6-1.6-1-1.9-1.1
		c-0.5-0.2-0.8-0.4-0.8-0.6c0-0.1,0.1-0.1,0.2-0.1l0.3,0.1l2.5,0.9l2.4,0.9c1.2,0.4,3,0.8,3.8,0.8c1.1,0,1.8-0.7,1.8-1.8
		c0-0.5-0.1-1.2-0.4-1.6c-0.3-0.7-0.8-1.3-1-1.3c-0.2,0-0.3,0.2-0.3,0.6l0,0.3l0.1,0.7c0,0.8-0.4,1.3-1.1,1.3
		c-0.3,0-0.6-0.1-0.9-0.2l-3.7-1.2c-3.2-1-4.5-1.3-6.1-1.3c-4.5,0-7.9,3-7.9,7.1c0,4.6,3.1,7.4,11.1,10.2c7.8,2.7,8.8,3.3,8.8,5.4
		c0,1.2-1.1,2.1-2.5,2.1c-0.5,0-1,0-1.3-0.1c-0.3-0.1-1.6-0.4-3.9-0.9c-2.4-0.6-4.4-0.8-7.1-0.8c-5.7,0-8.4,0.9-11.3,3.6
		c-0.7,0.6-1,0.8-1.7,0.8l-0.4,0l-0.9-0.1c-0.7,0-1.2,0.3-1.6,1l-0.9,1.5c-0.1,0.2-0.4,0.3-0.7,0.3c-0.6,0-0.9-0.4-1.5-1.8
		c-0.3-0.7-0.7-1.3-1.1-1.7l-1.2-1c-0.2-0.2-0.3-0.3-0.3-0.4c0-0.1,0.1-0.3,0.3-0.5c0.2-0.2,0.4-0.5,0.5-0.8
		c0.2-0.3,0.3-0.6,0.3-0.7l0.1-0.5c0-0.2,0.2-0.3,0.4-0.3c0.4,0,0.4,0.3,0.5,1.7c0,0.4,0.2,0.9,0.5,1.5l0.6,1.4
		c0.1,0.2,0.3,0.3,0.5,0.3c0.6,0,1.3-1.4,1.5-2.9c0.2-1.2,0.3-1.6,0.5-1.6c0.2,0,0.3,0.1,0.8,1.1c0.2,0.3,0.4,0.6,0.7,0.9
		c0.3,0.2,0.5,0.4,0.7,0.4l0.1,0c0.5,0,0.6-0.3,0.7-1.4L140,35l-0.1-0.8l-0.1-0.6c0-0.4,0.1-0.6,0.3-0.6c0.1,0,0.3,0.1,0.4,0.2
		l0.6,0.6c0.4,0.4,0.8,0.6,1.2,0.6c0.5,0,0.8-0.2,0.8-0.6c0-0.3-0.1-0.4-0.6-1.3c-0.1-0.1-0.2-0.3-0.4-0.7c-0.5-1-0.7-1.2-1.2-1.2
		l-0.6,0.1l-0.7,0.3c-0.2,0.1-0.4,0.1-0.5,0.1c-0.1,0-0.2-0.1-0.2-0.2c0-0.5,0.3-1.3,1-2.3c0.4-0.6,0.7-2.2,1-4.5l0.3-2.7
		c0.2-1.6,0.4-2.2,0.7-2.2c0.1,0,0.2,0.1,0.2,0.1l0.2,0.9v0.7c0,0.8,0.1,1.5,0.2,1.5c0.2,0,0.6-0.3,0.9-0.8c0.2-0.3,0.4-0.7,0.6-1.1
		c0.2-0.6,0.3-1.1,0.3-1.5c0-1.3-0.6-1.9-2.3-2.4c-0.2-0.1-0.3-0.1-0.3-0.2l-0.1-0.5v-1l-0.1-0.7l-0.2-0.6l-0.3-0.6l-0.5,0.3
		c-1.2,0.7-1.5,1-1.8,1.4c-0.5,0.7-0.7,0.8-0.9,0.8c-0.2,0-0.3-0.1-0.3-0.2l0.2-1l0-0.2c0-1.3-0.7-2.5-2-3.4l-0.4,0.5l-0.4,0.6
		l-0.7,0.8c-0.4,0.5-0.6,1.1-0.6,1.7l0,0.2l0,0.2c0,0.5-0.1,0.6-0.3,0.6l-0.1-0.1l-0.5-0.6l-0.6-0.7l-1-0.6l-0.5-0.4
		c-0.6,1.2-0.6,1.3-0.6,2.9l0,0.5c0,0.5-0.2,0.8-0.4,0.8c-0.1,0-0.4-0.1-0.7-0.3c-0.3-0.1-0.6-0.2-0.8-0.2c-0.8,0-1.4,0.7-1.4,1.7
		c0,1,0.2,1.8,0.9,2.9c0.4,0.7,1,1.3,1.3,1.3c0,0,0.1-0.5,0.2-1.2l-0.2-1l0-0.4c0-0.4,0.1-0.6,0.3-0.6c0.3,0,0.5,0.4,0.7,1.3
		l0.5,2.1l0.5,2.7c0.1,0.7,0.4,1.5,0.7,2.3c0.4,1.1,0.8,1.7,1,2c0.6,0.8,0.7,0.9,0.7,1.1c0,0.1-0.1,0.3-0.2,0.3
		c-0.1,0-0.3-0.1-0.5-0.2c-0.2-0.1-0.4-0.2-0.7-0.2l-0.4-0.1c-0.9,0-1.1,0.8-1.1,4.6c0,2.4,0.5,5.5,1.1,7l1.2,3
		c0.2,0.5,0.3,1,0.3,1.4c0,4.2-5.7,10.9-11.6,13.7c-2.3,1.1-3,2.3-3.2,5.4c1-0.5,1.4-0.6,2-0.8c1.7-0.5,2-0.7,2.3-1.5l0.2-0.7
		c0.1-0.3,0.3-0.5,1.5-1.1c0.4-0.2,0.8-0.5,0.9-0.7c0.3-0.5,0.5-0.7,0.7-0.7c0.2,0,0.3,0.1,0.3,0.3l0,0.1l-0.6,1.6l-0.1,0.4
		c0,1.2,0.7,2.2,1.9,2.8c0.1-0.3,0.1-0.5,0.2-0.7c0.2-0.9,0.4-1.4,0.6-1.7l1.1-1.6c0.4-0.6,0.5-1,0.5-2.4l-0.1-1.8l0-0.5
		c0-0.3,0.1-0.5,0.4-0.5c0.2,0,0.4,0.1,0.4,0.2l0.2,1.1c0,0.2,0.3,0.4,0.6,0.4c0.6,0,1.3-0.7,2-2c0.3-0.5,0.4-0.9,0.4-1.4
		c0-0.4-0.1-1.2-0.2-1.8l0-0.3c0-0.3,0.2-0.5,0.4-0.5c0.1,0,0.3,0,0.3,0.1l0.4,1.3c0.1,0.4,0.4,0.7,0.7,0.7c0.9,0,1.8-1.8,1.9-3.7
		c0.1-1.2,0.2-1.6,0.6-1.6c0.1,0,0.3,0.1,0.3,0.1l0.2,0.7c0.1,0.3,0.2,0.5,0.4,0.5c0.1,0,0.4-0.3,0.8-0.7c0.2-0.2,0.4-0.5,0.5-0.7
		c0.1-0.2,0.2-0.4,0.2-0.6c0-0.3-0.1-0.4-0.5-0.7c-0.4-0.3-0.6-0.7-0.6-1.2c0-0.8,0.4-1.7,1.4-3.5c0.9-1.6,1.1-1.8,1.3-1.8
		c0.2,0,0.4,0.2,0.4,0.5c0,0.2,0,0.3-0.1,0.5c-0.2,0.3-0.2,0.6-0.2,0.7c0,0.2,0.2,0.4,0.5,0.4c0.3,0,0.6-0.1,1-0.3
		c0.2-0.1,0.8-0.3,1.5-0.6c1.1-0.4,1.7-0.6,1.9-0.7c0.4-0.1,0.8-0.2,1.2-0.2c0.3,0,0.7,0,1,0.1c0.7,0.2,1.1,0.2,1.3,0.2
		c0.5,0,0.9-0.4,0.9-0.9c0-0.2-0.2-0.7-0.4-1c-0.3-0.5-0.5-0.7-0.5-0.8c-0.3-0.3-0.4-0.4-0.4-0.5l0.1-0.2c0.1-0.1,0.2-0.2,0.3-0.2
		c0.5,0,1.3,0.9,2.1,2.2c4.5,7.3,6.6,9.6,9.9,10.6c3.4,1,4.2,1.8,4.2,3.8c0,1.1-0.6,2.4-1.8,4.1c-2.3,3.2-3.1,5-3.1,7.1l0,0.5
		c0.3-0.1,0.5-0.2,0.6-0.3c0.5-0.2,0.8-0.4,0.9-0.4l1.4-0.3c0.4-0.1,0.8-0.6,0.8-1.2l0-0.1l-0.1-1.3l0-0.2c0-0.7,0.3-1.3,0.8-1.3
		c0.2,0,0.3,0.1,0.4,0.3l0.9,1.9C167.3,64.3,167.7,64.7,168.9,65.3"/>
	<path class="st5" d="M122.1,26.1L122,27l0,0.6c0,0.9,0.1,1.3,0.5,1.3c0.4,0,1-0.7,1.2-1.5c0.2-0.5,0.3-1.2,0.3-1.5
		c0-0.3-0.1-0.5-0.3-1.1c-0.3-0.6-0.5-0.9-0.8-0.9C122.4,23.8,122.2,24.5,122.1,26.1"/>
	<path class="st5" d="M118.2,15.5l0.8,0.8c1.2,1.2,2,3.5,2,5.8l0,0.9l-0.2,2.7l-0.1,2.2c0,7.5,2.2,12.6,5.4,12.6
		c0.8,0,1.8-0.7,2.5-1.8c0.1-0.2,0.3-0.4,0.5-0.4c0.2,0,0.3,0.2,0.3,0.5l0.1,1.3l0.1,1.1c0.1,0.5,0.1,0.9,0.2,1.2
		c0.1,0.5,0.2,0.9,0.2,1.1c0,0.6-0.1,0.6-1.5,0.8c-0.5,0.1-1.1,0.3-1.6,0.6c-0.9,0.6-1.4,1-1.5,1.1l-0.6,1.3
		c-0.1,0.2-0.2,0.3-0.4,0.3c-0.3,0-0.8-0.5-1.4-1.6c-0.6-1-0.8-1.6-0.8-1.9c0-0.2,0.1-0.3,0.5-0.3l0.1,0l0.7,0.1l0.5-0.1l0.5-0.1
		c0.2,0,0.3-0.2,0.3-0.4c0-0.1-0.1-0.3-0.2-0.3l-2.6-1.1c-0.6-0.3-1.3-0.9-1.9-1.9c-0.7-1.1-1-2-1-2.5c0-0.4,0.2-0.7,0.4-0.7
		c0.1,0,0.3,0,0.4,0.1c0.3,0.1,0.5,0.2,0.7,0.2c0.1,0,0.2,0,0.3-0.1c0.1-0.1,0.2-0.2,0.2-0.3c0-0.2-0.2-0.4-0.5-0.6
		c-2.1-1.5-3.4-3.4-3.4-4.9c0-0.4,0.1-0.6,0.3-0.6l0.4,0c0.3,0.1,0.7,0.1,0.8,0.1c0.3,0,0.5-0.2,0.5-0.4c0-0.2-0.2-0.4-0.5-0.5
		c-1.4-0.7-1.8-1.1-2.7-3.1c-0.7-1.6-1.1-2.2-1.7-3c0.7-0.4,1.2-0.5,1.8-0.5c0.8,0,1.3,0.5,1.8,1.9c0.3,0.9,0.7,1.5,0.9,1.5
		c0.1,0,0.1-0.2,0.1-0.7c0-0.6-0.1-1.1-0.2-1.7c-0.1-0.5-0.2-0.9-0.2-1.3l-0.1-0.8l-0.6-0.3c-0.6-0.3-1-1.1-1-1.9c0-0.4,0-0.7,0.1-1
		c0-0.1,0.1-0.5,0.3-1.3c0.2-0.9,0.4-1.9,0.4-2.4l0-0.5L118.2,15.5z"/>
	<path class="st5" d="M125,56.7c-1.2-0.2-1.4-0.3-2.7-0.9c-0.9-0.4-1.5-0.6-2.1-0.6c-0.9,0-1.6,0.3-2.4,1l0.5,0.4l1.1,0.8l1.1,0.9
		c0.3,0.2,0.6,0.3,1,0.3C122.5,58.6,123.5,58.1,125,56.7"/>
	<path class="st5" d="M147,67.1c0.3-0.7,0.5-0.9,1.1-1.5c1.6-1.4,2.3-2.4,2.3-3.2v-0.6v-0.7c0-0.7,0.1-1,0.5-1
		c0.2,0,0.3,0.1,0.4,0.2l0.3,0.7c0.1,0.2,0.3,0.3,0.5,0.3c0.4,0,0.7-0.3,1.4-1.5c0.3-0.5,0.4-0.8,0.4-1.1c0-0.2,0-0.4-0.1-0.6
		c0-0.1-0.2-0.4-0.4-0.9c-0.1-0.3-0.2-0.7-0.2-0.9c0-0.4,0.2-0.6,0.5-0.6c0.2,0,0.3,0.1,0.4,0.2l0.5,0.6c0.1,0.1,0.1,0.2,0.3,0.2
		c0.2,0,0.6-0.2,0.7-0.5l0.5-0.9c0.1-0.2,0.2-0.4,0.2-0.5c0-0.2-0.2-0.4-0.5-0.5l-0.8-0.3c-0.9-0.4-1.7-2-1.7-3.5
		c0-0.2,0.1-0.4,0.2-0.7l0.3-1c0.1-0.3,0.2-0.6,0.2-0.9c0-0.6-0.2-1.1-0.6-1.7c-0.4-0.6-0.6-1-0.7-1.2c-0.3-0.9-0.5-1.1-0.8-1.1
		c-0.2,0-0.4,0.1-0.7,0.3l-0.6,0.3l-0.8,0.9l-0.8,0.4c-0.5,0.2-0.9,1.3-0.9,2.1c0,1.2,0.3,1.9,2.1,5.2c0.8,1.4,1.2,2.5,1.2,3.3
		c0,2.3-2.4,4.2-6.2,5c-4.6,1-5.6,1.7-6.2,4.7c0.8-0.4,1.1-0.5,2.5-0.5l0.8,0l0.1,0c0.8,0,0.9-0.1,1.4-0.7c0.6-0.8,1.1-1.3,1.9-1.6
		l0.9-0.4l0.7-0.4l0.2-0.1c0.2,0,0.3,0.1,0.3,0.2c0,0.2-0.2,0.5-0.5,1c-0.6,0.7-0.9,1.4-0.9,1.9C146.4,66,146.5,66.4,147,67.1"/>
	<path class="st5" d="M139.8,58.2c0.7,0.4,1.3,1,1.7,1.5c0.5,0.7,0.6,0.8,1.2,0.8c0.2,0,0.5,0,0.8-0.1l0.5-0.1
		c1-0.2,1.3-0.3,1.3-0.6c0-0.2-0.1-0.3-0.2-0.4l-0.7-0.6l-0.6-0.6c-0.4-0.3-1.2-0.6-1.8-0.6C141.2,57.5,140.7,57.7,139.8,58.2"/>
	<path class="st5" d="M158.3,61.3l0.3-0.1l0.6-0.1l0.5,0.1l0.3,0c0.6,0,0.9-0.1,1.1-0.3c0.4-0.3,0.7-0.7,1.1-1.3
		c0.1-0.2,0.2-0.5,0.2-0.6c0-0.4-0.4-0.6-1-0.6C159.9,58.5,158.9,59.3,158.3,61.3"/>
	<path class="st2" d="M137,21.9c0.1,0.5,0.3,1,0.6,1c0.2,0,0.6-0.8,1.2-1.8c0.8-1.4,1.5-2.5,1.5-3.3c0-0.2-0.1-0.4-0.3-0.4l-0.1,0
		l-0.6,0.6c-0.4,0.3-1.2,0.8-1.9,1c-0.7,0.3-0.9,0.5-0.9,1l0.1,0.5l0.5,1L137,21.9z"/>
	<path class="st2" d="M132,17.6c-0.2-0.2-0.5-0.3-0.6-0.3c-0.2,0-0.3,0.1-0.3,0.4l0,0.2c0,0.3,0.1,0.6,0.2,1
		c0.3,0.9,0.6,1.5,0.8,1.6l0.9,1.4c0.4,0.5,1,0.7,1.2,0.8l0,0c0.2,0,0.3-0.1,0.3-0.2l0.2-1.1l0.3-1l0-0.2c0-0.3-0.2-0.5-0.4-0.7
		l-1-0.5L132,17.6z"/>
	<path class="st2" d="M135.7,24.9l-0.3,0l-0.7-0.1c0,0-0.3-0.1-0.7-0.4c-0.3-0.2-0.5-0.2-0.8-0.2c-0.5,0-0.8,0.3-0.8,0.9
		c0,0.4,0.3,1.3,0.7,2.4c0.2,0.5,0.5,1.1,0.7,1.8c0.6,1.6,1.3,2.3,2.1,2.3c0.7,0,1.3-0.6,1.8-1.8l0.6-2.6c0.3-0.8,1.1-1.1,1.1-1.7
		c0-0.7-0.7-1.3-1.4-1.3l-0.3,0.1l-0.9,0.6L135.7,24.9z"/>
	<path class="st5" d="M135.7,26.5H135c-0.1,0-0.2,0.1-0.3,0.2c-0.1,0.2-0.2,0.3-0.2,0.3l0.3,1.4l0.2,1.2c0.1,0.7,0.2,0.9,0.7,0.9
		c0.6,0,1-0.4,1.1-1.1l0.1-1.3c0.1-0.8,0.1-1.3,0.1-1.3c0-0.1-0.1-0.2-0.2-0.3c-0.1-0.1-0.2-0.1-0.3-0.1l-0.1,0L135.7,26.5z"/>
</g>
<g>
	<path class="st2" d="M57.8,148.1c0.5,1.3,0.7,1.9,0.7,2.7l0.1,2.4c0.1,2.4,0.9,3.6,2.4,3.6c0.5,0,1-0.1,1.3-0.4l0.6-0.6l0.2-0.1
		c0.4,0,0.6,0.3,0.6,0.7l-0.1,0.9c0,0.4,0,1.3,0.2,2.6c0.1,0.8,0.2,1.5,0.2,2.3c0,1.2-0.1,1.7-0.5,2.8c0.4,1.1,0.6,2.4,0.6,3.4
		c0,1.2-0.2,2.1-0.7,2.8c0.2,1,0.3,1.4,0.3,1.9c0,0.6-0.1,1.3-0.2,2.2c-0.2,1.2-0.3,2.1-0.2,2.7l0,0.1c0,0.4-0.1,0.5-0.3,0.5
		c-0.2,0-0.5-0.2-0.7-0.5c-0.3-0.4-0.6-0.6-0.8-0.6c-0.4,0-0.5,0.2-1.1,1.9c-0.2,0.5-0.6,1.2-1.4,2.1c-0.6,0.7-0.9,1.2-1,1.7
		c-0.2,0.7-0.3,1.1-0.3,1.2c-0.1,0.2-0.2,0.3-0.3,0.3l-0.1,0c-0.9,0-2-2-3.1-5.8c-0.3-1.1-0.7-1.6-1.3-1.6c-0.4,0-0.8,0.3-1,0.6
		l-0.3,0.8c-0.1,0.1-0.2,0.2-0.3,0.2c-0.5,0-1.2-0.8-1.6-1.9c-0.4-0.9-0.6-1.8-0.6-2.6c0-1.8,1.3-3.1,5.3-5.4c1.7-1,2.4-2.2,2.4-4.4
		c0-1.8-0.5-2.8-2.1-3.9c-1.2-0.9-1.9-1.3-2.5-1.3c-0.5,0-1,0.4-1,0.8c0,0.5,0.3,0.9,1.1,1.1c0.9,0.3,1.3,0.6,1.3,1
		c0,0.4-0.4,1.1-1,2.1c-0.6,1-0.9,1.3-1.8,1.9c-0.3,1.6-1,2.6-2.7,3.7c-0.3,1-0.5,1.3-1.1,2.1l-1.2,1.5c-0.4,0.5-0.8,1.3-0.9,1.8
		c-0.1,0.9-0.2,1-0.5,1c-0.5,0-1.4-0.8-2.3-2c-0.6-0.7-0.7-1-0.7-1.9c-0.6,0.5-0.8,0.5-1.9,0.7c-0.7,0.1-1.2,0.2-1.5,0.4
		c-0.9,0.5-1.2,0.6-1.3,0.6c-0.2,0-0.3-0.1-0.3-0.5l-0.1-1.3c0-1.7,0.7-3.7,1.7-5.1c-1-0.9-2-1.4-2.8-1.5c-0.3,0-0.4-0.1-0.4-0.2
		c0-0.2,0.2-0.7,0.5-1.1c0.4-0.5,0.8-0.9,1-1.1c0.8-0.7,2.2-1.2,3.3-1.2c0.7,0,1.8,0.3,3.3,0.8c0.5,0.2,1,0.3,1.4,0.3
		c0.6,0,1-0.4,1-1.1c0-1-0.5-2.7-1.7-5.3c-0.8-1.8-1.1-3-1.1-3.8c0-2,0.9-4,2.1-4.6c-0.6-0.3-0.8-0.3-1.3-0.3c-0.6,0-1,0.1-1.8,0.6
		c-0.8,0.5-1.3,0.9-1.3,1.2c0,0.1,0.2,0.3,0.5,0.5c0.4,0.3,0.5,0.4,0.5,0.8c0,1.4-1.2,3.3-2.8,4.5c-0.4,2-1.3,3.2-3.1,4.1
		c-0.2,1.1-0.4,1.4-1.3,2.6c-1.5,2.1-1.8,2.8-2.1,3.9c-0.1,0.6-0.3,0.9-0.5,0.9c-0.2,0-0.7-0.4-1.3-1c-0.5-0.5-0.8-0.9-0.9-1.1
		c-0.2-0.4-0.4-0.7-0.6-1.8c-0.4,0.1-0.5,0.1-0.8,0.1l-0.8,0l-0.6,0c-1.3,0-2.6,0.3-3.3,0.7c-0.2,0.2-0.4,0.2-0.5,0.2
		c-0.4,0-0.7-0.8-0.7-1.7c0-2.1,0.6-3.8,1.9-5.6c-0.5-0.4-0.7-0.6-1.1-1c-0.2-0.2-0.3-0.3-0.5-0.4l-0.6-0.3
		c-0.2-0.1-0.3-0.3-0.3-0.4c0-0.3,0.8-1.1,1.8-1.7c1.1-0.7,2-1,2.8-1c0.9,0,1.4,0.2,2.6,1.3c0.8,0.7,1.4,1,1.8,1
		c0.3,0,0.6-0.2,0.8-0.5c0.2-0.3,0.3-0.6,0.3-0.8c0-1.1-1.3-2.9-2.7-3.9c-1.1-0.7-2.3-1.1-3.4-1.1c-1.6,0-3,0.8-3.6,2.1l-0.6,1.3
		c-0.1,0.3-0.3,0.5-0.5,0.5c-0.4,0-0.6-0.2-1.9-1.7l-1.5-1.7c-0.5-0.5-0.8-1-0.9-1.5c-0.1-0.4-0.2-0.7-0.3-0.7
		c-0.1-0.1-0.2-0.2-0.6-0.5c-1.1-0.8-2-2.4-2.5-4.7c0-0.2-0.1-0.4-0.2-0.7c-1.4-1.7-2.2-3.8-2.2-5.7c0-0.2,0-0.4,0.1-0.8
		c-0.8-0.8-0.9-1-1.5-3.2c-0.5-1.6-0.7-2.2-1.3-3c-0.2-0.2-0.2-0.4-0.2-0.4c0-0.3,0.5-0.6,1.3-0.7c0.8-0.1,0.8-0.1,1.1-0.1l1.1,0.1
		l-0.1-1.6c0-0.9,0.1-1.5,0.3-2.6c0.1-0.5,0.2-0.9,0.2-1.2c0-0.1,0-0.4-0.1-1c-0.1-0.4-0.1-0.7-0.2-0.9c-0.1-0.2-0.1-0.4-0.1-0.5
		c0-0.2,0.1-0.3,0.3-0.3c0.2,0,0.4,0.1,0.8,0.3c1,0.5,1.8,1,2.5,1.5c2,1.5,3.5,3.9,3.5,5.4l0,0.4c-0.1,0.5-0.1,0.8-0.1,0.8
		c0,0.3,0.1,0.6,0.4,0.9l0.6,0.9c0.6,0.8,0.9,1.6,0.9,2.2c0,0.5-0.1,0.8-1,2.1c-0.7,1-1,1.7-1,2.6c0,1,0.4,2.3,1.1,3.6
		c0.7,1.2,1.4,1.8,2.2,1.8c1.3,0,1.8-1.1,2-4.2c0.1-1.6,0.3-3,0.5-4.3l0.1-0.8c0-0.4-0.1-0.6-0.6-1.1l-1.7-2
		c-1.6-1.9-2.1-2.9-2.1-4.3c0-1.6,1-2.7,2.5-2.7l0.7,0.1l0-0.4c0-0.4,0.1-0.9,0.3-1.6c0.4-1.2,0.8-2.2,1-2.2c0.1,0,0.3,0.1,0.6,0.3
		c0.1,0.1,0.4,0.2,1,0.4c0.3,0.1,0.5,0.2,1.1,0.6c0.3-1,0.5-1.4,0.9-2c0.7-1,1.6-1.7,1.9-1.7c0.2,0,0.5,0.2,0.9,0.7l1.1,1.1
		c0.2,0.2,0.4,0.6,0.6,1.1l0.2,0.5c0.3-0.2,0.5-0.3,0.7-0.4c0.4-0.3,0.8-0.4,0.9-0.5c0.7-0.3,1.1-0.5,1.1-0.5
		c0.3-0.2,0.5-0.3,0.6-0.3c0.2,0,0.3,0.3,0.7,2.2c0.3,1.3,0.3,1.6,0.4,2.5c1.8,0.3,2.7,1.3,2.7,3.3c0,1.8-0.9,3.7-2.9,5.8
		c-0.5,0.6-0.7,0.8-0.7,1.4c0,5,1.8,6.6,8.1,7.3c3.9,0.4,5,0.7,9.7,2.1c2.5,0.7,3.9,1,4.8,1c1.1,0,1.7-0.4,1.7-1.1
		c0-1.1-0.8-1.4-5.3-2.4c-10.6-2.2-14.7-5.8-14.7-12.8c0-5,3.7-8.7,8.7-8.7c2.2,0,4.1,0.7,7.2,2.5c2.9,1.7,3.5,2,4.1,2
		c0.8,0,1.1-0.5,1.1-1.7c0-0.8,0.2-1.2,0.7-1.2c0.5,0,1.1,0.5,1.8,1.2c0.9,1.1,1.3,1.7,1.3,3.2c0,2.1-1.1,3.4-3.3,4
		c-0.2,0.3-0.4,0.4-0.5,0.6c-1.2,1.3-2.2,1.8-4.1,1.8c-1.6,0-3.7-0.7-5.1-1.7l-2.7-1.9c-1.2-0.8-2-1.2-2.9-1.2
		c-1.2,0-1.9,0.7-1.9,1.9c0,1.1,0.8,2.1,2,2.5l2.6,0.8c0.9,0.3,1.3,0.5,2.5,1c0.6-0.1,0.9-0.1,1.3-0.1c1.6,0,3.3,0.4,4.8,1.2
		c0.5,0.2,0.8,0.4,1,0.5l1.4,0.4c3.2,0.9,5.9,4.5,5.9,8.1c0,4-2.6,6.5-6.9,6.5L57.8,148.1z"/>
	<path class="st5" d="M56.8,182l0.3-0.7l0.8-0.9c0.7-0.7,1-1.7,1-3c0-0.6-0.1-1.2-0.3-1.8c-0.1-0.5-0.2-0.8-0.2-1
		c0-0.4,0.3-0.7,0.5-0.7c0.1,0,0.3,0.1,0.4,0.3l0.9,1c0.5,0.6,0.7,0.7,1.4,0.9l0.1-0.8l0.1-0.9c0-1.4-0.5-2.9-1.3-3.9
		c-0.5-0.6-0.7-0.9-0.7-1.1c0-0.2,0.2-0.4,0.3-0.4c0.1,0,0.1,0,0.2,0.1c0.6,0.4,0.8,0.6,1,0.6c0.3,0,0.5-0.7,0.5-1.4
		c0-1.1-0.5-2.3-1.2-3.2c-0.4-0.4-0.6-0.7-0.7-0.9c-0.1-0.1-0.1-0.2-0.1-0.3c0-0.2,0.2-0.4,0.5-0.4c0.2,0,0.3,0.1,0.7,0.3
		c0.2,0.1,0.3,0.2,0.4,0.2c0.4,0,0.6-0.6,0.6-2.3l0-0.7l-0.1-1c-0.1-1.2-0.2-1.4-0.7-1.4H61c-2.8,0-4.1-1.8-4.8-6.5
		c-0.5-3.4-1.8-5.9-3.4-6.4c-0.9-0.3-1.3-0.5-1.3-0.8c0-0.2,0.3-0.3,0.5-0.3c0.2,0,0.7,0.1,1.1,0.3c2.3,0.9,4.2,1.4,5.9,1.4
		c2.7,0,4.9-2,4.9-4.6c0-2-0.9-3.9-2.6-5.5c-0.5-0.4-0.9-0.7-1.4-0.9l-0.1,0l-0.3,0.1l0.1,0.8l0.2,0.6l0.1,0.2
		c0,0.1-0.1,0.2-0.3,0.2c-0.2,0-0.3-0.1-0.4-0.2l-1-1.5c-0.8-1.2-2.6-2.2-3.9-2.2c-0.5,0-0.8,0.2-0.8,0.5c0,0.2,0.2,0.5,0.3,0.7
		c0.3,0.3,0.5,0.7,0.5,0.9l-0.1,0.2c-0.1,0.1-0.1,0.2-0.2,0.2l-0.1,0c-0.3,0-0.4-0.1-1.7-1.5c-1-1.2-3.1-2.3-4.2-2.3
		c-0.2,0-0.3,0.1-0.4,0.2c-0.1,0.1-0.1,0.2-0.1,0.2c0,0.2,0.2,0.4,0.4,0.6c0.4,0.3,0.6,0.7,0.6,0.9c0,0.1-0.1,0.2-0.3,0.2
		c-0.3,0-1.1-0.5-2.4-1.5c-2.1-1.7-3.1-3.3-3.1-5.1c0-2.2,1.6-3.9,3.6-3.9c1.2,0,2.8,0.6,3.8,1.4l2.8,2.1c1.3,1,2.9,1.5,4.5,1.5
		c0.4,0,0.7-0.1,1-0.2c0.2-0.1,0.4-0.3,0.4-0.4c0-0.1-0.2-0.2-0.5-0.2c-1-0.2-1.8-0.6-2.4-1l-2.9-2.2c-1.1-0.8-1.8-1.3-2.2-1.5
		c-1.5-0.8-1.8-1-1.8-1.2c0-0.1,0.1-0.2,0.3-0.2c0.2,0,0.3,0,0.5,0.1l1.5,0.6c0.5,0.2,1.3,0.7,2.4,1.4c3.1,2,4.6,2.7,6.4,2.7
		c1.7,0,3-1.2,3-2.9c0-0.3-0.1-0.7-0.2-1l-0.3-0.6c-0.1-0.2-0.3-0.4-0.3-0.3l-0.2,0.2l-0.2,1.2c0,0-0.1,0.2-0.2,0.4
		c-0.1,0.2-0.2,0.4-0.4,0.6c-0.3,0.3-0.6,0.4-1,0.4c-0.9,0-1.9-0.5-4.5-2.2c-2.7-1.7-5.1-2.6-7.1-2.6c-4.1,0-7.4,3.3-7.4,7.4
		c0,5.7,3.5,8.3,14.4,10.7c4.2,0.9,6,2.1,6,4c0,1.7-1.4,2.8-3.5,2.8c-0.7,0-1.2,0-1.5-0.1c-0.4-0.1-2.3-0.6-5.9-1.6
		c-2.5-0.7-5.2-1.1-7.6-1.1c-4.3,0-7.2,1.3-9.2,4c-0.2,0.3-0.5,0.5-0.6,0.5c-0.1,0-0.3-0.1-0.5-0.2l-0.8-0.6
		c-0.6-0.4-1.5-0.8-2.1-0.8c-0.4,0-0.8,0.2-1.2,0.5c-0.3,0.3-0.5,0.4-0.6,0.4c-0.3,0-0.9-0.7-1.4-1.7c-0.6-1.3-1-2.7-1-3.9
		c0-0.6,0.2-1,0.4-1c0.2,0,0.3,0.2,0.4,0.5l0.5,1.7c0.3,0.9,0.8,1.7,1.2,1.7c0.2,0,0.5-0.3,0.8-0.7c0.2-0.3,0.4-0.5,0.5-0.8
		c0.4-1,0.4-1.2,0.7-1.2c0.3,0,0.5,0.2,0.7,1.3c0,0.2,0.1,0.5,0.4,1c0.2,0.4,0.5,0.8,0.7,1c0.2,0.2,0.4,0.3,0.6,0.3
		c0.5,0,1-0.8,1-1.8l0-0.2l-0.1-1.1c0-0.4,0.1-0.5,0.3-0.5c0.1,0,0.2,0.1,0.4,0.3c0.2,0.3,0.6,0.6,1,0.8c0.3,0.2,0.6,0.3,0.8,0.3
		c0.2,0,0.4-0.1,0.6-0.3c0.2-0.1,0.2-0.3,0.2-0.4c0-0.2-0.2-0.4-0.8-1c-0.3-0.3-0.7-1.1-1.1-2.3c-0.2-0.4-0.4-0.8-0.5-0.8
		c0,0-0.2,0-0.4,0.1l-0.7,0.3l-0.5,0.2l-0.2,0c-0.2,0-0.4-0.2-0.4-0.4c0-0.2,0.5-0.8,1.1-1.4c0.5-0.4,0.7-0.9,0.7-1.5
		c0-1,0.2-1.7,0.4-1.7l0.2-2c0.1-1,0.5-2.9,0.9-3.9c0.1-0.2,0.2-0.4,0.2-0.4c0.2,0,0.3,0.4,0.3,0.9l0,0.3l0,0.6
		c0,0.7,0.1,1.1,0.3,1.1c0.2,0,0.5-0.4,0.8-1l0.5-1.3c0.2-0.4,0.2-0.7,0.2-1.1c0-1.1-0.7-1.9-1.6-1.9l-0.4,0.1
		c-0.2,0.1-0.4,0.1-0.4,0.1c-0.3,0-0.6-0.3-0.6-0.7l0-0.8l-0.1-1.1l-0.2-1.2l-0.1-0.6l-0.5,0.3l-0.6,0.5l-0.9,0.7l-0.7,0.6
		c-0.1,0.1-0.3,0.2-0.4,0.2c-0.4,0-0.5-0.1-0.5-1v-0.2c0-0.7-0.3-1.3-1.5-2.7c-0.1-0.1-0.2-0.2-0.3-0.3l-0.2,0.4l-0.6,1l-0.6,1.6
		l-0.1,1c0,0.3-0.1,0.5-0.3,0.5c-0.1,0-0.3-0.1-0.5-0.4c-0.9-1-1.1-1.2-2.5-1.7l-0.1,0.4c-0.2,0.7-0.3,1.1-0.3,1.2l-0.1,1.1v0.5
		l0,0.4c0,0.3-0.1,0.5-0.3,0.5l0,0c0,0-0.1-0.1-0.3-0.3c-0.1-0.1-0.4-0.2-0.7-0.2c-1.1,0-1.7,0.6-1.7,1.5c0,0.7,0.2,1.2,1.3,2.8
		c0.5,0.7,1,1.3,1.2,1.3c0.1,0,0.3-0.4,0.3-0.8l-0.1-0.7c-0.1-0.3-0.2-0.6-0.2-0.9c0-0.3,0.1-0.5,0.3-0.5c0.5,0,1,1.5,1.3,3.5
		l0.2,2.1c0.1,0.8,0.3,1.5,0.7,2.3c0.5,1.1,1,1.8,1.5,2.1c0.5,0.4,0.9,0.8,0.9,1c0,0.2-0.1,0.3-0.3,0.3c0,0-0.4-0.1-1.2-0.4
		l-0.5-0.1c-1.1,0-1.5,0.7-1.5,2.6c0,2.4,1.6,5.8,3.4,7.2l2.6,2.1c1.3,1.1,2.3,2.8,2.3,4.1c0,1.7-1.8,3.3-5,4.5l-1.9,0.7
		c-1.5,0.5-2.1,1.5-2.6,4.2c0.7-0.2,1.1-0.3,1.6-0.3l0.3,0l0.8,0c0.8,0,1.3-0.5,1.3-1.1v-0.5c0-0.2,0.2-0.4,0.5-0.5
		c0.5-0.2,0.8-0.4,0.8-0.4l0.6-0.5c0.1-0.1,0.2-0.1,0.3-0.1c0.2,0,0.3,0.2,0.3,0.4c0,0.1,0,0.3-0.1,0.5c-0.2,0.5-0.3,1.2-0.3,2
		c0,1.4,0.2,2.2,0.9,3.2c0.1-0.4,0.1-0.6,0.2-0.7c0.1-0.3,0.4-0.8,1-1.5c0.9-1.2,1.5-2.7,1.5-3.5l0-0.2l-0.2-1.3
		c0-0.2,0.1-0.5,0.3-0.6c0.1-0.1,0.3-0.2,0.4-0.2c0.2,0,0.4,0.1,0.6,0.6c0.1,0.3,0.3,0.5,0.4,0.5c0.2,0,0.6-0.5,0.8-1.1
		c0.2-0.5,0.3-0.9,0.3-1.2c0-0.2-0.1-0.5-0.2-0.7c-0.1-0.3-0.2-0.5-0.2-0.6c0-0.1,0-0.2,0.2-0.4c0.1-0.1,0.2-0.1,0.3-0.1
		c0.1,0,0.2,0,0.3,0.1l0.5,0.3c0.2,0.1,0.3,0.2,0.5,0.2c0.2,0,0.6-0.3,0.8-0.6c0.5-0.8,0.8-1.4,0.8-1.6c0-0.2-0.1-0.3-0.4-0.5
		c-1.1-0.8-1.9-2-1.9-3.1c0-0.2,0.1-0.5,0.2-0.8l0.6-1.5c0.3-0.8,0.4-1.2,0.5-1.2l0.2-0.1c0.2,0,0.3,0.2,0.3,0.4
		c0,0.2,0,0.4-0.1,0.7c-0.1,0.4-0.2,0.8-0.2,1.1c0,0.4,0.2,0.6,0.6,0.6c0.3,0,0.6-0.1,1-0.2c1.7-0.7,3.1-1.2,3.9-1.2
		c0.8,0,1.3,0.2,2.1,0.7c0.2,0.2,0.4,0.2,0.5,0.2c0.1,0,0.2-0.1,0.3-0.2c0.1-0.1,0.1-0.2,0.1-0.3c0-0.2-0.1-0.5-0.3-0.7
		c-0.3-0.4-0.4-0.6-0.4-0.8c0-0.2,0.1-0.3,0.3-0.3c0.9,0,2.3,2.8,3.6,7.3c1.1,3.5,1.3,3.9,4.7,5.8c2.9,1.6,4,3.2,4,5.8
		c0,2.6-0.7,5.9-2.2,10.2c-0.5,1.4-0.7,2.3-0.7,3c0,0.6,0.1,1.2,0.6,2.7c0.2,0.7,0.3,1.2,0.4,1.3C56.4,181.3,56.6,181.6,56.8,182"/>
	<path class="st5" d="M43.6,174c0.3-0.8,0.4-1,1.1-1.9c0.9-1.4,1.3-2.1,1.3-2.8v-0.9c0-0.9,0.2-1.3,0.5-1.3c0.1,0,0.2,0.1,0.3,0.2
		l0.3,0.5c0.1,0.1,0.2,0.2,0.4,0.2c0.2,0,0.5-0.2,0.6-0.5c0.4-0.6,0.7-1.4,0.7-2l-0.1-0.6l-0.1-0.6c0-0.3,0.1-0.5,0.5-0.5
		c0.2,0,0.3,0.1,0.5,0.5c0.1,0.3,0.3,0.5,0.4,0.5c0.2,0,0.3-0.1,0.5-0.3l0.5-0.7l0.3-0.5l0.1-0.3c0-0.2-0.1-0.3-0.4-0.5
		c-1.1-0.8-1.5-1.9-1.6-4.1c-0.1-1.6-0.2-2.7-0.3-3.1c0-0.1-0.4-0.9-1-2.5c-0.3-0.6-0.5-1.3-0.7-2.1c-0.1-0.5-0.3-0.7-0.7-0.7
		c-1.6,0-2.7,1.3-2.7,3.1c0,1,0.4,2.7,1.2,4.6c1.1,2.8,1.4,3.8,1.4,4.7c0,2.1-0.8,3-3.7,4.1c-3.3,1.2-4.8,2.9-5.4,5.9
		c0.3-0.1,0.4-0.2,0.6-0.2c0.4-0.1,0.6-0.2,0.8-0.3l0.9-0.2c0.8-0.2,1.4-0.6,1.5-1.1l0.2-0.8c0.1-0.2,0.2-0.3,0.3-0.4l0.5-0.2
		l0.5-0.2l0.1,0.2l-0.2,0.7c-0.1,0.2-0.1,0.7-0.1,1.3C42.6,172.4,42.8,173.1,43.6,174"/>
	<path class="st5" d="M12.9,121.2c0.1,0.3,0.1,0.5,0.1,0.6c0,0.2-0.1,0.7-0.2,1.5l-0.1,1.2c0,1,0.2,2.1,0.5,3
		c0.3,0.8,0.4,1.1,0.4,1.3l0,0.2c-0.1,0.2-0.1,0.4-0.2,0.4c-0.1,0-0.3-0.1-0.6-0.4c-0.7-0.6-1.4-0.9-2.1-0.9c-0.2,0-0.6,0-1,0.1
		l0.3,0.6l0.9,2.1l1.2,1.8l1.3,0.9c0.1,0.1,0.2,0.2,0.3,0.3c0.1,0.2,0.2,0.3,0.2,0.4c0,0.1-0.1,0.2-0.2,0.2l-1.1,0.1
		c-0.2,0-0.3,0.1-0.3,0.2c0,0.2,0.2,0.8,0.5,1.7l0.6,1.7l1,0.9l1,0.7c0.3,0.2,0.5,0.5,0.5,0.6c0,0.2-0.1,0.3-0.2,0.3l-0.6,0.1
		c-0.2,0-0.3,0.2-0.3,0.5c0,0.4,0.4,1.2,1.1,2.2c0.9,1.2,1.5,1.6,2.5,1.6h0.9c0.4,0,0.7,0.2,0.7,0.5c0,0.3-0.2,0.4-0.5,0.5
		c-0.8,0.2-1,0.3-1,0.7c0,0.1,0.1,0.4,0.3,0.6l0.5,0.6c0.4,0.5,0.8,0.9,1.1,0.9c0.2,0,0.5-0.2,0.8-0.5c0.5-0.6,1.1-1.1,1.9-1.3
		c2-0.5,2.4-0.7,2.4-1.2c0-0.2-0.1-0.4-0.2-0.7c-0.6-1.1-0.9-1.9-0.9-2.8c0-0.7-0.2-1.2-0.4-1.2c-0.1,0-0.3,0.2-0.5,0.5
		c-0.5,0.7-1.3,1.2-2,1.2c-2,0-4.4-3.1-5.5-7.2c-0.3-1-0.4-2-0.4-3.1c0-1.1,0.1-2.3,0.4-3.5c0.4-1.7,0.6-2.6,0.6-2.8l0.1-0.8
		C16.2,124.4,14.9,122.6,12.9,121.2"/>
	<path class="st5" d="M17,129.1c-0.4,0.8-0.8,2.6-0.8,3.7c0,0.7,0.2,1.2,0.5,1.2c0.1,0,0.2-0.1,0.3-0.3l0.6-1.1
		c0.1-0.2,0.2-0.4,0.4-0.7c0.2-0.3,0.4-0.7,0.4-0.8C18.4,130.4,17.8,129.5,17,129.1"/>
	<path class="st5" d="M23.3,154.9c0.1,0.1,0.2,0.2,0.3,0.3c0.2,0.2,0.4,0.4,0.5,0.5c1.1,1.2,1.3,1.3,1.8,1.3c0.5,0,1.5-0.3,2.1-0.6
		c0.2-0.1,0.4-0.3,0.4-0.4c0-0.1-0.2-0.3-0.6-0.6l-0.6-0.6c-0.5-0.4-1.2-0.8-1.5-0.8C25,153.9,24.3,154.2,23.3,154.9"/>
	<path class="st5" d="M36.5,165.2c0.6,0.3,0.8,0.4,1.1,0.6c0.5,0.3,0.8,0.5,0.9,0.6c0.2,0.1,0.5,0.1,0.9,0.1c0.3,0,0.5,0,0.7-0.1
		l1.2-0.5l1.1-0.4c0.3-0.1,0.5-0.3,0.5-0.4c0-0.1-0.3-0.2-0.6-0.3c-0.3-0.1-0.5-0.2-0.9-0.3c-1.4-0.6-1.6-0.6-2.1-0.6
		C38.3,163.8,37.2,164.4,36.5,165.2"/>
	<path class="st5" d="M51,176.7c0.4-0.9,0.6-1.1,1.9-1.1c1.5-0.1,2.9-2.7,2.9-4.5c0-0.2-0.1-0.3-0.1-0.3c-0.1,0-0.2,0.1-0.4,0.2
		c-0.4,0.3-0.7,0.4-0.9,0.5l-1.7,0.7c-1.1,0.5-2.1,2-2.1,3.1C50.7,175.7,50.8,176,51,176.7"/>
	<path class="st2" d="M26.3,127.1l0.6,0.8c0.1,0.2,1.1,0.9,1.2,0.9c0.2,0,0.3-0.1,0.4-0.5l0.2-0.9l0.1-1c0-0.8-0.3-1-1.9-1.4
		c-0.4-0.1-0.5-0.1-0.8-0.3c-0.2-0.2-0.5-0.3-0.7-0.3c-0.1,0-0.2,0.1-0.2,0.2l0.1,0.3l0.3,0.9L26.3,127.1z"/>
	<path class="st2" d="M32.4,127l-0.7,1.3c-0.2,0.2-0.3,0.3-0.3,0.3l-0.1,0c-0.3,0-0.6-0.7-0.6-1.4l-0.1-1.1c0.1-0.5,0.4-0.7,1.1-0.8
		c0.6-0.1,1-0.2,1.1-0.3c0.5-0.4,0.9-0.6,0.9-0.6l0.1,0c0.2,0,0.3,0.1,0.3,0.3l0,0.1l-0.4,1L32.4,127z"/>
	<path class="st2" d="M30.9,130.9l0.9-0.5c0.2-0.1,0.3-0.1,0.4-0.1c0.4,0,0.8,0.3,0.8,0.9c0,0.7-0.5,1.5-1.2,2.8
		c-0.8,1.4-1.3,2.3-1.9,2.3c-0.8,0-2-1.3-3.1-3.5c-0.3-0.5-0.4-1.1-0.4-1.6c0-0.7,0.3-1.1,0.9-1.1c0.2,0,0.5,0.1,0.7,0.2l0.5,0.3
		c0.4,0.3,1,0.5,1.5,0.5C30.3,131.2,30.6,131.1,30.9,130.9"/>
	<path class="st5" d="M29.6,132.3l-0.6-0.1l-0.1,0c-0.4,0-0.5,0.2-0.5,0.6c0,0.6,0.4,1.6,1,2.5c0.1,0.2,0.3,0.2,0.4,0.2
		c0.4,0,0.6-0.7,0.8-1.8l0.2-0.9l0-0.2c0-0.4-0.1-0.5-0.4-0.5l-0.1,0"/>
</g>
<g>
	<path class="st2" d="M157.2,147.2c1,1.3,2.4,2.2,3.5,2.2c0.4,0,1-0.1,1.5-0.2c0.3-0.1,0.6-0.1,0.8-0.1c0.3,0,0.4,0.1,0.4,0.4
		c0,0.2-0.1,0.7-0.3,1.1c-0.2,0.4-0.3,0.8-0.3,1l-0.2,1.2l-0.6,1l-0.8,0.7l-0.2,0.2v0.5v0.3c0,1.4-0.4,2.2-1.5,2.9
		c-0.1,0.1-0.2,0.2-0.4,0.3l-0.1,0.5c-0.3,1.1-0.4,1.7-0.6,2c-0.1,0.3-0.5,0.8-1.1,1.6c-0.7,0.9-1.1,1.6-1.4,2.3
		c-0.2,0.6-0.4,0.7-0.8,0.7c-0.6,0-1.1-0.7-1.2-1.5c-0.1,0.2-0.2,0.3-0.3,0.3l-0.7,0.5l-1.1,0.7c-0.5,0.3-0.8,0.6-0.9,0.7l-0.6,0.6
		c-0.1,0.1-0.2,0.2-0.3,0.2c-0.3,0-0.6-0.5-0.9-1.4l-0.6-1.9c-0.2-0.5-0.2-1.1-0.2-1.8c0-0.9,0.1-1.3,0.4-2
		c-1.1,0.1-1.5,0.2-2.1,0.4c-0.2,0.1-0.4,0.1-0.5,0.1c-0.2,0-0.3-0.1-0.3-0.4c0-0.1,0.1-0.5,0.2-0.8l0.7-1.9
		c0.6-1.5,2.4-2.9,3.9-2.9c0.4,0,0.8,0.1,1.5,0.3c0.4,0.1,0.7,0.2,0.9,0.2c0.7,0,1.2-0.5,1.2-1.1c0-0.3-0.2-0.6-0.5-0.7
		c-0.1,0-0.8-0.3-2.1-0.6c-1-0.3-1.4-0.6-2.5-1.9c-0.8-0.9-1.1-1.2-1.4-1.2c-0.2,0-0.3,0.1-0.3,0.4l0.1,0.8l0,0.4
		c0,1.6-0.5,3.1-1.6,5.2l-1.6,2.9c-0.8,1.4-1.1,2.4-1.1,3.5c0,1.2,0.5,2.2,1.1,2.3l0.9,0.2c0.1,0,0.2,0.1,0.3,0.2
		c0.1,0.1,0.2,0.2,0.2,0.3c0,0.1-0.1,0.3-0.3,0.5c-0.1,0.1-0.4,0.6-1,1.3c-1,1.3-1.6,1.7-2.8,2.1c-0.7,1.7-1.8,2.7-3.8,3.3l-0.2,0.4
		c-0.7,1.2-2.2,2.3-3.2,2.3h-0.2c-0.1,1-0.9,2.1-2,2.9c-0.8,0.5-1.2,0.9-1.3,1c-0.1,0.1-0.2,0.3-0.3,0.5c-0.3,0.6-0.5,0.8-0.8,0.8
		c-0.6,0-1.1-0.6-1.5-1.7c-0.2,0.1-0.4,0.3-0.5,0.3c-0.6,0.5-1,0.7-1.1,0.7c-0.3,0.1-0.9,0.3-2,0.6c-1.4,0.3-2.6,0.9-2.9,1.4
		l-0.5,0.9l-0.2,0.1c-0.3,0-0.6-0.4-0.7-0.9c-0.3-1.2-0.5-2.4-0.5-3.2c0-2,0.7-3.3,2.7-5.4l0-0.5c0-3.2,2.4-5.3,5.9-5.3l0.6,0
		l1.9,0.1l0.2,0c1,0,2-0.4,3.1-1.3c1.4-1.1,1.8-1.8,1.8-3.1c0-0.4-0.1-0.9-0.5-2.3c-0.3-0.9-0.4-1.8-0.4-2.7c0-2.4,1.7-5.3,4.1-6.9
		c0.6-0.4,1.1-1,1.1-1.3c0-0.1-0.1-0.2-0.2-0.2c-0.2,0-0.4,0.2-0.7,0.4c-0.3,0.2-0.7,0.5-1.4,0.9l-0.9,0.5l-1,0.4
		c-0.3,0.1-0.5,0.3-0.5,0.5c0,0.1,0,0.3,0.1,0.5c0.1,0.2,0.1,0.3,0.1,0.4c0,0.1-0.1,0.4-0.3,0.7l-0.8,1.3c-0.8,1.3-1.3,1.8-2.3,2.3
		c-0.6,1.9-1.6,2.8-2.9,3c-1.1,2.2-2,2.9-3.9,3.1c-0.3,0.8-0.7,1.5-1.7,2.6c-0.4,0.4-0.7,0.8-0.7,0.9c-0.4,0.8-0.5,0.9-0.7,0.9
		c-0.3,0-0.9-0.4-1.3-0.9c-0.2-0.2-0.4-0.4-0.5-0.7l-0.5-0.9c-0.2-0.3-0.3-0.4-0.6-0.4l-0.4,0l-1.3,0.2c-0.8,0.1-1.9,0.8-2.3,1.3
		l-0.7,1c-0.1,0.1-0.2,0.2-0.3,0.2c-0.5,0-0.8-1.1-0.8-3c0-1.6,0.3-2.7,0.8-3.5l1.6-2.2c0.2-0.3,0.3-0.6,0.3-0.9
		c0-0.3-0.1-0.5-0.3-0.7c-0.3-0.4-0.7-0.6-0.9-0.7l-1.2-0.2c-0.2,0-0.3-0.1-0.3-0.2c0-0.1,0.1-0.2,0.2-0.4c0.4-0.5,0.9-0.9,1.4-1.3
		c1.4-0.9,2.3-1.2,3.3-1.2c1,0,2,0.3,3,1l1.7,1.1c0.2,0.2,0.5,0.2,0.8,0.2c0.8,0,1.3-0.5,1.9-1.5c0.5-1,0.8-1.8,0.8-2.6
		c0-2.1-1.5-3.7-3.7-3.7c-1,0-2,0.4-3,1.1c-0.3,0.2-0.5,0.4-0.6,0.6l-0.5,1c-0.1,0.2-0.3,0.4-0.4,0.4c-0.3,0-0.9-0.8-1.5-1.9
		c-0.3-0.6-0.6-1.2-0.8-2.1c-0.3-1.1-0.5-2-0.5-2.8l0.1-1.5c-0.8-1.2-1-2.1-1-3.5c0-0.5,0.1-0.9,0.4-2c-0.5-0.8-0.6-1.4-0.6-2.5
		l0.1-0.7l0.2-0.8l0.1-0.7c-0.5-0.7-0.7-1.2-1.3-3.7c-0.3-1.4-0.5-2-0.7-2.4c-0.1-0.2-0.2-0.3-0.2-0.3c0-0.3,0.8-0.6,1.7-0.6
		l0.8,0.1c-0.2-0.5-0.2-0.7-0.2-1.2c0-0.7,0.1-1.5,0.4-2.3c0.3-0.9,0.4-1.1,0.4-1.4c0-0.7-0.1-1.4-0.2-1.7l-0.5-1.1
		c-0.1-0.3-0.1-0.4-0.1-0.6c0-0.1,0.1-0.2,0.3-0.2c1.1,0,3.3,1.2,4.9,2.8c1.7,1.6,2.2,2.9,2.2,5.2l-0.1,1.3c1.6,1.4,2.2,2.5,2.2,3.7
		c0,0.9-0.3,1.5-1.2,2.3c-1.5,1.5-1.9,2.3-1.9,4.3c0,3,0.9,4.7,2.6,4.7c1.5,0,2.6-1.6,2.8-3.9l0.2-2.2c0-0.6,0.1-1.2,0.3-2.1
		c0.1-0.5,0.2-1.2,0.2-1.5c0-0.8-0.5-1.7-2-3.5c-1.6-1.9-2.1-2.9-2.1-4.3c0-1.8,1.2-3,2.9-3c0.4,0,0.6,0.1,1.1,0.3
		c0-1,0.1-1.2,0.6-2.6c0.4-1.1,0.9-1.9,1.1-1.9c0.1,0,0.2,0.1,0.3,0.2c0.2,0.2,0.5,0.5,0.7,0.6c0.4,0.2,0.5,0.4,0.6,0.4
		c0.1,0.1,0.3,0.3,0.5,0.5c0.4-1.3,0.7-1.9,1.8-2.9c0.8-0.8,1.1-1,1.3-1c0.1,0,0.3,0.1,0.4,0.3l0.7,0.9l1,1.1
		c0.4,0.4,0.5,0.8,0.7,1.8l0.6-0.3l0.9-0.5c0.2-0.1,0.4-0.2,0.7-0.5c0.2-0.1,0.3-0.2,0.4-0.2c0.1,0,0.2,0.2,0.3,0.4l0.3,1.3l0.7,1.5
		c0.2,0.4,0.3,0.8,0.3,1.5l0,0.4l0.4,0c1.1,0,2.1,1.3,2.1,2.9c0,2-1.6,4.7-3.7,6.1c-0.2,0.7-0.2,1-0.2,1.5c0,4.5,1.2,5.5,8.2,6.5
		c1.7,0.3,3.3,0.6,4.7,1c0.2,0.1,1.7,0.6,4.5,1.5c1.5,0.5,2.6,0.7,3.4,0.7c0.8,0,1.3-0.2,1.3-0.7c0-0.8-1.1-1.5-4.6-2.9l-5-1.9
		c-5.1-2-7.4-5.1-7.4-9.6c0-5.3,4-9.3,9.3-9.3c2,0,3.9,0.4,6.7,1.4c3.6,1.3,3.8,1.4,4.2,1.4c0.7,0,1.1-0.5,1.2-1.5
		c0.1-0.9,0.3-1.2,0.8-1.2c0.7,0,1.5,0.7,2,1.7c0.5,0.9,0.7,2,0.7,3c0,1.9-1,3.1-2.8,3.5c-1.2,1.6-2.7,2.4-4.6,2.4
		c-2.3,0-3.4-0.5-7.3-2.9c-1.4-0.9-2-1.1-3-1.1c-1.4,0-2.4,0.8-2.4,2c0,1,0.8,1.7,2.7,2.2c1.1,0.3,1.3,0.4,1.9,1
		c0.5-0.1,0.7-0.1,0.9-0.1c1.9,0,4.1,1,6.1,2.7c3.5,1.1,6.7,4.9,6.7,8.1c0,3.5-3.1,6.7-6.5,6.7C160.7,147.9,158.8,147.6,157.2,147.2
		"/>
	<path class="st5" d="M155.1,163l0.2-0.6l0.2-0.8c0-0.1,0.3-0.5,0.6-1c0.6-0.8,0.9-1.7,0.9-2.8c0-0.4-0.1-0.7-0.3-1.1
		c-0.1-0.2-0.2-0.4-0.2-0.5c0-0.1,0-0.2,0.1-0.3c0.1-0.1,0.2-0.2,0.2-0.2l0,0c0.1,0,0.4,0.2,0.6,0.4c0.2,0.3,0.5,0.5,0.6,0.5
		c0.3,0,0.5-0.4,0.7-1.1c0.1-0.3,0.1-0.5,0.1-0.6c0-0.3-0.2-1-0.5-1.6c-0.1-0.2-0.2-0.4-0.2-0.6c0-0.2,0.1-0.4,0.3-0.4
		c0.2,0,0.4,0.2,0.8,0.5c0.2,0.2,0.3,0.2,0.4,0.2c0.4,0,0.6-0.4,0.9-1.3c0.2-0.6,0.2-0.8,0.2-0.9c0-0.2-0.1-0.3-0.2-0.3l-0.2,0
		l-0.7,0.1c-1,0-2.5-0.7-3.2-1.6l-1.6-1.9c-0.6-0.8-1.5-1.9-1.4-1.9l-1.3-0.9c-0.2-0.1-0.3-0.3-0.3-0.5c0-0.2,0.2-0.4,0.5-0.4
		c0.3,0,1.2,0.3,2.9,1.1c1.6,0.7,4.2,1.3,5.8,1.3c2.7,0,5-2.2,5-4.9c0-1.5-0.7-2.8-2.3-4.7c-0.3-0.4-0.8-0.7-1.1-0.7
		c-0.2,0-0.3,0.1-0.3,0.3c0,0.2,0.1,0.4,0.2,0.6c0.1,0.2,0.1,0.4,0.1,0.5c0,0.3-0.1,0.4-0.3,0.4c-0.4,0-0.7-0.6-1-1.6
		c-0.4-1.3-1.1-2-2.9-2.9c-0.7-0.3-1.5-0.6-1.8-0.6c-0.1,0-0.2,0.1-0.2,0.3c0,0.2,0.1,0.4,0.2,0.7c0.3,0.4,0.4,0.8,0.5,1.1l0,0.1
		c0,0.2-0.1,0.3-0.3,0.3c-0.4,0-0.4-0.1-1.3-1.4c-0.4-0.7-1.6-1.5-2.6-1.9c-0.3-0.1-0.6-0.2-1-0.2l0,0c-0.2,0-0.4,0.1-0.4,0.2
		c0,0,0.1,0.2,0.3,0.5l0.1,0.3c0,0.2-0.1,0.3-0.3,0.3c-0.3,0-1.4-0.9-2.2-1.8c-0.9-1-1.5-2.4-1.5-3.4c0-2.2,2.1-4.1,4.4-4.1
		c0.6,0,1.1,0.1,1.5,0.3l2,1l2.3,1.5c1.3,0.9,3.2,1.5,4.3,1.5c0.4,0,0.7-0.1,1.8-0.4c0.6-0.2,0.9-0.4,0.9-0.6l0,0l-0.2-0.1l-1.3-0.1
		c-0.7-0.1-2.3-0.8-3.5-1.6l-2.6-1.7l-2.3-1c-0.2-0.1-0.3-0.2-0.3-0.3c0-0.1,0.1-0.2,0.3-0.2c0,0,0.2,0,0.6,0.1l2.2,0.6
		c0.5,0.2,1.4,0.6,2.6,1.2c2.4,1.3,3.9,1.8,5.1,1.8c1.3,0,2.3-0.9,2.3-2.1c0-0.4-0.1-1.1-0.2-1.6c-0.1-0.3-0.2-0.5-0.3-0.7
		c-0.1-0.1-0.2-0.2-0.3-0.2c-0.2,0-0.3,0.2-0.3,0.5l0,0.4l0,0.3c0,1.1-0.4,1.4-1.6,1.4c-1,0-2.2-0.4-5.1-1.5
		c-2.7-1.1-4.4-1.5-6.1-1.5c-4.3,0-8.1,3.5-8.1,7.5c0,3.5,2.3,6.1,7,8l4.9,2c4,1.6,5.5,2.8,5.5,4.4c0,1.3-1.2,2.1-3.1,2.1
		c-0.8,0-1.8-0.2-3.7-0.8c-4.5-1.4-7.5-2-10.1-2c-4.2,0-7.3,1.2-9.7,3.7c-0.3,0.3-0.5,0.4-0.8,0.4c-0.2,0-0.4-0.1-0.8-0.3
		c-0.4-0.3-0.9-0.4-1.3-0.4c-0.4,0-1.1,0.4-1.4,0.8l-0.6,0.7c-0.2,0.2-0.4,0.3-0.5,0.3c-0.4,0-1.1-0.7-1.6-1.5
		c-0.3-0.5-0.5-1-0.6-1.5c-0.1-0.4-0.1-0.9-0.1-1.6l0.1-1.1l0.2-1.1c0.1-0.5,0.1-0.9,0.2-1c0-0.1,0.2-0.2,0.3-0.2
		c0.3,0,0.4,0.3,0.4,0.9l0,0.4l0,0.3c0,1.6,0.6,3.1,1.4,3.1c0.6,0,1-1,1.5-3c0.1-0.4,0.2-0.6,0.4-0.6c0.2,0,0.4,0.3,0.5,1.1
		c0.1,0.6,0.5,1.3,0.9,1.8c0.2,0.3,0.5,0.5,0.7,0.5c0.5,0,0.8-0.7,1-2.3c0.1-0.6,0.3-1,0.5-1c0.1,0,0.2,0,0.2,0.1
		c0,0,0.2,0.3,0.4,0.6c0.1,0.2,0.4,0.4,0.6,0.6c0.3,0.1,0.5,0.2,0.7,0.2c0.2,0,0.4-0.1,0.5-0.2c0.3-0.2,0.4-0.4,0.4-0.5
		c0-0.1-0.1-0.3-0.3-0.5c-0.4-0.4-0.7-0.9-1-1.9c-0.2-0.6-0.4-1.1-0.5-1.3c-0.1-0.2-0.2-0.3-0.3-0.4l-0.2,0l-0.3,0
		c-0.1,0-0.5,0.1-1.2,0.3l-0.4,0.1c-0.2,0-0.3-0.1-0.3-0.3c0-0.2,0.2-0.4,0.5-0.6c1.4-1.2,2.3-3.1,2.6-5.9c0.2-1.7,0.4-2.4,1.1-3.4
		c0.2-0.2,0.3-0.3,0.4-0.3c0.2,0,0.3,0.2,0.3,0.5c0,0.2-0.1,0.5-0.2,0.8c-0.1,0.2-0.1,0.5-0.1,0.7l0,0.2l0.1,0.3l0.6-0.2l0.7-0.8
		c0.4-0.5,0.8-1.5,0.8-2.3c0-0.5-0.1-0.9-0.5-1.3c-0.4-0.4-0.6-0.6-0.9-0.6l-0.4,0l-0.4,0c-0.4,0-0.6-0.1-0.6-0.3l0.1-0.4l0.1-0.6
		l-0.3-1.4l-0.3-0.7l-0.2-0.6l-0.4,0.3l-0.9,0.5c-0.2,0.1-0.5,0.3-0.7,0.6c-0.8,1-0.9,1-1.2,1c-0.2,0-0.3-0.1-0.3-0.2l0-0.2
		c0.1-0.5,0.2-0.9,0.2-1.2c0-1-0.7-2.5-1.6-3.3c-1.2,1.1-1.8,2.4-1.8,3.6v0.7c0,0.3-0.1,0.4-0.3,0.4h0c-0.1,0-0.3-0.1-0.4-0.3
		l-0.7-0.9c-0.1-0.1-0.4-0.3-0.9-0.7c-0.1-0.1-0.3-0.2-0.5-0.4l-0.2,0.5c-0.6,1.1-0.8,1.8-0.8,2.7c0,0.8-0.1,1-0.3,1
		c-0.1,0-0.2,0-0.4-0.1c-0.9-0.5-0.9-0.5-1.3-0.5c-1,0-1.7,0.7-1.7,1.8c0,0.4,0.2,1.1,0.7,1.9c0.5,0.9,1.3,1.8,1.7,1.8
		c0.1,0,0.1-0.1,0.1-0.4l0-0.1l-0.1-1l-0.1-0.7l0-0.1c0-0.2,0.1-0.3,0.3-0.3c0.5,0,1,1.5,1.4,4.5c0.3,2.7,1.1,4.5,2.2,5.5
		c0.3,0.3,0.5,0.5,0.5,0.6c0,0.1-0.1,0.2-0.2,0.2c-0.2,0-0.4-0.1-0.8-0.3c-0.2-0.1-0.4-0.2-0.6-0.2c-0.6,0-1.2,0.7-1.3,1.4l-0.5,3.3
		l-0.4,4.6c-0.1,0.9,0,2,0.3,3.4c0.3,1.2,0.4,2.1,0.4,2.7c0,3.4-2.1,6.1-5.7,7.2l-3.7,1.1c-2.3,0.7-3.4,2.2-3.7,5
		c0.6-0.5,0.8-0.5,1.7-0.7l1.1-0.2c0.5-0.1,0.8-0.2,1-0.3c0.1-0.1,0.3-0.3,0.6-0.6l1-1.1c0.4-0.4,0.7-0.6,0.9-0.6
		c0.1,0,0.2,0.2,0.2,0.3c0,0.2-0.1,0.5-0.4,0.9c-0.3,0.4-0.4,0.9-0.4,1.5c0,0.7,0.2,1.2,0.9,2.2c0.1-0.3,0.2-0.6,0.2-0.7
		c0.1-0.2,0.4-0.6,0.9-1.2c0.8-1,1.4-2.1,1.4-2.6c0-0.9,0.1-1.2,0.3-1.2c0.2,0,0.2,0,0.3,0.5c0,0.1,0.1,0.2,0.2,0.3
		c0.1,0.1,0.3,0.2,0.3,0.2c0.1,0,0.2-0.1,0.5-0.2c0.4-0.3,0.7-0.5,0.9-0.8c0.2-0.3,0.4-0.6,0.6-1c0.2-0.5,0.3-0.9,0.3-1.1l0-0.7
		c0-0.2,0.1-0.4,0.2-0.4c0.1,0,0.4,0.3,0.6,0.6c0.1,0.2,0.2,0.3,0.4,0.3h0c0.2,0,0.4-0.1,0.5-0.2c0.7-0.7,1.1-1.5,1.1-2.1l-0.1-1.1
		l-0.2-0.9l0-0.1c0-0.2,0.1-0.3,0.3-0.3c0.3,0,0.5,0.4,0.9,1.2c0.2,0.4,0.4,0.6,0.5,0.6c0.3,0,0.5-0.2,1-1l0.5-0.7
		c0.1-0.2,0.2-0.4,0.2-0.6c0-0.2-0.1-0.4-0.2-0.6l-0.5-0.7c-0.1-0.1-0.1-0.3-0.1-0.6c0-0.8,0.3-1.7,0.9-2.7c0.4-0.8,0.7-1.2,0.7-1.4
		c0.1-0.2,0.2-0.3,0.3-0.3c0.1,0,0.2,0.1,0.2,0.3l-0.1,0.6v0.5v0.5c0.1,0.2,0.2,0.3,0.5,0.3c0.2,0,0.4,0,0.6-0.1l1.4-0.5
		c0.3-0.1,0.8-0.3,1.3-0.6c2.2-1.2,2.9-1.5,4-1.5c0.7,0,1.5,0.3,2.7,0.8c0.2,0.1,0.4,0.2,0.6,0.2c0.2,0,0.3-0.1,0.5-0.3
		c0.1-0.1,0.2-0.3,0.2-0.4c0-0.2-0.1-0.5-0.2-0.7c-0.2-0.3-0.3-0.7-0.3-0.9c0-0.2,0.1-0.3,0.3-0.3c0.1,0,0.3,0.1,0.4,0.3
		c0.2,0.3,0.6,1,1.3,2.3c1.1,1.9,2.5,3.2,3.7,3.5l2.5,0.6c0.8,0.2,1,0.5,1,1.4c0,1.8-0.8,3.3-2.3,4.3l-2.1,1.3
		c-0.7,0.5-1.4,1.8-1.4,2.9c0,0.7,0.2,2,0.4,2.9l0.4-0.4l1-0.6l0.9-0.9l0.5-1.3l0.5-1.1c0.2-0.6,0.5-0.9,0.7-0.9
		c0.2,0,0.3,0.3,0.3,0.9l0,0.2l0,0.2C154.4,161.4,154.5,161.8,155.1,163"/>
	<path class="st5" d="M121.3,179.3c0-2.7,1-3.9,4.9-5.9c7.8-3.9,11.9-7.5,11.9-10.3c0-0.6-0.2-1.4-0.7-3.1c-0.3-1.1-0.5-1.9-0.5-2.5
		c0-1.3,1-3.2,2.4-4.4l1.1-1c0.6-0.5,1-1.3,1-1.8l0-0.3l0-0.3c0-0.6,0.2-0.8,0.8-0.8l0.5-0.1c0.3-0.1,0.4-0.1,0.4-0.1
		c0.2,0,0.4,0.1,0.5,0.3l0.3,0.5l0.4,0.5c0.1,0.1,0.3,0.2,0.4,0.2c0.1,0,0.2-0.1,0.4-0.2c0.3-0.2,0.5-0.2,0.7-0.2
		c0.3,0,0.4,0.2,0.4,0.5c0,1.1-0.7,2.8-2.1,4.6c-2.2,3-2.9,4.6-2.9,6.5c0,1.5,0.4,2.8,1.3,3.9c0.1,0.2,0.2,0.3,0.2,0.4
		c0,0.2-0.1,0.4-0.4,0.7c-0.1,0.1-0.2,0.3-0.3,0.5c-0.5,0.7-0.8,0.9-1.1,0.9c-0.2,0-0.4-0.2-0.5-0.5l-0.2-0.6
		c-0.1-0.2-0.2-0.3-0.3-0.3c0,0-0.1,0.1-0.3,0.2c-0.1,0.2-0.2,0.4-0.2,0.6v1c0,0.4-0.1,0.8-0.4,1.1c-0.2,0.3-0.5,0.6-0.8,0.9
		c-0.2,0.2-0.4,0.3-0.4,0.3c-0.2,0-0.3-0.2-0.4-0.5l-0.3-1.1c0-0.2-0.2-0.3-0.3-0.3c-0.2,0-0.4,0.3-0.4,0.8
		c-0.1,1.3-0.3,2.1-0.7,2.4l-0.8,0.7c-0.3,0.2-0.6,0.4-0.7,0.4c-0.2,0-0.3-0.1-0.4-0.2l-0.4-0.9c0-0.1-0.1-0.2-0.3-0.2
		c-0.2,0-0.4,0.5-0.5,1.3c-0.2,2.1-0.6,3-1.8,3.8c-0.9,0.6-1.1,0.8-1.4,1.6c-0.5-0.7-0.7-1.4-0.7-2.3c0-0.5,0.1-0.8,0.2-1.1
		c0.2-0.4,0.4-0.8,0.4-0.9c0-0.1-0.1-0.3-0.2-0.3c-0.1,0-0.2,0.1-0.3,0.2c-0.2,0.2-0.4,0.4-0.7,0.6c-1,0.6-1.2,0.8-1.4,1.9
		c-0.3,1.5-1.1,2.2-2.6,2.6c-1.9,0.4-2.1,0.4-2.7,1.1L121.3,179.3z"/>
	<path class="st5" d="M117.6,120.4v0.6l0,0.8c0,0.3,0,0.5-0.1,0.9c-0.2,0.8-0.2,1.1-0.2,1.3c0,1.1,0.2,1.6,0.8,2.8
		c0.4,0.6,0.6,1.4,0.6,1.9c0,0.2-0.1,0.4-0.3,0.4c-0.1,0-0.2-0.1-0.3-0.2l-0.5-0.6c-0.4-0.5-0.7-0.6-1.6-0.6l-1,0.1
		c0.4,1,0.5,1.3,0.7,2c0.5,1.9,0.5,2,1.5,2.9c1,0.9,1.1,1,1.1,1.4c0,0.3-0.2,0.5-0.4,0.5l-0.4-0.1l-0.2,0c-0.3,0-0.6,0.6-0.6,1.2
		c0,0.4,0.1,0.9,0.4,1.4c0.1,0.3,0.3,0.6,0.4,0.7l0.6,0.6c0.1,0.1,0.2,0.4,0.2,0.6c0,0.3-0.2,0.5-0.3,0.5c-0.1,0-0.3-0.1-0.5-0.2
		c-0.1-0.1-0.3-0.1-0.4-0.1c-0.3,0-0.4,0.2-0.4,0.5l0.1,0.8l0.3,1.5c0.1,0.3,0.3,0.7,0.6,1.1c0.3,0.3,0.6,0.6,0.9,0.7
		c0.7,0.3,1.1,0.5,1.1,0.5c0.1,0.1,0.2,0.2,0.2,0.5c0,0.2-0.2,0.4-0.4,0.4c-0.1,0-0.3,0-0.6-0.1l-0.6-0.1c-0.6,0-0.6,0-0.6,0.5
		c0,0.3,0,0.6,0.1,0.9l0.2,0.9c0.2,1,0.6,1.5,0.9,1.5c0.1,0,0.2-0.1,0.4-0.2c0.8-0.6,2.5-1.2,3.5-1.2c1.1,0,2.3,0.1,2.8,0.3
		c0.3,0.1,0.4,0.1,0.5,0.1c0.1,0,0.2-0.1,0.2-0.6l0.1-1l0.2-1.8l0.2-1.3v-0.7c-0.2,0.2-0.4,0.3-0.5,0.4c-1,0.9-1.6,1.2-2.6,1.2
		c-2.6,0-4.1-3-4.1-8.1c0-2.1,0.3-5.1,0.9-8.6c0.1-0.7,0.2-1.2,0.2-1.6C120.8,123.6,119.7,121.8,117.6,120.4"/>
	<path class="st5" d="M121.5,133.2l0.5-0.5l0.5-0.5c0.4-0.4,0.8-1.2,0.8-1.8c0-0.3-0.1-0.5-0.2-0.8c-0.2-0.4-0.6-0.8-0.8-0.8
		c-0.2,0-0.4,0.5-0.4,1.2l-0.1,0.9l-0.2,0.9l-0.1,0.9V133.2z"/>
	<path class="st5" d="M116.4,156.6c0.6,0.2,0.7,0.3,1.3,1c0.8,0.9,1.2,1.1,2.3,1.1c0.3,0,0.6,0,0.8-0.1l0.7-0.2l0.6-0.2
		c0.3-0.1,0.5-0.2,0.5-0.3c0-0.1-0.4-0.5-1.1-1c-0.5-0.3-0.9-0.6-1.4-0.8c-0.5-0.2-0.9-0.4-1.3-0.4
		C118,155.8,117.2,156.1,116.4,156.6"/>
	<path class="st5" d="M124.2,172.7c0-1.8,1.8-3.4,4-3.4c1.1,0,1.7,0.2,1.7,0.6c0,0.3-0.5,0.7-1.5,1.2c-0.1,0.1-0.7,0.4-1.7,0.9
		c-1.1,0.6-1.5,0.8-2.5,1.3L124.2,172.7z"/>
	<path class="st5" d="M147.4,158.8c0.8-0.2,1.1-0.4,1.5-0.4l1,0.1c0.1,0,0.4-0.2,0.7-0.5c0.2-0.1,0.5-0.3,0.8-0.6
		c1.1-0.8,1.2-0.8,1.2-1.1c0-0.3-0.5-0.5-1.4-0.5C149.4,155.9,148.3,156.7,147.4,158.8"/>
	<path class="st2" d="M130.1,124l0.8,0.5c0.5,0.3,0.8,0.5,1.1,0.6c0.9,0.4,1.2,0.5,1.2,0.8c0,0.1,0,0.4-0.1,0.7
		c-0.1,0.3-0.1,0.5-0.2,0.8c-0.1,0.8-0.6,1-0.9,1c-0.4,0-0.8-0.6-1.4-1.7c-0.3-0.5-0.7-1.5-0.9-2.3l0-0.2c0-0.1,0.1-0.2,0.2-0.2"/>
	<path class="st2" d="M137.9,126l-1.3,1.3c-0.5,0.6-0.5,1.2-0.6,1.3c-0.1,0.1-0.2,0.1-0.4,0.2l-0.1,0c-0.3,0-0.6-0.2-0.6-0.6l-0.1-1
		l-0.1-1v-0.1c0-0.4,0.2-0.6,0.5-0.6l1.2-0.3l1.3-0.6c0.4-0.2,0.5-0.2,0.5-0.2c0.1,0,0.3,0.2,0.3,0.3c0,0.1,0,0.2-0.1,0.4L137.9,126
		z"/>
	<path class="st2" d="M132.1,129.9l0.9,0.6c0.2,0.1,0.5,0.2,0.8,0.2c0.3,0,0.9-0.1,1.3-0.4l0.7-0.3c0.2-0.1,0.3-0.1,0.4-0.1
		c0.5,0,0.8,0.5,0.8,1.1c0,0.8-0.6,1.7-1.5,3l-0.6,1.3c-0.5,0.7-0.8,1-1.2,1c-0.7,0-1-0.4-2-2.4c-0.7-1.4-1-2.3-1-3
		c0-0.6,0.3-1,0.8-1C131.6,129.8,131.8,129.8,132.1,129.9"/>
	<path class="st5" d="M132.8,133.1l0.1,1.1c0,0.5,0.4,1,0.8,1c0.5,0,0.9-0.8,1.1-2c0.1-0.6,0.1-0.6,0.1-0.8c0-0.4-0.1-0.5-0.7-0.5
		l-0.3,0h-0.4l-0.3,0c-0.4,0-0.5,0.3-0.5,1"/>
</g>
<g>
	<path class="st2" d="M68.5,107.2h5.6v11.5h6.6v-11.3h16.6v11.3h6.6v-11.3h5.6V77.7H103l-0.2-0.3c-0.8-1.1-1.8-1.7-3.1-1.7
		c-1.3,0-2.3,0.7-3,2.1h-4.6c-0.4-1.2-1.7-2.1-3.1-2.1c-1.5,0-2.6,0.8-3.2,2.1h-5c-0.8-1.5-1.7-2.1-3.2-2.1c-1.4,0-2.4,0.6-3.1,2.1
		h-6V107.2z"/>
	<rect x="70.9" y="80.1" class="st4" width="36.3" height="24.9"/>
	<path class="st5" d="M74.7,85.8c-1,0-1.7,0.8-1.7,1.7c0,1,0.8,1.7,1.7,1.7c1,0,1.7-0.8,1.7-1.7C76.4,86.6,75.6,85.8,74.7,85.8"/>
	<path d="M74.7,89.5c-1.1,0-2-0.9-2-2c0-1.1,0.9-2,2-2c1.1,0,2,0.9,2,2C76.7,88.6,75.8,89.5,74.7,89.5z M74.7,86.1
		c-0.8,0-1.5,0.7-1.5,1.5c0,0.8,0.7,1.5,1.5,1.5c0.8,0,1.5-0.7,1.5-1.5C76.2,86.7,75.5,86.1,74.7,86.1z"/>
	<path class="st5" d="M103.2,85.8c-1,0-1.7,0.8-1.7,1.7c0,1,0.8,1.7,1.7,1.7c1,0,1.7-0.8,1.7-1.7C104.9,86.6,104.2,85.8,103.2,85.8"
		/>
	<path d="M103.2,89.5c-1.1,0-2-0.9-2-2c0-1.1,0.9-2,2-2c1.1,0,2,0.9,2,2C105.2,88.6,104.3,89.5,103.2,89.5z M103.2,86.1
		c-0.8,0-1.5,0.7-1.5,1.5c0,0.8,0.7,1.5,1.5,1.5c0.8,0,1.5-0.7,1.5-1.5C104.7,86.7,104,86.1,103.2,86.1z"/>
	<path class="st5" d="M74.7,99.4c-1,0-1.7,0.8-1.7,1.7c0,1,0.8,1.7,1.8,1.7c0.9,0,1.7-0.8,1.7-1.7C76.4,100.1,75.6,99.4,74.7,99.4"
		/>
	<path d="M74.7,103.1c-1.1,0-2-0.9-2-2c0-1.1,0.9-2,2-2c1.1,0,2,0.9,2,2C76.7,102.2,75.8,103.1,74.7,103.1z M74.7,99.6
		c-0.8,0-1.5,0.7-1.5,1.5c0,0.8,0.7,1.5,1.6,1.5c0.8,0,1.4-0.7,1.4-1.5C76.2,100.3,75.5,99.6,74.7,99.6z"/>
	<path class="st5" d="M103.2,99.4c-1,0-1.7,0.8-1.7,1.7c0,1,0.8,1.7,1.7,1.7c1,0,1.7-0.8,1.7-1.7C104.9,100.1,104.2,99.4,103.2,99.4
		"/>
	<path d="M103.2,103.1c-1.1,0-2-0.9-2-2c0-1.1,0.9-2,2-2c1.1,0,2,0.9,2,2C105.2,102.2,104.3,103.1,103.2,103.1z M103.2,99.6
		c-0.8,0-1.5,0.7-1.5,1.5c0,0.8,0.7,1.5,1.5,1.5c0.8,0,1.5-0.7,1.5-1.5C104.7,100.3,104,99.6,103.2,99.6z"/>
	<path class="st5" d="M80.1,94.1c2.3,2.9,5.3,4.4,8.9,4.4c3.4,0,5.7-1.2,8.4-4.4c-2.7-2.8-5.3-4-8.6-4
		C85.4,90.1,82.2,91.6,80.1,94.1"/>
	<path class="st2" d="M81.8,94.1c2.4-1.9,4.5-2.7,7-2.7c2.5,0,4.4,0.7,6.9,2.7c-2.2,2.1-4.1,2.9-7,2.9
		C86.2,97.1,83.8,96.1,81.8,94.1"/>
	<path class="st5" d="M84.8,93.5c1.4,0.9,2.6,1.3,3.9,1.3c1.6,0,2.9-0.4,4.2-1.3c-1.3-0.6-2.8-1-4.1-1C87.3,92.6,86,92.9,84.8,93.5"
		/>
	<rect x="70.4" y="81.4" class="st2" width="37.3" height="1.3"/>
	<path d="M107.8,82.8H70.3v-1.4h37.5V82.8z M70.5,82.6h37.2v-1.1H70.5V82.6z"/>
	<path class="st5" d="M76.1,79.8v2.9v0.6c0,0.9,0.7,1.5,1.5,1.5c1,0,1.6-0.5,1.6-1.5v-0.6v-2.9c0-1.4-0.6-2.2-1.4-2.2
		c-0.2,0-0.5,0.1-0.7,0.2c-0.2,0.1-0.3,0.2-0.4,0.2c-0.1,0.1-0.3,0.3-0.3,0.5c-0.2,0.3-0.2,0.5-0.2,0.6"/>
	<path class="st5" d="M87.4,82.7v0.6c0,0.8,0.7,1.5,1.5,1.5c1,0,1.6-0.5,1.6-1.5v-0.6v-2.9c0-1.3-0.6-2.2-1.4-2.2
		c-1,0-1.7,0.8-1.7,2.1"/>
	<path class="st5" d="M98.2,79.8v2.9v0.6c0,0.9,0.7,1.5,1.5,1.5c1,0,1.6-0.5,1.6-1.5v-0.6v-2.9c0-1.4-0.6-2.2-1.4-2.2
		c-0.2,0-0.5,0.1-0.7,0.2C99,77.9,98.9,78,98.8,78c-0.1,0.1-0.3,0.3-0.3,0.5c-0.2,0.3-0.2,0.5-0.2,0.6"/>
	<rect x="75.3" y="109.9" class="st5" width="3.4" height="4.4"/>
	<rect x="75.3" y="115.3" class="st5" width="3.4" height="1.4"/>
	<rect x="98.5" y="109.9" class="st5" width="3.4" height="4.4"/>
	<rect x="98.5" y="115.3" class="st5" width="3.4" height="1.4"/>
</g>
<path class="st2" d="M285.1,3.7c0,0.5,0,2.1,0,2.6c-0.5,0-1.7,0-1.7,0c-2.5,0-6.8,0-6.8,7.9v32.6c0,20-8.7,29.7-26.6,29.7
	c-20.2,0-29.6-8-29.6-25.3v-37c0-7.9-4.3-7.9-8.1-7.9c0,0-0.4,0-0.8,0c0-0.5,0-2.1,0-2.6c0.8,0,29.4,0,30.2,0c0,0.5,0,2.1,0,2.6
	c-0.4,0-0.8,0-0.8,0c-3.7,0-8.4,0-8.4,7.9v35.3c0,15.2,6.4,22.6,19.4,22.6c12.7,0,19.5-8,19.5-23V14.3c0-7.9-4.4-7.9-7.6-7.9
	c0,0-1.1,0-1.6,0c0-0.5,0-2.1,0-2.6C262.9,3.7,284.3,3.7,285.1,3.7"/>
<path class="st2" d="M317.7,72.4V75c0,0-24.7,0-25.5,0c0-0.5,0-2.1,0-2.6c0.4,0,1,0,1,0c8.3,0,9.4-6.4,9.4-13.5V16
	c0-6.8-4-9.7-9.5-9.7h-0.9V3.7h20l43.3,53.1V16.4c0-9.1-6.4-10.1-9.1-10.1c0,0-1.3,0-1.8,0c0-0.5,0-2.1,0-2.6c0.8,0,25,0,25.7,0
	c0,0.5,0,2.1,0,2.6c-0.4,0-1.1,0-1.1,0c-4.5,0-9.3,1-9.3,13.5v55.5l-3.8,0L307,15.9l0,42.9c0,7.2,1,13.6,9.7,13.6"/>
<path class="st2" d="M454.3,59.9L470,16.1c2.8-7.5,1-9.8-5.5-9.8h-1.3V3.7h20.3v2.6H483c-2.2,0-4.8,0.7-6.7,5.6l-23.8,63.4H448
	l-25.8-62.8c-2.1-5.2-4.5-6.1-8.8-6.1c0,0-0.3,0-0.6,0c0-0.5,0-2.1,0-2.6c0.8,0,28.7,0,29.5,0c0,0.5,0,2.1,0,2.6c-0.5,0-1.9,0-1.9,0
	c-5,0-6,3.2-4.6,7"/>
<path class="st2" d="M584.3,3.7c15.8,0,23.6,5.8,23.6,17.8c0,10.1-7.9,15.3-14.2,17.8l-0.5,0.2l17.5,26.6c2.8,4.3,5.1,6,9.9,6.2
	c0,0.5,0,2.1,0,2.7c-0.8,0-18.3,0-18.3,0l-21.2-33.5h-7.9v22.2c0,8.1,3.6,8.7,8.6,8.7c0,0,0.9,0,1.4,0c0,0.5,0,2.1,0,2.6
	c-0.8,0-30.2,0-31,0c0-0.5,0-2.1,0-2.6c0.5,0,1.4,0,1.4,0c3.5,0,7.5-1.6,7.5-6V14.6c0-8.3-4.9-8.3-7.5-8.3c0,0-0.9,0-1.4,0
	c0-0.5,0-2.1,0-2.6C553.1,3.7,584.3,3.7,584.3,3.7 M573.3,7.1l0,31.6h6.1c11.1,0,16-4.9,16-16.5c0-9.4-6.1-15.5-15.2-15.5
	C578.1,6.6,575.2,6.8,573.3,7.1z"/>
<path class="st2" d="M658.4,61.5c0-8.7-7.5-12.1-14.4-15.7c-8.1-4.2-17.5-8.6-17.5-21.8c0-12.8,9.7-21,23.6-21
	c5.7,0,12.1,1.1,14.9,1.7l1,13.9l-2.7,0.4c-1.2-7.3-5-12.9-13.2-12.9c-7.7,0-13.4,4.7-13.4,13.3c0,8,7.4,11.3,14.3,14.8
	c8.5,4.3,18.2,8.7,18.2,22c0,14.7-13.1,21.3-25.2,21.3c-4.8,0-11.5-1-16.9-4l-1.7-15.4l2.6-0.5c2,10.3,8.5,16.2,17.1,16.2
	C653.1,73.7,658.4,68.7,658.4,61.5"/>
<path class="st2" d="M709.2,3.7c0,0.5,0,2.1,0,2.6c-0.4,0-1,0-1,0c-4.1,0-7.8,0.8-7.8,6.3v53.5c0,5.5,3.8,6.3,7.8,6.3c0,0,0.6,0,1,0
	c0,0.5,0,2.1,0,2.6c-0.8,0-29,0-29.8,0c0-0.5,0-2.1,0-2.6c0.4,0,1,0,1,0c4.1,0,7.8-0.8,7.8-6.3V12.6c0-5.5-3.8-6.3-7.8-6.3
	c0,0-0.6,0-1,0c0-0.5,0-2.1,0-2.6C680.2,3.7,708.5,3.7,709.2,3.7"/>
<path class="st2" d="M408.7,3.7c0,0.5,0,2.1,0,2.6c-0.4,0-1,0-1,0c-4.1,0-7.8,0.8-7.8,6.3v53.5c0,5.5,3.8,6.3,7.8,6.3c0,0,0.6,0,1,0
	c0,0.5,0,2.1,0,2.6c-0.8,0-29,0-29.8,0c0-0.5,0-2.1,0-2.6c0.4,0,1,0,1,0c4.1,0,7.8-0.8,7.8-6.3V12.6c0-5.5-3.8-6.3-7.8-6.3
	c0,0-0.6,0-1,0c0-0.5,0-2.1,0-2.6C379.7,3.7,407.9,3.7,408.7,3.7"/>
<path class="st2" d="M1002.3,106.7l0.2,18.9c0,0-2.3,0.6-3,0.8c-0.7-8.3-2.6-15-15.8-15h-17.8v35h15.3c7.5,0,9.5-4.2,10.4-11.4
	c0.6,0,2.4,0,3,0c0,1,0,29.3,0,29.3l-3,0c-0.5-7-2.1-12.4-10.3-12.4h-15.3v30.7c0,8.9,7.7,8.9,15.8,8.9c14.6,0,21.4-0.9,25.5-15.7
	c0.6,0.2,3,0.7,3,0.7l-4.1,19.7c0,0-65.4,0-66.4,0c0-0.6,0-2.6,0-3.3c0.5,0,1.3,0,1.3,0c5.1,0,9.8-1,9.8-7.9v-67.1
	c0-6.9-4.7-7.9-9.8-7.9c0,0-0.8,0-1.3,0c0-0.6,0-2.6,0-3.3C940.7,106.7,1002.3,106.7,1002.3,106.7"/>
<path class="st2" d="M640.4,106.7c19.8,0,29.6,7.3,29.6,22.3c0,12.7-9.9,19.2-17.8,22.3l-0.6,0.2l21.9,33.4
	c3.5,5.4,6.4,7.5,12.4,7.8c0,0.6,0,2.7,0,3.3c-0.9,0-22.9,0-22.9,0l-26.6-42h-9.9V182c0,10.1,4.5,10.9,10.8,10.9c0,0,1.2,0,1.8,0
	c0,0.7,0,2.6,0,3.3c-1,0-37.9,0-38.9,0c0-0.6,0-2.6,0-3.3c0.6,0,1.8,0,1.8,0c4.3,0,9.4-2,9.4-7.5v-65c0-10.4-6.1-10.4-9.4-10.4
	c0,0-1.2,0-1.8,0c0-0.7,0-2.6,0-3.3C601.4,106.7,640.4,106.7,640.4,106.7 M626.7,110.9l0,39.6h7.6c13.9,0,20.1-6.2,20.1-20.7
	c0-11.8-7.6-19.4-19.1-19.4C632.7,110.3,629.2,110.5,626.7,110.9z"/>
<path class="st2" d="M728.9,106.7c0,0.7,0,2.6,0,3.3c-0.5,0-1.3,0-1.3,0c-5.1,0-9.8,1-9.8,7.9V185c0,6.9,4.7,7.9,9.8,7.9
	c0,0,0.7,0,1.3,0c0,0.7,0,2.6,0,3.3c-1,0-36.4,0-37.4,0c0-0.6,0-2.6,0-3.3c0.5,0,1.3,0,1.3,0c5.1,0,9.8-1,9.8-7.9v-67.1
	c0-6.9-4.7-7.9-9.8-7.9c0,0-0.8,0-1.3,0c0-0.7,0-2.6,0-3.3C692.5,106.7,728,106.7,728.9,106.7"/>
<path class="st2" d="M724.7,3.7h47.2c2.4,0,5.4-0.6,5.9-3.7l2.3,0l-1.8,18.6l-2.5,0c-0.2-4.3-0.8-10.5-7.7-10.5h-14.4v55.1
	c0,8.6,4.1,9.3,8.7,9.3c0,0,1,0,1.5,0c0,0.5,0,2.1,0,2.6c-0.8,0-31.7,0-32.5,0c0-0.5,0-2.1,0-2.6c0.5,0,1.5,0,1.5,0
	c5.4,0,8.7-0.4,8.7-9.1V8.1h-14.6c-7.4,0-8.1,3.3-9.6,10.5H715l1.6-18.4c0,0,1.7,0,2.1,0C719.6,3.1,722.2,3.7,724.7,3.7"/>
<path class="st2" d="M853,3.7v2.6c-4.1,0.2-6.6,3-8.4,5.6c0,0-18.1,27.9-18.1,27.9v22.8c0,9.1,3.3,9.7,8.7,9.7c0,0,1,0,1.5,0
	c0,0.5,0,2.1,0,2.6c-0.8,0-31.7,0-32.5,0c0-0.5,0-2.1,0-2.6c0.5,0,1.5,0,1.5,0c5.7,0,8.7-1.4,8.7-8.9V41.6l-19.7-28.1
	c-3-4.3-5.3-7.2-10-7.2h-0.6V3.7h29.5v2.6h-0.9c-5.7,0-6.1,3-3.7,6.4l15.2,23.6L837.8,15c3.1-4.7,4-8.7-3.7-8.7H833l0-2.6"/>
<path class="st2" d="M874.7,39.9c0-21.2,16.1-37.7,36.6-37.7c22.4,0,38,14.5,38,35.2c0,22.7-15.8,39.2-37.5,39.2
	C890.3,76.6,874.7,61.1,874.7,39.9 M887.9,36.3c0,17.6,7.8,36.6,24.9,36.6c15.6,0,23.2-10.8,23.2-33.2c0-16.4-8.7-33.8-25-33.8
	C889.6,5.9,887.9,29.1,887.9,36.3z"/>
<path class="st2" d="M957.4,75c0-0.5,0-2.1,0-2.6c0.4,0,1,0,1,0c4.1,0,7.8-0.8,7.8-6.3V12.6c0-5.5-3.8-6.3-7.8-6.3c0,0-0.6,0-1,0
	c0-0.5,0-2.1,0-2.6h49.8l0.2,15.1c-0.4,0.1-1.8,0.5-2.4,0.6c-0.6-6.1-2-12-10.5-12h-16.3v27.9h14.3c5.9,0,6.8-4.7,6.8-8.4
	c0.5,0,1.8,0,2.4,0v0v22.8c-0.5,0-1.9,0-2.3,0c-0.1-4.5-1.1-10.1-8.4-10.1h-12.7v26.4c0,6.3,5.3,6.3,10,6.3c0,0,0.5,0,0.9,0
	c0,0.5,0,2.1,0,2.6"/>
<path class="st2" d="M217.1,151.3c0-13.3,5.4-26.4,14.7-34.7c8.6-7.7,19.9-12.1,32.7-12.1c11.4,0,21,2.1,30.3,6.4l0.9,20.7l-2.9,0.4
	c-3.4-12-9-23-27.9-23c-19.5,0-31.6,15.4-31.6,40.2c0,22.1,9.8,43,33.5,43c13.3,0,22.8-5,30-14.2l2.3,4.4c-8.1,10.4-20.5,16-34.7,16
	C235.5,198.5,217.1,181.5,217.1,151.3"/>
<path class="st2" d="M410,124c0,0-3,55.2-3,55.3c-0.5,12.2,3.3,13.3,11.5,13.6h0.8v3.3h-30.2v-3.3h1.2c10.2-0.4,10.8-6.1,11.3-14.3
	l3.5-56.6c0.5-7.7-3.8-12.1-10.9-12.1c0,0-0.6,0-1,0c0-0.7,0-2.5,0-3.3c1.1,0,24.6,0,25.3,0c0.3,0.7,30.4,67.8,30.4,67.8
	s28.4-67.1,28.7-67.8c0.7,0,24.8,0,24.8,0l0,3.3h-0.5c-10.1,0-11.8,3.1-11.1,15.8l3.5,59.3c0.5,6.9,4.2,7.6,11,7.8
	c0,0.7,0,2.5,0,3.2c-1.1,0-36,0-37.1,0c0-0.7,0-2.6,0-3.2c0.1,0,0.2,0,0.2,0c6-0.4,10.4-0.6,10.4-6.7l-0.1-6.4
	c0,0-2.7-57.2-2.7-57.2s-30.6,73.5-30.9,74.2c-0.5,0-2.2,0-2.7,0C442.1,196,410,124,410,124"/>
<path class="st2" d="M743,196.1v-3.3h1.3c5.1,0,9.8-1,9.8-7.9v-67.1c0-6.9-4.7-7.9-9.8-7.9H743v-3.3l40,0c14.9,0,27.3,3.7,36,11.8
	c8.6,8,13.1,19.3,13.1,32.7c0,12.5-5,24.7-13.7,33.3c-8.8,8.7-21,11.6-33.4,11.6 M769.3,110.9l0,70.2c0,9.5,4,11,13.6,11
	c22.6,0,32.9-19.5,32.9-38.5c0-29.6-12.2-43.1-37.4-43.1C776.1,110.5,771.4,110.7,769.3,110.9z"/>
<path class="st2" d="M908.2,191.5v-21.9c0-4.8-3.5-7.3-10.1-7.3h-1v-3.2h34.4v3.2h-1c-4.8,0-7.4,2.5-7.4,7.3l0,24.4
	c-8.2,2.6-19.2,4.7-31.5,4.7c-29.5,0-48.6-19.1-48.6-48.8c0-31.5,25.2-45.9,48.9-45.9c10.6,0,21.5,2.1,28.4,4.4l1.4,21.4l-3,0.2
	c-3.7-15.4-10.6-21.4-26-21.4c-20.8,0-33.4,15.3-33.4,40c0,22.7,10.6,45.1,34.4,45.1C899.2,193.9,904.9,193.1,908.2,191.5"/>
<path class="st2" d="M544.3,149.8v31.5c0,8.7,2.8,11.2,11.9,11.2c10.9,0,19.1-9,19.1-21.2c0-13.7-8.4-21.5-22.4-21.5 M544.3,110
	v35.9h6.7c12.3,0,19.1-6,19.1-17.4c0-12.6-6-18.5-17.7-18.5H544.3z M562.7,147.4c11.3,0.8,17.3,3.3,22.3,8.5c3.9,4,6,9,6,14.9
	c0,14-12.9,25.3-29.6,25.3l-43.8,0v-3.2h1.8c4.3,0,9.4-2.1,9.4-7.6v-64.9c0-10.4-6.1-10.4-9.4-10.4h-1.8v-3.3l39.7,0
	c18.6,0,28.9,6.8,28.9,19.6C586.1,140.4,573.6,145.7,562.7,147.4"/>
<path class="st2" d="M338.8,106.7c0,0-28.4,77.2-28.4,77.2c-2.1,5.5-5.8,8.9-11.3,8.9h-0.3l0,3.4H326l0-3.4h-1.2
	c-6.6,0-11-2.1-8.2-10.6l6.5-18h28.2l7,19.7c2,6.2-0.6,9-7.3,9h-0.8l0,3.3h34.6l0-3.3h-0.3c-4.6,0-7.8-2.4-9.9-8.6l-29.1-77.6
	 M337.2,124.9l12.5,34.8h-25L337.2,124.9z"/>
<path class="st2" d="M538.1,3.7l0.2,15.1c0,0-1.8,0.5-2.4,0.6c-0.5-6.6-2-12-12.6-12h-14.2v27.9h12.2c6,0,7.6-3.3,8.3-9.1
	c0.5,0,1.9,0,2.4,0c0,0.8,0,23.3,0,23.3l-2.4,0c-0.4-5.6-1.7-9.9-8.2-9.9h-12.2v24.5c0,7.1,6.1,7.1,12.6,7.1
	c11.6,0,17-0.7,20.3-12.5c0.5,0.1,2.4,0.5,2.4,0.5L541.2,75c0,0-52.1,0-52.9,0c0-0.5,0-2.1,0-2.6c0.4,0,1,0,1,0
	c4.1,0,7.8-0.8,7.8-6.3V12.6c0-5.5-3.8-6.3-7.8-6.3c0,0-0.6,0-1,0c0-0.5,0-2.1,0-2.6C489.1,3.7,538.1,3.7,538.1,3.7"/>
</svg>
