<?xml version="1.0" encoding="UTF-8"?>
<svg id="Layer_1" data-name="Layer 1" xmlns="http://www.w3.org/2000/svg" version="1.1" viewBox="0 0 1179.93 521.79">
  <defs>
    <style>
      .cls-1 {
        fill: #1e1e1c;
        stroke-width: 0px;
      }
    </style>
  </defs>
  <g>
    <path class="cls-1" d="M263.58,146.02c-15.03,56.9-56.9,92.33-139.04,92.33S6.44,193.26,6.44,138.5,38.65.54,154.6.54s118.1,38.65,118.1,91.26h-92.33c1.61-22.01-4.29-36.5-25.23-36.5-38.11,0-48.85,61.73-48.85,87.5s9.13,38.11,27.38,38.11,30.6-9.66,39.72-34.89h90.19Z"/>
    <path class="cls-1" d="M340.88,6.44h69.79l-37.58,175.54h117.56l-18.79,51h-179.3L340.88,6.44Z"/>
    <path class="cls-1" d="M624.32,5.91l-48.31,227.08h-52.07L572.79,5.91h52.07-.54Z"/>
    <path class="cls-1" d="M872.33,162.12c-15.57,45.63-52.61,75.16-114.34,75.16s-100.39-40.8-100.39-99.31S704.85,0,788.59,0s93.41,32.21,96.63,78.91h-48.31c-2.68-18.25-15.03-42.95-52.61-42.95s-78.91,52.61-78.91,99.85,15.03,64.96,56.37,64.96,48.31-12.88,61.73-39.19h48.31l.54.54Z"/>
    <path class="cls-1" d="M962.52,4.29h35.43l-23.08,108.97c39.72-30.06,96.63-71.4,146.02-108.97h46.7l-130.45,98.24,88.58,130.45h-42.41l-74.08-111.12-42.41,28.45-17.18,82.67h-35.43L962.52,4.83v-.54Z"/>
    <path class="cls-1" d="M35.97,444.49c5.37,28.45,27.38,44.56,65.49,44.56s60.12-10.74,60.12-40.26-12.35-31.67-56.37-42.41c-56.37-13.96-76.77-28.99-76.77-60.66s32.21-67.1,90.19-67.1,90.72,37.58,92.33,64.96h-35.43c-2.68-16.64-14.49-37.04-59.59-37.04s-49.92,13.96-49.92,34.89,12.35,25.77,54.76,35.43c63.34,15.57,78.38,37.58,78.38,67.64s-34.36,72.47-100.92,72.47S5.37,493.88,0,444.49c0,0,35.97,0,35.97,0Z"/>
    <path class="cls-1" d="M318.87,321.56h-78.91l8.05-37.04h202.38l-8.05,37.04h-78.91l-39.72,190.03h-45.09s40.26-190.03,40.26-190.03Z"/>
    <path class="cls-1" d="M717.73,428.38l-17.72,83.74h-68.71l47.78-226.54h120.25c47.78,0,78.38,23.62,78.38,60.66s-20.94,51.53-47.78,60.12c9.13,4.83,26.84,17.72,18.79,56.9-4.83,20.94-6.98,37.58-5.37,48.31h-67.64c-2.15-9.66-1.61-23.62,4.29-50.46,4.83-23.08,2.15-33.28-19.86-33.28h-42.95l.54.54ZM727.39,381.68h42.95c19.33,0,34.89-7.52,34.89-26.84s-9.13-21.47-26.3-21.47h-41.87l-10.2,48.31h.54Z"/>
    <path class="cls-1" d="M959.3,344.64h-65.49l12.35-59.59h224.93l-12.35,59.59h-64.96l-35.43,166.95h-94.48l35.43-166.95Z"/>
    <path class="cls-1" d="M1095.65,511.59l15.03-73.01h69.25l-15.03,73.01h-69.25Z"/>
  </g>
  <g>
    <polygon class="cls-1" points="424.63 417.65 421.4 431.6 482.6 431.6 476.7 457.91 462.2 457.91 465.42 443.95 403.69 443.95 410.13 417.65 424.63 417.65"/>
    <polygon class="cls-1" points="447.71 457.91 462.2 457.91 456.3 483.14 441.8 483.14 447.71 457.91"/>
    <polygon class="cls-1" points="427.31 483.14 441.8 483.14 435.36 509.44 420.87 509.44 427.31 483.14"/>
    <polygon class="cls-1" points="480.99 509.44 466.5 509.44 472.4 483.14 487.43 483.14 480.99 509.44"/>
    <polygon class="cls-1" points="501.93 483.14 487.43 483.14 493.34 456.84 507.83 456.84 501.93 483.14"/>
    <polygon class="cls-1" points="510.52 444.49 525.55 444.49 522.33 456.3 507.83 456.3 510.52 444.49"/>
    <polygon class="cls-1" points="534.14 468.65 519.64 468.65 522.33 456.84 536.82 456.84 534.14 468.65"/>
    <polygon class="cls-1" points="545.41 483.14 530.92 483.14 534.14 468.65 548.63 468.65 545.41 483.14"/>
    <polygon class="cls-1" points="632.38 275.93 581.91 494.95 542.73 494.95 545.41 483.14 570.1 483.14 613.05 297.94 596.95 297.94 600.17 284.52 616.27 284.52 617.88 275.93 632.38 275.93"/>
    <polygon class="cls-1" points="463.81 521.79 432.68 521.79 435.36 509.44 466.5 509.44 463.81 521.79"/>
    <polygon class="cls-1" points="427.31 405.84 443.41 405.84 440.73 417.65 424.63 417.65 427.31 405.84"/>
    <polygon class="cls-1" points="446.64 392.42 462.74 392.42 459.52 405.84 443.41 405.84 446.64 392.42"/>
    <polygon class="cls-1" points="465.42 379 481.53 379 478.84 392.42 462.74 392.42 465.42 379"/>
    <polygon class="cls-1" points="484.75 365.58 500.85 365.58 497.63 379 481.53 379 484.75 365.58"/>
    <polygon class="cls-1" points="504.08 352.15 520.18 352.15 516.96 365.58 500.85 365.58 504.08 352.15"/>
    <polygon class="cls-1" points="523.4 338.2 539.51 338.2 536.28 352.15 520.18 352.15 523.4 338.2"/>
    <polygon class="cls-1" points="542.19 324.78 558.29 324.78 555.61 338.2 539.51 338.2 542.19 324.78"/>
    <polygon class="cls-1" points="561.52 311.36 577.62 311.36 574.4 324.78 558.29 324.78 561.52 311.36"/>
    <polygon class="cls-1" points="580.84 297.94 596.95 297.94 593.72 311.36 577.62 311.36 580.84 297.94"/>
  </g>
</svg>