<?xml version="1.0" encoding="utf-8"?>
<!-- Generator: Adobe Illustrator 27.0.0, SVG Export Plug-In . SVG Version: 6.00 Build 0)  -->
<svg version="1.1" id="Layer_1" xmlns="http://www.w3.org/2000/svg" xmlns:xlink="http://www.w3.org/1999/xlink" x="0px" y="0px"
	 viewBox="0 0 1009.1 266" style="enable-background:new 0 0 1009.1 266;" xml:space="preserve">
<style type="text/css">
	.st0{fill:#BC00FF;}
</style>
<g>
	<polygon class="st0" points="588.2,74.4 646.3,52.8 588.2,30.1 588.2,0 687.7,40.1 687.7,65 588.2,105.3 	"/>
	<path d="M38.3,266C17.4,266,0,255.3,0,231.7v-1.3c0-28.7,24.9-38.1,55-38.1h14.5v-5.6c0-11.6-5.1-18.7-17.1-18.7
		c-10.9,0-16.7,6.2-17.6,15.1H3.6c2.2-25.8,22.7-38.5,50.3-38.5c28,0,48.1,12,48.1,41v77.9H70.1v-13.4C64.6,258.7,53.9,266,38.3,266
		z M69.4,224.8v-11.1H56.5c-16,0-24.3,4.5-24.3,14.9v1.1c0,8,4.9,13.6,15.8,13.6C59.2,243.3,69.4,237.1,69.4,224.8z M175.6,266
		c-32.3,0-55.6-20-55.6-59.4V205c0-39.4,24.9-60.3,55.9-60.3c26.5,0,48.3,13.4,51,43.8h-31.2c-2-11.3-7.8-18.7-19.1-18.7
		c-13.8,0-23.4,10.9-23.4,33.8v3.6c0,23.6,8.5,34.3,23.6,34.3c11.1,0,19.4-8.2,21.1-20.9h29.6C225.3,247.1,207.2,266,175.6,266z
		 M296.7,266c-32.3,0-55.6-20-55.6-59.4V205c0-39.4,24.9-60.3,55.9-60.3c26.5,0,48.3,13.4,51,43.8h-31.2c-2-11.3-7.8-18.7-19.1-18.7
		c-13.8,0-23.4,10.9-23.4,33.8v3.6c0,23.6,8.5,34.3,23.6,34.3c11.1,0,19.4-8.2,21.1-20.9h29.6C346.4,247.1,328.4,266,296.7,266z
		 M418.7,266c-33.6,0-56.5-20-56.5-58.8V205c0-39,24.3-60.3,55.4-60.3c28.9,0,53.2,16.3,53.2,54.8v14h-75.7
		c1.3,20.9,10.2,28.9,24.3,28.9c12.5,0,19.1-6.7,21.4-15.1h30.1C467.3,249.3,449.2,266,418.7,266z M395.6,191.9h43.6
		c-0.7-17.1-8.5-24.5-21.4-24.5C407.6,167.4,398.3,173,395.6,191.9z M490.9,147.1h32.5v17.4c5.8-10.9,17.4-19.8,35.2-19.8
		c21.1,0,35.2,12.7,35.2,41v77.9h-32.5v-73c0-13.6-5.6-19.6-17.4-19.6c-11.3,0-20.5,6.9-20.5,21.6v71h-32.5V147.1z M654.5,112v35.2
		h22.3v24.3h-22.3v55.2c0,8.7,4,12.7,11.6,12.7c4.7,0,8.2-0.7,11.3-2v25.4c-3.8,1.1-10.2,2.4-18.3,2.4c-25.4,0-37.4-11.6-37.4-35.2
		v-58.5h-13.6v-24.3h13.6v-21.8L654.5,112z M799.2,263.6h-32.5v-17.1c-5.6,11.1-16.5,19.6-33.8,19.6c-20.9,0-36.3-12.7-36.3-40.1
		v-78.8h32.7V221c0,13.4,5.3,19.6,16.9,19.6c11.4,0,20.5-7.1,20.5-21.6v-71.9h32.5V263.6z M822.8,147.1h32.5v21.4
		c6.9-15.6,17.8-22.9,34.9-22.9v32c-22,0-34.9,6.7-34.9,26v59.9h-32.5V147.1z M957,266c-33.6,0-56.5-20-56.5-58.8V205
		c0-39,24.3-60.3,55.4-60.3c28.9,0,53.2,16.3,53.2,54.8v14h-75.7c1.3,20.9,10.2,28.9,24.3,28.9c12.5,0,19.1-6.7,21.4-15.1h30
		C1005.6,249.3,987.5,266,957,266z M933.9,191.9h43.6c-0.7-17.1-8.5-24.5-21.4-24.5C945.9,167.4,936.6,173,933.9,191.9z"/>
</g>
</svg>
