<?xml version="1.0" encoding="utf-8"?>
<!-- Generator: Adobe Illustrator 24.2.1, SVG Export Plug-In . SVG Version: 6.00 Build 0)  -->
<svg version="1.1" id="Layer_1" xmlns="http://www.w3.org/2000/svg" xmlns:xlink="http://www.w3.org/1999/xlink" x="0px" y="0px"
	 viewBox="0 0 991.3 90.1" style="enable-background:new 0 0 991.3 90.1;" xml:space="preserve">
<style type="text/css">
	.st0{fill:#000104;}
	.st1{fill:#CF1417;}
</style>
<g>
	<path class="st0" d="M31.7,88.7h-8.5V26.8H0v-7.6h54.9v7.6H31.7V88.7z"/>
	<path class="st0" d="M73.3,46.1h0.2c0.9-1.1,1.9-2.2,3-3.2c1.1-1,2.3-1.8,3.7-2.5c1.3-0.7,2.8-1.3,4.4-1.7c1.6-0.4,3.2-0.6,5-0.6
		c1.9,0,3.7,0.2,5.6,0.8c1.9,0.5,3.6,1.4,5.2,2.7c1.6,1.3,2.9,3.1,3.9,5.3c1,2.3,1.5,5.2,1.5,8.8v33h-8.1V57c0-4-0.8-7-2.3-9
		s-4-3-7.4-3c-2.8,0-5.5,0.8-8.1,2.3c-2.6,1.5-4.8,3.7-6.6,6.4v35.1h-8.1V13.5h8.1V46.1z"/>
	<path class="st0" d="M144.8,83c2.7,0,5.1-0.2,7.3-0.6c2.2-0.4,4.4-1,6.6-1.8v6.7c-1.8,0.9-3.9,1.5-6.5,2.1
		c-2.6,0.5-5.4,0.8-8.4,0.8c-3.5,0-6.8-0.4-9.9-1.3c-3.1-0.9-5.8-2.4-8-4.4c-2.3-2-4-4.6-5.3-7.9c-1.3-3.2-1.9-7.1-1.9-11.7
		c0-4.5,0.6-8.4,1.9-11.7c1.2-3.3,2.9-6.1,5-8.3c2.1-2.2,4.5-3.9,7.1-5c2.7-1.1,5.5-1.7,8.4-1.7c2.8,0,5.3,0.5,7.7,1.4
		c2.4,0.9,4.5,2.4,6.2,4.3c1.8,2,3.1,4.5,4.2,7.6c1,3.1,1.5,6.9,1.5,11.2c0,0.4,0,0.8,0,1.1c0,0.3,0,1-0.1,2h-34.1
		c0,3.2,0.5,5.8,1.4,8s2.2,4,3.9,5.3s3.6,2.4,5.8,3C139.8,82.7,142.2,83,144.8,83z M140.5,45c-1.9,0-3.6,0.4-5.2,1.1
		c-1.6,0.7-3,1.7-4.2,3c-1.2,1.2-2.2,2.7-2.9,4.4c-0.7,1.7-1.2,3.5-1.4,5.4h25.2c0-1.9-0.3-3.7-0.8-5.4c-0.5-1.7-1.3-3.1-2.2-4.4
		c-1-1.2-2.2-2.2-3.6-2.9C144.1,45.3,142.4,45,140.5,45z"/>
	<path class="st0" d="M210.2,14.6v62.8h34.7v11.4h-48.2V14.6H210.2z"/>
	<path class="st0" d="M271.2,77.3h36.4v11.4h-50V14.6h48v11.4h-34.5v19.2h29.6v11.4h-29.6V77.3z"/>
	<path class="st0" d="M368.2,60.4h-16.6V49h30.2v37.4c-1.1,0.4-2.5,0.8-4.2,1.3c-1.7,0.4-3.6,0.8-5.8,1.2c-2.1,0.3-4.3,0.6-6.6,0.9
		c-2.3,0.2-4.5,0.3-6.7,0.3c-6.6,0-12.5-0.9-17.4-2.7c-5-1.8-9.1-4.3-12.4-7.6c-3.3-3.2-5.8-7.1-7.4-11.6c-1.6-4.5-2.5-9.4-2.5-14.9
		c0-3.8,0.4-7.5,1.3-11c0.9-3.5,2.1-6.7,3.8-9.7c1.7-3,3.7-5.7,6.1-8.1c2.4-2.4,5.1-4.4,8.2-6.1c3.1-1.7,6.5-3,10.1-3.9
		c3.7-0.9,7.6-1.4,11.8-1.4c3.7,0,7.3,0.3,10.6,0.8c3.4,0.5,6.1,1.2,8.3,2v11.5c-2.9-0.9-5.8-1.6-8.7-2.1c-2.9-0.5-5.9-0.7-8.9-0.7
		c-4,0-7.8,0.6-11.3,1.8c-3.5,1.2-6.5,3-9.1,5.3c-2.6,2.3-4.6,5.2-6.1,8.7c-1.5,3.4-2.2,7.4-2.2,11.9c0,8.8,2.3,15.3,6.9,19.7
		c4.5,4.4,11,6.6,19.3,6.6c1.6,0,3.2-0.1,4.8-0.3c1.7-0.2,3.1-0.4,4.4-0.6V60.4z"/>
	<path class="st0" d="M467.3,51.6c0,5.6-0.8,10.8-2.4,15.5c-1.6,4.7-4,8.8-7,12.2c-3.1,3.4-6.9,6-11.4,7.9
		c-4.5,1.9-9.6,2.8-15.3,2.8c-5.7,0-10.8-0.9-15.3-2.8c-4.5-1.9-8.3-4.5-11.4-7.9c-3.1-3.4-5.4-7.5-7-12.2
		c-1.6-4.7-2.4-9.9-2.4-15.5s0.8-10.8,2.4-15.5c1.6-4.7,4-8.8,7-12.2c3.1-3.4,6.9-6,11.4-7.9c4.5-1.9,9.6-2.8,15.3-2.8
		c5.7,0,10.8,0.9,15.3,2.8c4.5,1.9,8.3,4.5,11.4,7.9c3.1,3.4,5.4,7.5,7,12.2C466.5,40.8,467.3,46,467.3,51.6z M453.2,51.6
		c0-4.5-0.6-8.4-1.7-11.8c-1.1-3.4-2.6-6.2-4.6-8.4s-4.3-3.9-7-5c-2.7-1.1-5.6-1.7-8.9-1.7s-6.2,0.6-8.9,1.7c-2.7,1.1-5,2.8-7,5
		c-2,2.3-3.5,5.1-4.6,8.4c-1.1,3.4-1.7,7.3-1.7,11.8c0,4.5,0.6,8.4,1.7,11.8c1.1,3.4,2.6,6.2,4.6,8.4c2,2.2,4.3,3.9,7,5
		c2.7,1.1,5.6,1.7,8.9,1.7s6.2-0.6,8.9-1.7c2.7-1.1,5-2.8,7-5c2-2.2,3.5-5,4.6-8.4C452.7,60.1,453.2,56.1,453.2,51.6z"/>
	<path class="st0" d="M511.4,88.7h-8.5V19.2h41.4v7.6h-33v22.4h29.2v7.6h-29.2V88.7z"/>
	<path class="st0" d="M599.5,64.1c0,3.9-0.6,7.4-1.7,10.6c-1.1,3.2-2.7,5.9-4.7,8.2s-4.5,4-7.3,5.3c-2.9,1.2-6.1,1.9-9.7,1.9
		c-3.7,0-7-0.6-9.8-1.9c-2.9-1.2-5.4-3-7.4-5.3s-3.6-5-4.6-8.2c-1.1-3.2-1.6-6.7-1.6-10.6c0-3.9,0.6-7.5,1.7-10.6
		c1.1-3.2,2.7-5.9,4.7-8.2s4.5-4.1,7.4-5.3c2.9-1.2,6.1-1.9,9.7-1.9c3.6,0,6.9,0.6,9.8,1.9c2.9,1.2,5.4,3,7.4,5.3
		c2,2.3,3.6,5,4.6,8.2C599,56.6,599.5,60.2,599.5,64.1z M591.1,64.1c0-3-0.4-5.8-1.1-8.1c-0.7-2.4-1.8-4.4-3.1-6
		c-1.3-1.6-2.9-2.9-4.8-3.7c-1.8-0.8-3.8-1.3-6-1.3c-2.2,0-4.2,0.4-6,1.3c-1.8,0.8-3.4,2.1-4.7,3.7c-1.3,1.6-2.4,3.7-3.1,6
		c-0.7,2.4-1.1,5.1-1.1,8.1c0,3,0.4,5.7,1.1,8.1c0.7,2.4,1.8,4.4,3.1,6c1.3,1.6,2.9,2.9,4.8,3.7c1.8,0.8,3.8,1.3,6,1.3
		c2.2,0,4.2-0.4,6-1.3s3.4-2.1,4.7-3.7c1.3-1.6,2.4-3.6,3.1-6C590.7,69.8,591.1,67.1,591.1,64.1z"/>
	<path class="st0" d="M631.8,90c-2.6,0-4.9-0.3-6.9-0.8c-2-0.6-3.8-1.3-5.4-2.3c-1.5-1-2.8-2.2-3.9-3.6c-1.1-1.4-1.9-2.9-2.5-4.6
		c-0.5-1.2-0.8-2.6-1-4.1c-0.2-1.5-0.3-3.1-0.3-4.9V39.4h8.1v30.2c0,2.7,0.4,5,1.1,6.9c0.8,2.1,2.2,3.7,4,4.9
		c1.9,1.2,4.2,1.8,7.1,1.8c3,0,5.5-0.7,7.3-2c1.9-1.3,3.2-3.1,4-5.3c0.6-1.7,0.9-3.8,0.9-6.3V39.4h8.1v30.3c0,1.7-0.1,3.2-0.3,4.6
		c-0.2,1.4-0.5,2.8-0.9,4c-0.6,1.7-1.5,3.3-2.6,4.7c-1.1,1.4-2.4,2.7-4,3.7c-1.6,1-3.4,1.8-5.5,2.4C636.8,89.7,634.5,90,631.8,90z"
		/>
	<path class="st0" d="M675.1,46.2h0.2c0.9-1.1,1.9-2.2,3-3.2c1.1-1,2.3-1.9,3.7-2.6c1.3-0.7,2.8-1.3,4.4-1.7
		c1.6-0.4,3.4-0.6,5.3-0.6c2.2,0,4.4,0.3,6.3,0.9c2,0.6,3.7,1.6,5.1,3c1.5,1.4,2.6,3.2,3.5,5.4c0.8,2.2,1.3,5,1.3,8.2v33h-8.1V57
		c0-4.3-0.8-7.3-2.5-9.2c-1.6-1.9-4-2.8-7.2-2.8c-2.8,0-5.5,0.8-8.1,2.3c-2.6,1.5-4.8,3.7-6.7,6.4v35.1h-8V39.4h6.2L675.1,46.2z"/>
	<path class="st0" d="M720.5,64.7c0-3.4,0.3-6.5,1-9.1c0.7-2.7,1.6-5,2.7-6.9c1.1-2,2.4-3.6,3.9-5c1.5-1.3,3-2.4,4.6-3.2
		c1.6-0.8,3.2-1.4,4.9-1.8c1.6-0.4,3.2-0.5,4.6-0.5c3,0,5.6,0.5,7.8,1.5c2.2,1,4.2,2.5,6,4.4h0.2V13.5h8.1v75.2h-6.1l-1.7-5.5h-0.2
		c-0.6,0.8-1.3,1.6-2.2,2.4c-0.8,0.8-1.8,1.5-2.9,2.2c-1.1,0.7-2.4,1.2-3.9,1.6c-1.5,0.4-3.2,0.6-5.1,0.6c-2.7,0-5.3-0.5-7.9-1.4
		c-2.6-0.9-4.9-2.4-6.9-4.4s-3.7-4.6-4.9-7.8C721.1,73.2,720.5,69.3,720.5,64.7z M728.9,64.6c0,2.8,0.3,5.4,1,7.7
		c0.6,2.3,1.6,4.3,2.8,5.9c1.2,1.6,2.7,2.8,4.5,3.7c1.8,0.9,3.8,1.3,6.1,1.3c1.7,0,3.2-0.2,4.6-0.7c1.4-0.4,2.6-1,3.7-1.7
		c1.1-0.7,2-1.4,2.8-2.2c0.8-0.8,1.4-1.5,1.8-2.2V50.6c-1.7-1.7-3.6-3.1-5.8-4.1c-2.2-1-4.5-1.5-7.1-1.5c-1.5,0-3.1,0.3-4.8,0.9
		c-1.7,0.6-3.2,1.6-4.7,3.1c-1.4,1.5-2.6,3.5-3.6,6C729.4,57.4,728.9,60.6,728.9,64.6z"/>
	<path class="st0" d="M809.2,83.2H809c-0.7,0.8-1.5,1.7-2.5,2.5c-1,0.8-2.2,1.5-3.5,2.2c-1.3,0.6-2.8,1.2-4.3,1.5
		c-1.6,0.4-3.2,0.6-5,0.6c-2.4,0-4.6-0.4-6.6-1.1c-2-0.7-3.7-1.7-5.1-3.1c-1.4-1.4-2.6-3-3.4-5c-0.8-2-1.2-4.2-1.2-6.7
		c0-2.5,0.4-4.7,1.3-6.6c0.9-1.9,2.1-3.6,3.7-4.9c1.6-1.4,3.5-2.4,5.7-3.1c2.2-0.7,4.7-1.1,7.4-1.1c2.6,0,4.9,0.3,7.1,0.7
		c2.2,0.4,4.1,0.9,5.8,1.6h0.2v-3.4c0-1.3-0.1-2.5-0.3-3.6c-0.2-1-0.5-2-0.9-2.8c-0.9-1.7-2.3-3-4.3-4.1c-2-1.1-4.6-1.6-8-1.6
		c-2.5,0-4.8,0.2-7,0.7c-2.2,0.5-4.4,1.1-6.6,1.9V41c0.8-0.4,1.8-0.8,2.9-1.2c1.1-0.4,2.3-0.7,3.6-0.9c1.2-0.3,2.6-0.5,3.9-0.6
		c1.4-0.1,2.8-0.2,4.2-0.2c5,0,9.1,0.9,12.2,2.6c3.2,1.8,5.4,4.1,6.8,7c0.5,1.1,0.9,2.3,1.1,3.7c0.2,1.3,0.3,2.8,0.3,4.4v32.9h-6.7
		L809.2,83.2z M808.8,67c-1.5-0.4-3.2-0.8-5.3-1.2c-2-0.4-4.3-0.6-6.7-0.6c-3.4,0-6.1,0.7-8,2.2c-1.9,1.5-2.9,3.7-2.9,6.7
		c0,1.5,0.2,2.9,0.7,4c0.5,1.1,1.1,2.1,2,2.8c0.8,0.7,1.8,1.3,3,1.7c1.2,0.4,2.4,0.5,3.7,0.5c1.7,0,3.3-0.3,4.8-0.8
		c1.5-0.5,2.8-1.1,4-1.8c1.2-0.7,2.1-1.4,2.9-2.1c0.8-0.7,1.4-1.2,1.8-1.6V67z"/>
	<path class="st0" d="M858.5,88.8c-0.7,0.3-1.7,0.5-3.2,0.8c-1.4,0.2-3.1,0.4-5.1,0.4c-2.6,0-4.8-0.3-6.8-1
		c-1.9-0.6-3.5-1.6-4.7-2.8c-1.3-1.2-2.2-2.6-2.8-4.3c-0.6-1.7-0.9-3.6-0.9-5.7v-30h-9.5v-6.9h9.5V25.9h8.1v13.5h14.7v6.9H843V75
		c0,1.1,0.2,2.2,0.5,3.2c0.3,1,0.8,1.8,1.6,2.5c0.7,0.7,1.6,1.3,2.7,1.7c1.1,0.4,2.4,0.6,4,0.6c1.1,0,2.2-0.1,3.4-0.3
		c1.2-0.2,2.3-0.4,3.3-0.7V88.8z"/>
	<rect x="869.9" y="39.4" class="st0" width="8.1" height="49.3"/>
	<path class="st0" d="M938,64.1c0,3.9-0.6,7.4-1.7,10.6c-1.1,3.2-2.7,5.9-4.7,8.2s-4.5,4-7.3,5.3c-2.9,1.2-6.1,1.9-9.7,1.9
		c-3.7,0-7-0.6-9.8-1.9c-2.9-1.2-5.4-3-7.4-5.3s-3.6-5-4.6-8.2c-1.1-3.2-1.6-6.7-1.6-10.6c0-3.9,0.6-7.5,1.7-10.6
		c1.1-3.2,2.7-5.9,4.7-8.2c2-2.3,4.5-4.1,7.4-5.3c2.9-1.2,6.1-1.9,9.7-1.9c3.6,0,6.9,0.6,9.8,1.9c2.9,1.2,5.4,3,7.4,5.3
		c2,2.3,3.6,5,4.6,8.2C937.5,56.6,938,60.2,938,64.1z M929.6,64.1c0-3-0.4-5.8-1.1-8.1c-0.7-2.4-1.8-4.4-3.1-6
		c-1.3-1.6-2.9-2.9-4.8-3.7c-1.8-0.8-3.8-1.3-6-1.3c-2.2,0-4.2,0.4-6,1.3c-1.8,0.8-3.4,2.1-4.7,3.7c-1.3,1.6-2.4,3.7-3.1,6
		c-0.7,2.4-1.1,5.1-1.1,8.1c0,3,0.4,5.7,1.1,8.1c0.7,2.4,1.8,4.4,3.1,6c1.3,1.6,2.9,2.9,4.8,3.7c1.8,0.8,3.8,1.3,6,1.3
		c2.2,0,4.2-0.4,6-1.3c1.8-0.8,3.4-2.1,4.7-3.7c1.3-1.6,2.4-3.6,3.1-6C929.2,69.8,929.6,67.1,929.6,64.1z"/>
	<path class="st0" d="M958.5,46.2h0.2c0.9-1.1,1.9-2.2,3-3.2s2.3-1.9,3.7-2.6c1.3-0.7,2.8-1.3,4.4-1.7c1.6-0.4,3.4-0.6,5.3-0.6
		c2.2,0,4.4,0.3,6.3,0.9c2,0.6,3.7,1.6,5.1,3c1.5,1.4,2.6,3.2,3.5,5.4c0.8,2.2,1.3,5,1.3,8.2v33h-8.1V57c0-4.3-0.8-7.3-2.5-9.2
		c-1.6-1.9-4-2.8-7.2-2.8c-2.8,0-5.5,0.8-8.1,2.3c-2.6,1.5-4.8,3.7-6.7,6.4v35.1h-8.1V39.4h6.2L958.5,46.2z"/>
	<path class="st1" d="M873.6,31.6c18.9-8.7,23.4-23,13.2-25.3C881.3,5,876,12.4,876,12.4s-1.8-7.8-7.5-11.2
		c-5.7-3.4-19.7,0.1-4.5,19.9c3.4,4.4,6.5,7.8,9.4,10.5"/>
</g>
</svg>
