<?xml version="1.0" encoding="utf-8"?>
<!-- Generator: Adobe Illustrator 18.0.0, SVG Export Plug-In . SVG Version: 6.00 Build 0)  -->
<!DOCTYPE svg PUBLIC "-//W3C//DTD SVG 1.1//EN" "http://www.w3.org/Graphics/SVG/1.1/DTD/svg11.dtd">
<svg version="1.1" id="Layer_1" xmlns="http://www.w3.org/2000/svg" xmlns:xlink="http://www.w3.org/1999/xlink" x="0px" y="0px"
	 viewBox="0 0 323.2 95.6" enable-background="new 0 0 323.2 95.6" xml:space="preserve">
<path fill="#1D1D1B" d="M0,0v95.6h116.6c-0.9-0.6-1.8-1.3-2.5-2.1c-6.8-6.5-6.8-14.1-7-21.2V31.9h21.6v42.4c0,2.9,0.1,5.9,2.5,8.2
	c1.7,1.8,4.3,2.5,6.9,2.5c3.4,0,5.6-1.2,6.8-2.4c2.5-2.4,2.6-5.4,2.6-8.3V31.9h21.7v36.1c0,7.8,0,17.9-8,25.4
	c-0.8,0.7-1.6,1.4-2.5,2.1H191c-9.5-6.8-14-18.3-14-29.3c0-18.2,12.3-36.8,35.3-36.8c10.3,0,20.2,3.7,27.3,11c2.9,3,4.2,5.3,5.7,8
	l-18,8.9c-1.7-4-5-11.2-14.1-11.2c-4.7,0-7.7,2.2-9.2,3.6c-5.1,4.9-5.1,12.6-5.1,15.3c0,10.1,3.8,19.6,14.4,19.6
	c10,0,13-8.8,13.8-11.1l18.3,8.8c-1.7,3.3-3.4,6.3-6.7,9.6c-1.4,1.4-2.9,2.6-4.5,3.7H254V31.9h21.5v50.1h27.9v13.6h19.8V0H0z"/>
<g>
	<path fill="#FFFFFF" d="M96.1,46c0,0-11.2-2.4-11.2-2.4S73.6,46,73.6,46c-0.1,0,0,0.1,0,0.1l0.2,0.6l0,0l0,0c0,0,0.2,0,0.3,0.1
		l0.2,0.9c0,0,0,0.1,0.1,0.1c0.1,0,0.4,0,0.4,0H95c0,0,0.4,0,0.4,0c0.1,0,0.1,0,0.1,0l0.2-0.9c0.1-0.2,0.3-0.2,0.3-0.2l0,0l0,0
		L96.1,46C96.1,46,96.1,46,96.1,46z"/>
	<path fill="#FFFFFF" d="M94.9,48C94.9,48,94.9,48,94.9,48l0-0.3c0,0,0,0,0,0h-1.7c0,0,0,0,0,0V48c0,0,0,0,0,0l0.1,0c0,0,0,0,0,0.1
		c0,0,0,0.3,0.2,0.4c0,0,0,0.1,0,0.1c0,0-0.1,0-0.1,0c0,0,0,0,0,0c0,0,0,0.1,0,0.1c0,0,0,0.1,0,0.1c0,0,0,0,0,0c0,0,0,0,0,0
		c0,0,0,0,0,0c0,0,0,0,0,0v6.3c0,0-0.1,0.1-0.1,0.1c0,0,0,0,0,0v0.1c0,0,0,0,0,0c0,0,0,0,0,0h-0.1c0,0,0,0,0,0c0,0,0,0.2,0,0.2h1.7
		c0,0,0-0.2,0-0.2c0,0,0,0,0,0h-0.1c0,0,0,0,0,0c0,0,0,0,0,0v-0.1c0,0,0,0,0,0c0,0-0.1-0.1-0.1-0.1V49c0,0,0,0,0,0c0,0,0,0,0,0
		c0,0,0,0,0,0c0,0,0,0,0,0c0,0,0-0.1,0-0.1c0,0,0-0.1,0-0.1c0,0,0,0,0,0c0,0,0,0-0.1,0c0,0-0.1-0.1,0-0.1c0.2-0.1,0.2-0.4,0.2-0.4
		C94.8,48.1,94.8,48,94.9,48L94.9,48z"/>
	<path fill="#FFFFFF" d="M91.2,48C91.2,48,91.2,48,91.2,48l0-0.3c0,0,0,0,0,0h-1.7c0,0,0,0,0,0V48c0,0,0,0,0,0l0.1,0c0,0,0,0,0,0.1
		c0,0,0,0.3,0.2,0.4c0,0,0,0.1,0,0.1c0,0,0,0-0.1,0c0,0,0,0,0,0c0,0,0,0.1,0,0.1c0,0,0,0.1,0,0.1c0,0,0,0,0,0c0,0,0,0,0,0
		c0,0,0,0,0,0c0,0,0,0,0,0v6.3c0,0-0.1,0.1-0.1,0.1c0,0,0,0,0,0v0.1c0,0,0,0,0,0c0,0,0,0,0,0h-0.1c0,0,0,0,0,0c0,0,0,0.2,0,0.2h1.7
		c0,0,0-0.2,0-0.2c0,0,0,0,0,0h-0.1c0,0,0,0,0,0c0,0,0,0,0,0v-0.1c0,0,0,0,0,0c0,0-0.1-0.1-0.1-0.1V49c0,0,0,0,0,0c0,0,0,0,0,0
		c0,0,0,0,0,0c0,0,0,0,0,0c0,0,0-0.1,0-0.1c0,0,0-0.1,0-0.1c0,0,0,0,0,0c0,0,0,0-0.1,0c0,0-0.1-0.1,0-0.1c0.2-0.1,0.2-0.4,0.2-0.4
		C91.1,48.1,91.1,48,91.2,48L91.2,48z"/>
	<path fill="#FFFFFF" d="M87.5,48C87.5,48,87.6,48,87.5,48l0-0.3c0,0,0,0,0,0h-1.7c0,0,0,0,0,0V48c0,0,0,0,0,0l0.1,0c0,0,0,0,0,0.1
		c0,0,0,0.3,0.2,0.4c0,0,0,0.1,0,0.1c0,0,0,0-0.1,0c0,0,0,0,0,0c0,0,0,0.1,0,0.1c0,0,0,0.1,0,0.1c0,0,0,0,0,0c0,0,0,0,0,0
		c0,0,0,0,0,0c0,0,0,0,0,0v6.3c0,0-0.1,0.1-0.1,0.1c0,0,0,0,0,0v0.1c0,0,0,0,0,0c0,0,0,0,0,0h-0.1c0,0,0,0,0,0c0,0,0,0.2,0,0.2h1.7
		c0,0,0-0.2,0-0.2c0,0,0,0,0,0h-0.1c0,0,0,0,0,0c0,0,0,0,0,0v-0.1c0,0,0,0,0,0c0,0-0.1-0.1-0.1-0.1V49c0,0,0,0,0,0c0,0,0,0,0,0
		c0,0,0,0,0,0c0,0,0,0,0,0c0,0,0-0.1,0-0.1c0,0,0-0.1,0-0.1c0,0,0,0,0,0c0,0,0,0-0.1,0c0,0-0.1-0.1,0-0.1c0.2-0.1,0.2-0.4,0.2-0.4
		C87.4,48.1,87.4,48,87.5,48L87.5,48z"/>
	<path fill="#FFFFFF" d="M83.8,48C83.9,48,83.9,48,83.8,48l0-0.3c0,0,0,0,0,0h-1.7c0,0,0,0,0,0V48c0,0,0,0,0,0l0.1,0c0,0,0,0,0,0.1
		c0,0,0,0.3,0.2,0.4c0,0,0,0.1,0,0.1c0,0,0,0-0.1,0c0,0,0,0,0,0c0,0,0,0.1,0,0.1c0,0,0,0.1,0,0.1c0,0,0,0,0,0c0,0,0,0,0,0
		c0,0,0,0,0,0c0,0,0,0,0,0v6.3c0,0-0.1,0.1-0.1,0.1c0,0,0,0,0,0v0.1c0,0,0,0,0,0c0,0,0,0,0,0h-0.1c0,0,0,0,0,0c0,0,0,0.2,0,0.2h1.7
		c0,0,0-0.2,0-0.2c0,0,0,0,0,0h-0.1c0,0,0,0,0,0c0,0,0,0,0,0v-0.1c0,0,0,0,0,0c0,0-0.1-0.1-0.1-0.1V49c0,0,0,0,0,0c0,0,0,0,0,0
		c0,0,0,0,0,0c0,0,0,0,0,0c0,0,0-0.1,0-0.1c0,0,0-0.1,0-0.1c0,0,0,0,0,0c0,0,0,0-0.1,0c0,0-0.1-0.1,0-0.1c0.2-0.1,0.2-0.4,0.2-0.4
		C83.7,48.1,83.7,48,83.8,48L83.8,48z"/>
	<path fill="#FFFFFF" d="M80.2,48C80.2,48,80.2,48,80.2,48l0-0.3c0,0,0,0,0,0h-1.7c0,0,0,0,0,0V48c0,0,0,0,0,0l0.1,0c0,0,0,0,0,0.1
		c0,0,0,0.3,0.2,0.4c0,0,0,0.1,0,0.1c0,0,0,0-0.1,0c0,0,0,0,0,0c0,0,0,0.1,0,0.1c0,0,0,0.1,0,0.1c0,0,0,0,0,0c0,0,0,0,0,0
		c0,0,0,0,0,0c0,0,0,0,0,0v6.3c0,0-0.1,0.1-0.1,0.1c0,0,0,0,0,0v0.1c0,0,0,0,0,0c0,0,0,0,0,0h-0.1c0,0,0,0,0,0c0,0,0,0.2,0,0.2h1.7
		c0,0,0-0.2,0-0.2c0,0,0,0,0,0H80c0,0,0,0,0,0c0,0,0,0,0,0v-0.1c0,0,0,0,0,0c0,0-0.1-0.1-0.1-0.1V49c0,0,0,0,0,0c0,0,0,0,0,0
		c0,0,0,0,0,0c0,0,0,0,0,0c0,0,0-0.1,0-0.1c0,0,0-0.1,0-0.1c0,0,0,0,0,0c0,0,0,0-0.1,0c0,0-0.1-0.1,0-0.1c0.2-0.1,0.2-0.4,0.2-0.4
		C80.1,48.1,80.1,48,80.2,48L80.2,48z"/>
	<path fill="#FFFFFF" d="M76.5,48C76.5,48,76.5,48,76.5,48l0-0.3c0,0,0,0,0,0h-1.7c0,0,0,0,0,0V48c0,0,0,0,0,0l0.1,0c0,0,0,0,0,0.1
		c0,0,0,0.3,0.2,0.4c0,0,0,0.1,0,0.1c0,0-0.1,0-0.1,0c0,0,0,0,0,0c0,0,0,0.1,0,0.1c0,0,0,0.1,0,0.1c0,0,0,0,0,0c0,0,0,0,0,0
		c0,0,0,0,0,0c0,0,0,0,0,0v6.3c0,0-0.1,0.1-0.1,0.1c0,0,0,0,0,0v0.1c0,0,0,0,0,0c0,0,0,0,0,0h-0.1c0,0,0,0,0,0c0,0,0,0.2,0,0.2h1.7
		c0,0,0-0.2,0-0.2c0,0,0,0,0,0h-0.1c0,0,0,0,0,0c0,0,0,0,0,0v-0.1c0,0,0,0,0,0c0,0-0.1-0.1-0.1-0.1V49c0,0,0,0,0,0c0,0,0,0,0,0
		c0,0,0,0,0,0c0,0,0,0,0,0c0,0,0-0.1,0-0.1c0,0,0-0.1,0-0.1c0,0,0,0,0,0c0,0,0,0-0.1,0c0,0-0.1-0.1,0-0.1c0.2-0.1,0.2-0.4,0.2-0.4
		C76.4,48.1,76.4,48,76.5,48L76.5,48z"/>
	<g>
		<path fill="#FFFFFF" d="M90.1,41.4c0,0-0.1,0-0.2,0c0,0,0,0,0,0s0-0.2,0-0.2c0,0,0,0,0,0s-0.1,0-0.2,0c0,0,0,0,0,0v-0.2
			c0,0,0,0,0,0c0,0-0.1,0-0.1,0c0,0-0.1,0-0.1-0.1c0-0.2,0.1-1.9-0.8-3.1c-0.7-1-1.7-1.6-2.2-1.8c0-0.2-0.3-0.3-0.5-0.4
			c-0.1,0-0.1-0.1-0.1-0.1c0,0,0-0.1,0-0.1c0-0.1,0.1-0.1,0.2-0.1c0,0,0.1,0,0.1,0v-0.2c0,0,0-0.1-0.1-0.1c-0.1,0-0.2,0-0.2,0
			c0,0-0.1,0-0.1-0.1c0,0,0,0,0-0.1c0-0.1,0-0.1-0.1-0.1v-1.3c0,0,0,0,0.1,0c0,0,0,0,0,0h0c0,0,0,0,0,0v-0.1c0,0,0,0,0,0h-0.1
			c0,0,0,0,0-0.1c0-0.1,0-0.1,0-0.1h0c0,0,0,0,0,0v-0.1c0,0,0,0,0,0h-0.1c0,0,0,0-0.1,0c-0.2-0.2-0.4-0.4-0.4-0.5c0,0,0,0,0,0
			c0,0,0-0.1-0.1-0.1c-0.1,0,0-0.1,0-0.1c0,0,0,0,0,0c0,0,0,0,0-0.1c0,0-0.1-0.2-0.1-0.2h0c0,0-0.1,0.2-0.1,0.2c0,0,0,0.1,0,0.1
			c0,0,0,0,0,0c0,0,0,0.1,0,0.1c-0.1,0-0.1,0.1-0.1,0.1c0,0,0,0,0,0c0,0-0.2,0.3-0.4,0.5c0,0,0,0-0.1,0h-0.1c0,0,0,0,0,0v0.1
			c0,0,0,0,0,0h0c0,0,0,0,0,0.1c0,0.1,0,0.1,0,0.1h-0.1c0,0,0,0,0,0v0.1c0,0,0,0,0,0h0c0,0,0,0,0,0c0,0,0.1,0,0.1,0v1.3
			c0,0-0.1,0.1-0.1,0.1c0,0.1,0,0.1,0,0.1c0,0,0,0.1-0.1,0.1c0,0-0.1,0-0.2,0c0,0-0.1,0-0.1,0.1v0.2c0,0,0,0,0.1,0
			c0.1,0,0.2,0,0.2,0.1c0,0,0,0.1,0,0.1c0,0.1-0.1,0.1-0.1,0.1c-0.1,0-0.5,0.1-0.5,0.4c-0.5,0.2-1.5,0.8-2.2,1.8
			c-0.9,1.2-0.8,2.9-0.8,3.1c0,0.1,0,0.1-0.1,0.1c0,0-0.1,0-0.1,0c0,0,0,0,0,0v0.2c0,0,0,0,0,0c0,0-0.2,0-0.2,0s0,0,0,0
			c0,0,0,0.2,0,0.2s0,0,0,0c0,0-0.2,0-0.2,0s0,0,0,0c0,0,0,0.1,0,0.2c0,0,0,0,0,0c0.1,0,0.2,0.1,0.2,0.2c0,0.2,0.1,0.2,0.2,0.2v0.7
			c0,0.2-0.1,0.2-0.2,0.3c0,0,0,0,0,0c0,0,0,0.8,0,0.8l5.2-1.1h0l5.2,1.1c0,0,0-0.7,0-0.8c0,0,0,0,0,0c-0.1,0-0.2-0.1-0.2-0.3v-0.7
			c0,0,0.2,0,0.2-0.2c0-0.1,0.1-0.2,0.2-0.2c0,0,0,0,0,0C90.1,41.6,90.1,41.5,90.1,41.4C90.1,41.4,90.1,41.4,90.1,41.4z"/>
	</g>
	<polygon fill="#FFFFFF" points="95.8,57.8 95.8,56.3 94.9,56.3 94.9,55.7 74.8,55.7 74.8,56.3 73.9,56.3 73.9,57.8 73,57.8 
		73,59.4 96.7,59.4 96.7,57.8 	"/>
</g>
</svg>
