<svg xmlns="http://www.w3.org/2000/svg" viewBox="0 0 1009.1 266" style="enable-background:new 0 0 1009.1 266" xml:space="preserve"><path d="m588.2 74.4 58.1-21.6-58.1-22.7V0l99.5 40.1V65l-99.5 40.3zM38.3 266C17.4 266 0 255.3 0 231.7v-1.3c0-28.7 24.9-38.1 55-38.1h14.5v-5.6c0-11.6-5.1-18.7-17.1-18.7-10.9 0-16.7 6.2-17.6 15.1H3.6c2.2-25.8 22.7-38.5 50.3-38.5 28 0 48.1 12 48.1 41v77.9H70.1v-13.4c-5.5 8.6-16.2 15.9-31.8 15.9zm31.1-41.2v-11.1H56.5c-16 0-24.3 4.5-24.3 14.9v1.1c0 8 4.9 13.6 15.8 13.6 11.2 0 21.4-6.2 21.4-18.5zM175.6 266c-32.3 0-55.6-20-55.6-59.4V205c0-39.4 24.9-60.3 55.9-60.3 26.5 0 48.3 13.4 51 43.8h-31.2c-2-11.3-7.8-18.7-19.1-18.7-13.8 0-23.4 10.9-23.4 33.8v3.6c0 23.6 8.5 34.3 23.6 34.3 11.1 0 19.4-8.2 21.1-20.9h29.6c-2.2 26.5-20.3 45.4-51.9 45.4zm121.1 0c-32.3 0-55.6-20-55.6-59.4V205c0-39.4 24.9-60.3 55.9-60.3 26.5 0 48.3 13.4 51 43.8h-31.2c-2-11.3-7.8-18.7-19.1-18.7-13.8 0-23.4 10.9-23.4 33.8v3.6c0 23.6 8.5 34.3 23.6 34.3 11.1 0 19.4-8.2 21.1-20.9h29.6c-2.2 26.5-20.2 45.4-51.9 45.4zm122 0c-33.6 0-56.5-20-56.5-58.8V205c0-39 24.3-60.3 55.4-60.3 28.9 0 53.2 16.3 53.2 54.8v14h-75.7c1.3 20.9 10.2 28.9 24.3 28.9 12.5 0 19.1-6.7 21.4-15.1h30.1c-3.6 22-21.7 38.7-52.2 38.7zm-23.1-74.1h43.6c-.7-17.1-8.5-24.5-21.4-24.5-10.2 0-19.5 5.6-22.2 24.5zm95.3-44.8h32.5v17.4c5.8-10.9 17.4-19.8 35.2-19.8 21.1 0 35.2 12.7 35.2 41v77.9h-32.5v-73c0-13.6-5.6-19.6-17.4-19.6-11.3 0-20.5 6.9-20.5 21.6v71h-32.5V147.1zM654.5 112v35.2h22.3v24.3h-22.3v55.2c0 8.7 4 12.7 11.6 12.7 4.7 0 8.2-.7 11.3-2v25.4c-3.8 1.1-10.2 2.4-18.3 2.4-25.4 0-37.4-11.6-37.4-35.2v-58.5h-13.6v-24.3h13.6v-21.8l32.8-13.4zm144.7 151.6h-32.5v-17.1c-5.6 11.1-16.5 19.6-33.8 19.6-20.9 0-36.3-12.7-36.3-40.1v-78.8h32.7V221c0 13.4 5.3 19.6 16.9 19.6 11.4 0 20.5-7.1 20.5-21.6v-71.9h32.5v116.5zm23.6-116.5h32.5v21.4c6.9-15.6 17.8-22.9 34.9-22.9v32c-22 0-34.9 6.7-34.9 26v59.9h-32.5V147.1zM957 266c-33.6 0-56.5-20-56.5-58.8V205c0-39 24.3-60.3 55.4-60.3 28.9 0 53.2 16.3 53.2 54.8v14h-75.7c1.3 20.9 10.2 28.9 24.3 28.9 12.5 0 19.1-6.7 21.4-15.1h30c-3.5 22-21.6 38.7-52.1 38.7zm-23.1-74.1h43.6c-.7-17.1-8.5-24.5-21.4-24.5-10.2 0-19.5 5.6-22.2 24.5z"/></svg>