<?xml version="1.0" encoding="utf-8"?>
<!-- Generator: Adobe Illustrator 25.0.1, SVG Export Plug-In . SVG Version: 6.00 Build 0)  -->
<svg version="1.1" id="Layer_1" xmlns="http://www.w3.org/2000/svg" xmlns:xlink="http://www.w3.org/1999/xlink" x="0px" y="0px"
	 viewBox="0 0 997.18 345.48" style="enable-background:new 0 0 997.18 345.48;" xml:space="preserve">
<style type="text/css">
	.st0{fill:#003671;}
</style>
<g>
	<g>
		<path class="st0" d="M237.23,16.41c1.49-7.66,3.66-10.74,12.24-10.74l0.46-2.29h-26.52l-0.46,2.29c4.46,0,8.68,0.8,8.68,5.95
			c0,1.13-0.45,3.42-0.69,4.79l-7.99,40c-1.83,8.92-4.81,19.78-21.61,19.78c-8.11,0-14.63-5.14-14.63-13.04
			c0-3.54,0.57-7.2,1.38-10.85l7.18-35.89c1.49-7.66,3.54-10.74,12.23-10.74l0.47-2.29h-30.42l-0.57,2.29c4.58,0,8.82,0.8,8.82,5.95
			c0,1.13-0.46,3.42-0.69,4.79l-7.2,35.89c-0.8,3.77-1.37,7.55-1.37,11.32c0,11.88,10.63,16.95,22.63,16.95
			c25.49,0,27.65-13.41,30.06-24.16L237.23,16.41z"/>
		<path class="st0" d="M252.21,79.41h8.91c2.27-12.91,16.45-46.7,25.42-46.7c1.62,0,2.53,1.49,2.53,3.31c0,0.92-0.34,3.09-0.69,4.8
			l-6.3,27.41c-0.57,2.4-1.02,5.02-1.02,7.08c0,2.86,1.7,5.26,4.54,5.26c5.68,0,14.14-10.16,17.44-13.59l-1.48-1.25
			c-2.85,2.97-7.65,7.88-9.95,7.88c-0.67,0-1.25-1.03-1.25-1.82c0-0.91,0.23-2.4,0.57-3.54l6.54-28.66
			c0.46-2.06,0.91-5.03,0.91-6.28c0-4.68-2.5-7.54-6.58-7.54c-11.48,0-21.95,20.55-25.91,30.71l-0.23-0.23l3.63-18.15
			c0.56-2.4,1.02-5.14,1.02-7.09c0-2.85-1.59-5.25-4.42-5.25c-5.68,0-14.14,10.16-17.45,13.58l1.37,1.26
			c2.97-2.97,7.77-7.89,10.06-7.89c0.57,0,1.14,1.03,1.14,1.83c0,0.91-0.23,2.4-0.46,3.54L252.21,79.41z"/>
		<path class="st0" d="M338.85,65.73c-2.97,2.97-7.77,7.88-9.94,7.88c-0.8,0-1.26-1.03-1.26-1.82c0-0.91,0.23-2.4,0.46-3.54
			l6.16-30.16c0.45-2.05,1.02-4.91,1.02-6.28c0-3.31-1.59-6.05-4.31-6.05c-5.68,0-14.13,10.16-17.44,13.59l1.37,1.26
			c2.96-2.98,7.77-7.89,10.05-7.89c0.58,0,1.04,1.03,1.04,1.83c0,0.92-0.23,2.4-0.46,3.54l-6.16,30.16
			c-0.46,2.39-1.02,5.02-1.02,7.08c0,2.86,1.7,5.26,4.53,5.26c5.68,0,14.14-10.16,17.45-13.59L338.85,65.73z M334.06,15.24
			c3.65,0,6.51-2.86,6.51-6.52c0-3.66-2.86-6.51-6.51-6.51c-3.55,0-6.51,2.85-6.51,6.51C327.55,12.38,330.51,15.24,334.06,15.24"/>
		<path class="st0" d="M371.22,40.48c0.45-2.52,1.37-6.85,1.37-8.33c0-3.55-1.93-6.4-5.11-6.4c-5.22,0-12.65,9.25-16.76,13.58
			l1.49,1.26c2.97-2.97,7.76-7.88,9.94-7.88c0.69,0,1.15,1.03,1.15,1.83c0,0.91-0.12,2.4-0.34,3.54l-6.74,32.76
			c-0.33,1.84-0.68,3.66-0.68,5.27c0,3.2,1.82,4.45,4.08,4.45c15.21,0,38.33-26.73,38.33-47.62c0-2.85-0.79-7.19-5.23-7.19
			c-3.29,0-5.48,2.62-5.48,5.37c0,3.52,3.1,5.24,3.1,11.07c0,15.53-18.84,33.1-24.12,33.1c-0.92,0-1.38-0.79-1.38-1.94
			c0-1.15,0.23-2.75,0.57-4.33L371.22,40.48z"/>
		<path class="st0" d="M443.92,74.72c-2.4,1.03-4.91,1.49-7.42,1.49c-13.93,0-17.12-7.91-17.12-17.42c0-3.9,0.8-7.69,1.49-11.46
			h12.32c8.66,0,18.15-0.9,18.15-10.89c0-7.52-6.85-10.7-14.39-10.7c-20.67,0-27.76,19.46-27.76,35.01
			c0,13.4,7.22,19.81,18.51,19.81c7.2,0,13.01-1.83,15.64-2.63L443.92,74.72z M421.67,43.86c1.03-5.02,5.01-14.37,13.7-14.37
			c4.11,0,7.07,2.74,7.07,6.16c0,7.08-6.49,8.21-11.06,8.21H421.67z"/>
		<path class="st0" d="M464.07,79.41h8.91c6.12-30.58,15.81-44.51,19.12-44.51c1.26,0,2.4,1.94,5.02,1.94c2.85,0,5.37-2.4,5.37-5.71
			c0-2.87-1.82-5.38-5.47-5.38c-8.81,0-15.09,15.54-17.24,20.67l-0.23-0.22l1.7-8.1c0.45-2.41,0.9-5.15,0.9-7.1
			c0-2.85-1.7-5.25-4.54-5.25c-5.68,0-14.13,10.17-17.44,13.6l1.48,1.24c2.98-2.97,7.79-7.89,9.95-7.89c0.8,0,1.26,1.03,1.26,1.83
			c0,0.91-0.23,2.4-0.46,3.54L464.07,79.41z"/>
		<path class="st0" d="M542.52,39.81l1.7-12c-2.52-0.81-6.74-2.05-12.57-2.05c-10.37,0-20.16,5.11-20.16,15.86
			c0,13.61,19.67,13.72,19.67,24.59c0,6.53-6.21,10.64-12.5,10.64c-8.98,0-10.21-6.18-10.56-10.98h-2.42l-1.6,12.66
			c2.06,0.7,6.28,2.05,12.75,2.05c13.17,0,23.88-5.1,23.88-17.46c0-14.87-19.67-14.52-19.67-25.17c0-5.82,4.71-8.45,8.96-8.45
			c6.9,0,10.09,5.03,10.09,10.29L542.52,39.81z"/>
		<path class="st0" d="M581.08,65.73c-2.97,2.97-7.77,7.88-9.95,7.88c-0.79,0-1.24-1.03-1.24-1.82c0-0.91,0.23-2.4,0.45-3.54
			l6.15-30.16c0.46-2.05,1.02-4.91,1.02-6.28c0-3.31-1.6-6.05-4.31-6.05c-5.67,0-14.13,10.16-17.44,13.59l1.37,1.26
			c2.96-2.98,7.77-7.89,10.05-7.89c0.58,0,1.04,1.03,1.04,1.83c0,0.92-0.23,2.4-0.46,3.54l-6.16,30.16
			c-0.46,2.39-1.02,5.02-1.02,7.08c0,2.86,1.7,5.26,4.53,5.26c5.68,0,14.14-10.16,17.45-13.59L581.08,65.73z M576.29,15.24
			c3.65,0,6.51-2.86,6.51-6.52c0-3.66-2.86-6.51-6.51-6.51c-3.54,0-6.51,2.85-6.51,6.51C569.78,12.38,572.75,15.24,576.29,15.24"/>
		<path class="st0" d="M618.54,65.72c-3.15,3.2-8.29,7.9-10.69,7.9c-1.03,0-1.72-1.04-1.72-1.84c0-0.91,0.35-2.4,0.57-3.54
			l7.66-37.85h14.98l0.67-3.48h-14.97l3.44-17.02h-2.98c-2.98,11.55-8.35,17.02-18.88,17.02l-0.68,3.48h9.5l-7.66,37.85
			c-0.46,2.4-0.92,5.03-0.92,7.09c0,2.85,1.84,5.25,4.92,5.25c5.95,0,14.87-9.82,18.29-13.59L618.54,65.72z"/>
		<path class="st0" d="M652.4,34.44c-0.8-4.57-2.16-8.68-6.16-8.68c-3.89,0-14.29,9.82-16.81,12.11l1.37,1.48
			c2.52-2.05,7.31-6.5,9.94-6.5c1.84,0,2.87,2.05,3.77,7.08l7.43,43.94c-2.4,2.97-10.39,11.87-14.64,11.87
			c-2.62-0.03-3.64-3.1-7.18-3.1c-3.09,0-5.27,2.51-5.27,5.49c0,2.86,2.29,5.37,5.83,5.37c14.62,0,50.62-47.36,50.62-70.87
			c0-4.22-2.05-6.85-5.59-6.85c-3.08,0-5.7,2.4-5.7,5.26c0,3.53,3.42,5.7,3.42,10.95c0,10.72-10.39,27.39-14.17,32.98L652.4,34.44z"
			/>
		<path class="st0" d="M748.58,80.57c17.51,0,26.76-19.74,26.76-35.19c0-10.98-5.26-19.63-17.62-19.63
			c-17.96,0-27.23,19.97-27.23,35.54C730.5,71.81,735.76,80.57,748.58,80.57 M740.68,64.26c0-10.98,4.69-34.77,16.59-34.77
			c5.82,0,7.89,5.25,7.89,11.89c0,10.75-4.23,35.46-16.36,35.46C744.23,76.84,740.68,73.29,740.68,64.26"/>
		<path class="st0" d="M810.99,30.39h15.64l0.69-3.48h-15.53l1.61-8.25c1.59-7.8,3.42-14.92,8.9-14.92c6.4,0,4.12,9.29,10.96,9.29
			c2.74,0,5.6-2.17,5.6-5.38c0-4.69-5.95-7.65-12.44-7.65c-14.4,0-19.99,8.79-22.39,21.07l-1.14,5.84h-9.02l-0.69,3.48h9.02
			L791.24,85c-1.83,9.37-4.12,14.74-8.91,14.74c-6.16,0-4-9.02-10.95-9.02c-3.2,0-5.61,2.62-5.61,5.25c0,5.25,6.98,7.51,13.02,7.51
			c16.1,0,20.1-12.65,22.72-25.56L810.99,30.39z"/>
	</g>
	<g>
		<path class="st0" d="M0,272.67c0.32-0.06,0.68-0.09,1.06-0.12c0.38-0.03,0.7-0.04,0.97-0.04c0.55,0,1.1,0.06,1.67,0.16
			c0.57,0.11,1.11,0.35,1.63,0.73c0.52,0.38,0.94,0.9,1.26,1.55c0.33,0.65,0.52,1.55,0.57,2.69v49.6H0V272.67z"/>
		<path class="st0" d="M19.63,288.79c0.38-0.05,0.68-0.08,0.9-0.08c0.21,0,0.38,0,0.49,0c1.25,0,2.37,0.31,3.38,0.94
			c1,0.63,1.61,1.7,1.83,3.22c1.25-1.25,2.95-2.36,5.09-3.34s4.68-1.46,7.61-1.46c3.69,0,6.52,0.81,8.47,2.44
			c1.96,1.63,3.23,3.67,3.83,6.11c0.27,1.09,0.43,2.3,0.49,3.62c0.06,1.33,0.08,2.62,0.08,3.87v23.13h-6.92v-22.89
			c0-1.03-0.01-2.02-0.04-2.97c-0.03-0.95-0.18-1.83-0.45-2.65c-0.43-1.41-1.23-2.5-2.4-3.26c-1.17-0.76-2.92-1.14-5.25-1.14
			c-1.57,0-2.99,0.16-4.24,0.49c-1.25,0.33-2.31,0.76-3.17,1.3c-0.87,0.54-1.55,1.17-2.04,1.87c-0.49,0.7-0.73,1.41-0.73,2.12v27.12
			h-6.92V288.79z"/>
		<path class="st0" d="M84.95,297.92c-0.93-1.14-2.27-2.13-4.03-2.97c-1.77-0.84-3.65-1.26-5.66-1.26c-0.71,0-1.48,0.07-2.32,0.2
			c-0.84,0.14-1.63,0.38-2.36,0.73c-0.73,0.35-1.34,0.85-1.83,1.51S68,297.59,68,298.57c0,0.87,0.2,1.6,0.61,2.2
			c0.41,0.6,0.98,1.11,1.71,1.55c0.73,0.43,1.59,0.8,2.57,1.1c0.97,0.3,2.03,0.58,3.17,0.85c1.63,0.38,3.2,0.85,4.72,1.43
			c1.52,0.57,2.86,1.3,4.03,2.2c1.17,0.9,2.09,2.03,2.77,3.38c0.68,1.36,1.02,3.04,1.02,5.05c0,2.01-0.41,3.76-1.22,5.25
			c-0.82,1.5-1.9,2.74-3.26,3.75c-1.36,1.01-2.95,1.77-4.76,2.28c-1.82,0.52-3.71,0.77-5.66,0.77c-1.9,0-3.61-0.15-5.13-0.45
			c-1.52-0.3-2.8-0.67-3.83-1.1c-1.36-0.54-2.31-1.1-2.85-1.67c-0.55-0.57-0.82-1.15-0.82-1.75c0-0.7,0.19-1.44,0.57-2.2
			c0.38-0.76,0.87-1.63,1.46-2.61c0.38,0.33,0.91,0.72,1.59,1.18c0.68,0.46,1.49,0.93,2.44,1.38c0.95,0.46,2,0.84,3.14,1.14
			c1.14,0.3,2.36,0.45,3.67,0.45c0.97,0,1.93-0.09,2.85-0.28s1.75-0.5,2.48-0.94c0.73-0.43,1.33-1.03,1.79-1.79
			c0.46-0.76,0.69-1.71,0.69-2.85c0-1.14-0.25-2.08-0.73-2.81c-0.49-0.73-1.14-1.35-1.96-1.83c-0.81-0.49-1.72-0.88-2.73-1.18
			c-1.01-0.3-2.02-0.56-3.05-0.77c-1.58-0.33-3.08-0.75-4.52-1.26c-1.44-0.52-2.72-1.21-3.83-2.08c-1.11-0.87-2.01-1.94-2.69-3.22
			s-1.02-2.87-1.02-4.77c0-1.79,0.38-3.38,1.14-4.77c0.76-1.38,1.79-2.53,3.1-3.42c1.3-0.9,2.78-1.58,4.44-2.04
			c1.66-0.46,3.38-0.69,5.17-0.69c2.06,0,3.95,0.22,5.66,0.65c1.71,0.43,3.08,0.95,4.11,1.55c1.09,0.6,1.82,1.15,2.2,1.67
			c0.38,0.52,0.57,1.02,0.57,1.51c0,0.6-0.15,1.29-0.44,2.08c-0.3,0.79-0.67,1.56-1.1,2.32L84.95,297.92z"/>
		<path class="st0" d="M98.38,288.79c0.43-0.05,0.78-0.08,1.02-0.08c0.25,0,0.42,0,0.53,0c1.3,0,2.43,0.3,3.38,0.9
			c0.95,0.6,1.59,1.6,1.91,3.01c1.03-1.25,2.47-2.32,4.32-3.22c1.85-0.9,4.15-1.35,6.92-1.35c2.12,0,4.11,0.35,5.99,1.06
			c1.87,0.71,3.52,1.83,4.97,3.38c1.44,1.55,2.58,3.56,3.42,6.03c0.84,2.47,1.26,5.5,1.26,9.08c0,4.07-0.5,7.45-1.51,10.14
			c-1.01,2.69-2.31,4.82-3.91,6.39c-1.6,1.58-3.38,2.69-5.33,3.34c-1.96,0.65-3.86,0.98-5.7,0.98c-2.93,0-5.24-0.5-6.92-1.51
			c-1.68-1-2.82-1.91-3.42-2.73v20.61h-6.92V288.79z M105.31,318.03c0.33,0.43,0.76,0.91,1.3,1.43c0.54,0.52,1.21,0.99,2,1.43
			c0.78,0.43,1.68,0.81,2.69,1.14s2.08,0.49,3.22,0.49c3.42,0,5.97-1.24,7.66-3.71c1.68-2.47,2.52-6.07,2.52-10.79
			c0-1.96-0.18-3.8-0.53-5.54c-0.36-1.73-0.93-3.23-1.71-4.48c-0.79-1.25-1.85-2.24-3.18-2.97c-1.33-0.73-2.97-1.1-4.93-1.1
			c-2.6,0-4.76,0.54-6.48,1.63c-1.71,1.09-2.56,2.39-2.56,3.91V318.03z"/>
		<path class="st0" d="M141.23,276.42c0-1.36,0.42-2.47,1.26-3.34c0.84-0.87,1.89-1.3,3.13-1.3c1.25,0,2.3,0.43,3.14,1.3
			c0.84,0.87,1.26,1.98,1.26,3.34c0,1.25-0.42,2.3-1.26,3.14c-0.84,0.84-1.89,1.26-3.14,1.26c-1.25,0-2.29-0.42-3.13-1.26
			C141.65,278.71,141.23,277.67,141.23,276.42z M142.45,288.55c0.38-0.05,0.69-0.08,0.94-0.08c0.25,0,0.42,0,0.53,0
			c1.63,0,2.94,0.41,3.95,1.22c1,0.81,1.51,2.25,1.51,4.32v25.9c0,1.57,0.23,2.69,0.69,3.34c0.46,0.65,1.53,0.98,3.22,0.98v2.93
			c-0.49,0.16-1.16,0.29-2,0.41c-0.84,0.11-1.67,0.16-2.48,0.16c-1.57,0-2.79-0.25-3.63-0.73c-0.84-0.49-1.46-1.14-1.87-1.96
			c-0.41-0.81-0.65-1.72-0.74-2.73c-0.08-1-0.12-1.99-0.12-2.97V288.55z"/>
		<path class="st0" d="M162.32,288.79c0.43-0.05,0.77-0.08,1.02-0.08c0.25,0,0.39,0,0.45,0c1.25,0,2.38,0.31,3.38,0.94
			c1.01,0.63,1.62,1.67,1.84,3.14c0.76-1.14,1.9-2.21,3.42-3.22c1.52-1.01,3.29-1.51,5.29-1.51c0.6,0,1.23,0.06,1.91,0.16
			c0.68,0.11,1.31,0.29,1.92,0.53c0.6,0.24,1.08,0.58,1.46,1.02c0.38,0.43,0.57,1.01,0.57,1.71c0,0.87-0.22,1.81-0.65,2.81
			c-0.43,1.01-0.87,1.83-1.3,2.48c-0.7-0.65-1.46-1.15-2.28-1.51c-0.81-0.35-1.85-0.53-3.1-0.53c-0.92,0-1.8,0.15-2.65,0.45
			c-0.84,0.3-1.59,0.7-2.24,1.22c-0.65,0.52-1.17,1.1-1.55,1.75c-0.38,0.65-0.57,1.33-0.57,2.04v27.04h-6.92V288.79z"/>
		<path class="st0" d="M189.6,276.42c0-1.36,0.42-2.47,1.26-3.34c0.84-0.87,1.89-1.3,3.14-1.3c1.25,0,2.29,0.43,3.13,1.3
			c0.84,0.87,1.26,1.98,1.26,3.34c0,1.25-0.42,2.3-1.26,3.14s-1.89,1.26-3.13,1.26c-1.25,0-2.3-0.42-3.14-1.26
			S189.6,277.67,189.6,276.42z M190.83,288.55c0.38-0.05,0.69-0.08,0.94-0.08c0.25,0,0.42,0,0.53,0c1.63,0,2.94,0.41,3.95,1.22
			c1.01,0.81,1.51,2.25,1.51,4.32v25.9c0,1.57,0.23,2.69,0.69,3.34c0.46,0.65,1.53,0.98,3.22,0.98v2.93
			c-0.49,0.16-1.15,0.29-1.99,0.41c-0.84,0.11-1.67,0.16-2.48,0.16c-1.58,0-2.78-0.25-3.62-0.73c-0.84-0.49-1.47-1.14-1.87-1.96
			c-0.41-0.81-0.65-1.72-0.73-2.73c-0.08-1-0.12-1.99-0.12-2.97V288.55z"/>
		<path class="st0" d="M210.78,288.79c0.38-0.05,0.68-0.08,0.9-0.08c0.22,0,0.38,0,0.49,0c1.25,0,2.37,0.31,3.38,0.94
			c1,0.63,1.62,1.7,1.83,3.22c1.25-1.25,2.95-2.36,5.09-3.34c2.14-0.98,4.68-1.46,7.61-1.46c3.69,0,6.51,0.81,8.47,2.44
			c1.96,1.63,3.23,3.67,3.83,6.11c0.27,1.09,0.43,2.3,0.49,3.62c0.06,1.33,0.08,2.62,0.08,3.87v23.13h-6.92v-22.89
			c0-1.03-0.01-2.02-0.04-2.97c-0.03-0.95-0.18-1.83-0.45-2.65c-0.43-1.41-1.23-2.5-2.4-3.26s-2.92-1.14-5.25-1.14
			c-1.58,0-2.99,0.16-4.24,0.49c-1.25,0.33-2.31,0.76-3.18,1.3c-0.87,0.54-1.55,1.17-2.04,1.87s-0.73,1.41-0.73,2.12v27.12h-6.92
			V288.79z"/>
		<path class="st0" d="M280.18,323.98c-0.44,0.43-0.98,0.93-1.63,1.46c-0.65,0.54-1.43,1.03-2.32,1.47c-0.9,0.43-1.92,0.8-3.06,1.1
			c-1.14,0.3-2.39,0.44-3.75,0.44c-2.12,0-4.15-0.35-6.11-1.06c-1.96-0.7-3.68-1.83-5.17-3.38c-1.5-1.55-2.67-3.58-3.54-6.11
			c-0.87-2.52-1.3-5.61-1.3-9.24c0-3.58,0.43-6.68,1.3-9.29c0.87-2.61,2.04-4.74,3.5-6.39c1.46-1.65,3.17-2.89,5.13-3.7
			c1.96-0.82,4.02-1.22,6.19-1.22c2.61,0,4.77,0.4,6.48,1.18c1.71,0.79,3.14,1.78,4.28,2.97c0.27-1.19,0.89-2.07,1.87-2.65
			c0.97-0.57,1.93-0.85,2.85-0.85c0.27,0,0.57,0,0.89,0c0.33,0,0.71,0.06,1.14,0.16v35.68c0,3.31-0.29,6.26-0.85,8.84
			c-0.57,2.58-1.56,4.77-2.97,6.56c-1.42,1.79-3.31,3.16-5.7,4.11c-2.39,0.95-5.4,1.43-9.04,1.43c-2.61,0-4.85-0.25-6.72-0.74
			c-1.87-0.49-3.43-1.09-4.68-1.79c-0.98-0.6-1.67-1.17-2.07-1.71c-0.41-0.54-0.61-1.11-0.61-1.71c0-0.71,0.31-1.5,0.94-2.36
			c0.62-0.87,1.18-1.58,1.67-2.12c0.11,0.16,0.46,0.48,1.06,0.94c0.6,0.46,1.4,0.96,2.4,1.51c1.01,0.54,2.19,1.02,3.55,1.42
			c1.36,0.41,2.85,0.61,4.48,0.61c2.61,0,4.68-0.37,6.23-1.1c1.55-0.73,2.74-1.77,3.59-3.09c0.84-1.33,1.38-2.91,1.63-4.73
			c0.25-1.82,0.37-3.84,0.37-6.07V323.98z M280.01,298.16h0.08c-0.33-0.33-0.75-0.72-1.26-1.18c-0.52-0.46-1.17-0.92-1.95-1.38
			c-0.79-0.46-1.7-0.84-2.73-1.14c-1.03-0.3-2.2-0.45-3.5-0.45c-3.09,0-5.54,1.15-7.33,3.46c-1.79,2.31-2.69,5.77-2.69,10.38
			c0,2.12,0.16,4.08,0.49,5.87c0.32,1.79,0.89,3.35,1.71,4.68c0.81,1.33,1.89,2.36,3.22,3.09c1.33,0.73,2.97,1.1,4.93,1.1
			c1.3,0,2.51-0.16,3.62-0.49c1.11-0.33,2.08-0.73,2.89-1.22c0.81-0.49,1.44-1.06,1.87-1.71c0.43-0.65,0.65-1.3,0.65-1.96V298.16z"
			/>
		<path class="st0" d="M340.77,323.98c-0.43,0.43-0.97,0.93-1.63,1.46c-0.65,0.54-1.43,1.03-2.32,1.47c-0.9,0.43-1.92,0.8-3.06,1.1
			c-1.14,0.3-2.39,0.44-3.75,0.44c-2.12,0-4.16-0.35-6.11-1.06c-1.96-0.7-3.68-1.83-5.17-3.38c-1.49-1.55-2.67-3.58-3.54-6.11
			c-0.87-2.52-1.3-5.61-1.3-9.24c0-3.58,0.43-6.68,1.3-9.29c0.87-2.61,2.03-4.74,3.5-6.39c1.47-1.65,3.18-2.89,5.13-3.7
			c1.95-0.82,4.02-1.22,6.19-1.22c2.61,0,4.77,0.4,6.48,1.18c1.71,0.79,3.14,1.78,4.27,2.97c0.27-1.19,0.9-2.07,1.87-2.65
			s1.93-0.85,2.85-0.85c0.27,0,0.57,0,0.9,0c0.33,0,0.71,0.06,1.14,0.16v35.68c0,3.31-0.29,6.26-0.85,8.84
			c-0.57,2.58-1.56,4.77-2.97,6.56c-1.41,1.79-3.31,3.16-5.7,4.11c-2.39,0.95-5.4,1.43-9.04,1.43c-2.61,0-4.85-0.25-6.72-0.74
			c-1.87-0.49-3.43-1.09-4.68-1.79c-0.98-0.6-1.67-1.17-2.08-1.71c-0.41-0.54-0.61-1.11-0.61-1.71c0-0.71,0.32-1.5,0.94-2.36
			c0.62-0.87,1.18-1.58,1.67-2.12c0.11,0.16,0.46,0.48,1.06,0.94c0.6,0.46,1.4,0.96,2.4,1.51c1,0.54,2.19,1.02,3.55,1.42
			c1.35,0.41,2.85,0.61,4.48,0.61c2.61,0,4.68-0.37,6.23-1.1c1.55-0.73,2.74-1.77,3.58-3.09c0.84-1.33,1.38-2.91,1.63-4.73
			c0.25-1.82,0.36-3.84,0.36-6.07V323.98z M340.61,298.16h0.08c-0.33-0.33-0.75-0.72-1.26-1.18c-0.51-0.46-1.16-0.92-1.95-1.38
			c-0.79-0.46-1.7-0.84-2.73-1.14c-1.03-0.3-2.2-0.45-3.5-0.45c-3.09,0-5.54,1.15-7.33,3.46c-1.79,2.31-2.68,5.77-2.68,10.38
			c0,2.12,0.16,4.08,0.49,5.87s0.89,3.35,1.71,4.68c0.82,1.33,1.89,2.36,3.22,3.09c1.33,0.73,2.97,1.1,4.93,1.1
			c1.3,0,2.51-0.16,3.62-0.49c1.11-0.33,2.07-0.73,2.89-1.22c0.82-0.49,1.44-1.06,1.87-1.71c0.43-0.65,0.65-1.3,0.65-1.96V298.16z"
			/>
		<path class="st0" d="M359.75,269.49c0.38-0.05,0.69-0.08,0.94-0.08s0.42,0,0.53,0c1.63,0,2.94,0.41,3.95,1.22
			c1,0.81,1.51,2.25,1.51,4.32v44.63c0,0.81,0.03,1.51,0.08,2.07c0.05,0.57,0.2,1.05,0.45,1.43c0.24,0.38,0.62,0.67,1.14,0.85
			c0.52,0.19,1.26,0.29,2.24,0.29v2.93c-0.49,0.16-1.16,0.29-2,0.41c-0.84,0.11-1.67,0.16-2.48,0.16c-1.58,0-2.79-0.25-3.63-0.73
			c-0.84-0.49-1.47-1.14-1.87-1.96c-0.41-0.81-0.65-1.72-0.73-2.73c-0.08-1-0.12-1.99-0.12-2.97V269.49z"/>
		<path class="st0" d="M413.34,307.94c0,2.66-0.33,5.22-0.98,7.69c-0.65,2.47-1.7,4.66-3.13,6.56c-1.44,1.9-3.3,3.42-5.58,4.56
			c-2.28,1.14-5.05,1.71-8.31,1.71c-3.2,0-5.94-0.54-8.23-1.63c-2.28-1.09-4.12-2.54-5.54-4.36s-2.45-3.96-3.1-6.43
			c-0.65-2.47-0.97-5.09-0.97-7.86c0-2.71,0.38-5.29,1.14-7.74c0.76-2.44,1.9-4.57,3.42-6.39c1.52-1.82,3.41-3.27,5.66-4.36
			s4.9-1.63,7.94-1.63c3.15,0,5.85,0.54,8.1,1.63s4.09,2.54,5.5,4.36c1.41,1.82,2.44,3.92,3.09,6.31S413.34,305.28,413.34,307.94z
			 M406.01,308.02c0-1.68-0.15-3.35-0.45-5.01c-0.3-1.65-0.83-3.15-1.59-4.48c-0.76-1.33-1.82-2.4-3.17-3.22
			c-1.36-0.82-3.13-1.22-5.29-1.22c-2.06,0-3.79,0.41-5.17,1.22c-1.38,0.81-2.48,1.89-3.3,3.22c-0.82,1.33-1.4,2.82-1.75,4.48
			c-0.36,1.66-0.53,3.33-0.53,5.01s0.15,3.38,0.45,5.09c0.3,1.71,0.85,3.27,1.67,4.68c0.82,1.42,1.9,2.57,3.26,3.46
			c1.36,0.9,3.1,1.35,5.21,1.35c2.17,0,3.97-0.45,5.38-1.35c1.42-0.89,2.5-2.04,3.26-3.42c0.76-1.38,1.29-2.94,1.59-4.68
			C405.86,311.41,406.01,309.7,406.01,308.02z"/>
		<path class="st0" d="M423.52,269.49c0.38-0.05,0.69-0.08,0.94-0.08s0.42,0,0.53,0c1.63,0,2.95,0.41,3.95,1.22
			c1.01,0.81,1.51,2.25,1.51,4.32v17.26c1.09-1.08,2.53-2.05,4.32-2.89c1.79-0.84,4.07-1.26,6.84-1.26c2.12,0,4.11,0.35,5.99,1.06
			c1.87,0.71,3.52,1.83,4.97,3.38c1.44,1.55,2.58,3.56,3.42,6.03c0.84,2.47,1.26,5.5,1.26,9.08c0,4.07-0.5,7.45-1.51,10.14
			c-1.01,2.69-2.31,4.82-3.91,6.39c-1.6,1.58-3.38,2.69-5.33,3.34c-1.96,0.65-3.86,0.98-5.7,0.98c-1.57,0-2.94-0.16-4.11-0.49
			c-1.17-0.33-2.19-0.72-3.05-1.18c-0.87-0.46-1.57-0.95-2.12-1.47c-0.54-0.52-0.95-0.96-1.22-1.34v3.26h-6.76V269.49z
			 M430.44,318.03c0.33,0.43,0.76,0.91,1.3,1.43c0.54,0.52,1.21,0.99,2,1.43c0.78,0.43,1.68,0.81,2.69,1.14
			c1.01,0.33,2.08,0.49,3.22,0.49c3.42,0,5.97-1.24,7.66-3.71c1.68-2.47,2.52-6.07,2.52-10.79c0-1.96-0.18-3.8-0.53-5.54
			c-0.36-1.73-0.93-3.23-1.71-4.48c-0.79-1.25-1.85-2.24-3.18-2.97c-1.33-0.73-2.97-1.1-4.93-1.1c-2.66,0-4.83,0.57-6.51,1.71
			c-1.69,1.14-2.53,2.5-2.53,4.07V318.03z"/>
		<path class="st0" d="M469.05,297.51c-0.43-0.7-0.8-1.46-1.1-2.28c-0.3-0.82-0.45-1.47-0.45-1.96c0-0.71,0.43-1.37,1.3-2
			c0.87-0.62,2-1.18,3.38-1.67c1.38-0.49,2.92-0.87,4.6-1.14c1.68-0.27,3.34-0.41,4.97-0.41c2.77,0,5.08,0.3,6.92,0.9
			c1.85,0.6,3.34,1.49,4.48,2.69c1.14,1.19,1.94,2.69,2.4,4.48c0.46,1.79,0.69,3.86,0.69,6.19v16.04c0,1.3,0.06,2.32,0.16,3.06
			c0.11,0.73,0.32,1.28,0.61,1.63c0.3,0.35,0.7,0.58,1.22,0.69c0.51,0.11,1.18,0.16,1.99,0.16v3.26c-0.49,0.16-1.09,0.29-1.79,0.41
			c-0.71,0.11-1.44,0.16-2.2,0.16c-1.68,0-3.15-0.34-4.4-1.02c-1.25-0.68-1.98-1.89-2.2-3.63c-1.36,1.36-2.99,2.51-4.89,3.46
			c-1.9,0.95-4.39,1.43-7.49,1.43c-1.41,0-2.84-0.16-4.27-0.49c-1.44-0.32-2.74-0.92-3.91-1.79c-1.17-0.87-2.13-2.04-2.89-3.5
			c-0.76-1.47-1.14-3.34-1.14-5.62c0-2.82,0.71-5.13,2.16-6.92c1.44-1.79,3.22-3.2,5.33-4.24c2.12-1.03,4.38-1.74,6.8-2.12
			c2.42-0.38,4.63-0.6,6.64-0.65c0.49,0,1.06,0,1.71,0s1.22,0.03,1.71,0.08v-1.22c0-2.44-0.59-4.3-1.75-5.58
			c-1.17-1.28-3.41-1.91-6.72-1.91c-2.45,0-4.51,0.31-6.19,0.94c-1.69,0.63-3.31,1.48-4.89,2.56H469.05z M489.49,307.94h-2.36
			c-1.74,0-3.5,0.11-5.29,0.33c-1.79,0.22-3.42,0.62-4.89,1.22c-1.47,0.6-2.66,1.44-3.58,2.53c-0.93,1.09-1.38,2.47-1.38,4.15
			c0,1.63,0.49,3.07,1.47,4.32c0.97,1.25,2.8,1.87,5.46,1.87c1.41,0,2.75-0.2,4.03-0.61c1.28-0.41,2.4-0.91,3.38-1.51
			c0.98-0.6,1.75-1.25,2.32-1.96c0.57-0.7,0.85-1.38,0.85-2.04V307.94z"/>
		<path class="st0" d="M508.8,269.49c0.38-0.05,0.69-0.08,0.94-0.08c0.25,0,0.42,0,0.53,0c1.63,0,2.94,0.41,3.95,1.22
			c1,0.81,1.51,2.25,1.51,4.32v44.63c0,0.81,0.03,1.51,0.08,2.07c0.05,0.57,0.2,1.05,0.45,1.43c0.24,0.38,0.62,0.67,1.14,0.85
			c0.52,0.19,1.26,0.29,2.24,0.29v2.93c-0.49,0.16-1.16,0.29-2,0.41c-0.84,0.11-1.67,0.16-2.48,0.16c-1.57,0-2.79-0.25-3.63-0.73
			c-0.84-0.49-1.46-1.14-1.87-1.96c-0.41-0.81-0.65-1.72-0.74-2.73c-0.08-1-0.12-1.99-0.12-2.97V269.49z"/>
		<path class="st0" d="M545.2,288.79c0.43-0.05,0.77-0.08,1.02-0.08c0.25,0,0.42,0,0.53,0c1.3,0,2.43,0.3,3.38,0.9
			c0.95,0.6,1.59,1.6,1.91,3.01c1.03-1.25,2.47-2.32,4.32-3.22c1.85-0.9,4.16-1.35,6.92-1.35c2.12,0,4.11,0.35,5.99,1.06
			c1.87,0.71,3.53,1.83,4.97,3.38c1.44,1.55,2.58,3.56,3.42,6.03c0.84,2.47,1.26,5.5,1.26,9.08c0,4.07-0.5,7.45-1.51,10.14
			c-1.01,2.69-2.31,4.82-3.91,6.39c-1.6,1.58-3.38,2.69-5.34,3.34c-1.95,0.65-3.86,0.98-5.7,0.98c-2.93,0-5.24-0.5-6.92-1.51
			c-1.68-1-2.82-1.91-3.42-2.73v20.61h-6.92V288.79z M552.13,318.03c0.33,0.43,0.76,0.91,1.3,1.43c0.54,0.52,1.21,0.99,2,1.43
			c0.78,0.43,1.68,0.81,2.68,1.14c1.01,0.33,2.08,0.49,3.22,0.49c3.42,0,5.97-1.24,7.66-3.71c1.68-2.47,2.52-6.07,2.52-10.79
			c0-1.96-0.18-3.8-0.53-5.54c-0.35-1.73-0.92-3.23-1.71-4.48c-0.79-1.25-1.85-2.24-3.18-2.97c-1.33-0.73-2.97-1.1-4.93-1.1
			c-2.61,0-4.77,0.54-6.48,1.63c-1.71,1.09-2.56,2.39-2.56,3.91V318.03z"/>
		<path class="st0" d="M589.34,288.79c0.43-0.05,0.78-0.08,1.02-0.08c0.25,0,0.4,0,0.45,0c1.25,0,2.38,0.31,3.38,0.94
			c1,0.63,1.61,1.67,1.83,3.14c0.76-1.14,1.9-2.21,3.42-3.22c1.52-1.01,3.28-1.51,5.29-1.51c0.6,0,1.23,0.06,1.91,0.16
			c0.68,0.11,1.32,0.29,1.91,0.53c0.6,0.24,1.09,0.58,1.47,1.02c0.38,0.43,0.57,1.01,0.57,1.71c0,0.87-0.22,1.81-0.65,2.81
			c-0.43,1.01-0.87,1.83-1.3,2.48c-0.71-0.65-1.47-1.15-2.28-1.51c-0.82-0.35-1.85-0.53-3.09-0.53c-0.93,0-1.81,0.15-2.65,0.45
			c-0.84,0.3-1.59,0.7-2.24,1.22c-0.65,0.52-1.17,1.1-1.55,1.75c-0.38,0.65-0.57,1.33-0.57,2.04v27.04h-6.92V288.79z"/>
	</g>
	<g>
		<path class="st0" d="M649.3,307.94c0,2.66-0.33,5.22-0.98,7.69c-0.65,2.47-1.7,4.66-3.13,6.56c-1.44,1.9-3.3,3.42-5.58,4.56
			c-2.28,1.14-5.05,1.71-8.31,1.71c-3.2,0-5.94-0.54-8.23-1.63c-2.28-1.09-4.12-2.54-5.54-4.36c-1.41-1.82-2.45-3.96-3.1-6.43
			c-0.65-2.47-0.97-5.09-0.97-7.86c0-2.71,0.38-5.29,1.14-7.74c0.76-2.44,1.9-4.57,3.42-6.39c1.52-1.82,3.41-3.27,5.66-4.36
			c2.25-1.09,4.9-1.63,7.94-1.63c3.15,0,5.85,0.54,8.1,1.63c2.25,1.09,4.09,2.54,5.5,4.36c1.41,1.82,2.44,3.92,3.09,6.31
			C648.97,302.75,649.3,305.28,649.3,307.94z M641.97,308.02c0-1.68-0.15-3.35-0.45-5.01c-0.3-1.65-0.83-3.15-1.59-4.48
			c-0.76-1.33-1.82-2.4-3.17-3.22c-1.36-0.82-3.13-1.22-5.29-1.22c-2.06,0-3.79,0.41-5.17,1.22c-1.38,0.81-2.48,1.89-3.3,3.22
			c-0.82,1.33-1.4,2.82-1.75,4.48c-0.36,1.66-0.53,3.33-0.53,5.01s0.15,3.38,0.45,5.09c0.3,1.71,0.85,3.27,1.67,4.68
			c0.82,1.42,1.9,2.57,3.26,3.46c1.36,0.9,3.1,1.35,5.21,1.35c2.17,0,3.97-0.45,5.38-1.35c1.42-0.89,2.5-2.04,3.26-3.42
			c0.76-1.38,1.29-2.94,1.59-4.68C641.82,311.41,641.97,309.7,641.97,308.02z"/>
		<path class="st0" d="M657.77,284.72c0-5.27,1.22-9.23,3.67-11.89c2.44-2.66,5.97-3.99,10.59-3.99c1.69,0,3.23,0.19,4.65,0.57
			c1.41,0.38,2.62,0.84,3.62,1.38c1,0.54,1.78,1.13,2.32,1.75c0.55,0.62,0.82,1.21,0.82,1.75c0,0.76-0.22,1.51-0.65,2.24
			c-0.43,0.73-0.89,1.4-1.38,1.99h-1.06c-0.93-1.14-2.05-2.05-3.38-2.73c-1.33-0.68-2.84-1.02-4.52-1.02c-2.44,0-4.34,0.67-5.7,2
			c-1.36,1.33-2.04,3.62-2.04,6.88v5.29h13.69v5.95h-13.69v32.33h-6.92V284.72z"/>
	</g>
	<g>
		<path class="st0" d="M690.59,309.4c0.16,3.97,1.21,7.15,3.14,9.57c1.93,2.42,4.9,3.63,8.92,3.63c1.52,0,2.88-0.16,4.08-0.49
			c1.19-0.33,2.22-0.72,3.09-1.18c0.87-0.46,1.59-0.96,2.16-1.51c0.57-0.54,1.04-1.03,1.43-1.46c0.6,0.76,1.12,1.57,1.59,2.44
			c0.46,0.87,0.69,1.55,0.69,2.04c0,0.44-0.14,0.88-0.41,1.35c-0.27,0.46-0.74,0.94-1.39,1.43c-1.25,0.92-2.85,1.7-4.8,2.32
			c-1.96,0.62-4.32,0.94-7.09,0.94c-2.55,0-4.95-0.36-7.2-1.1c-2.26-0.74-4.23-1.92-5.91-3.55c-1.68-1.63-3.01-3.76-3.99-6.39
			s-1.46-5.85-1.46-9.65c0-3.42,0.5-6.38,1.51-8.88c1.01-2.5,2.32-4.55,3.95-6.15c1.63-1.6,3.49-2.78,5.58-3.55
			c2.09-0.76,4.25-1.14,6.48-1.14c2.77,0,5.14,0.46,7.13,1.38c1.98,0.93,3.6,2.16,4.85,3.71c1.25,1.55,2.17,3.34,2.77,5.38
			c0.6,2.04,0.9,4.14,0.9,6.31c0,0.76-0.01,1.53-0.04,2.32c-0.03,0.79-0.1,1.53-0.2,2.24H690.59z M709.66,304.19
			c0-1.46-0.15-2.82-0.45-4.07c-0.3-1.25-0.8-2.35-1.51-3.3c-0.71-0.95-1.64-1.7-2.81-2.24c-1.17-0.54-2.59-0.82-4.27-0.82
			c-2.82,0-5.15,0.93-6.97,2.77c-1.82,1.85-2.84,4.4-3.06,7.66H709.66z"/>
		<path class="st0" d="M747.28,297.92c-0.92-1.14-2.26-2.13-4.03-2.97c-1.77-0.84-3.65-1.26-5.66-1.26c-0.7,0-1.48,0.07-2.32,0.2
			c-0.84,0.14-1.63,0.38-2.36,0.73c-0.74,0.35-1.35,0.85-1.83,1.51c-0.49,0.65-0.73,1.47-0.73,2.45c0,0.87,0.2,1.6,0.61,2.2
			c0.41,0.6,0.98,1.11,1.71,1.55c0.74,0.43,1.59,0.8,2.56,1.1c0.98,0.3,2.04,0.58,3.18,0.85c1.63,0.38,3.2,0.85,4.72,1.43
			c1.52,0.57,2.86,1.3,4.03,2.2c1.16,0.9,2.09,2.03,2.77,3.38s1.02,3.04,1.02,5.05c0,2.01-0.41,3.76-1.22,5.25
			c-0.81,1.5-1.9,2.74-3.26,3.75c-1.36,1.01-2.94,1.77-4.77,2.28c-1.82,0.52-3.71,0.77-5.66,0.77c-1.9,0-3.61-0.15-5.13-0.45
			c-1.52-0.3-2.8-0.67-3.83-1.1c-1.36-0.54-2.31-1.1-2.85-1.67c-0.54-0.57-0.81-1.15-0.81-1.75c0-0.7,0.19-1.44,0.57-2.2
			s0.87-1.63,1.47-2.61c0.38,0.33,0.91,0.72,1.59,1.18c0.68,0.46,1.49,0.93,2.45,1.38c0.95,0.46,1.99,0.84,3.13,1.14
			c1.14,0.3,2.36,0.45,3.67,0.45c0.98,0,1.93-0.09,2.85-0.28c0.92-0.19,1.75-0.5,2.48-0.94s1.33-1.03,1.79-1.79s0.69-1.71,0.69-2.85
			c0-1.14-0.25-2.08-0.73-2.81c-0.49-0.73-1.14-1.35-1.96-1.83c-0.82-0.49-1.72-0.88-2.73-1.18c-1-0.3-2.03-0.56-3.06-0.77
			c-1.57-0.33-3.08-0.75-4.52-1.26c-1.44-0.52-2.71-1.21-3.83-2.08c-1.11-0.87-2.01-1.94-2.69-3.22c-0.68-1.28-1.02-2.87-1.02-4.77
			c0-1.79,0.38-3.38,1.14-4.77c0.76-1.38,1.79-2.53,3.09-3.42c1.3-0.9,2.78-1.58,4.44-2.04c1.65-0.46,3.38-0.69,5.17-0.69
			c2.06,0,3.95,0.22,5.66,0.65c1.71,0.43,3.08,0.95,4.11,1.55c1.08,0.6,1.82,1.15,2.2,1.67c0.38,0.52,0.57,1.02,0.57,1.51
			c0,0.6-0.15,1.29-0.45,2.08c-0.3,0.79-0.67,1.56-1.1,2.32L747.28,297.92z"/>
		<path class="st0" d="M781.65,297.92c-0.92-1.14-2.27-2.13-4.03-2.97c-1.77-0.84-3.65-1.26-5.66-1.26c-0.71,0-1.48,0.07-2.32,0.2
			c-0.84,0.14-1.63,0.38-2.36,0.73c-0.73,0.35-1.34,0.85-1.83,1.51s-0.74,1.47-0.74,2.45c0,0.87,0.2,1.6,0.61,2.2
			c0.41,0.6,0.98,1.11,1.71,1.55c0.73,0.43,1.59,0.8,2.57,1.1c0.97,0.3,2.03,0.58,3.17,0.85c1.63,0.38,3.2,0.85,4.72,1.43
			c1.52,0.57,2.86,1.3,4.03,2.2c1.17,0.9,2.09,2.03,2.77,3.38c0.68,1.36,1.02,3.04,1.02,5.05c0,2.01-0.41,3.76-1.22,5.25
			c-0.82,1.5-1.9,2.74-3.26,3.75c-1.36,1.01-2.95,1.77-4.76,2.28c-1.82,0.52-3.71,0.77-5.66,0.77c-1.9,0-3.61-0.15-5.13-0.45
			c-1.52-0.3-2.8-0.67-3.83-1.1c-1.36-0.54-2.31-1.1-2.85-1.67c-0.55-0.57-0.82-1.15-0.82-1.75c0-0.7,0.19-1.44,0.57-2.2
			c0.38-0.76,0.87-1.63,1.46-2.61c0.38,0.33,0.91,0.72,1.59,1.18c0.68,0.46,1.49,0.93,2.44,1.38c0.95,0.46,2,0.84,3.14,1.14
			c1.14,0.3,2.36,0.45,3.67,0.45c0.97,0,1.93-0.09,2.85-0.28c0.92-0.19,1.75-0.5,2.48-0.94s1.33-1.03,1.79-1.79
			c0.46-0.76,0.69-1.71,0.69-2.85c0-1.14-0.25-2.08-0.73-2.81c-0.49-0.73-1.14-1.35-1.96-1.83c-0.81-0.49-1.72-0.88-2.73-1.18
			c-1.01-0.3-2.02-0.56-3.05-0.77c-1.58-0.33-3.08-0.75-4.52-1.26c-1.44-0.52-2.72-1.21-3.83-2.08c-1.11-0.87-2.01-1.94-2.69-3.22
			s-1.02-2.87-1.02-4.77c0-1.79,0.38-3.38,1.14-4.77c0.76-1.38,1.79-2.53,3.1-3.42c1.3-0.9,2.78-1.58,4.44-2.04
			c1.66-0.46,3.38-0.69,5.17-0.69c2.06,0,3.95,0.22,5.66,0.65c1.71,0.43,3.08,0.95,4.11,1.55c1.09,0.6,1.82,1.15,2.2,1.67
			c0.38,0.52,0.57,1.02,0.57,1.51c0,0.6-0.15,1.29-0.45,2.08c-0.3,0.79-0.67,1.56-1.1,2.32L781.65,297.92z"/>
		<path class="st0" d="M793.78,276.42c0-1.36,0.42-2.47,1.26-3.34c0.84-0.87,1.89-1.3,3.14-1.3c1.25,0,2.29,0.43,3.14,1.3
			c0.84,0.87,1.26,1.98,1.26,3.34c0,1.25-0.42,2.3-1.26,3.14c-0.84,0.84-1.89,1.26-3.14,1.26c-1.25,0-2.3-0.42-3.14-1.26
			C794.2,278.71,793.78,277.67,793.78,276.42z M795.01,288.55c0.38-0.05,0.69-0.08,0.93-0.08c0.25,0,0.42,0,0.53,0
			c1.63,0,2.94,0.41,3.95,1.22c1.01,0.81,1.51,2.25,1.51,4.32v25.9c0,1.57,0.23,2.69,0.69,3.34c0.46,0.65,1.53,0.98,3.22,0.98v2.93
			c-0.49,0.16-1.15,0.29-1.99,0.41c-0.84,0.11-1.67,0.16-2.49,0.16c-1.57,0-2.78-0.25-3.62-0.73c-0.84-0.49-1.46-1.14-1.87-1.96
			c-0.41-0.81-0.65-1.72-0.74-2.73c-0.08-1-0.12-1.99-0.12-2.97V288.55z"/>
		<path class="st0" d="M848.6,307.94c0,2.66-0.32,5.22-0.97,7.69c-0.65,2.47-1.7,4.66-3.14,6.56c-1.44,1.9-3.3,3.42-5.58,4.56
			c-2.28,1.14-5.05,1.71-8.3,1.71c-3.21,0-5.95-0.54-8.23-1.63c-2.28-1.09-4.13-2.54-5.54-4.36c-1.41-1.82-2.44-3.96-3.09-6.43
			c-0.65-2.47-0.98-5.09-0.98-7.86c0-2.71,0.38-5.29,1.14-7.74c0.76-2.44,1.9-4.57,3.42-6.39c1.52-1.82,3.41-3.27,5.66-4.36
			c2.25-1.09,4.9-1.63,7.94-1.63c3.15,0,5.85,0.54,8.1,1.63c2.25,1.09,4.09,2.54,5.5,4.36c1.41,1.82,2.45,3.92,3.1,6.31
			S848.6,305.28,848.6,307.94z M841.27,308.02c0-1.68-0.15-3.35-0.45-5.01c-0.3-1.65-0.83-3.15-1.58-4.48
			c-0.76-1.33-1.82-2.4-3.18-3.22c-1.36-0.82-3.12-1.22-5.29-1.22c-2.07,0-3.79,0.41-5.17,1.22c-1.39,0.81-2.48,1.89-3.3,3.22
			c-0.81,1.33-1.4,2.82-1.75,4.48c-0.35,1.66-0.53,3.33-0.53,5.01s0.15,3.38,0.45,5.09c0.29,1.71,0.85,3.27,1.67,4.68
			c0.81,1.42,1.9,2.57,3.26,3.46c1.36,0.9,3.09,1.35,5.21,1.35c2.17,0,3.96-0.45,5.38-1.35c1.41-0.89,2.49-2.04,3.26-3.42
			c0.76-1.38,1.29-2.94,1.58-4.68C841.12,311.41,841.27,309.7,841.27,308.02z"/>
		<path class="st0" d="M858.78,288.79c0.38-0.05,0.68-0.08,0.9-0.08c0.21,0,0.38,0,0.49,0c1.25,0,2.37,0.31,3.38,0.94
			c1,0.63,1.61,1.7,1.83,3.22c1.25-1.25,2.95-2.36,5.09-3.34c2.14-0.98,4.68-1.46,7.61-1.46c3.69,0,6.52,0.81,8.47,2.44
			c1.96,1.63,3.23,3.67,3.83,6.11c0.27,1.09,0.43,2.3,0.49,3.62c0.06,1.33,0.08,2.62,0.08,3.87v23.13h-6.92v-22.89
			c0-1.03-0.01-2.02-0.04-2.97c-0.03-0.95-0.18-1.83-0.45-2.65c-0.43-1.41-1.23-2.5-2.4-3.26c-1.17-0.76-2.92-1.14-5.25-1.14
			c-1.57,0-2.99,0.16-4.24,0.49c-1.25,0.33-2.31,0.76-3.17,1.3c-0.87,0.54-1.55,1.17-2.04,1.87c-0.49,0.7-0.73,1.41-0.73,2.12v27.12
			h-6.92V288.79z"/>
		<path class="st0" d="M904.64,297.51c-0.44-0.7-0.8-1.46-1.1-2.28c-0.3-0.82-0.45-1.47-0.45-1.96c0-0.71,0.43-1.37,1.3-2
			c0.87-0.62,1.99-1.18,3.38-1.67c1.38-0.49,2.92-0.87,4.6-1.14c1.68-0.27,3.34-0.41,4.97-0.41c2.77,0,5.08,0.3,6.92,0.9
			c1.85,0.6,3.34,1.49,4.48,2.69c1.14,1.19,1.94,2.69,2.4,4.48c0.46,1.79,0.69,3.86,0.69,6.19v16.04c0,1.3,0.06,2.32,0.16,3.06
			c0.11,0.73,0.31,1.28,0.61,1.63c0.29,0.35,0.7,0.58,1.22,0.69c0.52,0.11,1.18,0.16,2,0.16v3.26c-0.49,0.16-1.09,0.29-1.79,0.41
			c-0.71,0.11-1.44,0.16-2.2,0.16c-1.68,0-3.15-0.34-4.39-1.02c-1.25-0.68-1.98-1.89-2.2-3.63c-1.36,1.36-2.99,2.51-4.89,3.46
			c-1.9,0.95-4.4,1.43-7.49,1.43c-1.41,0-2.84-0.16-4.27-0.49c-1.44-0.32-2.74-0.92-3.91-1.79c-1.17-0.87-2.13-2.04-2.89-3.5
			c-0.76-1.47-1.14-3.34-1.14-5.62c0-2.82,0.72-5.13,2.16-6.92c1.44-1.79,3.22-3.2,5.33-4.24c2.12-1.03,4.39-1.74,6.8-2.12
			c2.41-0.38,4.63-0.6,6.64-0.65c0.49,0,1.06,0,1.71,0s1.22,0.03,1.71,0.08v-1.22c0-2.44-0.58-4.3-1.75-5.58
			c-1.17-1.28-3.41-1.91-6.72-1.91c-2.44,0-4.51,0.31-6.19,0.94c-1.68,0.63-3.31,1.48-4.89,2.56H904.64z M925.08,307.94h-2.36
			c-1.74,0-3.5,0.11-5.29,0.33c-1.79,0.22-3.42,0.62-4.88,1.22c-1.47,0.6-2.66,1.44-3.58,2.53c-0.93,1.09-1.38,2.47-1.38,4.15
			c0,1.63,0.49,3.07,1.46,4.32c0.98,1.25,2.8,1.87,5.46,1.87c1.41,0,2.75-0.2,4.03-0.61c1.28-0.41,2.4-0.91,3.38-1.51
			c0.98-0.6,1.75-1.25,2.32-1.96c0.57-0.7,0.85-1.38,0.85-2.04V307.94z"/>
		<path class="st0" d="M944.38,269.49c0.38-0.05,0.69-0.08,0.94-0.08c0.25,0,0.42,0,0.53,0c1.63,0,2.94,0.41,3.95,1.22
			c1,0.81,1.51,2.25,1.51,4.32v44.63c0,0.81,0.03,1.51,0.08,2.07c0.05,0.57,0.2,1.05,0.45,1.43c0.24,0.38,0.62,0.67,1.14,0.85
			c0.52,0.19,1.26,0.29,2.24,0.29v2.93c-0.49,0.16-1.16,0.29-2,0.41c-0.84,0.11-1.67,0.16-2.48,0.16c-1.57,0-2.79-0.25-3.63-0.73
			c-0.84-0.49-1.46-1.14-1.87-1.96c-0.41-0.81-0.65-1.72-0.74-2.73c-0.08-1-0.12-1.99-0.12-2.97V269.49z"/>
		<path class="st0" d="M985.19,297.92c-0.93-1.14-2.27-2.13-4.03-2.97c-1.77-0.84-3.65-1.26-5.66-1.26c-0.71,0-1.48,0.07-2.32,0.2
			c-0.84,0.14-1.63,0.38-2.36,0.73c-0.73,0.35-1.34,0.85-1.83,1.51c-0.49,0.65-0.74,1.47-0.74,2.45c0,0.87,0.2,1.6,0.61,2.2
			c0.41,0.6,0.98,1.11,1.71,1.55c0.73,0.43,1.59,0.8,2.57,1.1c0.97,0.3,2.03,0.58,3.17,0.85c1.63,0.38,3.2,0.85,4.72,1.43
			c1.52,0.57,2.86,1.3,4.03,2.2c1.17,0.9,2.09,2.03,2.77,3.38c0.68,1.36,1.02,3.04,1.02,5.05c0,2.01-0.41,3.76-1.22,5.25
			c-0.82,1.5-1.9,2.74-3.26,3.75c-1.36,1.01-2.95,1.77-4.76,2.28c-1.82,0.52-3.71,0.77-5.66,0.77c-1.9,0-3.61-0.15-5.13-0.45
			c-1.52-0.3-2.8-0.67-3.83-1.1c-1.36-0.54-2.31-1.1-2.85-1.67c-0.55-0.57-0.82-1.15-0.82-1.75c0-0.7,0.19-1.44,0.57-2.2
			c0.38-0.76,0.87-1.63,1.46-2.61c0.38,0.33,0.91,0.72,1.59,1.18s1.49,0.93,2.44,1.38c0.95,0.46,2,0.84,3.14,1.14
			c1.14,0.3,2.36,0.45,3.67,0.45c0.97,0,1.93-0.09,2.85-0.28c0.92-0.19,1.75-0.5,2.48-0.94s1.33-1.03,1.79-1.79
			c0.46-0.76,0.69-1.71,0.69-2.85c0-1.14-0.25-2.08-0.73-2.81c-0.49-0.73-1.14-1.35-1.96-1.83c-0.81-0.49-1.72-0.88-2.73-1.18
			c-1.01-0.3-2.02-0.56-3.05-0.77c-1.58-0.33-3.08-0.75-4.52-1.26c-1.44-0.52-2.72-1.21-3.83-2.08c-1.11-0.87-2.01-1.94-2.69-3.22
			s-1.02-2.87-1.02-4.77c0-1.79,0.38-3.38,1.14-4.77c0.76-1.38,1.79-2.53,3.1-3.42c1.3-0.9,2.78-1.58,4.44-2.04
			c1.66-0.46,3.38-0.69,5.17-0.69c2.06,0,3.95,0.22,5.66,0.65c1.71,0.43,3.08,0.95,4.11,1.55c1.09,0.6,1.82,1.15,2.2,1.67
			c0.38,0.52,0.57,1.02,0.57,1.51c0,0.6-0.15,1.29-0.44,2.08c-0.3,0.79-0.67,1.56-1.1,2.32L985.19,297.92z"/>
	</g>
	<g>
		<path class="st0" d="M0.18,106.55c0.75-0.12,1.56-0.22,2.43-0.28c0.87-0.06,1.61-0.09,2.24-0.09c1.24,0,2.55,0.16,3.92,0.47
			c1.37,0.31,2.61,0.87,3.73,1.68c1.12,0.81,2.05,1.99,2.8,3.55c0.75,1.56,1.12,3.58,1.12,6.06v41.61h59.33v-52.99
			c0.75-0.12,1.55-0.22,2.42-0.28c0.87-0.06,1.62-0.09,2.24-0.09c1.24,0,2.55,0.16,3.92,0.47c1.37,0.31,2.61,0.87,3.73,1.68
			c1.12,0.81,2.05,1.99,2.8,3.55c0.75,1.56,1.12,3.58,1.12,6.06v113.63H75.74v-57.84H16.41v57.84H0.18V106.55z"/>
		<path class="st0" d="M113.76,130.59c0.6-0.1,1.25-0.17,1.96-0.23c0.7-0.05,1.3-0.08,1.81-0.08c1,0,2.06,0.13,3.16,0.38
			c1.1,0.25,2.11,0.7,3.01,1.36c0.9,0.66,1.66,1.61,2.26,2.86c0.61,1.26,0.91,2.89,0.91,4.9v53.5c0,4.22,0.37,8.09,1.13,11.6
			c0.75,3.52,2.01,6.56,3.77,9.12c1.76,2.56,4.12,4.54,7.08,5.95c2.96,1.41,6.71,2.11,11.23,2.11c6.93,0,12.28-1.31,16.05-3.92
			c3.77-2.61,6.2-6.93,7.31-12.96c0.6-3.31,0.9-7.28,0.9-11.91v-62.69c0.6-0.1,1.25-0.17,1.96-0.23c0.7-0.05,1.3-0.08,1.81-0.08
			c1.01,0,2.06,0.13,3.16,0.38c1.11,0.25,2.11,0.7,3.02,1.36c0.9,0.66,1.66,1.61,2.26,2.86c0.6,1.26,0.9,2.89,0.9,4.9v51.69
			c0,2.01-0.03,4.07-0.08,6.18c-0.05,2.11-0.18,4.12-0.37,6.03c-0.4,4.22-1.38,8.16-2.94,11.83c-1.56,3.67-3.84,6.86-6.86,9.57
			c-3.01,2.71-6.76,4.85-11.23,6.41c-4.47,1.56-9.87,2.33-16.2,2.33c-10.85,0-19.02-2.41-24.49-7.23
			c-5.48-4.82-9.02-11.5-10.62-20.04c-0.4-2.11-0.66-4.42-0.75-6.93c-0.1-2.51-0.15-5.07-0.15-7.69V130.59z"/>
		<path class="st0" d="M209.45,131.19c5.43-0.6,10.15-1,14.17-1.21c4.02-0.2,7.79-0.3,11.3-0.3c9.64,0,17.68,1.31,24.11,3.92
			s11.58,6.18,15.45,10.7c3.87,4.52,6.6,9.8,8.21,15.82c1.61,6.03,2.41,12.46,2.41,19.29c0,9.15-1.51,17.48-4.52,25.02
			c-3.01,7.53-7.74,13.71-14.17,18.54c-3.92,2.81-8.64,4.95-14.16,6.41c-5.53,1.46-11.96,2.18-19.29,2.18h-23.51V131.19z
			 M235.07,220.41c6.73,0,12.43-1.05,17.1-3.17c4.67-2.11,8.44-4.97,11.3-8.59s4.92-7.86,6.18-12.73
			c1.25-4.87,1.89-10.12,1.89-15.75c0-5.63-0.55-10.83-1.66-15.6c-1.11-4.77-3.07-8.89-5.88-12.36c-2.81-3.47-6.56-6.15-11.23-8.06
			c-4.67-1.91-10.53-2.86-17.55-2.86c-2.01,0-4.1,0.05-6.25,0.15c-2.16,0.1-4.3,0.3-6.41,0.6v78.37H235.07z"/>
		<path class="st0" d="M302.28,131.19c5.43-0.6,10.15-1,14.17-1.21c4.02-0.2,7.79-0.3,11.3-0.3c9.64,0,17.68,1.31,24.11,3.92
			s11.58,6.18,15.45,10.7c3.87,4.52,6.6,9.8,8.21,15.82c1.61,6.03,2.41,12.46,2.41,19.29c0,9.15-1.51,17.48-4.52,25.02
			c-3.01,7.53-7.74,13.71-14.17,18.54c-3.92,2.81-8.64,4.95-14.16,6.41c-5.53,1.46-11.96,2.18-19.29,2.18h-23.51V131.19z
			 M327.9,220.41c6.73,0,12.43-1.05,17.1-3.17c4.67-2.11,8.44-4.97,11.3-8.59s4.92-7.86,6.18-12.73c1.25-4.87,1.89-10.12,1.89-15.75
			c0-5.63-0.55-10.83-1.66-15.6c-1.11-4.77-3.07-8.89-5.88-12.36c-2.81-3.47-6.56-6.15-11.23-8.06c-4.67-1.91-10.53-2.86-17.55-2.86
			c-2.01,0-4.1,0.05-6.25,0.15c-2.16,0.1-4.3,0.3-6.41,0.6v78.37H327.9z"/>
		<path class="st0" d="M397.97,130.74h58.17c0.1,0.4,0.18,0.83,0.23,1.28c0.05,0.45,0.07,1.08,0.07,1.89c0,2.31-0.65,4.24-1.96,5.8
			c-1.31,1.56-3.72,2.34-7.23,2.34h-36.17v31.04h34.21v11.6h-34.21v35.57h38.28c3.21,0,5.57,0.78,7.08,2.33
			c1.51,1.56,2.26,3.49,2.26,5.8c0,0.4,0,0.83,0,1.28c0,0.45-0.05,1.08-0.15,1.88h-60.58V130.74z"/>
		<path class="st0" d="M479.04,131.04c3.62-0.5,7.51-0.85,11.68-1.05c4.17-0.2,8.16-0.3,11.98-0.3c13.76,0,23.66,2.34,29.69,7.01
			c6.03,4.67,9.04,11.93,9.04,21.78c0,4.22-0.6,7.99-1.81,11.3c-1.21,3.32-2.81,6.21-4.82,8.67c-2.01,2.46-4.35,4.47-7.01,6.03
			c-2.66,1.56-5.5,2.69-8.51,3.39l27.58,43.7c-1,0.5-2.16,0.85-3.47,1.05c-1.31,0.2-2.51,0.3-3.62,0.3c-4.62,0-8.19-1.96-10.7-5.88
			l-23.51-36.77h-13.41v41.29h-13.11V131.04z M502.85,179.12c3.72,0,7.08-0.35,10.1-1.05c3.01-0.7,5.62-1.86,7.83-3.47
			c2.21-1.61,3.92-3.67,5.12-6.18c1.21-2.51,1.81-5.57,1.81-9.19c0-3.72-0.58-6.78-1.73-9.19c-1.16-2.41-2.81-4.29-4.97-5.65
			c-2.16-1.36-4.78-2.28-7.84-2.79c-3.07-0.5-6.45-0.75-10.17-0.75c-2.31,0-4.34,0.05-6.1,0.15c-1.76,0.1-3.34,0.25-4.74,0.45v37.67
			H502.85z"/>
		<path class="st0" d="M614.22,147.02c-2.01-1.61-4.77-3.11-8.29-4.52c-3.52-1.41-7.53-2.11-12.05-2.11c-3.52,0-6.46,0.43-8.82,1.28
			c-2.36,0.85-4.27,1.96-5.73,3.32c-1.46,1.36-2.51,2.96-3.17,4.82c-0.65,1.86-0.98,3.74-0.98,5.65c0,2.51,0.5,4.67,1.51,6.48
			c1,1.81,2.46,3.39,4.37,4.75c1.91,1.36,4.22,2.59,6.93,3.69c2.72,1.11,5.83,2.21,9.34,3.31c3.41,1.11,6.73,2.44,9.95,3.99
			c3.21,1.56,6.03,3.49,8.44,5.8c2.41,2.31,4.34,5.08,5.8,8.29c1.45,3.22,2.18,6.98,2.18,11.3c0,5.02-0.83,9.44-2.48,13.26
			c-1.66,3.82-3.99,7.04-7.01,9.65c-3.01,2.61-6.61,4.57-10.77,5.88c-4.17,1.31-8.77,1.96-13.79,1.96c-5.53,0-10.68-0.6-15.45-1.81
			s-8.51-2.81-11.23-4.82c-2.51-1.6-3.77-3.47-3.77-5.57c0-1.1,0.45-2.51,1.36-4.22c0.9-1.71,1.96-3.31,3.16-4.82
			c3.21,2.61,7.06,4.9,11.53,6.86s9.27,2.94,14.39,2.94c3.92,0,7.18-0.5,9.79-1.51c2.61-1.01,4.7-2.31,6.25-3.92
			c1.56-1.6,2.69-3.44,3.39-5.5c0.7-2.06,1.05-4.19,1.05-6.41c0-2.91-0.43-5.4-1.28-7.46c-0.85-2.06-2.11-3.84-3.77-5.35
			s-3.75-2.84-6.25-3.99c-2.51-1.15-5.38-2.23-8.59-3.24c-3.72-1.1-7.29-2.34-10.7-3.69c-3.42-1.36-6.46-3.11-9.12-5.28
			c-2.66-2.16-4.8-4.8-6.41-7.91c-1.61-3.11-2.41-6.98-2.41-11.6c0-4.52,0.83-8.51,2.49-11.98c1.66-3.47,3.92-6.35,6.78-8.67
			c2.86-2.31,6.25-4.07,10.17-5.28c3.92-1.21,8.19-1.81,12.81-1.81c3.71,0,7.71,0.48,11.98,1.43c4.27,0.96,7.91,2.34,10.93,4.15
			c1.6,1.01,2.96,2.08,4.07,3.24c1.1,1.16,1.66,2.49,1.66,3.99c0,1.21-0.48,2.51-1.43,3.92c-0.96,1.41-2.14,2.81-3.54,4.22
			c-0.4-0.4-0.88-0.83-1.43-1.28C615.55,148,614.92,147.52,614.22,147.02z"/>
		<path class="st0" d="M642.09,130.74h58.17c0.1,0.5,0.18,0.93,0.22,1.28c0.05,0.35,0.08,0.98,0.08,1.89c0,2.31-0.66,4.24-1.96,5.8
			c-1.31,1.56-3.77,2.34-7.39,2.34H655.2v30.14h34.21v11.45H655.2v47.92h-13.11V130.74z"/>
		<path class="st0" d="M715.33,130.59c0.6-0.1,1.26-0.17,1.96-0.23c0.7-0.05,1.31-0.08,1.81-0.08c1,0,2.03,0.1,3.09,0.3
			c1.05,0.2,2.06,0.66,3.01,1.36c0.96,0.7,1.73,1.66,2.34,2.86c0.6,1.21,0.95,2.86,1.05,4.97v91.77h-13.26V130.59z"/>
		<path class="st0" d="M753.76,130.74h58.17c0.1,0.4,0.18,0.83,0.23,1.28c0.05,0.45,0.07,1.08,0.07,1.89c0,2.31-0.65,4.24-1.96,5.8
			c-1.31,1.56-3.72,2.34-7.23,2.34h-36.17v31.04h34.21v11.6h-34.21v35.57h38.28c3.21,0,5.57,0.78,7.08,2.33
			c1.51,1.56,2.26,3.49,2.26,5.8c0,0.4,0,0.83,0,1.28c0,0.45-0.05,1.08-0.15,1.88h-60.58V130.74z"/>
		<path class="st0" d="M831.67,130.59c0.6-0.1,1.25-0.17,1.96-0.23c0.7-0.05,1.3-0.08,1.81-0.08c1,0,2.06,0.13,3.16,0.38
			c1.1,0.25,2.11,0.7,3.01,1.36c0.9,0.66,1.66,1.61,2.26,2.86c0.6,1.26,0.9,2.89,0.9,4.9v80.32h34.96c3.22,0,5.53,0.78,6.93,2.33
			c1.41,1.56,2.11,3.44,2.11,5.65c0,0.5,0,0.98,0,1.43c0,0.45-0.05,1.13-0.15,2.03h-56.96V130.59z"/>
		<path class="st0" d="M903.52,107.3c6.72-0.75,12.56-1.24,17.54-1.49c4.98-0.25,9.64-0.37,13.99-0.37
			c11.94,0,21.89,1.62,29.85,4.85c7.96,3.24,14.33,7.65,19.12,13.25c4.79,5.6,8.18,12.13,10.17,19.59
			c1.99,7.46,2.99,15.42,2.99,23.88c0,11.32-1.86,21.64-5.6,30.97c-3.73,9.33-9.58,16.98-17.54,22.95
			c-4.85,3.48-10.7,6.13-17.54,7.93c-6.84,1.8-14.8,2.71-23.88,2.71h-29.11V107.3z M935.23,217.75c8.33,0,15.39-1.31,21.18-3.92
			c5.78-2.61,10.45-6.16,13.99-10.63c3.55-4.48,6.09-9.73,7.65-15.77c1.56-6.03,2.33-12.53,2.33-19.5c0-6.96-0.69-13.4-2.05-19.31
			c-1.37-5.91-3.79-11.01-7.27-15.3c-3.49-4.29-8.12-7.62-13.9-9.98c-5.78-2.36-13.03-3.54-21.74-3.54c-2.49,0-5.07,0.06-7.74,0.19
			c-2.67,0.13-5.32,0.37-7.93,0.75v97.02H935.23z"/>
	</g>
</g>
</svg>
