<svg version="1.1" id="Layer_1" xmlns="http://www.w3.org/2000/svg" x="0" y="0" viewBox="0 0 1009.1 246.4" style="enable-background:new 0 0 1009.1 246.4" xml:space="preserve"><style>.st1{display:inline;fill:#878787}.st2{fill-rule:evenodd;clip-rule:evenodd}</style><path d="M994.7 74.8c-1.1-.5-2.4-.8-3.5-1.6 0-1.2.2-1.8.1-2.7-.1-1-.8-1.7-.7-2.7.1-.7 1.2-1.7 1.7-2.4 3.9-5.5 7.4-12.9 6.2-22.2-1.1-9.1-7.1-15.6-13.2-20-6.2-4.5-14.2-8.2-23.9-9.1-10-1-20.1.3-27.8 4.2 3.3-.7 6.1-1.3 9.3-1.7 11-1.3 21.2.9 28.6 4.1 4.8 2.1 9.6 5.2 13.1 9.2 2.6 3 4.5 6.6 5.9 10.8.5 1.4 1.1 2.8 1.4 4.2.3 2.1.4 4.6.5 6.6 0 5.2-1.9 11.9-4.2 15.5-.1.2-.3.5-.5.7-4.5 5.6-15.6 8-25.3 7.6-7.6-.3-14.8-1.8-20.9-4-2-.7-4.4-1.4-5.8-2.5-2-1.6-2-5.2-.6-7.4s4.4-2.7 5.6-5.2c.3-.6.2-1.7.7-2.6.4-.8 1.9-1.1 1.9-2 0-.3-.6-1-.7-1.2-1-1.8-1.2-3.9-1.9-5.7-1-2.5-2.7-5-4.7-6.5-3.3-2.4-8.8-2.8-8.7-8.4-1.8.3-1.1 3.2-1.5 4.7-6.7.7-10.9-4.1-9.6-11.2-1 .4-1.6 2-1.8 3.6-.2 1.7.4 3.4.1 4.7-1.6.1-3.2-1-4.2-1.8-.4-.3-.7-1-1.1-.8 2.2 4.7 7.4 6.3 13.7 7.4 5.2.9 10.4 1.8 12.7 4.7.6.7 1.3 2.2 1.1 3.4-.4 2.5-3.7 1.4-4.8 3.4 2.5-.7 4.3.3 4.5 2.4.5 3.7-2.7 9.1-5.6 11-1.7 1.1-3.9 1.4-5.9.3.4 1.1 1.2 1.3 1 2.6-.3 2.6-4.5 2.8-7.7 2.6-7.3-.5-12.5-3.7-17.9-7.4-2.5-1.7-4.8-3.3-7.9-4.8-1.4-.6-8.7-3.7-9.4-.8-.2 1 .9 2.8 1.5 3.6 3.8 5.4 9.5 7.4 16.8 8.7 4.2.8 9.3 1.3 10.7 4.8.8 2.2.3 5.7 0 8.3-.3 2.5-.7 5.1-.7 7.8.8 5.6 1.2 13.6-1.5 17.7-.2.4-.7 1.2-1.2 1.8-1.1 1.3-2.9 2.8-4.7 4-5.9 4-12.7 8.4-16.6 14.9-2.4 4.1-3.6 7.6-4.8 13.3-.7 3.5-.8 8-1.4 11.6-.2 1.1-.4 2.4-.8 3.3-1.7 3.5-7.7 4.8-11.5 6.7-3.6 1.8-7.1 4.2-9.9 6.6-4.8 4.1-7.5 7.7-11.5 12.4-1.3 1.5-2.5 3-4.1 4-1.9 1.1-5.1 1.4-5.7 3.3-.8 2.6 2.1 4.3 2.6 6.6.3 1.4 0 2.9.3 4.1.5 1.9 2 4.2 3.3 5.2.6.5 1.8 1.1 2.8.6-.2-2.3-2-3.7-2.5-5.8-.6-2.9.4-7.1 1.5-9.2 1.4-2.7 3.6-3.8 5.7-5.3 3.2-2.4 7.2-5.1 10.4-7.3 4.6-3 9.1-5.8 14.1-8.3 2.1-1 4.5-2.6 6.9-3.7 1.9-.9 3.4-2.1 4.9-3.6 1.4-1.5 3-3.5 3.7-4.7 2.2-3.3 4-6.5 6-9.6 1.5-2.3 3.4-5.3 4.4-7.3.7-1.3 1.7-3 2-3.7 1-2.3 2.1-4.3 3.6-6.2 5 1.4 10.2 2.9 17.2 3.3 5.4.3 11-.2 15.4-.6 1.5-.1 3.4-.2 4.7.2 1.4.5 2.2 2 3.2 3.5 2.5 3.9 5.5 7.3 8.7 10.6 2.1 2.1 4.3 4.1 6.6 5.7 2 1.4 4.4 2.7 6 3.6 1.9 1.1 3.8 2.2 4.7 4.2s.2 5.8 2 6.6c.9.4 1.9 0 2.5 0 1.1-.5 2-1.2 3.3-1.6 3-1 6.8.2 10 .1.8 0 3.2-.4 3.1-1.5-.1-.9-2.7-.9-3.9-1-1.9-.2-3.1-.4-4.3-.8-2.5-.8-4.5-1.7-6.7-3-4.2-2.5-7.6-6.6-10.7-9.9-5.3-5.5-9.4-10.8-13.4-16.8-1.3-2-2.6-4.3-4.3-6-4-4-11.6-6.2-17.2-7.5-2-.5-5.1-.6-6.6-1.7-1.2-.9-2.2-3.5-2.7-4.7-.4-.7-.6-1.5-.9-2.3-1.3-3.6-.6-7.4.7-10.9.9-2.4 1.8-4.2 3.1-5.9 2.1-2.9 4.7-4.6 5.3-8.1.2-1.2 0-2.7.5-4.3.6-2.2 2.6-3.7 5.1-3.7 3.8-.1 7.8.9 11.8 1.2 8.3.8 17 .8 24.3-.7 3.6-.7 7.3-2.2 10.9-2.3 5.8-.1 9.4 3.6 11.9 7 2.7 3.7 4.7 8.5 4.3 14.6-.3 4.5-1.6 8.5-3.5 11.8-6.1 10.5-19.7 19.2-35.1 14.8-5.8-1.7-8.7-4-13.1-7.1.2.9.6 1.3 1.1 1.9 5.2 4.8 12.6 9.4 22.5 9.4 5.2 0 9.8-.7 13.5-2 3.9-1.4 7-3.6 10.1-5.8.1-.1.3.3.1-.1 3-2.4 5.7-5.3 7.7-9 2-3.6 3.6-8.2 3.3-13.5-.1-10.4-6.3-18-13.8-21.3zm-72 2.8c-.1.4.4 3.2.1 3.4-.3.2-1.4-1.5-2.4-1.9-1.4.4-3 1.6-3.4 1.4-.5-.4 1.1-2.9.9-4.3-.1-.8-3-3.5-2.6-3.9s2.2.6 3.6.5c1-.7 1.5-3.5 1.9-3.4.5.1.8 3.8 1 4.1.9 1.2 3.8 1.2 4 1.7.2.4-3 1.9-3.1 2.4z"/><path d="M945.9 104.4c.3-.2.5-.5.8-.8.1-.1.3-.2.3-.3s-.1-.3-.3-.3h-1.1s-1.1 0-1.2-.1l-.6-2.4c0-.1-.2-.2-.2-.2-.2 0-.4.3-.6.9-.2.6-.5 1.4-.5 1.6s-.2.3-.4.5-.5.3-.9.4c-.3.1-1 .3-1.2.3-.2.1-.3.2-.3.4s.4.4.7.5.6.4.7.5c.2.2.2.1.3.4.1.2-.2.8-.3 1.2 0 .1-.2.4-.1.5.1.1.2.1.5 0s.6-.4.8-.4c.2-.1.5-.2.8-.2.3.1 1 .6 1.2.7s.6.4.8.5.4.2.5.1.1-.4 0-.7c-.1-.2-.2-.7-.3-1.6 0 0-.2-.6-.1-.8s.5-.6.7-.7zM995.1 65.3c-.1.3.7.9 1.2 1.2.5.3 1 .8 1.2 1.1.3.4.4.3.4.7.1.5-.2 1.2-.6 2-.1.1-.8 1-.7 1.2s.1.4.6.2c.5-.1 1.7-.9 2-1.1.3-.1 1-.3 1.5-.1.5.2 1.7 1.2 2 1.5s.8.6 1.1.8c.3.2.9.8 1.2.7.3-.2.2-.8.1-1.4-.1-.5-.1-1.2-.2-2.8 0 0-.2-1.1.1-1.5.4-.6 1.1-1.1 1.5-1.4.5-.3 1.1-.6 1.7-1.1.4-.3 1-.4 1-.7 0-.3-.5-.2-.8-.3-.3 0-2 .1-2 .1s-1.4.2-2.2-.4c-.2-.1-.4-4.5-.4-4.7 0-.6-.4-.7-.4-.7-.4 0-.7.7-1.1 1.7-.5 1-1.2 2.4-1.3 2.7s-.5.8-.5.8c-.3.3-.3.6-.9.8-.6.2-2.7.1-3.1.2-.4.2-1.3.1-1.4.5zM921.2 25.6c.3-.2 1.3-.7 1.3-.7s.4-.2.8-.2.6.2.7.4l.9.9s.1.2.3.1.2-.4.2-.8c0-.3-.1-1-.1-1s-.1-.4.1-.7c.2-.4.5-.5.9-.6.4-.2.9-.5 1-.7s-.1-.3-.2-.3c-.1-.1-.7-.2-.9-.3-.2-.1-.6-.2-.8-.4-.2-.1-.2-.3-.3-.8v-.7c0-.2.1-.9-.1-.9 0 0 0-.1-.3.2-.2.2-.8 1.1-.8 1.1s-.3.4-.5.5c-.2.2-.5.2-.8.2-.2 0-1.1-.2-1.1-.2s-.4-.1-.4.2c-.1.2.2.6.4.8.2.2.5.5.5 1 .1.4-.2 1-.4 1.3s-.7 1.1-.7 1.1l-.2.5s-.1.2 0 .3c.1 0 .2-.1.5-.3z"/><g><path class="st2" d="M19.5 98.6c4.2 1.7 9.2 4 8.1 10.9-1.3 8.5-13.6 9.7-23.2 7.8V85c.9-.3 3.3-.3 4.2 0v13.5c9 2.6 15.5-7.2 10.4-13.7-3.9-4.8-14-5-18.9-.9C1.7 81.6 5.5 80.5 9 80c7.1-.9 15.9 2.3 16.1 9.6.1 4.3-2.8 6.9-5.6 9zm3.8 8.8c-.5-6-8.4-8.4-14.9-6.5l.2 15.2c7.2 2 15.3-1.5 14.7-8.7zM180.8 79.9c8.9 0 18.8 7.3 18.8 19 0 10.4-7.6 18.9-18.8 18.9-9.8 0-18.6-8.6-18.6-18.9-.1-10 8.6-19 18.6-19zm-14.1 18.9c0 10.3 4.8 17.7 14.1 17.7 11.8 0 14-8.5 14-17.7 0-9.8-6.2-17.6-14-17.6-8.4.1-14.1 8-14.1 17.6zM453.9 81.1c1 .1.9-1.5 2-.9.2.2.3 3.5.6 6.7 0 0-.6 0-1.5-2-2.6-5.6-14.6-4.3-12.2 4.3 1.8 6.8 14.1 7.7 16.4 16 2.9 10.8-10.6 16.1-18.9 9.9-1.3-.1-.3 2.1-1.4 2.2-.4-.1-.3-.2-.3-.2l-.5-8.6c.7 0 1.3 2 2 3.1 1.7 2.8 5.2 5.3 9.5 4.9 3.5-.3 7.1-3.3 6.7-7.9-.7-6.3-9.1-8.2-13.1-11.9-1.7-1.5-3.1-3.9-3.4-6.3-1.3-8.6 6.7-12.5 14.1-9.3zM95.3 79.9c.3 0 .3.8.3.8s0 .9-.3.9h-3.6v34h12c1.2 0 3.6-4 4.6-5.2.2-.3.6-.4.5-.3-.2.7-1.7 5.9-2.1 7.1-.1.3-.3.4-.3.4H83.7c-.3 0-.3-1-.3-1s0-1.1.3-1.1h3.8V81.6H84c-.3 0-.3-.9-.3-.9s0-.8.4-.8h11.2zM623.5 80.8s0 .8-.3.8h-3.3v17.6c0 11.7 3.3 17.1 10.2 17.1 6.6 0 10.4-5 10.4-11.9.1-5 0-22.8 0-22.8h-3.3c-.3 0-.3-.8-.3-.8s0-.9.3-.9h8.2c.4 0 .3.9.3.9s0 .7-.3.7h-3.3v22.8c-.4 7.3-4.5 13.5-12.1 13.5-8.3 0-14.4-5.8-14.4-13.5V81.5h-3.2c-.3 0-.3-.5-.3-.8 0 0-.1-.8.3-.9h10.7c.5.1.4 1 .4 1zM818.9 79.9c.2 0 .2.9.2.9s0 .8-.3.8h-3.3l-10.6 14.2v20.5h3.3c.2.1.2.8.2.8s.1.8-.2.8h-11.3c-.3 0-.3-.8-.3-.8s0-.8.3-.8h3.3V95.9l-10.4-14.2h-3.3c-.3 0-.2-.8-.2-.8s0-.9.2-.9h12.6c.2 0 .2.9.2.9s0 .8-.2.8h-3.4l8.7 12 9.1-12h-3.2c-.5 0-.4-.8-.4-.8s-.1-.9.3-.9l8.7-.1zM720.2 99.5c2.5 1.6 4.7 2.3 6.4 4.7 3.4 4.6 2.1 14 11.4 12-.9 1.2-2.2 1.6-3.4 1.7-10.4.9-8.8-13.9-16-17.1-1.5-.7-3.7-.7-5.5-.4v15.9h3.3c.5 0 .4.8.4.8s0 .8-.2.8h-10.7c-.3 0-.3-.8-.3-.8s0-.8.3-.8h3.3V84.5c1.1-.4 2.9-.4 4-.1v14c6.9 1 10.9-3.1 10.8-7.9-.1-5.9-5.4-10-11.6-9.8-2 0-4.7 1-5.9 1.1 8.6-4.6 22.6-.2 21.5 9.5-.6 4.3-4.2 6.4-7.8 8.2zM349.2 79.8l10.4 28.1 11.4-28 9 36.3h3.2c.3 0 .4.8.4.8s-.1.8-.4.8h-11c-.3 0-.3-.8-.3-.8s0-.8.3-.8h3.2s-4.2-17.5-6.3-26.3l-10.8 25.9-9.9-26-6.6 26.3h3.3c.3 0 .3.9.3.9s-.1.8-.4.8h-8.7c-.3 0-.3-.8-.3-.8s0-.8.4-.8h3.1s9.7-36.2 9.7-36.4zM541.9 98.5c4.2 1.7 9.1 4 8.1 10.9-1.3 8.5-14.1 9.6-23.7 7.7l.7-32.3c.9-.3 3.1-.3 4 0v13.5c9 2.6 15.6-7.2 10.4-13.7-3.9-4.8-14-5-18.9-.9 1.6-2.3 5.4-3.4 8.9-3.9 7.1-.9 15.9 2.3 16.1 9.6.1 4.4-2.8 7-5.6 9.1zm3.8 8.8c-.5-6-8.4-8.4-14.9-6.5l-.4 15.1c7.6 2.2 15.9-1.5 15.3-8.6zM272.4 79.9c8.9 0 18.8 7.3 18.8 19 0 10.4-7.6 18.9-18.8 18.9-9.8 0-18.6-8.6-18.6-18.9-.1-10.1 8.5-19 18.6-19zm-14.1 18.9c0 10.3 4.8 17.7 14.1 17.7 11.8 0 14-8.5 14-17.7 0-9.8-6.2-17.6-14-17.6-8.5.1-14.1 8-14.1 17.6z"/></g><path d="M971.6 20.6c4.8 2.1 9.6 5.2 13.1 9.2 2.6 3 4.5 6.6 5.9 10.8.5 1.4 1.1 2.8 1.4 4.2.3 2.1.4 4.6.5 6.6 0 5.2-1.9 11.9-4.2 15.5-.1.2-.3.5-.5.7l-.3.3c.4-.4 1-.6 1.8-.6.6 0 1 .2 1.4.4.2-.7 1.2-1.7 1.7-2.3 3.9-5.5 7.4-12.9 6.2-22.2-1.1-9.1-7.1-15.6-13.2-20-6.2-4.5-14.2-8.2-23.9-9.1-10-.9-20.1.3-27.8 4.2 3.3-.7 6.1-1.3 9.3-1.7 11-1.3 21.2.8 28.6 4zM1009 96c-.6-10.2-6.9-17.8-14.3-21.2-1.1-.5-2.4-.8-3.5-1.6v-.3c-.4.8-1.2 1.3-2.3 1.3h-.3c4.4.8 7.3 3.9 9.4 6.8 2.7 3.7 4.7 8.5 4.3 14.6-.3 4.5-1.6 8.5-3.5 11.8-6.1 10.5-19.7 19.2-35.1 14.8-5.8-1.7-8.7-4-13.1-7.1.2.9.6 1.3 1.1 1.9 5.2 4.8 12.6 9.4 22.5 9.4 5.2 0 9.8-.7 13.5-2 3.9-1.4 7-3.6 10.1-5.8.1-.1.3.3.1-.1 3-2.4 5.7-5.3 7.7-9 2.1-3.6 3.8-8.2 3.4-13.5z"/></svg>