<?xml version="1.0" encoding="UTF-8"?>
<svg id="Layer_1" data-name="Layer 1" xmlns="http://www.w3.org/2000/svg" version="1.1" viewBox="0 0 1002.5 224.27">
  <defs>
    <style>
      .cls-1 {
        fill: #054066;
        stroke-width: 0px;
      }
    </style>
  </defs>
  <g>
    <path class="cls-1" d="M533.58.97h36.41v6.83h-28.37v18.08h27.01v6.75h-27.01v19.29h29.01v7.07h-37.05V.97Z"/>
    <path class="cls-1" d="M583.65.97h16.8c7.8,0,16.96,0,23.39,7.56,5.14,6.03,7.15,13.98,7.15,21.94,0,12.54-5.22,20.25-9.64,23.79-5.71,4.74-12.86,4.74-21.38,4.74h-16.32V.97ZM591.69,52.4h7.88c5.55,0,11.33-.32,15.19-3.22,7.39-5.55,7.64-15.03,7.64-18.41,0-2.17-.16-12.05-5.63-18.08-3.7-4.1-8.36-5.06-15.43-5.06h-9.64v44.77Z"/>
    <path class="cls-1" d="M641.68.97h8.04v58.03h-8.04V.97Z"/>
    <path class="cls-1" d="M664.59.97h11.17l28.53,47.98V.97h7.39v58.03h-10.29l-29.5-49.27v49.27h-7.31V.97Z"/>
    <path class="cls-1" d="M727.13.97h20.74c7.07,0,11.01.72,14.63,4.26,2.49,2.41,4.1,5.79,4.1,10.37,0,9.56-6.99,12.06-9.8,13.1,3.38.97,11.57,3.38,11.57,14.47,0,7.88-5.06,11.89-6.99,13.18-4.02,2.65-8.52,2.65-13.1,2.65h-21.14V.97ZM734.93,25.48h11.25c2.73,0,12.05,0,12.05-9.16s-7.31-8.76-11.73-8.76h-11.57v17.92ZM734.93,52.48h13.74c6.35,0,11.41-3.38,11.41-10.05,0-5.79-4.02-10.05-11.09-10.05h-14.06v20.1Z"/>
    <path class="cls-1" d="M788.62.97v35.93c0,6.19,1.37,8.76,2.57,10.45,3.62,4.82,9.24,5.71,13.26,5.71,15.67,0,15.67-12.3,15.67-16.48V.97h7.8v35.76c0,3.14-.08,9.64-4.74,15.43-5.71,7.15-14.55,8.04-18.73,8.04-5.47,0-15.11-1.53-20.49-9.24-1.77-2.57-3.38-5.95-3.38-14.63V.97h8.04Z"/>
    <path class="cls-1" d="M842.55.97h20.74c2.97,0,9.08,0,13.34,2.73,4.34,2.73,6.43,7.15,6.43,11.81,0,4.1-1.53,7.72-4.1,10.29-2.49,2.49-5.06,3.3-6.83,3.78,5.55,1.45,8.04,3.94,8.84,11.17.8,6.83,1.37,11.81,3.62,18.24h-8.6c-1.29-3.86-2.09-10.93-2.65-15.35-.97-8.44-2.97-10.85-12.7-10.85h-10.13v26.2h-7.96V.97ZM850.35,25.96h12.7c.88,0,5.46,0,7.63-1.29,1.13-.64,3.94-2.73,3.94-7.56,0-9.4-8.36-9.4-11.57-9.4h-12.7v18.24Z"/>
    <path class="cls-1" d="M935.63,15.43c-.88-5.38-5.22-9.08-13.1-9.08-5.47,0-10.05,1.45-13.1,4.9-5.06,5.63-6.19,13.18-6.19,18.65,0,4.9,1.05,13.18,5.3,18.24,3.78,4.34,9.65,5.71,15.43,5.71,6.59,0,10.77-1.29,12.62-1.85v-17.2h-13.26v-6.67h21.3v28.61c-3.38,1.13-10.77,3.54-20.66,3.54-10.69,0-16.96-3.05-21.06-7.23-5.71-5.79-8.12-13.9-8.12-22.1,0-5.79,1.45-19.45,12.46-26.84C912.97.24,920.52,0,923.41,0c4.58,0,11.57.56,17.12,6.19,3.46,3.62,3.7,6.99,3.86,9.24h-8.76Z"/>
    <path class="cls-1" d="M966.9.97v24.92h27.57V.97h8.04v58.03h-8.04v-26.2h-27.57v26.2h-8.04V.97h8.04Z"/>
    <path class="cls-1" d="M535.1,82.92h20.74c7.07,0,11.01.72,14.63,4.26,2.49,2.41,4.1,5.79,4.1,10.37,0,9.56-6.99,12.06-9.8,13.1,3.38.97,11.57,3.38,11.57,14.47,0,7.88-5.06,11.89-6.99,13.18-4.02,2.65-8.52,2.65-13.1,2.65h-21.14v-58.03ZM542.9,107.44h11.25c2.73,0,12.05,0,12.05-9.16s-7.31-8.76-11.73-8.76h-11.57v17.92ZM542.9,134.44h13.74c6.35,0,11.41-3.38,11.41-10.05,0-5.79-4.02-10.05-11.09-10.05h-14.06v20.1Z"/>
    <path class="cls-1" d="M596.59,82.92v35.93c0,6.19,1.37,8.76,2.57,10.45,3.62,4.82,9.24,5.71,13.26,5.71,15.67,0,15.67-12.3,15.67-16.48v-35.6h7.8v35.76c0,3.14-.08,9.64-4.74,15.43-5.71,7.15-14.55,8.04-18.73,8.04-5.47,0-15.11-1.53-20.49-9.24-1.77-2.57-3.38-5.95-3.38-14.63v-35.36h8.04Z"/>
    <path class="cls-1" d="M656.48,123.99c.16,4.02.64,11.49,13.98,11.49,12.06,0,13.58-7.47,13.58-10.37,0-6.51-5.22-7.8-13.34-9.81-8.84-2.17-12.78-3.14-15.75-5.14-4.74-3.22-6.03-7.56-6.03-11.41,0-11.81,11.17-16.96,22.1-16.96,3.86,0,11.65.64,16.31,5.71,3.22,3.54,3.38,7.47,3.54,9.88h-8.36c-.4-7.23-6.51-8.84-12.22-8.84-8.04,0-12.86,3.62-12.86,9.4,0,5.14,3.38,6.91,10.45,8.6,13.82,3.54,15.35,3.86,18.73,6.11,5.39,3.54,5.79,9.16,5.79,11.57,0,10.29-8.04,18.08-22.91,18.08-4.42,0-13.42-.72-18-6.59-3.3-4.26-3.38-8.92-3.38-11.73h8.36Z"/>
    <path class="cls-1" d="M704.3,82.92h8.04v58.03h-8.04v-58.03Z"/>
    <path class="cls-1" d="M727.21,82.92h11.17l28.53,47.98v-47.98h7.39v58.03h-10.29l-29.5-49.27v49.27h-7.31v-58.03Z"/>
    <path class="cls-1" d="M788.22,82.92h36.41v6.83h-28.37v18.08h27v6.75h-27v19.29h29.01v7.07h-37.05v-58.03Z"/>
    <path class="cls-1" d="M844.08,123.99c.16,4.02.64,11.49,13.98,11.49,12.06,0,13.58-7.47,13.58-10.37,0-6.51-5.22-7.8-13.34-9.81-8.84-2.17-12.78-3.14-15.75-5.14-4.74-3.22-6.03-7.56-6.03-11.41,0-11.81,11.17-16.96,22.1-16.96,3.86,0,11.65.64,16.31,5.71,3.22,3.54,3.38,7.47,3.54,9.88h-8.36c-.4-7.23-6.51-8.84-12.22-8.84-8.04,0-12.86,3.62-12.86,9.4,0,5.14,3.38,6.91,10.45,8.6,13.82,3.54,15.35,3.86,18.73,6.11,5.39,3.54,5.79,9.16,5.79,11.57,0,10.29-8.04,18.08-22.91,18.08-4.42,0-13.42-.72-18-6.59-3.3-4.26-3.38-8.92-3.38-11.73h8.36Z"/>
    <path class="cls-1" d="M897.69,123.99c.16,4.02.64,11.49,13.98,11.49,12.06,0,13.58-7.47,13.58-10.37,0-6.51-5.22-7.8-13.34-9.81-8.84-2.17-12.78-3.14-15.75-5.14-4.74-3.22-6.03-7.56-6.03-11.41,0-11.81,11.17-16.96,22.1-16.96,3.86,0,11.65.64,16.31,5.71,3.22,3.54,3.38,7.47,3.54,9.88h-8.36c-.4-7.23-6.51-8.84-12.22-8.84-8.04,0-12.86,3.62-12.86,9.4,0,5.14,3.38,6.91,10.45,8.6,13.82,3.54,15.35,3.86,18.73,6.11,5.39,3.54,5.79,9.16,5.79,11.57,0,10.29-8.04,18.08-22.91,18.08-4.42,0-13.42-.72-18-6.59-3.3-4.26-3.38-8.92-3.38-11.73h8.36Z"/>
    <path class="cls-1" d="M540.33,205.95c.16,4.02.64,11.49,13.98,11.49,12.06,0,13.58-7.47,13.58-10.37,0-6.51-5.22-7.79-13.34-9.8-8.84-2.17-12.78-3.13-15.75-5.14-4.74-3.22-6.03-7.55-6.03-11.41,0-11.81,11.17-16.96,22.1-16.96,3.86,0,11.65.64,16.31,5.71,3.22,3.54,3.38,7.47,3.54,9.88h-8.36c-.4-7.23-6.51-8.84-12.22-8.84-8.04,0-12.86,3.62-12.86,9.4,0,5.14,3.38,6.91,10.45,8.6,13.82,3.54,15.35,3.86,18.73,6.11,5.39,3.54,5.79,9.16,5.79,11.57,0,10.29-8.04,18.08-22.91,18.08-4.42,0-13.42-.72-18-6.59-3.3-4.26-3.38-8.92-3.38-11.73h8.36Z"/>
    <path class="cls-1" d="M623.11,180.55c-.32-2.01-1.37-10.05-12.54-10.05-13.98,0-16.48,14.31-16.48,23.95,0,10.93,3.14,22.75,16.4,22.75,3.54,0,6.91-.88,9.4-3.46,2.09-2.25,2.57-4.74,2.81-6.11h8.84c-1.21,11.41-11.73,16.15-21.7,16.15-20.41,0-24.35-18-24.35-29.26,0-12.21,4.74-30.46,25.4-30.46,8.2,0,19.77,3.29,20.82,16.47h-8.6Z"/>
    <path class="cls-1" d="M649.8,164.88v24.92h27.57v-24.92h8.04v58.03h-8.04v-26.2h-27.57v26.2h-8.04v-58.03h8.04Z"/>
    <path class="cls-1" d="M704.94,171.15c6.03-6.51,13.98-7.79,19.37-7.79,16.07,0,26.2,10.29,26.2,29.98,0,15.43-6.19,30.94-26.84,30.94s-26.2-14.07-26.2-29.98c0-6.59,1.13-16.31,7.47-23.15ZM711.05,212.14c3.3,4.1,8.28,5.3,12.86,5.3s9.48-1.28,12.86-5.3c4.74-5.79,5.22-14.95,5.22-18.89,0-13.18-4.34-23.15-17.6-23.15-14.71,0-18.49,11.81-18.49,23.71,0,6.35,1.13,13.34,5.14,18.32Z"/>
    <path class="cls-1" d="M767.48,171.15c6.03-6.51,13.98-7.79,19.37-7.79,16.07,0,26.2,10.29,26.2,29.98,0,15.43-6.19,30.94-26.84,30.94s-26.2-14.07-26.2-29.98c0-6.59,1.13-16.31,7.47-23.15ZM773.59,212.14c3.3,4.1,8.28,5.3,12.86,5.3s9.48-1.28,12.86-5.3c4.74-5.79,5.22-14.95,5.22-18.89,0-13.18-4.34-23.15-17.6-23.15-14.71,0-18.49,11.81-18.49,23.71,0,6.35,1.13,13.34,5.14,18.32Z"/>
    <path class="cls-1" d="M825.27,164.88h7.96v50.87h27v7.15h-34.96v-58.03Z"/>
  </g>
  <g>
    <g>
      <path class="cls-1" d="M92.85,110.11l.24-.07c.49-.14,1.69-.43,2.94-.43.7,0,1.4.09,2,.31,1.87.69,3.53,1.06,4.73,1.07.51-.02.95-.01,1.49-.41.43-.35.5-.99.15-1.42-.32-.39-.87-.44-1.29-.18v-.03s-.01,0-.01,0l-.33.03c-.76,0-2.33-.3-4.02-.94-.91-.34-1.84-.44-2.7-.44-2.05,0-3.77.59-3.82.61-.53.18-.82.75-.64,1.28.18.53.75.81,1.28.63h0Z"/>
      <path class="cls-1" d="M92.67,121.18l.28-.1c.59-.2,2.01-.6,3.51-.6.55,0,1.1.05,1.62.17,1.83.43,3.42.72,4.57.72.55-.02,1,0,1.58-.41.44-.35.5-.99.15-1.42-.32-.4-.87-.44-1.29-.19v-.03s-.11.02-.11.02l-.33.02c-.81,0-2.36-.25-4.11-.66-.71-.17-1.41-.23-2.09-.23-2.45,0-4.47.82-4.54.83-.52.21-.77.79-.57,1.31.2.52.79.78,1.31.57h0Z"/>
      <path class="cls-1" d="M83.59,113.26c-.77,0-1.59.09-2.4.33-1.73.53-3.29.81-4.07.81l-.35-.03h-.02s-.02.03-.02.03c-.42-.25-.97-.21-1.29.19-.35.43-.28,1.07.15,1.42h0c.56.41,1.01.39,1.53.41,1.17,0,2.8-.34,4.65-.89.57-.17,1.2-.24,1.82-.24.91,0,1.8.15,2.45.3l.77.21.27.09c.52.19,1.1-.08,1.29-.61.19-.52-.08-1.1-.61-1.29-.06-.02-1.93-.71-4.17-.72h0Z"/>
      <path class="cls-1" d="M83.37,118.64c-.67,0-1.38.06-2.09.23-1.75.41-3.3.67-4.11.66l-.39-.03h-.03s-.02.02-.02.02c-.42-.25-.97-.21-1.29.19-.35.44-.29,1.07.15,1.42h0c.58.42,1.03.39,1.58.42,1.15,0,2.74-.29,4.57-.72.53-.12,1.08-.17,1.63-.17.99,0,1.96.17,2.67.35l.84.24.28.1c.52.21,1.11-.05,1.31-.57.21-.52-.05-1.1-.57-1.31-.06-.02-2.08-.83-4.53-.84h0Z"/>
      <path class="cls-1" d="M92.76,115.69l.26-.08c.54-.17,1.86-.51,3.22-.51.62,0,1.25.07,1.82.24,1.85.56,3.48.89,4.65.89.53-.02.97,0,1.54-.42.43-.35.5-.99.15-1.42-.32-.4-.87-.44-1.29-.18l-.02-.03h0l-.37.03c-.79,0-2.35-.28-4.07-.8-.81-.25-1.63-.33-2.4-.33-2.24,0-4.11.7-4.17.72-.52.19-.8.77-.6,1.29.19.52.77.8,1.29.6h0ZM102.98,114.25h0Z"/>
      <path class="cls-1" d="M77.08,111.17c1.19,0,2.85-.38,4.72-1.07.6-.22,1.3-.31,2-.31.83,0,1.64.13,2.24.25l.7.17.24.08c.53.17,1.1-.11,1.28-.64.18-.53-.11-1.1-.63-1.28-.06-.02-1.77-.6-3.82-.61-.87,0-1.8.1-2.7.44-1.69.63-3.26.95-4.02.94l-.32-.02h-.02s-.01.03-.01.03c-.42-.25-.97-.21-1.29.18-.35.43-.29,1.07.14,1.42.55.4.99.39,1.5.41h0Z"/>
      <path class="cls-1" d="M60.6,95.28H.03v39.73C0,171.48,14.98,193.89,29.97,206.94c14.99,13.07,29.89,16.94,30.07,16.99l.48.13.48-.13c.17-.05,15.12-3.92,30.14-16.99,15.03-13.05,30.05-35.46,30.03-71.93v-39.73h-60.57ZM88.63,204.05c-7.17,6.24-14.36,10.3-19.74,12.79-2.69,1.24-4.92,2.09-6.48,2.63-.06.02-.11.04-.17.06v-14.98l11.59,7.34,1.15-.05.36-1.09-3.43-11.65,10.46-7.63.37-1.13c-.14-.42-.53-.7-.96-.7h-12.94l-4.99-14.97h46.04c-5.51,13.01-13.37,22.51-21.25,29.39h0ZM5.71,155.76h10.63s-.01.04-.01.05c0,.48.15.93.4,1.34-1.53,1.06-2.54,2.66-2.58,4.32-.02.99.48,2.05,1.47,2.62.65.38,1.32.58,1.96.57,1.11,0,2-.53,2.67-1.1.11-.09.15-.18.25-.27.02.08.03.14.05.22.15.47.36.95.69,1.4.32.44.82.86,1.47,1.03l.87.11c.43,0,.82-.09,1.18-.23-.54.71-.93,1.58-.96,2.6v.05c0,.44.05,1.22.52,2.02.13.22.38.38.59.56h-15.06c-1.72-4.66-3.12-9.75-4.15-15.28h0ZM49.51,207.66c.02-1.53.36-3.38,1.6-5.15,1.24-1.78,1.8-2.37,2.26-2.96.49-.6.83-1.2,1.38-2.53.19-.45.02-.97-.39-1.24l-1.29.17-.44.44c-.84.84-2.92,2.5-4.45,2.63l-1.08.05h-1.06c-1.18-.04-2.56.2-4.14,1.04.34-.55.7-.99,1.1-1.33.95-.83,2.34-1.39,4.35-2.43,1.74-.93,3.17-1.36,4.67-3.07,1.39-1.61,1.8-3,2.85-4.49.38-.6.53-1.27.73-2.23.54-2.8.89-7.62.89-11.34,0-1.88-.08-3.41-.31-4.43-.44-1.76-.34-3.89-1.83-6.52-.95-1.67-2.51-3.49-5.16-5.63.87.15,1.73.26,2.57.28.12,0,.26.04.38.04.62,0,1.18-.05,1.71-.13.03,0,.06,0,.08,0,.19-.03.34-.09.51-.13.35-.07.71-.13,1.02-.25l.07-.08s.03,0,.04-.02l.46-.48s0-.04.01-.06l.02-.02c.16-.52.34-1.21.46-2.09.04-.22.06-.47.08-.72.06-.54.09-1.14.1-1.82.01,0,.02,0,.03,0l.09-.03.85-.19s.06-.07.1-.09l.1-.03c.17-.12.3-.28.44-.44.07-.07.15-.13.21-.21.15-.19.29-.44.42-.7v49.62s-.03,0-.05,0c-1.32,0-3.14.17-4.75,1.11-1.08.64-2.07,1.47-3.02,2.77-.53.72-1.06,1.6-1.63,2.67h0ZM27,173.16l.74-.76c.27-.33.51-.85.5-1.43,0-.54-.44-.99-.98-1.01-.84-.05-1.02-.28-1.2-.54l-.23-.97v-.02c-.04-.9.95-2.05,1.78-2.42h0c.8-.39,2.07-.98,3-1.45.38-.19.61-.62.54-1.05-.06-.43-.4-.77-.82-.85-.72-.12-1.35-.41-1.75-.74l-.54-.92.13-.49.28-.38s.04-.05.07-.07c.02-.02.06-.03.09-.04.16-.08.38-.15.75-.16,0,0,.01,0,.02,0h.11s.49.06.49.06c.36.05.82.12,1.39.2.15.02.32.04.49.06.5.06,1.03.11,1.58.11.38,0,.77-.11,1.16-.17.36-.05.74-.04,1.1-.15h0s0,0,0,0l.04-.05.63-.71-.02-.05.04-.05-.17-.33-.19-.54-.13-.1h0c-.13-.09-.21-.17-.32-.24-.16-.11-.3-.25-.42-.38-.03-.04-.08-.08-.1-.11-.12-.17-.16-.31-.18-.44,0-.04-.02-.08-.02-.11,0-.04.04-.11.05-.16.02-.14.06-.28.17-.45.09-.15.26-.29.43-.44.08-.07.12-.13.21-.2.21-.15.49-.27.78-.38.11-.04.19-.1.3-.13.4-.12.84-.19,1.29-.19.01,0,.02,0,.03,0h.04c.33,0,.68.09,1.02.17.27.06.51.09.8.18.15.05.29.11.44.16.46.17.93.38,1.42.63.07.04.15.08.22.11.22.12.44.26.66.39,2,1.27,3.62,2.41,4.94,3.46.12.1.23.19.34.28-.76.17-1.53.44-2.23.9-1.97,1.38-2.39,3.55-2.85,5.08-.22.78-.46,1.42-.73,1.76-.28.34-.47.48-1.1.53h-.14s-.82-.18-.82-.18c-.28-.14-.65-.44-1.18-.98l-1.27-.15c-.68.42-1.05,1.1-1.21,1.68-.25.88-.25,1.68-.42,2.26-.19.57-.34.89-1.1,1.25l-.37.07c-.41,0-1.02-.23-1.56-1.34l-.97-.58c-.6.02-1.21.31-1.56.76-.52.68-.54,1.35-.61,1.91-.04.57-.08,1.08-.18,1.34h0s-.02.04-.02.04c-.15.32-1.29.98-1.78.92-.63,0-1.04-.13-1.2-.27-.15-.14-.28-.28-.3-.86.03-.72.2-.85.61-1.27h0ZM21.31,160.19l-1.02.34c-.41.5-.87,1.07-1.35,1.48-.49.42-.94.63-1.37.63l-.93-.29c-.36-.23-.46-.44-.48-.88-.05-.93,1.04-2.59,2.54-3.15l.63-.82-.42-.94c-.5-.36-.56-.63-.56-.74l.3-.44c.26-.19.74-.36,1.42-.36l.42.02c.24.06,1.82.4,3.44.4.55-.02,1.1-.05,1.64-.19h.02c.06-.01.1-.04.15-.06.18-.05.34-.11.47-.18.25-.13.44-.26.49-.3l.02-.03s.06-.04.09-.06l.21-.5.11-.19v-.03s0-.02,0-.02l-.32-.73-.32-.57.13-.23c.04-.06.13-.13.23-.22l.58-.19c.1,0,.2-.02.32-.02.89.02,1.79.15,2.61.38.02,0,.04.02.07.02.85.24,1.62.56,2.22.89h.02s1.11-.1,1.11-.1h0l.02-.09.3-.98s-.01-.04-.01-.04c-.1-.31-.16-.59-.23-.87-.05-.19-.09-.37-.13-.54-.07-.35-.11-.68-.11-.91l.06-.4.02-.04h0s.05,0,.05,0l.31.04c.9.2,1.87.55,2.66,1.02.28.17.52.36.74.55.14.12.32.24.43.37.25.3.41.6.49.9.01.04.04.08.06.11v.16s-.02.01-.02.02l.08.49-.38-.02s-.02,0-.02,0c0,0,0,0-.02,0-.67,0-1.31.11-1.9.28-.19.06-.33.16-.51.23-.36.14-.74.27-1.05.47-.03.02-.05.06-.08.08-.02.02-.05.02-.07.04-.16.11-.26.29-.41.42-.26.23-.53.46-.71.74-.16.24-.2.53-.29.8-.09.25-.25.47-.27.75v.22c0,.06.03.1.03.16.02.31.1.61.23.91.04.09.05.19.09.27-.54-.02-1.09-.06-1.61-.13-.35-.05-.7-.1-.99-.15l-.3-.03c-.12-.02-.28-.05-.39-.06l-.4-.02h-.09s-.01,0-.02,0h-.01c-.38,0-.72.04-1.04.13-.07.02-.13.06-.2.08-.24.08-.47.17-.68.3-.03.02-.07.03-.09.05-.06.04-.09.1-.15.14-.18.14-.34.29-.48.47-.05.05-.09.11-.13.16-.04.06-.1.12-.14.19-.05.09-.05.16-.1.25-.04.1-.11.19-.15.29l-.05.25c-.11.43-.17.8-.17.95v.03s-.24,1.03-.73,1.71c-.5.74-1.12,1.19-1.68,1.18l-.36-.05-.36-.28c-.21-.28-.42-.82-.54-1.35-.13-.54-.19-1.03-.26-1.39l-.76-.77h0ZM17.4,147.9l.29-.65c.18-.18.63-.46,1.6-.69.47-.11.79-.55.77-1.02-.02-.48-.38-.88-.85-.96-1.27-.19-2.69-.6-3.71-1.2-1.04-.62-1.59-1.31-1.64-2.15v-.26c.03-.87.19-1.26.81-1.6.13-.1.8-.19,1.97-.29.43-.04.78-.35.89-.77l-.44-1.09c-.63-.4-1.15-.72-1.44-1.06-.29-.34-.45-.63-.46-1.32l.04-.57c.15-.96.8-1.32,1.52-1.35l.26.02c.7.13.99.35,1.19.61.19.26.31.68.31,1.29,0,.36-.04.78-.12,1.23s.15.89.56,1.09l1.2-.25,1.07-.42.3.04.31.11.38.36c.14.34.28.77.4,1.16l.17,1.11c0,.59-.14,1.1-.64,1.65l-.05,1.34c.32.4.89.49,1.32.21l.18-.17h.02s.02-.04.04-.06l.19-.18c.29-.38.63-.94,1.05-1.4.4-.47.81-.68.93-.67h.06c.28,0,.48.05.66.11.02,0,.06,0,.09.02.05.02.08.06.13.09l.41.36c.23.27.42.64.52,1.12v.32c-.09,0-.17.04-.33.06-.14.02-.26.03-.43.06l-.25.14c-.09.03-.14.02-.24.07-.06.03-.08.1-.13.13l-.36.2c-.07.07-.05.18-.1.26-.27.36-.46.78-.44,1.19,0,.2.11.38.15.57.06.24.09.48.19.7.05.12.11.24.18.36.41.76,1.01,1.41,1.67,1.94.12.09.25.15.38.24.36.26.72.49,1.1.7.15.09.3.19.47.28.17.09.3.19.47.28.42.19.78.32,1.12.43.02,0,.04.02.06.03h.01s.08.03.11.04c.08.03.18.06.29.1l.02.31c.02.15.06.32.09.49-.34-.12-.7-.24-1.06-.33-.12-.03-.25-.02-.37-.05-.82-.17-1.67-.32-2.43-.32-.02,0-.04,0-.06,0-.07,0-.13-.02-.19-.02-.15,0-.29.06-.44.08-.16.02-.32.04-.47.08-.19.04-.37.12-.55.21-.09.04-.19.04-.28.1-.04.03-.06.08-.1.1-.39.28-.72.59-.93.94h0c-.21.35-.3.72-.32,1.08,0,.04-.04.08-.04.13,0,.02,0,.04.01.06-.87-.47-1.76-.91-2.73-1.14-.89-.21-2.09-.77-2.98-1.46-.91-.69-1.41-1.5-1.38-1.97l.02-.17h0ZM25.31,115.86l-.03-.4c0-.44.13-.78.32-.99l.76-.32c.08.02.54.22.93.45.47.26.85.5,1.09.63l1.19-.21.13-1.2c-.59-1.02-.93-1.84-.93-2.7s.23-1.66.57-2.13c.35-.47.71-.68,1.31-.7.47.01.71.15.93.41.22.27.4.75.4,1.45l-.07.81.48,1.03,1.13-.06c.63-.47,1.05-.79,1.31-.95l.36-.17h.14s.21.08.21.08c-.16.44-.28.93-.28,1.49,0,.04,0,.07,0,.11,0,.02-.01.04-.01.06,0,.05.03.11.03.15,0,.18.02.34.04.51-.1-.01-.2-.05-.3-.05h-.02c-.27,0-.57.04-.86.16-.11.04-.2.13-.3.19-.16.09-.34.16-.47.3,0,0,0,.02-.02.03s-.03.01-.04.02c-.2.22-.33.47-.45.74-.01.04-.05.07-.06.1-.02.06-.03.13-.05.19-.06.19-.11.39-.15.51l-.04.27s-.02.08-.03.12h0s0,0,0,0v.16s-.04.25-.04.25c.03,1.02.46,1.88.99,2.64.34.49.72.95,1.09,1.33l.05.05c-.06,0-.11.03-.17.04-.14.02-.28.02-.44.06-.07.02-.15.06-.23.08-.24.08-.48.18-.72.32-.03.02-.06.02-.08.04-.03.02-.05.06-.08.08-.14.1-.28.17-.41.3-.11.11-.18.27-.27.41-.05.07-.1.13-.14.21-.03.06-.08.1-.11.16-.15-.02-.29-.11-.46-.11,0,0-.02,0-.03,0,0,0,0,0-.01,0-.44,0-.81.1-1.15.22-.02-.26-.07-.53-.12-.81-.01-.08-.03-.15-.04-.22-.03-.15-.04-.3-.08-.46-.14-.48-.3-.99-.49-1.5-.04-.1-.04-.19-.08-.28h0,0s0-.02,0-.02h0c-.05-.12-.13-.21-.19-.32-.05-.1-.08-.19-.13-.29-.02-.04-.08-.06-.1-.09-.23-.34-.55-.65-.94-.88-.03-.02-.05-.04-.08-.06,0,0,0,0,0,0-.55-.28-1.09-.37-1.58-.39-.02,0-.03-.01-.05-.01h0-.09s-.04,0-.06,0c-.19,0-.33.04-.5.06-.24-.28-.39-.5-.46-.86h0ZM39.48,113.5l.1,1.15,1.12.31c.6-.23,1.4-.58,1.76-.56h.09s0,0,0,0c.47.09.86.44,1.2,1.09.15.3.23.6.32.9.15.55.25,1.15.25,1.75,0,.33-.04.63-.09.93-.01.01-.02.02-.04.03-.13.1-.25.2-.36.31-.16.16-.3.32-.43.5-.07.09-.12.19-.18.29-.1.17-.19.34-.26.53-.09.27-.15.54-.16.83,0,.03-.02.06-.02.09h0s0,.04,0,.06c0,.6.24,1.16.57,1.7h0s-.05.04-.08.05c-.04.02-.08.05-.12.07-.26.1-.5.25-.71.44-.03.03-.07.03-.1.06-.06.06-.07.15-.12.21-.09.11-.22.21-.29.34-.06.11-.09.23-.13.35-.02.04-.03.07-.04.11-.13.38-.21.76-.21,1.12,0,.15.06.27.07.41l.02.27c.02.15.07.27.1.41.07.38.15.76.26,1.11.08.21.15.4.23.57.06.15.13.36.19.48.03.06.07.11.1.17.21.43.45.82.7,1.19.06.08.1.17.16.25.36.48.72.91,1.09,1.27-.04.01-.08.02-.11.04-.25-.1-.53-.15-.82-.17-.05,0-.11-.05-.16-.05-.01,0-.02,0-.03,0h-.19c-.17.02-.27.09-.41.13-.03-.45-.09-.92-.29-1.4-.17-.42-.51-.79-.93-1.11-.06-.04-.08-.12-.14-.16-.08-.06-.17-.06-.25-.1-.07-.04-.12-.1-.19-.13h0c-.1-.04-.19-.03-.28-.06-.45-.15-.89-.24-1.31-.26-.05,0-.11-.03-.16-.03-.02,0-.04.01-.06.02-.02,0-.04,0-.06,0h-.14c-.28.01-.56.11-.84.2-.07-.14-.11-.3-.25-.4-.01,0-.09-.05-.11-.07h0c-.67-.36-1.96-1.62-2.56-2.27v-.19s0-.27,0-.27v-.03s0-.04,0-.05l-.05-.78-.12-.59-.09-.44s-.03-.04-.04-.07c-.01-.03-.01-.06-.02-.1-.07-.17-.21-.34-.32-.51-.09-.16-.16-.32-.28-.47-.09-.11-.23-.18-.34-.28l.03-.09c.05-.06.1-.12.16-.17.02-.02.05-.03.08-.05.17-.09.44-.18.84-.23h.06s.54-.06.54-.06c.42-.03.87-.07,1.37-.13l.2-.02h0s.04,0,.06,0l.57-.53.25-.21h0s0-.02,0-.02l-.4-1.05-.5-.39c-.47-.38-1.18-1-1.73-1.69-.07-.08-.1-.16-.17-.25-.43-.6-.73-1.21-.72-1.65v-.15s0,0,0,0c.02-.17.05-.26.08-.37.02-.07.05-.19.06-.23.03-.06.04-.09.06-.11.02-.02.02-.05.05-.07l.22-.07c.25,0,.72.17,1.15.35.03.01.05.02.07.03h0s.03.01.05.02l.67-.13.4-.06v-.02s.02,0,.02,0l.25-1.08s0-.02,0-.02c-.25-.66-.33-1.21-.34-1.67,0-.03,0-.06,0-.09,0-.43.1-.78.23-1.08.04-.08.07-.16.11-.23.15-.28.32-.52.54-.72.47-.45,1.14-.64,1.29-.63h.01s.63.28.63.28c.16.17.3.35.31.84,0,.5-.2,1.35-.9,2.54h0ZM46.93,115.13l.72.05c.47.09.95-.17,1.13-.63.17-.45,0-.97-.41-1.23-.52-.28-1.02-1.34-1-2.14l.04-.38c.09-.5.27-.97.49-1.22.23-.26.39-.37.84-.39l.24.08.47.72s0,0,0,0h0l.02.03c.33.44.95.53,1.4.21.45-.32.55-.94.23-1.39l-.13-.67.07-.69h0c.12-.72.35-1.19.6-1.44.25-.25.52-.38,1.05-.4l.4.03c1.45.21,2.26,1.4,2.29,2.87l-.11.61-.34.25c-.42.21-.63.68-.53,1.14.11.46.51.78.98.78h.83l.74.55.44,1.13-.54.83c-.36.28-.92.49-1.57.53-.13,0-.24.02-.42.02h-.11c-.55,0-1,.42-1.02.97-.02.55.39,1.01.93,1.05h.06s.01,0,.01,0l.35.02c.06,0,.12-.03.18-.03.46-.02.8-.05.95-.05l.59.11c.5.16.77.42,1,.81.23.4.35.95.38,1.52l.02.99c0,.78-.07,1.65-.31,2.29-.25.64-.53.99-1.1,1.17-.46.14-.75.57-.71,1.05.04.47.4.85.87.92.75.12.92.27,1.1.52.19.27.35.9.42,1.92.04.65.08,1.43.08,2.18,0,.3,0,.61-.02.9-.06-.14-.15-.25-.24-.38-.07-.11-.09-.24-.18-.35-.02-.02-.05-.02-.07-.04-.29-.31-.62-.55-.96-.7-.05-.02-.1-.03-.15-.05-.11-.04-.21-.06-.32-.1-.49-.15-.97-.22-1.39-.23l-.6.05s.02-.03.02-.05c.05-.11.09-.22.14-.34.14-.39.25-.84.34-1.3.02-.13.08-.24.09-.37h0s0-.02,0-.03c0,0,0-.02,0-.02h0c.05-.26.06-.53.08-.8,0-.11.04-.2.04-.31v-.1s0-.03,0-.05c0-.07-.02-.14-.02-.21l-.04-.59c0-.06-.02-.11-.04-.17-.04-.28-.1-.55-.17-.81-.04-.17-.1-.32-.16-.49-.05-.13-.07-.27-.13-.4-.06-.13-.15-.25-.23-.37-.01-.02-.02-.04-.03-.06,0,0-.02-.01-.02-.02-.18-.27-.44-.51-.72-.7-.07-.04-.15-.08-.23-.12-.3-.16-.63-.28-.99-.28-.01,0-.02,0-.03,0h0s-.02,0-.03,0c-.34.01-.6.12-.86.23-.02-.16-.05-.32-.08-.48,0-.02-.02-.05-.02-.07-.13-.54-.4-1.08-.86-1.56-.05-.05-.11-.1-.16-.15-.11-.1-.19-.21-.32-.29-.04-.03-.08-.03-.12-.06-.04-.02-.08-.06-.11-.09-.19-.12-.4-.16-.59-.25-.76-.35-1.52-.56-2.16-.56-.33,0-.62.04-.89.09,0-.02,0-.02,0-.04,0-.61-.11-1.36-.32-2.14-.07-.26-.15-.5-.25-.75.26-.04.71-.08,1.15-.08h0ZM72.65,208.74l-10.4-6.58v-25.89l4.91,14.7c.13.41.52.69.96.69h10.57l-8.53,6.23-.38,1.1,2.88,9.76h0ZM57.5,149.86c-.08.19-.16.38-.24.54,0,.01-.01.02-.02.03l-.31.51-.17.21h-.02l-.09-.02c-.08-1.56-.47-2.95-1.13-4h0s0,0,0-.01c-.71-1.18-1.76-1.99-3.01-2.01-.01,0-.02,0-.03,0h0c-.63,0-1.21.24-1.7.64,0-.42.06-.89.13-1.39.09-.59.17-1.15.17-1.62,0-.02,0-.04,0-.07,0-.02,0-.04,0-.06,0-.33-.05-.69-.15-1.04-.02-.09-.07-.17-.11-.25-.07-.18-.11-.37-.23-.55-.04-.05-.09-.08-.13-.13-.04-.05-.04-.11-.09-.16-.1-.11-.23-.16-.34-.25-.12-.09-.24-.2-.37-.27-.25-.14-.51-.25-.8-.32-.05-.01-.08-.04-.13-.05h-.04s-.06-.03-.08-.04l-.52-.06c-.34,0-.65.15-.97.28,0,0,0-.01,0-.02.01-.23.04-.44.04-.69,0-.44-.02-.92-.08-1.49,0-.04-.02-.11-.02-.15-.02-.16-.06-.39-.09-.61-.04-.28-.11-.57-.17-.87-.05-.2-.06-.4-.12-.61-.07-.24-.16-.44-.25-.64-.02-.04-.02-.09-.04-.13,0-.02-.02-.03-.03-.05-.08-.17-.15-.33-.23-.47l.32.02.46.04c.48.09.96-.19,1.13-.64.17-.45-.02-.94-.42-1.2,0,0,0,0,0,0h0s0-.02-.01-.02l-.06-.04c-.36-.25-.73-.53-1.09-.84-.3-.26-.6-.55-.89-.87-.09-.1-.16-.19-.25-.3-.28-.34-.54-.72-.78-1.14-.1-.17-.2-.32-.29-.49-.29-.59-.51-1.23-.6-1.93,0-.03-.02-.07-.02-.1l-.02-.4c0-.16.02-.27.03-.35v-.06c.04-.08.06-.13.08-.17l.16-.12.39-.1c.22,0,.53.06.86.15.08.02.15.04.25.07.36.11.77.27,1.19.48h0s0,0,.02,0h0s.03.02.05.03c.49.22,1.07.01,1.31-.47.24-.49.06-1.08-.42-1.33-.02-.01-.05-.02-.06-.03,0,0,0,0,0,0,0,0-.01,0-.02,0h0c-1.02-.48-1.69-.97-2.1-1.41-.41-.45-.56-.85-.55-1.12,0-.33.23-.74.86-1.18.16-.1.35-.19.57-.28.21-.07.49-.11.78-.13h.07c.46-.01.98.11,1.42.3.14.06.28.11.44.21.19.14.34.28.46.47.01.02.03.04.04.06.13.23.21.53.22.95v.04c0,.32-.06.71-.19,1.19-.02.07.02.13,0,.2-.01.15-.03.31.02.46.02.04.06.05.08.09.08.15.17.31.33.41h.02s0,0,.01,0l.9-.14.32-.04h0c.29-.32.53-.49.74-.63.13-.08.21-.15.3-.19.13-.06.25-.11.3-.11l.42.39c.05.09.09.18.14.3.02.06.04.12.06.18.06.19.11.42.14.67.02.14.04.28.04.43l.02.26-.04.4c-.02.27-.07.52-.11.77-.07.39-.16.78-.29,1.13-.02.04-.03.07-.04.11-.15.39-.33.76-.5,1.06l-.48.76-.15.19-.04.05v.66s-.02.62-.02.62c0,0,.01,0,.02,0h0s.02.01.02.01c.31.36.82.46,1.24.23l.04-.02c.36-.21.74-.36,1.12-.47l.11-.04c.4-.11.79-.16,1.13-.16,0,0,0,0,.02,0l.87.15s.03.02.05.03l.41.44c.05.1.09.16.14.3l.38,1.69c.03.25.06.4.07.5l.03.51c0,.45-.06.95-.46,1.9-.36.89-.74,1.6-.8,2.67-.02.52.36.96.87,1.03v.02s1.15.22,2.02,2.92v2c-.21.95-.47,1.96-.79,2.98-.25.75-.47,1.35-.66,1.81h0ZM36.61,130.46h0s0,0,0,0h0ZM36.22,128.64c.3.15.57.33.8.55-.24-.22-.51-.41-.8-.55h0ZM37.22,142.71c-.21-.11-.42-.21-.63-.33.2.12.41.22.63.33h0ZM36.72,148.03c-.25-.11-.48-.21-.73-.3.25.09.48.19.73.3h0ZM45.7,157.48c-.47-.25-.85-.53-1.18-.81.32.28.7.55,1.18.81h0ZM49.43,156.64c-.64-.12-1.26-.3-1.82-.51-.67-.25-1.18-.52-1.52-.77-.02-.02-.04-.03-.06-.04-.15-.11-.26-.22-.36-.32l-.47-.93-.27-.47-.11-.28h-.05s-.02-.05-.02-.05l-.76-.1-.15-.02c-.38.13-.9.21-1.4.23-.05,0-.09.01-.14.01-.45,0-.89-.07-1.2-.2l-.37-.32-.11-.11-.16-.35v-.02l.48-1,.39-.4.13-.1.03-.02.04-.08c.21-.17.38-.39.4-.68,0-.06-.04-.11-.05-.17l.02-.04-.04-.05c-.07-.35-.27-.66-.62-.77-.91-.3-1.67-.61-2.31-.91-.07-.04-.13-.08-.21-.11-.58-.29-1.07-.58-1.42-.86-.73-.6-.92-1.05-.95-1.51,0-.03-.02-.04-.02-.07v-.06c.02-.51.19-.76.49-1.03l1-.48s.04-.02.07-.03l.91-.29.8-.25c.42-.13.7-.52.7-.96s-.28-.83-.7-.97l-.26-.09c-.37-.13-.7-.28-1.03-.44-.34-.17-.68-.36-1.04-.59-.22-.15-.44-.29-.63-.44-.16-.13-.29-.27-.42-.4-.17-.18-.32-.36-.43-.53-.13-.2-.23-.39-.28-.58-.02-.08-.06-.17-.07-.24l-.03-.28.16-.46.73-.16h.18s.66.09.66.09l.41-.17.64-.25v-.02h.02s-.02-.49-.02-.49v-.64s-.06-.08-.08-.11c-.36-.48-.6-.9-.76-1.28-.11-.24-.15-.48-.19-.72-.03-.15-.1-.32-.1-.45v-.02c.04-.46.12-.74.23-.97.12-.23.28-.44.47-.61h.02s.06-.05.08-.07c.18-.19.49-.35.88-.44.11-.03.21-.08.34-.08.08,0,.14.01.21.02.34.02.64.07.83.17.02,0,.04.01.06.02l.35.36s.03.11.05.16c.05.16.09.38.11.68,0,.06.02.11.02.18,0,.37-.06.86-.17,1.42l-.02.07s0,.02,0,.04c0,0,0,0,0,.01h0c-.09.44.08.88.47,1.1l.4-.06.72-.03.09-.09h.02s.23-.25.23-.25l.08-.08.41-.43.37-.2.58.25s.07.08.11.12c.1.1.19.25.3.43.03.06.07.1.1.17.17.37.3.81.41,1.25.08.34.15.64.18.92.02.11.03.21.04.32.04.46.07.91.07,1.34,0,.29-.01.55-.03.8,0,.17-.02.32-.03.46,0,.05,0,.1-.01.15-.05.38-.11.79-.17,1.31-.02.13.04.25.07.37.02.07,0,.14.04.21.07.13.19.23.31.32.04.04.06.09.11.12h0s0,.01.02.02l1.16-.19s0,0,0,0h0c.31-.32.57-.53.81-.68.04-.03.08-.06.13-.09.23-.13.42-.2.55-.19l.13.02c.06.01.09.03.14.04.14.04.26.08.33.12.03.02.04.03.07.05.04.04.08.07.11.1.01.02.03.06.04.09.05.09.08.27.11.53,0,.07.02.11.02.19,0,.47-.09,1.11-.18,1.81-.08.44-.15.87-.15,1.34,0,.44.06.9.21,1.36.08.24.25.48.37.72.11.21.18.43.33.64h.03s.02.06.04.08l.55.19.32.14.02-.02h.04s.64-.52.64-.52l.11-.08s0,0,0-.01h0s.04-.07.05-.11c.13-.29.26-.5.38-.66.25-.32.48-.41.64-.42.26-.02.83.27,1.33,1.06.47.78.84,2.04.87,3.7h0v.72c0,.34,0,.7-.02,1.05,0,.13,0,.28-.01.4-.01.19-.03.36-.04.54-.08.88-.21,1.54-.34,2.06-.56.15-1.28.25-2.12.25-.25,0-.52-.06-.78-.07-.64-.04-1.29-.08-1.94-.21h0ZM45.49,133.22s-.06-.04-.09-.07c.03.03.06.05.09.07h0ZM47.08,140.43c0,.05,0,.11-.01.17,0-.05,0-.11.01-.17h0ZM45.29,140.99c.39-.38.8-.74,1.26-1-.46.26-.87.62-1.26,1h0ZM49.76,147.13c.09-.19.17-.38.28-.55-.11.16-.19.36-.28.55h0ZM51.21,121.72c-.14.08-.26.16-.38.24.12-.08.24-.17.38-.24h0ZM64.98,151.6l.07.06.04.03.07.04c.08.03.72.47,1.7.49.63.03,1.51-.32,1.95-1.12.24-.42.48-1.03.9-1.67.41-.63.93-1.16,1.47-1.32h0l.69-.11c.93-.02,1.94.67,2.4,1.28.5.63,1.08,1.12,1.71,1.45-.31.64-.5,1.36-.54,2.15-.01.47-.17,1.12-.48,1.64-.31.53-.73.94-1.35,1.14l-.6.09c-.53,0-1.16-.19-1.71-.44-.57-.25-.98-.51-1.36-.68l-.91-.19c-.96.01-1.56.59-1.9,1.01-.35.44-.51.82-.53.87l-.05.16c-.01.05-.09.36-.09.8,0,.37.05.85.3,1.35.25.5.8.99,1.51,1.13.48.1,1.12.14,1.86.34.72.19,1.38.53,1.71,1,.31.44.43.9.44,1.4,0,.71-.28,1.48-.59,1.93-.45.67-.69,1.38-.81,2.08-.22-.03-.44-.09-.66-.09-.51,0-1.04.08-1.57.23l-.96.13c-.87,0-1.72-.28-2.24-1.01-.3-.4-.43-1.01-.43-1.67,0-.86.2-1.63.26-2.16h0s.01-.24.01-.24c.01-1.14-.83-1.86-1.41-2.1-.61-.28-1.11-.31-1.18-.32h-.47v-1.5c.12.01.23.06.35.06,1.6,0,2.9-1.29,2.9-2.9,0-1.48-1.12-2.71-2.56-2.88.71.4,1.2,1.17,1.2,2.05,0,1.14-.82,2.04-1.89,2.26v-15.54c.13.11.24.23.37.33.57.4,1.22.71,1.87.95.44.16,1,.51,1.4.96.41.46.66.99.66,1.64.01.57-.32,1.23-.8,1.82-.48.6-.98,1.01-1.31,1.37-.38.43-.58.99-.57,1.48.08,1.43,1.06,2.1,1.1,2.19h0ZM62.03,139.32l.22-.07-.22.07h0ZM62.62,171l-.37-1.11v-8.6h.32s.55.18.55.18l.17.23v.05c-.01.19-.27,1.23-.27,2.35,0,.89.15,1.93.81,2.85,1.02,1.4,2.6,1.84,3.87,1.84.55,0,1.05-.08,1.51-.2l1.02-.15c.51,0,.87.13,1.07.28h1.2s.36-1.14.36-1.14l-.06-.41c0-.42.17-1.01.58-1.63.51-.78.93-1.84.93-3.05,0-.85-.23-1.77-.82-2.59-.77-1.04-1.88-1.5-2.81-1.76-.91-.25-1.8-.32-1.95-.36h0s-.15-.1-.15-.1l-.07-.41.02-.24.26-.4.26-.18.11.03c.11.04.68.38,1.35.68.68.3,1.55.6,2.52.61l1.23-.19c1.16-.38,1.98-1.2,2.47-2.05.5-.86.72-1.78.75-2.57.04-1.05.44-1.75.78-1.97l.38-1.14c-.14-.42-.53-.7-.97-.7h-.02c-.39.02-1.12-.31-1.75-1.13-.79-.99-2.18-2.03-3.99-2.05-.43,0-.87.06-1.32.21-1.23.41-2.01,1.33-2.54,2.14-.52.8-.86,1.62-.95,1.75l-.21.13-.44-.1-.13-.06-.38-.63.07-.15c.1-.12.77-.7,1.37-1.44.6-.76,1.23-1.78,1.24-3.08,0-1.22-.52-2.25-1.18-2.98-.66-.74-1.46-1.23-2.21-1.52-.53-.19-1.04-.45-1.41-.71l-.56-.58c-.13-.42-.51-.71-.95-.72h-.02v-1.37h55.05c-.21,13.35-2.46,24.62-5.98,34.14h-48.7ZM35.66,110.59c.05-.11.09-.21.15-.31-.06.1-.1.2-.15.31h0ZM24.35,126.51l.25.02.96-.36.14-1.02s-.32-.77-.63-1.7c-.32-.92-.62-2.07-.61-2.49v-.02h0c.02-.86.21-1.45.46-1.75.24-.28.54-.48,1.35-.5h.02s.8.17.8.17l.46.54c.06.1.11.21.15.34.21.53.36,1.05.46,1.56.09.49.13.93.15,1.36,0,.13.04.28.04.4v.7s-.01.07-.01.07h0v.06l.34.49.26.43h.03s.02.02.02.02l.68-.16.4-.08s.04-.03.06-.05c.18-.19.4-.36.63-.49.21-.11.41-.17.61-.19.04,0,.08-.02.11-.02l.76.19h0s.04.02.06.03l.59.64s.02.05.03.07c.13.34.18.8.18,1.23,0,.01,0,.02,0,.03l-.03.72c-.12.79-.38,1.57-1.46,3l.11,1.35,1.36.02.16-.13,1.43-.72h.03c.37.08.59.17.77.29.04.03.09.05.13.09.07.06.12.19.18.28-.11.15-.21.24-.3.43-.19.37-.29.87-.36,1.39-.02.14-.1.23-.1.39v.05s0,.02,0,.04c0,.01,0,.02,0,.04v.09c0,.62.15,1.16.35,1.65.02.04.03.08.04.12.04.09.06.19.1.27-.11.02-.21.05-.32.08-.07.02-.12,0-.19.03-.46.15-.97.48-1.27,1.04-.02.04-.01.08-.03.12-.18.37-.27.77-.3,1.17,0,.07-.06.13-.06.2,0,.08.06.14.06.22l.05.47c.06.28.19.52.29.77.06.13.08.27.15.39.28.48.64.92,1.07,1.33.03.03.05.07.08.1.06.05.14.09.19.14.42.35.86.66,1.28.92-.08.04-.16.1-.24.15-.23.12-.47.25-.7.44-.02.02-.05.03-.08.05,0,0-.02.02-.02.03-.14.11-.31.2-.43.34-.19.21-.29.45-.4.69,0,0,0,.01,0,.02-.19.43-.31.87-.34,1.29v.22s-.02.01-.02.02v.07s.01.02.01.04c0,.5.15.97.37,1.42.04.08.03.19.07.27-.08-.02-.16-.05-.23-.07l-.46-.05c-.05,0-.13-.04-.18-.04h-.11c-.29,0-.58.07-.85.18-.1.04-.19.1-.28.15-.08.05-.17.08-.24.14l-.09.14s-.03.02-.04.03c-.02,0-.04-.01-.07-.02l-.35-.1c-.45-.16-.95-.39-1.45-.64-.11-.06-.19-.12-.3-.17-.34-.2-.67-.4-.96-.61-.27-.21-.51-.42-.73-.63-.11-.11-.23-.22-.32-.33-.15-.18-.29-.35-.39-.52-.15-.27-.27-.53-.26-.75.14-.02.42-.05.82-.12l.06-.03h.09c.21-.05.47-.19.7-.38l.13-.06c.34-.32.51-.83.5-1.27v-.11s0,0,0,0c0-.15-.06-.27-.07-.41v-.18s-.02-.17-.02-.17c-.02-.1-.07-.2-.1-.3-.06-.23-.12-.44-.21-.66-.08-.19-.17-.36-.27-.54-.07-.12-.11-.25-.18-.36l-.19-.23-.08-.07c-.05-.05-.07-.12-.12-.17-.08-.09-.21-.13-.31-.21l-.36-.32-.17-.13c-.06-.03-.14-.02-.2-.05-.29-.14-.64-.19-1-.25-.18-.02-.3-.12-.5-.12h-.11s-.01,0-.02,0h-.07s-.03.01-.05.01h-.08c-.6-.06-.92-.25-1.14-.49l-.2-.62-.28-.68c-.02-.06-.03-.11-.06-.17l-.02-.03-.06-.13s-.08-.06-.11-.1l-.03-.04-.32-.3c.07-.35.2-.53.57-.75.47-.25,1.26-.4,2.03-.53.43-.08.76-.42.82-.85.06-.43-.16-.85-.55-1.04l-1.56-.79c-1.74-1.12-2.11-2.28-2.12-3l.08-.51c.49-1.18,1.07-1.37,1.64-1.4h0ZM27.75,142.14h.04s-.04,0-.04,0h0ZM27.9,141.97v.02s0-.02,0-.02h0ZM34.72,159.78h0s0,0,0,0h0ZM26.72,164.2h0s0,0,0,0h0ZM26.94,163.98c.13-.2.19-.38.3-.57.03.02.04.06.07.08.12.1.26.15.39.23-.32.15-.64.3-.9.43.04-.06.1-.12.14-.18h0ZM38.3,170.09c.04-.25.09-.39.13-.54.25.2.51.48.77.62.57.3,1.18.42,1.76.42h.21s0,0,0,0c1.14-.02,2.1-.59,2.64-1.34.81-1.12,1.02-2.44,1.4-3.62.37-1.2.82-2.17,1.7-2.76.67-.48,1.87-.68,3.07-.82,1.25,1.22,2.08,2.29,2.61,3.23,1.18,2.07,1.14,3.7,1.57,5.75h-16.01c.05-.33.09-.66.14-.92h0ZM117.34,133.21h-55.09v-34.1h55.09v34.1h0ZM58.95,111.34c-.13-.25-.25-.51-.42-.72-.36-.44-.8-.76-1.3-1.01.1-.33.16-.68.16-1.06.03-2.24-1.45-4.51-4.03-4.87l-.67-.05c-.96,0-1.88.35-2.5,1.01-.63.66-.98,1.53-1.14,2.51v.09c-.11-.01-.21-.07-.31-.06-1.02-.02-1.91.49-2.41,1.14-.51.66-.76,1.41-.89,2.11l-.07.76c.01.66.15,1.35.43,1.99-.13.01-.28.03-.38.04h0c-.2.02-.44.14-.67.25-.48-.49-1.05-.9-1.8-1.04l-.47-.05c-.11,0-.2.05-.31.06.15-.53.26-1.02.26-1.48.01-.99-.39-1.82-.96-2.33-.57-.51-1.21-.74-1.78-.8h-.23c-.85,0-1.78.38-2.65,1.13-.04.04-.06.1-.1.14-.42-.2-.87-.32-1.37-.32h-.3c-.42.04-.8.23-1.15.44-.11-.66-.31-1.29-.72-1.79-.58-.74-1.51-1.17-2.5-1.16-1.25-.02-2.33.63-2.96,1.56-.64.92-.93,2.07-.93,3.29,0,.4.12.74.2,1.1-.15-.05-.32-.09-.57-.1-.93,0-1.77.39-2.32,1.02-.32.37-.51.8-.64,1.27H3.86v-15.31h55.09v12.22h0ZM3.86,118.08h19.4c-.57.8-.78,1.76-.82,2.78v.1c.01.98.37,2.12.71,3.14.07.19.13.37.19.55-1.03.32-2.01,1.17-2.52,2.54-.15.37-.22.79-.22,1.24,0,1.37.78,3.02,2.63,4.36-.05.02-.1.03-.15.06-.18.08-.36.21-.53.34h-2.35c-.1-.28-.19-.56-.38-.81-.53-.74-1.41-1.23-2.47-1.41l-.61-.05c-1.31-.03-2.68.81-3.25,2.28H3.86v-15.1h0ZM3.9,136.84c2.65,0,7.32,0,9.83,0,.13.21.23.44.38.61-.12.04-.25.05-.36.11-1.42.69-1.95,2.15-1.92,3.4v.38c.12,1.75,1.31,3,2.64,3.77.55.32,1.15.55,1.76.76-.52.54-.74,1.19-.82,1.68l-.04.52c.03,1.54,1.04,2.68,2.16,3.57.23.18.49.3.74.46H5.08c-.7-4.75-1.1-9.85-1.18-15.26h0ZM24.42,174.65c.04.9.38,1.74,1.04,2.24.71.54,1.57.68,2.44.69.83,0,1.58-.3,2.22-.69.64-.42,1.2-.86,1.49-1.63.07-.21.08-.39.11-.59h22.75c0,.18,0,.36,0,.55,0,2.39-.15,5.32-.41,7.78-.13,1.22-.28,2.33-.45,3.18-.15.83-.38,1.47-.41,1.47-.58.84-.97,1.57-1.33,2.24H19.71c-3.13-4.44-6-9.49-8.42-15.22h13.13ZM48.44,193.53c-.56.3-1.18.59-2.01,1.02-1.9,1-3.39,1.56-4.73,2.68-1.34,1.13-2.28,2.77-3.05,5.55-.12.44.06.91.46,1.14l1.22-.14c2.76-2.62,4.05-2.67,5.72-2.71h1.06c.4,0,.84,0,1.3-.05.56-.06,1.08-.23,1.59-.44-.17.24-.34.47-.54.76-1.56,2.24-1.97,4.59-1.97,6.43,0,2.09.51,3.53.54,3.6l.91.67.96-.59c1.15-2.53,2.05-4.17,2.87-5.28.82-1.11,1.52-1.69,2.41-2.22,1.08-.65,2.6-.84,3.72-.83h.05v16.45c-4.78-1.62-17.28-6.64-29.14-17.97-2.51-2.4-5-5.08-7.38-8.08h26Z"/>
      <rect class="cls-1" x="32.83" y="156.69" width="0" height="0"/>
      <rect class="cls-1" x="31.61" y="175.26" width="0" height="0"/>
      <rect class="cls-1" x="33.35" y="113.8" width="0" height="0"/>
      <rect class="cls-1" x="22.44" y="120.85" width="0" height="0"/>
      <rect class="cls-1" x="49.05" y="107.15" width="0" height="0"/>
      <path class="cls-1" d="M74.88,130.3c1.2,0,2.54-.12,3.95-.46,1.26-.3,2.47-.43,3.62-.43,2.6,0,4.93.67,7,1.64l.03.06.97.06c2.12-1.01,4.54-1.72,7.23-1.72,1.11,0,2.26.12,3.46.4,1.36.31,2.67.42,3.86.42,3.25,0,5.6-.83,5.67-.85.4-.14.67-.53.67-.95v-24.11l-.4-.8-.88-.17-.67.15c-.41.08-.95.15-1.42.15h-.05v-.56l-.32-.57-.15-.28h-.01s0-.01,0-.01l-.99-.03h0c-.09.04-.87.38-2.39.38-1.14,0-2.71-.19-4.72-.87-1.41-.47-2.72-.66-3.9-.66-2.67,0-4.55.92-5.46,1.47-.91-.55-2.79-1.46-5.46-1.47-1.18,0-2.49.19-3.9.66-2.01.68-3.58.87-4.72.87-.87,0-1.49-.11-1.88-.21l-.42-.13-.08-.04h0s-.99.04-.99.04h0s-.01,0-.01,0l-.15.29-.32.56v.56h-.04c-.46,0-.97-.07-1.35-.15l-.63-.15-.89.16-.4.81v24.11l.64.94c.08.03,2.3.9,5.52.9h0ZM107.97,105.69c.49,0,.94-.06,1.35-.12v22.12c-.84.22-2.4.55-4.33.55-1.06,0-2.22-.1-3.41-.37-1.35-.31-2.66-.45-3.91-.45-2.45,0-4.68.53-6.67,1.31l-.02-.79c.35-.5,1.67-2.05,5.57-2.07.63,0,1.32.04,2.09.14,2.43.31,5.02.79,6.85.8.7-.01,1.3-.04,1.92-.37l.51-.87v-19.89s.04,0,.05,0h0ZM98.69,103.64c2.2.74,3.99.98,5.37.98.73,0,1.29-.08,1.78-.16v.03c0,.08.04.14.06.21v20.08l-.41.02c-1.49,0-4.12-.46-6.59-.78-.85-.11-1.62-.15-2.34-.15-2.64-.02-4.4.67-5.58,1.42v-21.01c.66-.41,2.22-1.2,4.46-1.2.97,0,2.05.15,3.25.55h0ZM75.89,104.61c1.37,0,3.17-.24,5.37-.98,1.2-.41,2.29-.55,3.25-.55,1.52,0,2.75.37,3.59.74l.86.45v21.02c-1.17-.76-2.94-1.44-5.58-1.42-.72,0-1.5.05-2.34.15-2.47.32-5.1.79-6.59.78-.17,0-.28-.01-.41-.02v-20.09c.02-.07.06-.13.06-.2v-.04c.49.09,1.05.16,1.78.16h0ZM72.03,105.69v19.89l.51.87c.61.33,1.21.36,1.92.37,1.83,0,4.42-.49,6.85-.8.77-.1,1.46-.14,2.09-.14,2.45,0,3.86.64,4.68,1.21l.82.76.06.09-.02.7c-1.94-.75-4.11-1.26-6.49-1.26-1.31,0-2.67.15-4.09.49-1.24.3-2.42.4-3.49.4-1.43,0-2.64-.19-3.49-.39l-.65-.17v-22.13c.38.06.8.11,1.26.11.01,0,.02,0,.04,0h0Z"/>
      <path class="cls-1" d="M112.03,149.15h-.02c-.39.02-1.12-.32-1.74-1.13-.79-.99-2.19-2.03-4-2.06-.43,0-.87.07-1.31.21-1.23.41-2.01,1.33-2.54,2.14-.52.8-.86,1.63-.95,1.75l-.21.13-.44-.1-.13-.06-.39-.63.08-.14c.09-.12.77-.7,1.37-1.45.6-.76,1.23-1.78,1.24-3.08,0-1.22-.52-2.25-1.18-2.99-.67-.74-1.47-1.23-2.21-1.51-.98-.35-1.52-.95-1.62-1.34-.13-.42-.53-.71-.97-.71s-.83.29-.97.71c-.1.39-.64.99-1.61,1.34-.74.28-1.54.77-2.21,1.51-.66.74-1.18,1.76-1.18,2.99,0,1.29.64,2.32,1.24,3.08.59.74,1.27,1.33,1.37,1.45l.07.14-.19.41-.16.19-.62.18-.21-.12c-.09-.13-.43-.96-.95-1.75-.53-.81-1.31-1.73-2.54-2.14-.44-.14-.89-.21-1.31-.21-1.82.02-3.21,1.07-4,2.06-.63.82-1.36,1.14-1.76,1.13h-.03c-.44,0-.83.29-.96.71l.38,1.13c.33.21.74.91.77,1.96.03.8.25,1.71.75,2.57.49.86,1.31,1.67,2.47,2.05l1.23.19c.97,0,1.84-.3,2.52-.61.67-.3,1.24-.63,1.35-.67l.11-.03.32.25.19.28v.03s.03.26.03.26l-.08.41-.16.1c-.15.04-1.04.11-1.95.36-.93.26-2.05.72-2.81,1.76-.59.82-.82,1.75-.82,2.59,0,1.2.42,2.27.93,3.04.42.62.59,1.22.59,1.63l-.06.41.37,1.14h1.2c.2-.16.56-.3,1.06-.3l1.03.15c.45.13.96.21,1.51.21,1.28,0,2.85-.44,3.87-1.84.66-.92.81-1.96.81-2.85,0-1.12-.26-2.17-.27-2.35v-.05s.25-.27.25-.27l.36-.12h.04s.53.16.53.16l.18.22v.05c-.01.18-.27,1.23-.27,2.35,0,.89.15,1.93.82,2.85,1.02,1.4,2.59,1.85,3.87,1.84.55,0,1.05-.08,1.51-.21l1.02-.15c.51,0,.87.13,1.07.28h1.2s.36-1.14.36-1.14l-.06-.4c0-.42.17-1.02.59-1.64.51-.77.92-1.83.93-3.04,0-.85-.23-1.77-.82-2.59-.77-1.04-1.88-1.5-2.81-1.76-.92-.25-1.8-.32-1.95-.36l-.16-.1-.08-.41.02-.25.26-.4.26-.18.11.03c.11.04.68.38,1.35.68.68.3,1.55.6,2.52.61l1.23-.19c1.16-.38,1.97-1.19,2.47-2.05.49-.87.72-1.78.75-2.57.04-1.05.44-1.75.77-1.96l.38-1.14c-.14-.42-.53-.7-.98-.7h0ZM107.41,155.74c-.53,0-1.16-.19-1.71-.44-.57-.25-.98-.51-1.36-.68l-.92-.2c-.96.01-1.56.59-1.9,1.01-.34.44-.5.82-.53.87l-.05.16s-.08.36-.08.8c0,.37.04.84.3,1.35.25.51.8.99,1.5,1.14h0c.47.1,1.12.14,1.86.34.72.19,1.39.53,1.71,1,.31.44.44.91.44,1.41,0,.71-.28,1.47-.59,1.92-.45.68-.69,1.38-.81,2.09-.22-.03-.44-.09-.67-.09-.51,0-1.04.08-1.57.23l-.95.13c-.87,0-1.72-.28-2.24-1.01-.3-.41-.43-1.01-.43-1.67,0-.86.2-1.63.26-2.16v-.24c.02-1.16-.85-1.87-1.44-2.1-.61-.27-1.12-.31-1.19-.32h-.17c-.06,0-.57.04-1.18.32-.58.24-1.43.95-1.42,2.1v.24c.07.53.27,1.3.27,2.16,0,.66-.13,1.26-.42,1.67-.52.72-1.37,1-2.24,1.01l-.96-.13c-.54-.15-1.07-.23-1.58-.23-.23,0-.44.06-.66.09-.12-.7-.36-1.41-.81-2.08-.31-.45-.6-1.21-.59-1.92,0-.51.12-.97.44-1.41.33-.47.99-.8,1.71-1,.74-.2,1.38-.24,1.86-.34h0c.7-.14,1.26-.63,1.51-1.14.26-.51.3-.98.3-1.35,0-.44-.07-.75-.08-.8l-.05-.16c-.02-.05-.18-.43-.53-.87-.34-.42-.94-.99-1.9-1.01l-.92.2c-.38.17-.79.43-1.36.68-.55.25-1.18.44-1.71.44l-.61-.09c-.61-.2-1.03-.61-1.34-1.14-.31-.53-.47-1.17-.48-1.64-.04-.8-.23-1.52-.54-2.15.63-.33,1.21-.82,1.7-1.45.47-.61,1.48-1.31,2.41-1.28l.69.11c.54.17,1.06.69,1.47,1.32.42.64.66,1.25.9,1.67.44.8,1.32,1.14,1.95,1.11,1-.02,1.66-.47,1.74-.51l.14-.1c.04-.09,1.03-.76,1.1-2.2,0-.49-.19-1.05-.57-1.48-.33-.36-.83-.78-1.31-1.37-.47-.59-.81-1.25-.8-1.82,0-.65.26-1.18.67-1.64.4-.46.97-.8,1.4-.96.75-.28,1.37-.69,1.88-1.19.51.49,1.13.91,1.88,1.19.43.16,1,.51,1.4.96.41.46.66.99.67,1.64,0,.57-.33,1.23-.8,1.82-.48.6-.98,1.01-1.31,1.38-.38.43-.58.99-.57,1.48.08,1.44,1.06,2.11,1.11,2.2l.04.03.03.03.1.06c.08.03.72.47,1.7.49.63.03,1.51-.32,1.95-1.12.24-.42.47-1.03.9-1.67.41-.63.93-1.16,1.48-1.33l.68-.11c.93-.02,1.95.67,2.41,1.28.49.63,1.07,1.12,1.7,1.45-.31.64-.5,1.36-.54,2.15-.02.47-.17,1.11-.48,1.64-.31.53-.74.94-1.35,1.14l-.61.09h0ZM93.96,150.83l-.15-.18.15.18h0ZM99.89,151.02l.15-.19-.15.19h0ZM100.19,150.65h0Z"/>
      <rect class="cls-1" x="57.68" y="152.95" width="0" height="0" transform="translate(-92.28 87.88) rotate(-45.88)"/>
      <rect class="cls-1" x="70.55" y="146.19" width="0"/>
      <rect class="cls-1" x="42.92" y="112.42" height="0" transform="translate(-66.92 63.28) rotate(-45)"/>
      <rect class="cls-1" x="43.13" y="132.13" width="0" height="0"/>
      <polygon class="cls-1" points="68.29 159.76 68.29 159.76 68.28 159.76 68.29 159.76 68.29 159.76"/>
      <path class="cls-1" d="M97.3,152.07c.72.4,1.2,1.17,1.2,2.05,0,1.31-1.06,2.36-2.36,2.36-.87,0-1.64-.48-2.05-1.18.17,1.43,1.4,2.54,2.88,2.54,1.6,0,2.9-1.29,2.9-2.9,0-1.48-1.12-2.71-2.56-2.88h0Z"/>
    </g>
    <path class="cls-1" d="M425.55,170.94c1.06.18,2.14.21,3.21.37.74.11,1.89.22,2.28.98.52,1.02-.49,1.74-1.38,1.95-1.21.29-2.5.04-3.72-.04-1.85-.12-3.7-.21-5.55-.28-2.12-.08-4.25-.11-6.37-.13-2.35-.02-4.71,0-7.07.06-1.81.04-3.62.1-5.43.19-1.06.05-2.11.12-3.17.2-1.04.08-2.16.25-3.21.07-.85-.14-1.82-.78-1.57-1.78.25-.95,1.52-1.11,2.33-1.21,2.06-.26,4.13-.33,6.07-1.17,1.65-.71,2.96-1.9,3.53-3.64.64-1.95.58-4.03.59-6.06l.07-51.87c-.02-2.43.04-4.38-.09-6.57-.05-.82-.2-1.65-.85-2.21-.87-.74-2.03-.82-3.12-.89-2.86-.17-5.8-.07-8.66.04-1.87.07-3.74.26-5.58.61-2.31.44-4.66,1.2-6.33,2.96-2.06,2.17-2.43,5.11-2.88,7.93-.14.89-.36,3.19-1.8,2.79-.72-.2-.81-.99-.86-1.63-.06-.78-.04-1.56-.03-2.33.04-3.28,0-6.55,0-9.83,0-1.08-.23-2.57.5-3.48.6-.74,1.67-.84,2.55-.88,1.25-.06,2.53.09,3.77.15,4.31.2,8.61.39,12.92.49,2.39.06,4.77.09,7.15.12,2.95.04,5.9.05,8.86.05s6.05,0,9.07-.04c7.1-.07,14.3-.24,21.42-.63,1.28-.07,2.56-.21,3.84-.11.73.05,1.56.21,2.04.81.3.37.43.85.5,1.32.14,1,.02,2.03.02,3.03,0,3.16,0,6.32,0,9.49,0,.89.14,1.94-.13,2.79-.07.21-.17.4-.33.54-.59.52-1.34-.02-1.63-.58-.57-1.11-.56-2.59-.79-3.81-.44-2.36-1.2-4.8-2.97-6.5-1.59-1.53-3.76-2.25-5.89-2.64-4.04-.74-8.2-.72-12.29-.68-1.09,0-2.18,0-3.27.17-.72.11-1.5.32-1.97.91-.49.62-.66,1.5-.7,2.27-.12,1.99-.07,4.02-.07,6.01,0,0-.01,53.86.17,55.78.14,1.55.47,3.18,1.51,4.39,1.31,1.54,3.38,2.2,5.31,2.52"/>
    <path class="cls-1" d="M287.27,41.27c.03,12.22,3.95,21.33,12.63,29.46,7.84,7.25,18.46,11.22,30.27,11.22,11.07.01,22.58-4.45,30.26-11.69,7.6-7.13,12.17-17.91,12.16-29.23-.02-11.36-3.26-20.3-10.18-27.71C354.47,4.91,342.89,0,330.63,0c-12.05,0-22.89,4.32-31.32,12.62-7.95,7.97-12.03,17.75-12.04,28.65h0ZM310,12.99c5.03-6.54,12.18-10.13,20.17-10.12,8.12-.02,15.24,3.41,20.17,9.93,4.94,6.51,7.75,15.98,7.75,28.12,0,12.14-2.98,21.65-8.04,28.17-5.04,6.53-12.2,10-20.13,9.99-7.98.01-15.08-3.7-20.04-10.36-4.97-6.66-7.88-16.21-7.88-28.04s2.96-21.16,8-27.7h0Z"/>
    <path class="cls-1" d="M7.67,76.11c-.79.39-1.63.62-2.49.77-.91.16-1.83.21-2.74.35-.72.11-1.76.23-2.2.87-.47.68-.22,1.56.48,1.95.93.51,2.11.27,3.12.2.95-.07,1.91-.13,2.87-.19,2.55-.15,6.16-.29,10.83-.29s8.29.14,10.84.29c.97.06,1.93.16,2.89.23,1.14.09,3.64.5,3.87-1.18.05-.34-.07-.69-.27-.97-.26-.34-.66-.56-1.06-.68-1.24-.36-2.54-.38-3.81-.6-.84-.15-1.68-.38-2.49-.78-1.39-.64-2.54-1.73-3.06-3.26-.54-1.52-.64-3.34-.65-5.96v-25.25h41.55v25.25c0,2.64-.09,4.44-.59,5.96-.48,1.53-1.62,2.63-3.02,3.27-.79.39-1.63.62-2.49.77-1.27.23-2.58.23-3.83.58-.57.16-1.12.42-1.31,1.03-.21.71.21,1.37.87,1.63,1.22.49,2.66.17,3.92.06,4.31-.34,8.64-.42,12.97-.4,4.31.02,8.63.09,12.92.45,1.19.1,3.53.53,4.25-.8.24-.45.16-1.06-.19-1.43-.26-.28-.63-.42-.99-.52-2.12-.61-4.36-.38-6.39-1.38-1.38-.63-2.51-1.73-3-3.26-.5-1.52-.59-3.31-.59-5.96V14.55c0-2.58.11-4.35.63-5.83,1.19-3.44,4.94-3.74,8.02-4.2.87-.13,2.47-.14,2.62-1.31.05-.37-.16-.75-.46-.97-.3-.23-.68-.33-1.05-.39-1.1-.17-2.22.02-3.32.07-1.1.04-2.21.1-3.31.15-3.13.13-6.26.19-9.38.19-4.62,0-8.22-.12-10.78-.23-1.15-.06-2.3-.12-3.45-.19-.98-.06-2.59-.29-3.1.83-.19.41-.14.91.22,1.2.24.2.55.3.85.38,2.12.56,4.37.43,6.41,1.32,1.34.59,2.47,1.66,2.97,3.16.51,1.48.62,3.25.63,5.83v23.04H23.81V14.55c0-2.85.21-4.82.93-6.39.71-1.6,2.14-2.56,3.68-2.94,1.63-.4,3.31-.62,4.96-.89.47-.08.96-.19,1.29-.57.66-.78-.11-1.7-.91-1.91-.68-.18-1.4-.05-2.09-.01-1.11.06-2.22.13-3.33.18-2.56.11-6.16.23-10.78.23-4.23,0-8.47-.11-12.7-.34-1.21-.07-2.68-.32-3.85.05-1.1.36-1.27,1.64-.2,2.17.63.31,1.44.35,2.13.44.79.1,1.57.18,2.36.31.85.15,1.65.35,2.41.69,1.34.59,2.47,1.66,2.97,3.16.51,1.48.62,3.25.63,5.83v52.33c0,2.64-.09,4.44-.59,5.96-.48,1.53-1.62,2.63-3.02,3.27h0Z"/>
    <path class="cls-1" d="M149.45,75.21c-3.16,1.08-7.1,1.45-12.27,1.46-4.23,0-7.37-.21-9.82-.85-2.44-.63-4.29-1.83-5.37-3.7-.72-1.23-1.11-2.65-1.35-4.28-.31-2.18-.34-4.76-.34-7.95l.1-19.08c3.6,0,7.32-.06,10.81.99.4.12.79.25,1.18.41,2.59,1.01,4.43,2.81,5.53,5.22.49,1.03.85,2.12,1.13,3.23.23.91.34,1.87.8,2.7.47.86,1.53,1.04,2.07.15.57-.95.38-2.13.3-3.18-.08-1.11-.17-2.21-.25-3.32-.23-3.3-.36-6.6-.36-9.9s.24-6.83.48-10.25c.08-1.04.29-2.29-.05-3.29-.31-.9-1.34-1.5-2.16-.8-.77.66-.87,1.87-1.03,2.8-.13.79-.29,1.76-.57,2.8-.27,1-.65,2.03-1.26,3.05-1.29,2.11-3.09,3.62-5.49,4.53-2.4.92-5.35,1.35-9.3,1.63l-1.9.13c0-.93-.15-27.62.11-29.44.08-.52.2-1.03.44-1.5.64-1.23,1.97-1.42,3.23-1.55,1.26-.11,2.78-.11,4.72-.11h.93c5.63,0,11.64.17,15.07.99,3.42.8,6.05,2.38,7.72,5.08.59.93.96,1.9,1.2,2.82.25.96.37,1.82.47,2.51.11.64.19,1.31.46,1.9.29.65,1,1.06,1.71.86.62-.18.96-.74,1.05-1.35.13-.96-.09-1.98-.19-2.94-.15-1.26-.24-2.53-.24-3.8,0-3.33.36-5.48.35-6.28,0-.77-.16-1.31-.41-1.69-.49-.76-1.43-1-2.27-1.12-2.33-.34-4.73-.2-7.08-.2-10.9,0-22,.35-30.41.35-10.94,0-17.25-.47-18.26-.47-.69,0-1.68.08-2.11.74-.42.65.06,1.38.69,1.64,1.35.55,2.97.47,4.39.72.85.15,1.66.35,2.41.69,1.34.59,2.47,1.66,2.97,3.16.51,1.48.62,3.25.63,5.83v52.33c0,2.64-.09,4.44-.59,5.96-.48,1.53-1.62,2.63-3.02,3.27-1.42.65-2.99.87-4.53,1.08-1.07.14-3.39.19-3.16,1.87.09.62.7,1.06,1.31,1.2.82.19,1.71.05,2.53,0,3.36-.19,6.71-.4,10.07-.46,1.21-.02,2.43-.03,3.64-.03,26.63,0,41.02.58,43.15.58.74,0,1.5-.02,2.24-.13.99-.15,1.6-.68,1.73-1.69.12-.97.08-1.98.1-2.96.03-1.09.08-2.18.15-3.27.12-2.18.28-4.36.3-6.54.01-1.17.13-2.49-.35-3.59-.22-.49-.63-.8-1.18-.76-.55.04-1.01.45-1.26.93-.31.59-.4,1.33-.54,1.97-.16.72-.34,1.43-.56,2.13-.3.95-.74,2.01-1.39,3.13-1.58,2.7-3.93,4.58-7.08,5.65h0Z"/>
    <path class="cls-1" d="M280.21,77.62c-.79-.38-1.77-.38-2.62-.47-1.43-.17-2.77-.34-4.14-.82-1.78-.63-3.33-1.59-4.05-3.43-.62-1.53-.77-3.38-.78-6.03V14.52c0-2.85.21-4.82.93-6.39.7-1.6,2.14-2.56,3.68-2.94,1.45-.36,2.99-.45,4.49-.65.89-.12,3.2-.02,3.28-1.34.04-.57-.52-.96-.99-1.15-.72-.29-1.53-.3-2.3-.3-.32,0-1.95.11-4.51.23-2.59.11-6.22.23-10.83.23-3.48,0-6.95-.07-10.43-.23-1.15-.05-2.3-.13-3.45-.17-1.11-.04-2.28-.13-3.37.17-.57.16-1.35.46-1.37,1.16-.04,1.07,1.37,1.28,2.16,1.37,1.34.15,2.68.13,4.02.34.98.15,1.82.34,2.58.68,1.35.59,2.49,1.66,3.02,3.16.55,1.49.68,3.28.68,5.83v52.33c0,2.58-.13,4.4-.73,5.94-.59,1.56-1.83,2.63-3.33,3.28-1.56.67-3.3.95-4.98,1.04-1.84.11-3.76,0-5.46-.74-2.5-1.08-4.72-2.96-6.48-5.01l-24.89-29.14c3.79-.8,7.56-1.59,11.03-3.38,2.1-1.08,4.04-2.47,5.64-4.21,3.04-3.33,4.65-7.64,4.66-13.14-.04-7.38-2.45-12.14-7.18-15.35-4.75-3.21-12.11-4.76-21.87-4.75-6.43,0-13.89.58-22.21.58-5.71,0-8.99-.24-9.42-.23-.62,0-1.34.07-1.85.46-.49.38-.57,1.08-.14,1.56.53.57,1.44.7,2.18.77.93.08,1.86.15,2.78.31.85.15,1.66.35,2.41.69,1.34.59,2.47,1.66,2.97,3.16.51,1.48.62,3.25.63,5.83v52.33c0,2.64-.09,4.44-.59,5.96-.48,1.53-1.62,2.63-3.02,3.27-1.97.99-4.16.79-6.25,1.33-.95.25-1.94,1.17-1.19,2.19.18.24.45.42.73.52.78.29,1.59.19,2.4.13,1.11-.08,2.22-.15,3.34-.22,2.55-.15,6.16-.29,10.84-.29s8.29.14,10.83.29c.87.05,1.78.13,2.67.18.87.05,1.84.19,2.69,0,.55-.12,1.12-.37,1.3-.95.23-.73-.31-1.44-.96-1.73-.76-.34-1.67-.33-2.49-.45-2.07-.31-4.36-.66-5.91-2.19-.59-.58-1.03-1.3-1.28-2.09-.5-1.52-.58-3.31-.59-5.96l-.05-22.69c1.65,0,3.51-.16,5.06.53.97.44,1.69,1.16,2.39,2.05l25.12,31.52c.81,1,1.48,1.4,2.26,1.65.77.25,1.72.29,2.92.29,1.68,0,3.55-.11,5.46-.11,7.25,0,16.35-.27,23.6-.34,4.87-.04,9.73.02,14.6.28,1,.06,1.99.12,2.99.18,1.08.07,2.45.32,3.45-.23.8-.43,1-1.43.34-2.08-.12-.11-.26-.21-.42-.29h0ZM195.21,41.05h-2.71V8.47c0-.93.09-1.6.27-2.17.17-.56.55-1.04.88-1.28h0,0s0,0,0,0c.94-.67,2.06-.85,4.33-.87,6.69,0,11.78,1.38,15.22,4.63,3.44,3.25,4.92,8.14,4.91,14.47.02,6.17-1.54,10.86-5.42,13.81-3.85,2.91-9.52,3.98-17.48,4h0Z"/>
    <path class="cls-1" d="M131.53,96.05c-.35.18-.59.53-.65.92-.05.35.06.72.3.98.51.59,1.52.74,2.24.87.91.17,1.85.23,2.75.44,1.36.31,2.63,1.06,3.5,2.33.88,1.25,1.51,2.89,2.29,5.32,0,0,20.12,62.92,20.12,62.93.44,1.31.86,2.62,1.42,3.89.29.65.66,1.28,1.2,1.73,1.5,1.24,3.15.27,4.08-1.11.69-1.06,1.33-2.75,1.96-4.87l16.77-55.37s16.54,56.18,16.54,56.18c.32,1.1.65,2.21,1.11,3.27.37.84.9,1.85,1.78,2.25.89.4,1.99.03,2.69-.65.88-.85,1.35-2.07,1.81-3.18.74-1.8,1.27-3.67,1.84-5.52l1.16-3.74c.52-1.66,1.04-3.33,1.56-4.99.62-1.97,1.23-3.95,1.84-5.92.68-2.17,1.35-4.34,2.03-6.52.71-2.26,1.41-4.52,2.12-6.79.7-2.24,1.4-4.48,2.09-6.73.66-2.11,1.32-4.23,1.98-6.34.58-1.88,1.17-3.75,1.75-5.63.47-1.53.95-3.06,1.43-4.59.33-1.07.67-2.14,1-3.22.16-.51.32-1.01.47-1.52,0-.03.02-.05.02-.08.98-3.16,1.74-5.45,2.69-7.22.94-1.76,2.22-3.05,3.93-3.69.87-.33,1.77-.52,2.66-.78.69-.21,1.46-.42,1.98-.95.46-.48.53-1.34-.11-1.71-.46-.27-1.05-.27-1.57-.3-.84-.06-1.68.05-2.52.11-1.53.11-3.05.19-4.59.2-2.74,0-5.48-.06-8.21-.18-1.73-.08-3.46-.22-5.19-.27-1.03-.03-3.08.02-3.09,1.48.02.76.57,1.21,1.27,1.38.61.15,1.26.15,1.88.25,1.94.28,4.01.72,5.45,2.15.99,1.04,1.41,2.41,1.4,3.78,0,4.31-1.15,10.85-3.83,19.35l-10.49,34.11-17.59-57.47c-.19-.61-.38-1.22-.57-1.83-.28-.93-.57-2-1.33-2.66-.51-.44-1.21-.65-1.88-.54-.77.13-1.29.61-1.7,1.24-.46.74-.89,2.05-1.33,3.55l-17.59,59.1-1.35-4.44-.38-1.24c-4.2-13.72-7.54-24.63-9.92-32.8-1.39-4.76-2.43-8.51-3.12-11.33-.69-2.84-1.05-4.65-1.06-5.87,0-.54.04-1.1.23-1.68.19-.58.56-1.15,1.07-1.57.76-.63,1.7-.98,2.64-1.23,1.07-.28,2.16-.49,3.25-.63.7-.09,1.42-.14,2.11-.3.57-.13,1.23-.39,1.27-1.07.04-.59-.4-1.12-.93-1.33-.54-.21-1.47-.31-2.53-.31-4.18,0-9.09.58-14.42.58-7.91,0-12.7-.47-14.06-.46-.54.02-1.21,0-1.69.24h0Z"/>
    <path class="cls-1" d="M245.27,170.68c-1.15-.48-2.18-1.18-2.94-2.27-.74-1.06-.86-2.48-.77-3.74.09-1.2.3-2.38.63-3.55.24-.87.52-1.73.86-2.57l5.07-12.66h29.13s5.3,14.06,5.29,14.04c.51,1.32.94,2.68,1.26,4.06.31,1.34.66,2.77.3,4.14-.63,2.37-3.66,2.8-5.7,3.09-.11.02-.22.03-.33.04-.96.15-3.24.3-3.52,1.54-.21.94.88,1.4,1.61,1.54.99.19,1.99.17,2.99.12.99-.04,1.97-.08,2.96-.14,3.25-.21,6.48-.51,9.74-.53,3.26-.03,6.54.15,9.8.3.44.02.89.06,1.34.06,1.47.06,3.02.27,4.48.07.64-.09,1.43-.4,1.63-1.08.21-.72-.44-1.29-1.05-1.52-1.04-.39-2.15-.45-3.23-.67-.76-.16-1.56-.38-2.36-.71-1.5-.61-2.75-1.71-3.82-3.22-1.08-1.52-2.02-3.45-3.05-5.97l-25.69-64.76c-.34-.79-.71-1.5-1.06-1.91-.41-.46-.78-.67-1.35-.68-.57,0-.95.23-1.34.65-.34.38-.67,1.01-.95,1.69l-25.94,61.87c-1.06,2.49-2.14,5.01-3.55,7.33-1.29,2.11-3.07,4.02-5.43,4.95-1.44.57-2.99.8-4.48,1.2-.5.13-1.04.31-1.29.76-.23.41-.14.95.15,1.32.29.37.74.58,1.2.68.7.14,1.49.13,2.2.1,1.61-.06,3.21-.23,4.81-.32,1.64-.09,3.29-.13,4.94-.13,1.48,0,2.96.09,4.44.2.76.06,1.51.12,2.26.19.74.07,1.52.22,2.26.22.88.09,1.81.2,2.67-.09.4-.13.86-.41,1.01-.83.06-.19.06-.41.01-.61-.26-1.05-1.62-1.21-2.49-1.4-.93-.21-1.85-.45-2.71-.81h0ZM261.86,112.49l1.33-3.21,12.73,32.82h-26.34l12.28-29.6h0Z"/>
    <path class="cls-1" d="M425.51,76.9c1.06.17,2.15.21,3.21.36.74.11,1.89.22,2.28.98.52,1.02-.48,1.74-1.37,1.96-1.21.29-2.5.03-3.72-.05-1.85-.12-3.7-.21-5.55-.28-2.12-.07-4.25-.11-6.37-.13-2.36-.02-4.71,0-7.07.05-1.81.04-3.62.1-5.43.19-1.06.05-2.12.12-3.17.19-1.04.08-2.16.25-3.21.07-.85-.14-1.82-.78-1.57-1.78.25-.96,1.52-1.11,2.33-1.21,2.06-.26,4.13-.33,6.06-1.17,1.65-.71,2.97-1.9,3.54-3.64.64-1.95.58-4.03.59-6.05l.07-51.87c-.02-2.42.04-4.38-.09-6.56-.05-.82-.2-1.65-.85-2.21-.87-.74-2.03-.83-3.11-.89-2.86-.17-5.8-.07-8.67.04-1.87.07-3.73.26-5.57.61-2.31.45-4.66,1.21-6.33,2.96-2.06,2.16-2.43,5.11-2.88,7.93-.14.89-.36,3.19-1.8,2.79-.72-.2-.81-.99-.86-1.63-.06-.78-.04-1.56-.03-2.33.04-3.28,0-6.55,0-9.83,0-1.07-.23-2.57.5-3.48.6-.74,1.66-.84,2.55-.89,1.25-.06,2.53.09,3.78.15,4.31.2,8.61.39,12.92.49,2.39.05,4.77.09,7.15.12,2.95.03,5.9.05,8.86.05,3.02,0,6.05-.01,9.07-.04,7.1-.07,14.3-.24,21.42-.63,1.28-.07,2.56-.21,3.84-.11.73.06,1.56.21,2.04.81.3.38.43.85.5,1.32.14,1,.02,2.03.02,3.03,0,3.16,0,6.33,0,9.49,0,.89.14,1.93-.13,2.79-.07.2-.17.4-.33.54-.59.51-1.34-.02-1.63-.58-.57-1.11-.56-2.59-.79-3.81-.44-2.36-1.2-4.8-2.98-6.5-1.59-1.52-3.76-2.25-5.88-2.64-4.04-.74-8.21-.72-12.3-.68-1.09,0-2.18,0-3.26.17-.72.11-1.5.32-1.97.91-.49.62-.66,1.5-.7,2.27-.12,1.99-.06,4.02-.06,6.01,0,0-.02,53.86.17,55.78.14,1.54.47,3.17,1.51,4.39,1.31,1.54,3.38,2.2,5.31,2.52"/>
    <path class="cls-1" d="M346.81,170.94c1.06.18,2.14.21,3.21.37.74.11,1.88.22,2.28.98.52,1.02-.49,1.74-1.38,1.95-1.21.29-2.5.04-3.72-.04-1.85-.12-3.7-.21-5.54-.28-2.12-.08-4.25-.11-6.37-.13-2.35-.02-4.71,0-7.07.06-1.81.04-3.62.1-5.43.19-1.06.05-2.12.12-3.17.2-1.05.08-2.17.25-3.21.07-.85-.14-1.82-.78-1.57-1.78.25-.95,1.52-1.11,2.33-1.21,2.06-.26,4.13-.33,6.07-1.17,1.65-.71,2.96-1.9,3.53-3.64.64-1.95.58-4.03.59-6.06l.08-51.87c-.02-2.43.04-4.38-.1-6.57-.05-.82-.2-1.65-.85-2.21-.87-.74-2.03-.82-3.11-.89-2.86-.17-5.8-.07-8.67.04-1.87.07-3.74.26-5.57.61-2.32.44-4.67,1.2-6.33,2.96-2.06,2.17-2.43,5.11-2.88,7.93-.14.89-.36,3.19-1.8,2.79-.72-.2-.81-.99-.86-1.63-.06-.78-.04-1.56-.03-2.33.04-3.28,0-6.55,0-9.83,0-1.08-.23-2.57.5-3.48.6-.74,1.67-.84,2.55-.88,1.24-.06,2.53.09,3.77.15,4.31.2,8.61.39,12.92.49,2.38.06,4.77.09,7.15.12,2.95.04,5.9.05,8.86.05s6.05,0,9.07-.04c2.45-.02,4.91-.06,7.36-.11,1.95-.04,3.89-.1,5.84-.16,1.49-.05,2.97-.11,4.46-.17,1.26-.06,2.51-.11,3.77-.19,1.28-.07,2.56-.21,3.84-.11.73.05,1.56.21,2.04.81.3.37.44.85.5,1.32.14,1,.02,2.03.02,3.03,0,1.05,0,2.11,0,3.16,0,2.11,0,4.21,0,6.32,0,.89.14,1.94-.13,2.79-.07.21-.17.4-.33.54-.59.52-1.34-.02-1.63-.58-.57-1.11-.57-2.59-.79-3.81-.44-2.36-1.2-4.8-2.97-6.5-1.59-1.53-3.76-2.25-5.89-2.64-1.93-.36-3.9-.53-5.86-.61-2.22-.08-4.44-.07-6.66-.07.19,0,.38,0,.58,0-1.21,0-2.42-.02-3.62.16-.71.11-1.5.32-1.97.91-.49.62-.66,1.5-.7,2.27-.12,1.99-.07,4.02-.07,6.01l.05,50c0,1.92-.06,3.86.11,5.78.14,1.55.47,3.18,1.51,4.39,1.31,1.54,3.38,2.2,5.31,2.52"/>
    <g>
      <path class="cls-1" d="M133.87,191.31c-1.26-.58-3.15-.24-3.15-.92,0-.29.34-.48.92-.48.53,0,2.61.19,6.29.19s6-.19,6.39-.19c.53,0,.82.14.82.43,0,.58-1.11.39-2.71.82-1.6.44-1.98,1.65-1.98,3.97v16.99c0,6.34,2.71,9.29,8.86,9.29,7.21,0,10.45-3.53,10.45-11.13v-15.15c0-2.08-.24-3.19-1.6-3.82-1.26-.58-3.15-.24-3.15-.92,0-.29.34-.48.92-.48,1.02,0,2.61.19,4.74.19,1.98,0,3.44-.19,4.26-.19.53,0,.87.14.87.43,0,.58-1.16.39-2.76.82-1.6.44-1.94,1.65-1.94,3.97v13.94c0,9.97-3.48,14.08-13.31,14.08-8.27,0-12.34-3.44-12.34-10.36v-17.66c0-2.08-.24-3.19-1.6-3.82Z"/>
      <path class="cls-1" d="M178.97,220.88c1.31.68,2.57.24,2.57,1.02,0,.34-.34.53-1.02.53-.48,0-1.98-.19-4.5-.19-1.5,0-2.86.15-3.97.15-.77,0-1.16-.24-1.16-.53,0-.73,1.69-.39,2.95-1.11,1.45-.82,1.65-2.18,1.65-4.65v-22.6c-.87-1.36-1.74-1.98-3.05-2.37-1.02-.29-2.08-.15-2.08-.77,0-.34.44-.48,1.31-.48.68,0,1.84.19,3.53.19.97,0,1.89-.1,2.76-.1.68,0,1.21.24,1.64.82l19.84,24.83v-19.89c0-3.34-1.02-4.94-4.06-4.94-.24,0-.53-.24-.53-.48,0-.29.29-.48.82-.48,1.16,0,2.86.24,5.08.24,1.89,0,3.15-.14,3.92-.14.53,0,.82.14.82.43,0,.68-1.6.39-2.9,1.07-1.45.77-1.64,2.03-1.64,4.36v25.94c0,.92-.1,1.45-.77,1.45-.63,0-1.06-.48-1.6-1.16l-21.63-26.91v21.05c0,2.47.24,3.82,2.03,4.74Z"/>
      <path class="cls-1" d="M222.66,220.83c1.6.73,3.44.19,3.44,1.07,0,.29-.29.53-.92.53-.44,0-2.71-.24-6.77-.24s-6.29.24-6.73.24c-.63,0-.97-.24-.97-.53,0-.87,1.89-.34,3.48-1.07,1.5-.68,1.74-1.79,1.74-3.92v-21.78c0-2.08-.24-3.19-1.6-3.82-1.26-.58-3.63-.24-3.63-.92,0-.29.82-.48,1.4-.48.53,0,2.61.19,6.29.19s6-.19,6.39-.19c.53,0,1.31.14,1.31.43,0,.58-1.6.39-3.19.82-1.6.44-1.98,1.65-1.98,3.97v21.78c0,2.18.29,3.29,1.74,3.92Z"/>
      <path class="cls-1" d="M253.97,205.44c2.81-6.92,4.11-11.03,4.11-12.24,0-1.11-.53-1.89-1.5-2.08-1.69-.39-2.56-.24-2.56-.73,0-.29.29-.48.82-.48.68,0,2.27.24,4.69.24s3.77-.24,4.4-.24c.58,0,.87.19.87.48,0,.63-1.07.39-2.03.73-1.6.58-2.61,2.56-3.97,5.9l-8.18,20.37c-1.5,3.77-2.47,5.71-3.29,5.71-.34,0-.92-.63-1.4-1.94l-9.19-24.2c-1.26-3.29-1.79-5.27-3.44-5.71-1.69-.43-2.71-.34-2.71-.92,0-.34.29-.48.87-.48.34,0,2.18.29,5.71.29,4.16,0,6.39-.24,6.77-.24.48,0,.73.14.73.43,0,.53-.63.48-1.69.63-1.55.19-2.23.73-2.23,1.89,0,.87.58,2.61,1.6,5.42l6.82,18.87,4.79-11.71Z"/>
      <path class="cls-1" d="M285.62,221.07c4.26,0,6.73-.63,8.13-3,1.11-1.89.68-3.34,1.5-3.34.48,0,.53.44.53,1.45,0,1.55-.19,3.19-.19,4.89,0,1.21-.05,1.36-1.6,1.36-.92,0-6.87-.24-17.95-.24-3.87,0-5.95.24-6.34.24-.58,0-.87-.19-.87-.53,0-.87,1.79-.39,3.15-1.07,1.4-.68,1.55-1.79,1.55-3.92v-21.78c0-2.08-.19-3.19-1.55-3.82-1.26-.58-3.15-.24-3.15-.92,0-.29.29-.48.87-.48.48,0,3.05.19,7.6.19,3.48,0,7.4-.14,11.95-.14h1.07c2.13,0,2.9.05,2.9,1.16,0,.44-.15,1.26-.15,2.61,0,1.21.19,2.03.19,2.52,0,.53-.14.77-.53.77-.92,0-.34-1.74-1.36-3.34-1.45-2.32-4.31-2.56-8.86-2.56h-.39c-3.34,0-3.63.05-3.63,2.61v11.13c3.82-.19,5.86-.63,7.11-2.66,1.02-1.69.58-3.68,1.4-3.68.39,0,.58.29.58.82,0,.97-.24,2.71-.24,5.18,0,3.29.29,5.32.29,6.15,0,.58-.24.87-.53.87-.58,0-.39-1.21-1.11-2.76-1.02-2.18-3.05-2.81-6.63-2.81h-.87v8.03c0,5.56.48,7.06,7.11,7.06Z"/>
      <path class="cls-1" d="M311.6,220.83c1.36.68,3.15.19,3.15,1.07,0,.34-.29.53-.87.53-.39,0-2.47-.24-6.34-.24s-5.95.24-6.34.24c-.58,0-.87-.19-.87-.53,0-.87,1.79-.39,3.15-1.07,1.4-.68,1.55-1.79,1.55-3.92v-21.78c0-2.08-.19-3.19-1.55-3.82-1.26-.58-3.15-.24-3.15-.92,0-.29.29-.48.87-.48.24,0,1.55.1,3.92.1,3.44,0,6.53-.24,9.24-.24,8.13,0,12,2.47,12,8.28,0,4.79-3.05,7.74-9,8.52l10.5,12.29c2.08,2.42,4.84,2.47,4.84,3.24,0,.19-.29.44-.77.44-.24,0-1.5-.19-3.82-.19-.77,0-1.55.05-2.27.05-.97,0-1.5-.05-2.08-.77l-10.45-13.11c-.68-.87-1.26-1.11-2.37-1.11-.68,0-.87.19-.87,1.02v8.52c0,2.13.15,3.24,1.55,3.92ZM311.26,206.26c6.73,0,9.63-1.98,9.63-7.5s-2.71-8.03-8.47-8.03c-1.79,0-2.37.39-2.37,1.89v12.29c0,1.06.15,1.35,1.21,1.35Z"/>
      <path class="cls-1" d="M335.65,212.55c.87,0,.63,1.4,1.31,3.29,1.45,3.97,4.5,6.15,8.32,6.15,4.4,0,7.07-2.47,7.07-6.58,0-1.6-.44-2.9-1.26-3.97-1.74-2.18-4.74-3.19-8.57-4.79-4.21-1.79-6.58-4.98-6.58-8.86,0-5.03,4.02-8.66,9.58-8.66,4.21,0,6.24,2.13,7.07,2.13.87,0,.73-1.79,1.5-1.79.34,0,.63.34.63,1.06,0,.63-.14,1.69-.14,3.19,0,.97.14,1.98.14,2.95s-.05,1.36-.53,1.36c-.87,0-.68-1.16-1.5-3-1.4-3.05-3.82-4.74-6.97-4.74-3.82,0-6.1,2.32-6.1,5.47,0,3.63,2.9,4.79,7.4,6.78,6.44,2.86,9.82,5.56,9.82,11.03s-4.84,9.68-11.57,9.68c-5.03,0-7.55-2.61-8.37-2.61-.68,0-.77,1.45-1.4,1.45-.34,0-.48-.19-.48-.68,0-.44.24-1.65.24-3.63,0-1.74-.15-3.19-.15-4.26,0-.73.05-.97.53-.97Z"/>
      <path class="cls-1" d="M373.97,220.83c1.6.73,3.44.19,3.44,1.07,0,.29-.29.53-.92.53-.44,0-2.71-.24-6.78-.24s-6.29.24-6.73.24c-.63,0-.97-.24-.97-.53,0-.87,1.89-.34,3.48-1.07,1.5-.68,1.74-1.79,1.74-3.92v-21.78c0-2.08-.24-3.19-1.6-3.82-1.26-.58-3.63-.24-3.63-.92,0-.29.82-.48,1.4-.48.53,0,2.61.19,6.29.19s6-.19,6.39-.19c.53,0,1.31.14,1.31.43,0,.58-1.6.39-3.19.82s-1.98,1.65-1.98,3.97v21.78c0,2.18.29,3.29,1.74,3.92Z"/>
      <path class="cls-1" d="M402.23,220.83c1.6.73,3.48.19,3.48,1.07,0,.29-.34.53-.97.53-.39,0-2.61-.24-6.77-.24s-6.44.24-6.82.24c-.63,0-.92-.24-.92-.53,0-.87,1.89-.34,3.48-1.07,1.5-.63,1.74-1.74,1.74-3.92v-24.39c0-1.36-.77-1.5-2.76-1.5h-1.94c-4.21,0-6.73.19-7.94,1.94-1.16,1.69-.68,4.07-1.4,4.07-.39,0-.43-.29-.43-.82v-5.47c0-.87.34-1.11,1.4-1.11.82,0,6,.34,15.58.34s14.76-.34,15.58-.34c1.07,0,1.36.24,1.36,1.11v5.47c0,.53,0,.82-.39.82-.73,0-.29-2.37-1.45-4.07-1.31-1.94-4.16-1.94-9-1.94h-.82c-2.03,0-2.76.1-2.76,1.5v24.39c0,2.18.24,3.29,1.74,3.92Z"/>
      <path class="cls-1" d="M436.74,220.83c1.35.68,3.15.19,3.15,1.07,0,.34-.29.53-.87.53-.39,0-2.47-.24-6.34-.24s-5.95.24-6.34.24c-.58,0-.92-.19-.92-.53,0-.87,1.84-.39,3.19-1.07,1.4-.68,1.55-1.79,1.55-3.92v-7.36l-8.37-15.15c-1.02-1.84-1.55-3-3-3.24-1.11-.19-1.84-.15-1.84-.77,0-.39.34-.53,1.06-.53.53,0,2.03.15,4.5.15,3.34,0,5.61-.19,6.87-.19.82,0,1.16.1,1.16.53,0,.68-.77.34-1.69.53-1.31.24-2.03.87-2.03,1.84,0,.44.29,1.55,1.07,3.05l6.48,12.53c4.94-8.23,8.13-12.92,8.13-15.24,0-1.11-.44-1.69-1.36-1.89-1.26-.29-1.98-.24-1.98-.77,0-.29.29-.48.97-.48.63,0,2.13.19,4.36.19,2.47,0,3.82-.24,4.06-.24.39,0,.63.19.63.39,0,.82-2.03.15-3.87,2.47-1.26,1.6-4.11,7.4-10.11,16.5v7.69c0,2.13.15,3.24,1.55,3.92Z"/>
    </g>
  </g>
  <rect class="cls-1" x="489.29" width="4.79" height="222.55"/>
</svg>