<svg version="1.1" id="Layer_1" xmlns="http://www.w3.org/2000/svg" x="0" y="0" viewBox="0 0 1002 246.4" style="enable-background:new 0 0 1002 246.4" xml:space="preserve"><style>.st1{display:inline;fill:#878787}.st2,.st3{fill:none;stroke:#ffd203;stroke-width:.1614;stroke-miterlimit:10}.st3{stroke:#171615}.st4{fill:#fff}.st5{fill:#0c0d0d}</style><path id="Text" d="M993.8 79.3 994 99s-2.4.6-3.1.8c-.7-8.6-2.7-15.6-16.4-15.6H956v36.4h15.9c7.8 0 9.9-4.4 10.8-11.9h3.2v30.4h-3.1c-.5-7.3-2.2-12.9-10.7-12.9H956v31.9c0 9.3 8 9.3 16.5 9.3 15.2 0 22.2-1 26.5-16.3.6.2 3.1.7 3.1.7l-4.3 20.5h-69v-3.4h1.3c5.3 0 10.2-1 10.2-8.2V91c0-7.2-4.9-8.2-10.2-8.2h-1.3v-3.4c1-.1 65-.1 65-.1m-376.2 0H576v3.4h1.8c3.4 0 9.8 0 9.8 10.8v67.6c0 5.8-5.3 7.8-9.8 7.8H576v3.4h40.4v-3.4h-1.8c-6.6 0-11.2-.8-11.2-11.3v-29h10.3l27.7 43.7h23.8v-3.5c-6.3-.3-9.3-2.5-12.9-8.1L629.4 126l.6-.2c8.1-3.3 18.5-10 18.5-23.2-.1-15.7-10.3-23.3-30.9-23.3m-5.2 3.8c11.9 0 19.8 7.9 19.8 20.2 0 15.1-6.4 21.6-20.9 21.6h-7.9V83.7c2.6-.4 6.2-.6 9-.6zm97.2-3.8h-38.8v3.4h1.3c5.3 0 10.2 1 10.2 8.2v69.8c0 7.2-4.9 8.2-10.2 8.2h-1.3v3.4h38.8v-3.4h-1.3c-5.3 0-10.2-1-10.2-8.2V90.9c0-7.2 4.9-8.2 10.2-8.2h1.3v-3.4m-531.9 46.4c0 31.3 19.1 49 49.1 49 14.7 0 27.7-5.8 36.1-16.6l-2.4-4.6c-7.4 9.6-17.3 14.8-31.2 14.8-24.6 0-34.8-21.7-34.8-44.7 0-25.8 12.6-41.8 32.8-41.8 19.7 0 25.5 11.4 29 23.9l3.1-.4-1-21.5c-9.7-4.5-19.6-6.7-31.5-6.7-13.3 0-25 4.5-34 12.5-9.6 8.7-15.2 22.3-15.2 36.1m200.5-28.4s33.3 74.9 33.6 75.6h2.8c.3-.7 32.2-77.2 32.2-77.2s2.8 59.4 2.8 59.5l.1 6.7c0 6.3-4.5 6.6-10.8 7h-.3v3.4h38.6v-3.4c-7.1-.3-10.9-.9-11.5-8.1l-3.6-61.7c-.8-13.1 1.1-16.4 11.5-16.4h.5v-3.4h-25.8c-.3.7-29.9 70.5-29.9 70.5S387.2 80 386.9 79.3h-26.3v3.4h1.1c7.4 0 11.8 4.6 11.3 12.6l-3.6 58.8c-.5 8.6-1.1 14.5-11.7 14.9h-1.2v3.4h31.3V169h-.8c-8.5-.3-12.5-1.4-11.9-14.2 0-.1 3.1-57.5 3.1-57.5m389.7 75c12.9 0 25.6-3.1 34.7-12.1 9-9 14.2-21.6 14.2-34.6 0-13.9-4.7-25.7-13.6-34-9-8.4-22-12.3-37.4-12.3h-41.6v3.4h1.3c5.3 0 10.2 1 10.2 8.2v69.7c0 7.2-4.9 8.2-10.2 8.2h-1.3v3.4l43.7.1zm-6.9-89c26.2 0 38.9 14 38.9 44.8 0 19.8-10.7 40.1-34.2 40.1-10 0-14.1-1.6-14.1-11.5v-73c2.2-.2 7.1-.4 9.4-.4zm135 84.2c-3.5 1.6-9.4 2.5-15.1 2.3-24.7 0-35.7-23.3-35.7-46.9 0-25.6 13.1-41.6 34.7-41.6 16 0 23.1 6.3 27 22.3l3.1-.2-1.5-22.2c-7.2-2.4-18.5-4.6-29.5-4.6-24.6 0-50.8 14.9-50.8 47.7 0 30.8 19.8 50.7 50.5 50.7 12.7 0 24.2-2.2 32.7-4.9v-25.4c0-5 2.6-7.6 7.6-7.6h1.1v-3.3h-35.7v3.3h1.1c6.9 0 10.5 2.6 10.5 7.6v22.8m-369.3-43.4c14.6 0 23.3 8.1 23.3 22.4 0 12.7-8.5 22-19.9 22-9.4 0-12.3-2.6-12.3-11.7v-32.7h8.9zm-.5-41.4c12.2 0 18.4 6.1 18.4 19.2 0 11.9-7.1 18.1-19.9 18.1h-7V82.7h8.5zm10.6 39c11.4-1.8 24.4-7.3 24.4-22 0-13.3-10.7-20.3-30.1-20.3h-41.3v3.4h1.8c3.4 0 9.8 0 9.8 10.8V161c0 5.8-5.3 7.9-9.8 7.9h-1.8v3.4h45.6c17.4 0 30.8-11.7 30.8-26.3 0-6.1-2.1-11.4-6.2-15.5-5.3-5.4-11.5-8-23.2-8.8M311.1 79.3l30.3 80.7c2.2 6.4 5.5 8.9 10.3 8.9h.3v3.4h-36v-3.4h.8c7 0 9.7-2.9 7.6-9.4l-7.3-20.4h-29.3l-6.8 18.8c-3 8.8 1.7 11 8.5 11h1.2v3.5h-28.3v-3.5h.3c5.7 0 9.6-3.5 11.8-9.2L304 79.4l7.1-.1zm-21.6 55.2h26l-13-36.2-13 36.2z"/><g id="Shield_00000083806268768429570000000007201989345583083652_"><path class="st2" d="M139.3 142.4c-.3 7.6-1.4 14.6-3.3 20.6-1.8 5.9-4.5 11.1-7.8 15.5-6.3 8.3-13.9 12.4-18.9 15.2-.4.2-3.4 1.8-17.8 8.9v-60.2h47.8M54.7 142.4v60.2l-17.8-8.9c-5-2.7-12.7-6.9-18.9-15.2-3.4-4.4-6-9.7-7.8-15.5-1.9-6.1-3-13-3.3-20.6h47.8"/><path class="st3" d="M139.4 56.6h-48v49.1h48V56.6zM54.7 56.6h-48v49.1h48V56.6z"/><path d="M0 49.9V138c0 43.3 22.7 55.7 33.7 61.6 2 1.1 35.7 17.9 37.9 18.9l1.5.8 1.5-.8c2-1 35.9-17.8 37.9-18.9 10.9-5.9 33.7-18.3 33.7-61.6V49.9H0z"/><path class="st4" d="M87.9 109.2V53.1H58.2v56.1h-55v29.7h55v69.4c7.9 3.9 14.8 7.4 14.8 7.4s6.9-3.4 14.9-7.4v-69.4h55v-29.7h-55z"/><path d="M3.2 53.1h55v56.1h-55zM87.9 53.1h55v56.1h-55zM58.2 138.9h-55c.3 40.2 20.9 51.9 32 57.9 1.1.6 12.9 6.5 23 11.5v-69.4zM87.9 138.9v69.4c10.1-5 21.9-10.9 23-11.5 11.1-6 31.7-17.7 32-57.9h-55zM106.8 124.5l1.1-1.4-1.4-1.7-1.4 1.7 1.1 1.4c0 .7.1 6.6-3.5 8.8 0 0 1.2.2 2.7-.1 0 0 .3 1.6 1 3.3.7-1.8 1-3.3 1-3.3 1.6.3 2.7.1 2.7.1-3.4-2.2-3.4-8.1-3.3-8.8zM115.7 114.4l1.1-1.3-1.4-1.7-1.4 1.7 1.1 1.3c0 .7.1 6.6-3.5 8.8 0 0 1.2.2 2.7-.1 0 0 .3 1.6 1 3.3.7-1.8 1-3.3 1-3.3 1.6.3 2.7.1 2.7.1-3.3-2.2-3.3-8.1-3.3-8.8zM124.7 124.5l1.1-1.4-1.4-1.7-1.4 1.7 1.1 1.4c0 .7.1 6.6-3.5 8.8 0 0 1.2.2 2.7-.1 0 0 .3 1.6 1 3.3.7-1.8 1-3.3 1-3.3 1.6.3 2.7.1 2.7.1-3.4-2.2-3.3-8.1-3.3-8.8zM133.6 114.4l1.1-1.3-1.4-1.7-1.4 1.7 1.1 1.3c0 .7.1 6.6-3.5 8.8 0 0 1.2.2 2.7-.1 0 0 .3 1.6 1 3.3.7-1.8 1-3.3 1-3.3 1.6.3 2.7.1 2.7.1-3.3-2.2-3.3-8.1-3.3-8.8zM97.8 114.4l1.1-1.3-1.4-1.7-1.4 1.7 1.1 1.3c0 .7.1 6.6-3.5 8.8 0 0 1.2.2 2.7-.1 0 0 .3 1.6 1 3.3.7-1.8 1-3.3 1-3.3 1.6.3 2.7.1 2.7.1-3.4-2.2-3.3-8.1-3.3-8.8zM21.9 124.5l1.1-1.4-1.4-1.7-1.4 1.7 1.1 1.4c0 .7.1 6.6-3.5 8.8 0 0 1.2.2 2.7-.1 0 0 .3 1.6 1 3.3.7-1.8 1-3.3 1-3.3 1.6.3 2.7.1 2.7.1-3.3-2.2-3.3-8.1-3.3-8.8zM30.9 114.4l1.1-1.3-1.4-1.7-1.4 1.7 1.1 1.3c0 .7.1 6.6-3.5 8.8 0 0 1.2.2 2.7-.1 0 0 .3 1.6 1 3.3.7-1.8 1-3.3 1-3.3 1.6.3 2.7.1 2.7.1-3.4-2.2-3.3-8.1-3.3-8.8zM39.9 124.5l1.1-1.4-1.4-1.7-1.4 1.7 1.1 1.4c0 .7.1 6.6-3.5 8.8 0 0 1.2.2 2.7-.1 0 0 .3 1.6 1 3.3.7-1.8 1-3.3 1-3.3 1.6.3 2.7.1 2.7.1-3.4-2.2-3.4-8.1-3.3-8.8zM48.8 114.4l1.1-1.3-1.4-1.7-1.4 1.7 1.1 1.3c0 .7.1 6.6-3.5 8.8 0 0 1.2.2 2.7-.1 0 0 .3 1.6 1 3.3.7-1.8 1-3.3 1-3.3 1.6.3 2.7.1 2.7.1-3.3-2.2-3.3-8.1-3.3-8.8zM13 114.4l1.1-1.3-1.4-1.7-1.4 1.7 1.1 1.3c0 .7.1 6.6-3.5 8.8 0 0 1.2.2 2.7-.1 0 0 .3 1.6 1 3.3.7-1.8 1-3.3 1-3.3 1.6.3 2.7.1 2.7.1-3.4-2.2-3.3-8.1-3.3-8.8z"/><g><path d="m73.4 147.3 1.1-1.3-1.4-1.7-1.4 1.7 1.1 1.3c0 .7.1 6.6-3.5 8.8 0 0 1.2.2 2.7-.1 0 0 .3 1.6 1 3.3.7-1.8 1-3.3 1-3.3 1.6.3 2.7.1 2.7.1-3.4-2.2-3.3-8.1-3.3-8.8zM73.4 177.7l1.1-1.4-1.4-1.7-1.4 1.7 1.1 1.4c0 .7.1 6.6-3.5 8.8 0 0 1.2.2 2.7-.1 0 0 .3 1.6 1 3.3.7-1.8 1-3.3 1-3.3 1.6.3 2.7.1 2.7.1-3.4-2.1-3.3-8.1-3.3-8.8zM81.7 162.5l1.1-1.3-1.4-1.7-1.4 1.7 1.1 1.3c0 .7.1 6.6-3.5 8.8 0 0 1.2.2 2.7-.1 0 0 .3 1.6 1 3.3.7-1.8 1-3.3 1-3.3 1.6.3 2.7.1 2.7.1-3.4-2.2-3.3-8.1-3.3-8.8zM65 162.5l1.1-1.3-1.4-1.7-1.4 1.7 1.1 1.3c0 .7.1 6.6-3.5 8.8 0 0 1.2.2 2.7-.1 0 0 .3 1.6 1 3.3.7-1.8 1-3.3 1-3.3 1.6.3 2.7.1 2.7.1-3.4-2.2-3.3-8.1-3.3-8.8z"/></g><g><path d="m81.7 192.9 1.1-1.3-1.4-1.7-1.4 1.7 1.1 1.3c0 .7.1 6.6-3.5 8.8 0 0 1.2.2 2.7-.1 0 0 .3 1.6 1 3.3.7-1.8 1-3.3 1-3.3 1.6.3 2.7.1 2.7.1-3.4-2.1-3.3-8.1-3.3-8.8zM65 192.9l1.1-1.3-1.4-1.7-1.4 1.7 1.1 1.3c0 .7.1 6.6-3.5 8.8 0 0 1.2.2 2.7-.1 0 0 .3 1.6 1 3.3.7-1.8 1-3.3 1-3.3 1.6.3 2.7.1 2.7.1-3.4-2.1-3.3-8.1-3.3-8.8z"/></g><g><path d="m73.4 78 1.1-1.4-1.4-1.6-1.4 1.7 1.1 1.4c0 .7.1 6.6-3.5 8.8 0 0 1.2.2 2.7-.1 0 0 .3 1.6 1 3.3.7-1.8 1-3.3 1-3.3 1.6.3 2.7.1 2.7.1-3.4-2.2-3.3-8.2-3.3-8.9zM81.7 62.8l1.1-1.4-1.4-1.7-1.4 1.8 1.1 1.4c0 .7.1 6.6-3.5 8.8 0 0 1.2.2 2.7-.1 0 0 .3 1.6 1 3.3.7-1.8 1-3.3 1-3.3 1.6.3 2.7.1 2.7.1-3.4-2.2-3.3-8.2-3.3-8.9zM65 62.8l1.1-1.4-1.4-1.7-1.4 1.7 1.1 1.4c0 .7.1 6.6-3.5 8.8 0 0 1.2.2 2.7-.1 0 0 .3 1.6 1 3.3.7-1.8 1-3.3 1-3.3 1.6.3 2.7.1 2.7.1-3.4-2.1-3.3-8.1-3.3-8.8z"/><g><path d="m81.7 93.3 1.1-1.4-1.4-1.7-1.4 1.7 1.1 1.4c0 .7.1 6.6-3.5 8.8 0 0 1.2.2 2.7-.1 0 0 .3 1.6 1 3.3.7-1.8 1-3.3 1-3.3 1.6.3 2.7.1 2.7.1-3.4-2.2-3.3-8.2-3.3-8.8zM65 93.3l1.1-1.4-1.4-1.7-1.4 1.7 1.1 1.4c0 .7.1 6.6-3.5 8.8 0 0 1.2.2 2.7-.1 0 0 .3 1.6 1 3.3.7-1.8 1-3.3 1-3.3 1.6.3 2.7.1 2.7.1-3.4-2.2-3.3-8.2-3.3-8.8z"/></g></g><g><path d="m46.3 80.8.2.7c.2.6.3 1.1.4 1.5.6 2.7 1.1 3.4 2.4 3.4.7 0 1.4-.4 1.5-1l.3-.9c.1-.2.2-.3.4-.3.5 0 .7.5.8 1.7 0 .3.1 1.1.3 2.3.1.7.2 1.4.2 2s0 .8-.3 1.5c.2.9.3 2.1.3 2.9 0 1.2-.2 2.2-.6 2.8.2.8.2 1.1.2 1.8 0 .5 0 1-.1 1.6-.2 1.1-.2 1.4-.2 1.6s0 .4.1.6c.1.3.1.5.1.6s-.1.2-.1.2l-.9-.4-1-.6c-.3-.2-.6-.4-1.1-.8-.9.8-1.2.9-3.5 1.6-.5.1-.8.3-1 .4-.3.2-.5.3-.6.3-.4 0-.6-.6-.6-2 0-1 .1-1.9.3-2.6-.7-.3-1.3-.4-1.7-.4-.1 0-.3 0-.7.1h-.2c-.1 0-.3-.2-.3-.4s.1-.6.3-1l.5-1.1c.2-.4.6-.9 1.1-1.3s.9-.6 1.2-.7l1.7-.3c1-.2 1.6-.7 1.6-1.4s-.4-1.1-1.5-1.5l-2-.7c-.5-.2-1.1-.5-1.8-.9-1.1-.7-1.3-.7-1.6-.7-.4 0-.6.3-.6.8 0 .8.5 1.4 1.3 1.4.2 0 .3 0 .5-.1s.4-.1.5-.1c.2 0 .3.1.3.4v.2l-.1.8c-.1.7-.5 1.5-1.5 2.8l-.4.6c-.4 1.5-1.3 2.9-2.5 3.7-.3.2-.5.3-.5.4 0 0-.2.3-.4.7-.1.2-.4.6-.9 1.1-.4.4-.8.8-1.2 1.1-.5.4-.8.7-.9.8l-.5.8c-.1.1-.2.2-.4.2-.4 0-.8-.4-1-1.2-.2-.5-.3-.7-.7-.7-.2 0-.5 0-.8.1l-.7.1h-1.7c-.8 0-2 .2-2.6.5-.2.1-.4.1-.5.1s-.2-.1-.3-.3c-.1-.2-.1-.2-.1-.4 0-.9.6-2.5 1.4-3.7.5-.8.7-1 1.3-1.5-.2-.8-.7-1.4-1.3-1.6l-.8-.2c-.1 0-.2-.1-.2-.2 0-.2.4-.6 1.1-.9.9-.5 1.8-.7 2.6-.7s1.5.3 2.4 1c1.3 1 1.6 1.2 2.2 1.2 1 0 1.9-.9 1.9-1.9 0-.6-.3-1.3-1.2-2.5-1.3-1.7-1.7-2.6-1.7-3.8 0-.8.2-1.7.5-2.2l.5-.7c.1-.2.2-.3.2-.5 0-.3-.4-.5-.8-.5-.7 0-2.2.5-3.3 1.2-.6.3-.9.7-.9 1 0 .1.1.3.2.4l.5.3c.1 0 .1.1.1.2s-.1.2-.2.4l-.9 1.2c-.5.6-1.2 1.4-2 2.1l-.5.5s-.1.2-.4.7c-.3.6-1.2 1.5-2.1 2.1-.3.2-.6.4-.7.5s-.2.3-.4.7c-.1.2-.3.6-.6 1-.5.7-.8 1.2-1.1 1.4l-1.3 1.3c-.4.4-.8 1.2-1.3 2.9-.3 1-.6 1.6-.8 1.6-.1 0-.2-.1-.4-.3-.9-1.1-1.7-1.7-2.1-1.7-.1 0-.3.1-.5.2-.3.2-.8.4-1.3.5l-1.7.3c-1.3.2-1.8.5-2.6 1.4-.2.2-.3.3-.4.3-.1 0-.2-.2-.2-.5v-.4l.2-1.3c.2-1.3.6-2.3.9-3l.8-1.4c.2-.3.2-.5.2-.8 0-1.1-1.1-2.1-2.5-2.2-.3 0-.5-.1-.5-.3 0-.2.4-.7.9-1.1.9-.7 2.2-1.2 2.9-1.2.5 0 1.2.2 2.1.6l1 .4c.4.2.7.2 1 .2 1.1 0 2.1-1 3.4-3.2.6-1 .8-1.7.8-2.4 0-1.2-.6-1.9-1.5-1.9-.7 0-1.5.3-2 .9-.5.5-.7 1-.7 1.4v.6c0 .4-.1.7-.4.7-.4 0-1.1-.6-2.9-2.8-1.4-1.7-1.7-2.4-1.7-4-1.6-2-2-2.9-2-4.3l.1-1c-1.1-1.3-1.4-2-1.4-3.2 0-.4.1-.7.3-1.2-.6-.8-.7-1.2-.9-1.8l-.2-1c-.2-.7-.4-1.2-.7-1.7-.4-.6-.5-.7-.5-.9 0-.5.4-.8 2-1.2-.1-.5-.1-.8-.1-1 0-.3 0-.5.1-1.1l.3-1.7c.1-.7.2-1.2.2-1.5s-.1-.6-.3-1.5c-.2-.5-.3-.9-.4-1.1-.2-.2-.3-.5-.3-.6 0-.2.1-.3.3-.3.5 0 1.7.7 2.9 1.8 2.7 2.2 3.2 3.1 3.6 5.8 0 .2.1.5.1.9 1.3.9 2 2.1 2 3.3 0 1-.4 2.1-.9 3l-.9 1.4c-.3.4-.4 1-.4 1.5 0 .9.3 1.7.9 2.8.7 1.3 1.3 1.8 2.1 1.8 1.2 0 2.3-2.1 2.3-4.6v-1.1c0-.5 0-.9.1-1.5.1-.7.1-1.2.1-1.4v-1.8c0-.3-.1-.5-.5-.9l-1-1.1c-1.5-1.6-2.3-3.1-2.3-4.3 0-1.4 1-2.5 2.4-2.5.3 0 .5 0 1 .2v-.3c0-2.1.4-3.6 1-3.6l.2.1.8.7 1 .7.3.3c0-.6 0-.6.6-1.3.1-.2.4-.5.7-.9.2-.3.4-.6.5-.7.1-.1.2-.3.2-.4.1-.2.2-.3.4-.3.1 0 .2.2.4.7.1.3.2.4 1 1.1l.6.6c.1.1.2.4.4.9 0 .1.1.2.1.4.3-.4.5-.6.9-.8l.7-.4c.3-.2.4-.2.5-.2s.1.1.2.3.2.4.4.7c.5.9.7 1.3.7 1.7v1.1c1.5.5 2.1 1.3 2.1 2.9 0 1.2-.6 2.5-1.8 4-.8 1-.9 1.1-.9 1.8 0 3.5 2.4 5.4 6.6 5.5h3.1c2 0 3.2.2 5.1.8 2.2.7 2.9.9 3.5.9.2 0 .4-.1.6-.2.2-.1.3-.3.3-.4 0-.7-1.1-1.2-4.9-2.2-7.7-2.2-11-5.3-11-10.4 0-3.9 3.3-7 7.5-7 1.4 0 3.5.4 4.7.8l1.9.7c.4.1.7.2 1 .2.6 0 1-.5 1-1.6 0-.6.1-.8.5-.8.5 0 1.4.7 2.1 1.7.8 1.1 1.3 2.3 1.3 3.1 0 1.1-.5 1.8-1.6 2.4-1 1.6-2.3 2.3-4.1 2.3-1.3 0-3.3-.8-6.4-2.6-1.1-.6-1.7-.8-2.2-.8-.8 0-1.4.5-1.4 1.2s.5 1.1 1.9 1.6c2 .7 2.5 1 3.3 1.8 2.4.4 3.4.8 4.9 2 4.1 1.3 6.6 4.1 6.6 7.3 0 3.1-2.1 5.3-5 5.3-.4-.8-.8-.9-1.9-1.1"/><path class="st4" d="M50.9 101.2c-.1-.6-.2-.8-.2-1.1v-.4l.1-.7v-.6c0-.6-.1-1.1-.3-1.4l-.6-.7c-.2-.2-.3-.5-.5-.9-.1-.2-.1-.3-.1-.4 0-.2.1-.3.3-.3.1 0 .2 0 .6.3.2.1.3.2.5.2.3 0 .4-.5.4-1.2 0-.9-.1-1.4-.3-1.6l-.7-.8-.6-.5c-.1-.1-.2-.3-.2-.4 0-.2.2-.3.4-.3s.7.1 1 .2h.2c.2 0 .3-.1.3-.4V90l-.1-1-.3-1c-.1-.3-.1-.4-.4-.4h-.1l-1.2.2h-.2c-1.5 0-3.1-1.3-3.6-2.9l-.9-3c-.3-.9-1-1.8-2.2-2.8-.4-.3-.7-.5-.9-.5l-.8-.1c-.2 0-.3-.1-.3-.2 0-.2.2-.3.6-.3l1.5.1c.6.1 1.4.3 2.5.7 1.4.5 2.3.7 3.1.7 2.3 0 3.7-1.3 3.7-3.4 0-1.4-.8-3.1-1.9-4.1-.7-.6-1.3-1-1.5-1-.1 0-.2.1-.2.2v.7c0 .2-.1.4-.3.4s-.5-.3-.8-.9c-.9-1.8-2.3-2.9-3.7-2.9-.2 0-.4.1-.4.2s.1.3.2.7l.4.8.2.4c0 .1-.1.1-.2.1-.2 0-.6-.2-.8-.4l-.7-.7-.6-.9c-.5-.7-.9-1.1-1.9-1.6-.6-.3-1-.5-1.1-.6-.2-.5-.4-.5-.6-.5s-.2.1-.2.2c0 .2.1.3.2.5.3.5.5.8.5.9s-.1.3-.2.3c-.4 0-1.1-.7-1.8-1.7-.5-.8-.8-1.7-.8-2.6 0-2 1.5-3.5 3.4-3.5 1 0 2.3.4 3.5 1.2l2.2 1.4c.8.5 1.9.8 2.5.8.3 0 .9-.1 1.4-.2.2-.1.4-.1.6-.2.1-.1.2-.2.2-.3s-.1-.2-.1-.2l-.3-.1-1-.2c-.3 0-.7-.2-1.3-.5-1.2-.6-2-1-2.3-1.2-.8-.5-1.3-.8-1.5-.9-.4-.1-.6-.3-.6-.4 0-.1.1-.2.2-.2s.3.1.5.2c.7.4 1.3.7 1.7.7l2 .7c1 .3 2.4.7 3.1.7.8 0 1.5-.7 1.5-1.5 0-.5-.3-1.4-.8-2-.1-.2-.2-.2-.3-.2-.2 0-.3.1-.3.4v.4l.1.6c0 .6-.4 1.1-.9 1.1-.2 0-.4 0-.7-.1l-3-1c-2.5-.8-3.7-1.1-5-1.1-3.6 0-6.4 2.5-6.4 5.8 0 3.7 2.6 6.1 9 8.3 6.3 2.2 7.2 2.7 7.2 4.3 0 .9-.9 1.8-2 1.8-.4 0-.8 0-1.1-.1-.2 0-1.3-.3-3.2-.7-1.9-.5-3.7-.7-5.8-.7-4.6 0-7.1.8-9.3 2.9-.5.5-.7.6-1.4.6h-1.1c-.5 0-1 .3-1.3.8-.5.8-.8 1.2-.8 1.3-.1.2-.3.3-.5.3-.4 0-.7-.3-1.1-1.4-.2-.5-.6-1-1-1.4l-.9-.8c-.2-.1-.2-.3-.2-.4s.1-.3.2-.4c.4-.6.6-.9.7-1.2.1-.6.1-.6.4-.6s.4.3.4 1.4c0 .3.1.7.4 1.3l.5 1.1c.1.1.2.2.4.2.5 0 1.1-1.1 1.3-2.3.1-1 .2-1.3.4-1.3.1 0 .2 0 .2.1s.2.3.4.8c.1.3.3.5.6.7.3.2.5.3.6.3h.1c.4 0 .5-.2.6-1.1v-.5l-.1-.7-.1-.5c0-.3.1-.5.3-.5.1 0 .2.1.3.2l.5.5c.3.3.6.5.9.5.4 0 .6-.2.6-.4s-.1-.4-.4-1.1L29 74c-.4-.7-.7-1-1-1h-.5l-.5.3c-.2.1-.3.1-.4.1s-.1-.1-.1-.2c0-.4.3-1.1.8-1.9.4-.6.6-1.9.7-3.7.2-2.4.5-4 .8-4 .2 0 .3.2.3.7v1c0 .4.1.8.2.8.4 0 .9-.6 1.2-1.6.2-.4.2-.7.2-1l-.1-.2-.9-1.7-.9-.3c-.2-.1-.3-.1-.3-.2V60l-.1-.6-.2-.5-.2-.5c-1 .6-1.5.9-1.9 1.4s-.6.7-.8.7c-.1 0-.2-.1-.2-.2s0-.4.1-.8v-.3c0-1-.6-2-1.6-2.6l-.3.4-.3.5-.6.7c-.2.2-.3.5-.5.9-.1.2-.1.4-.1.5V59.9c0 .4 0 .5-.2.5l-.1-.1-.1-.3-.5-.6-.8-.5-.4-.3c-.1.2-.1.3-.2.4-.1.3-.2.6-.2.7l-.1.7v.9c0 .4-.1.6-.3.6-.1 0-.3-.1-.5-.2s-.4-.2-.7-.2c-.7 0-1.2.5-1.2 1.3 0 .9.3 1.8.7 2.4l.6.8c.2.2.5.4.5.3l.1-1-.1-.8v-.4c0-.3.1-.5.3-.5.3 0 .4.3.6 1.1l.4 1.7.4 2.2c.1.6.3 1.2.6 1.9.4.9.6 1.4.8 1.6.5.7.6.8.6.9s-.1.2-.2.2-.2 0-.4-.1-.3-.2-.6-.2l-.6.1c-.7 0-.9.6-.9 3.8 0 1.9.4 4.5.9 5.7l1 2.5c.2.4.2.8.2 1.2 0 3.4-4.5 8.7-9.5 11.2-1.8.9-2.4 1.8-2.6 3.8v.6c.7-.4 1.1-.5 1.6-.7 1.4-.4 1.7-.5 1.9-1.2l.2-.6c.1-.2.2-.3 1.3-.9.4-.2.6-.4.7-.6.2-.4.4-.6.6-.6.1 0 .2.1.2.2v.2l-.5 1.3-.1.3c0 1 .5 1.8 1.5 2.3.2-1.1.3-1.4.6-2l.8-1.3c.3-.5.4-1.1.4-2 0-.5 0-1.1-.1-1.5v-.4c0-.2.1-.4.3-.4.2 0 .3.1.3.1l.2.9c0 .2.2.3.5.3.4 0 1-.6 1.6-1.6.2-.4.3-.8.3-1.2l-.1-.6-.1-.7V91c0-.3.2-.5.4-.5.1 0 .2 0 .2.1l.3 1.1c.1.4.3.6.6.6s.9-.5 1.2-1.2c.3-.6.4-1.2.4-1.9 0-1 .1-1.3.5-1.3.1 0 .2 0 .2.1l.2.6c.1.2.2.4.3.4.2 0 .7-.6 1.1-1.2.1-.2.1-.3.1-.4 0-.2-.1-.4-.4-.6-.5-.4-.5-.5-.5-1.1s.1-.9.5-1.6c.2-.4.4-.8.6-1.1.6-1.2.8-1.4 1-1.4s.3.2.3.4c0 .1 0 .3-.1.4-.1.3-.2.4-.2.6s.2.3.3.3c.2 0 .5-.1.8-.3.1-.1.6-.2 1.3-.5l1.5-.6c.3-.1.6-.1.9-.1.3 0 .6 0 .8.1.6.1.9.2 1.1.2.4 0 .8-.4.8-.8 0-.3-.3-.9-.8-1.4-.2-.2-.2-.3-.2-.4l.1-.2.2-.2c.3 0 1.1.8 1.7 1.8 4 6.3 5.5 7.8 8.2 8.7 2.7.8 3.5 1.5 3.5 3.1 0 .9-.5 1.9-1.5 3.3-2 2.8-2.5 4-2.5 5.9v.3c.2-.1.4-.2.5-.2.4-.2.6-.3.7-.3l1.2-.2c.4-.1.7-.5.7-1v-.1l-.1-1v-.1c0-.4.2-.8.4-1 .3-.3.4-.3.5-.3.1 0 .3.1.4.3l.7 1.6c.3.6.6.9 1.6 1.3M13.3 67.4c-.3 0-.5.3-.5.9l-.1.9c-.1.8-.1.9-.1 1.1 0 .7.2 1.2.5 1.2s.8-.6 1-1.2c.1-.4.2-.7.2-1.1 0-.3-.1-.7-.2-1.1-.3-.4-.5-.7-.8-.7"/><path class="st4" d="m9.5 60.6.7.7c1.1 1.1 1.6 2.8 1.6 5.3 0 .6 0 .9-.1 2.4-.1.8-.1 1.4-.1 1.9 0 5.8 1.9 10.2 4.4 10.2.8 0 1.3-.4 2-1.5.1-.2.3-.3.4-.3s.2.1.2.4l.1 1 .1.9.1 1 .1.9v.1c0 .3-.1.4-.3.4l-.8.1c-.4.1-.9.2-1.3.5-.7.4-1.1.7-1.2.9l-.5 1.1c-.1.1-.2.2-.3.2-.3 0-.7-.5-1.2-1.3-.4-.7-.7-1.3-.7-1.5 0-.1.1-.2.4-.2H13h1.4c.2 0 .3-.2.3-.3 0-.1-.1-.2-.2-.3l-2.1-.9c-.6-.3-1.2-.8-1.6-1.5-.5-1.1-.8-1.8-.8-2.1s.1-.5.4-.5c.1 0 .2 0 .3.1.2.1.5.2.6.2.2 0 .3-.1.3-.3 0-.1-.2-.3-.4-.5-1.8-1.3-2.8-2.7-2.8-4 0-.4.1-.5.3-.5H9l.6.1c.2 0 .4-.1.4-.4 0-.1-.2-.3-.4-.4-.4-.2-.7-.4-.7-.4-.3-.2-.5-.4-.7-.7-.1-.1-.3-.6-.8-1.5l-.7-1.3c-.2-.5-.4-.7-.4-.8 0-.1-.1-.2-.3-.4.6-.3.9-.4 1.5-.4s1 .4 1.5 1.5c.3.7.6 1.2.8 1.2.1 0 .1-.2.1-.5 0-.5-.1-.9-.2-1.4-.1-.4-.2-.8-.1-1l-.1-.7-.4-.1c-.1-.1-.3-.2-.4-.5-.3-.4-.4-.7-.4-1.1 0-.2.1-.5.1-.8.5-1.8.6-2.5.6-3v-.4l.5.4zM15 94.2c-.7-.1-1-.2-1.4-.3-.1 0-.4-.2-.9-.4-.8-.3-1.3-.5-1.8-.5-.7 0-1.3.2-1.9.8l.4.3.9.7.9.7c.2.2.5.3.8.3 1 0 1.8-.4 3-1.6M33 102.7c.3-.6.4-.7.9-1.2 1.3-1.1 1.9-1.9 1.9-2.6v-1.1c0-.6.1-.8.4-.8.1 0 .3.1.3.1l.2.6c.1.1.2.2.4.2s.4-.2.7-.5l.5-.6c.2-.3.3-.6.3-.9 0-.2 0-.4-.1-.5 0-.1-.1-.3-.3-.7-.1-.3-.2-.7-.2-.8 0-.3.2-.5.4-.5.1 0 .3.1.3.1l.4.5c.1.1.2.2.4.2s.4-.2.5-.4l.4-.7c.1-.2.1-.3.1-.4s-.2-.3-.4-.4l-.6-.3c-.8-.4-1.4-1.7-1.4-3 0-.2 0-.4.1-.5l.3-.8c.1-.2.1-.5.1-.7 0-.5-.2-1-.5-1.4-.4-.6-.6-.9-.6-1-.3-.7-.4-.9-.6-.9l-.2.1-.3.2h-.6l-.6.7-.7.3c-.4.2-.8 1-.8 1.7 0 1.2.1 1.5 1.7 4.3.6 1.1.9 2 .9 2.7 0 1.9-1.7 3.3-5.1 4.1l-2.1.5c-1.6.4-2.5 1.5-2.8 3.3.7-.3.9-.4 2.1-.4H29.2c.6 0 .7 0 1.1-.6.5-.6.9-1 1.5-1.3l.7-.3.6-.3h.2c.2 0 .3.1.3.2 0 .2-.2.5-.4.8-.5.6-.7 1.1-.7 1.8 0 .4.1.7.5 1.2"/><path class="st4" d="M27.1 95.5c.5.3 1.1.8 1.4 1.3.4.6.5.7.9.7.2 0 .4 0 .7-.1l.4-.1c.8-.1 1-.3 1-.5 0-.1-.1-.3-.2-.4l-.5-.5-.5-.5c-.3-.3-1-.5-1.5-.5-.6 0-.9.1-1.7.6M42.2 98h1.3c1 0 2-.9 2-1.8 0-.3-.3-.5-.8-.5-1.2 0-2 .7-2.5 2.3"/><path class="st5" d="M24.8 65.8c0 .4.3.8.5.8s.4-.5.9-1.3c.7-1.1 1.3-2.2 1.3-2.8 0-.2-.1-.3-.2-.3l-.5.5c-.4.3-.7.5-1.6.8-.5.2-.7.4-.7.8l.1.4.2.7v.4zM22 63.4l.8.4c.2.1.3.3.3.4l-.1.3c-.1.4 0 .8 0 1 0 .8-.7.8-.9.8-.2 0-.1-.1-.4-.5l-1-1.2c-.3-.4-.6-1.2-.7-2.1v-.1c0-.3.1-.4.3-.4.1 0 .4.1.5.2l1.2 1.2zM23.8 68.3H23l-.6-.3c-.2-.1-.4-.2-.7-.2-.4 0-.7.2-.7.6s.2 1 .6 2.1l.6 1.5c.5 1.3 1 1.9 1.7 1.9.6 0 .7-.6 1.1-1.6.9-2.3 1.5-2.7 1.5-3.5 0-.6-.1-.7-.6-.7l-.4-.1-.7.5-1-.2z"/><path class="st4" d="M23.8 69.6h-.6c-.1 0-.2.1-.2.1l-.1.2.2 1.1.2 1c.1.5.3.7.7.7.5 0 .7-.3.8-.9l.1-1c.1-.7.1-1 .1-1.1s-.1-.2-.1-.3c-.1-.1-.2-.1-.2-.1l-.9.3z"/></g><g><path d="m133.3 80.8.2.7c.2.6.3 1.1.4 1.5.6 2.7 1.1 3.4 2.4 3.4.7 0 1.4-.4 1.5-1l.3-.9c.1-.2.2-.3.4-.3.5 0 .8.6.8 1.7 0 .4.1 1.2.3 2.3.1.8.2 1.5.2 2.2 0 .5-.1.8-.3 1.3l.1.6c.2.9.2 1.3.2 1.7 0 2-.1 2.6-.6 3.4.2.8.2 1.1.2 1.7 0 .4 0 .9-.2 1.6l-.2 1.4v.8c.1.3.2.5.2.6s-.1.2-.2.2l-.9-.4-1-.6c-.3-.2-.6-.4-1.1-.8-.9.8-1 .9-2.1 1.2-1.5.4-2.1.6-2.4.8-.3.2-.5.3-.6.3-.4 0-.6-.7-.6-1.7 0-1.5.1-2.3.3-2.8-.9-.3-1.4-.4-1.7-.4-.1 0-.2 0-.7.1h-.2c-.1 0-.2-.2-.2-.4 0-.5.3-1.4.7-2.1.6-1 1.5-1.9 2.3-2.1l1.7-.3c1-.2 1.6-.7 1.6-1.4s-.4-1.1-1.5-1.5l-2-.7c-.7-.2-1.3-.5-1.9-.9-.5-.3-.8-.5-1-.6s-.3-.1-.5-.1c-.4 0-.7.3-.7.8 0 .8.6 1.4 1.4 1.4.2 0 .3 0 .5-.1s.4-.1.4-.1c.2 0 .4.2.4.5 0 .8-.5 2.3-1.1 2.9l-.6.7-.4.6c-.2 1.2-1.3 2.9-2.5 3.7-.3.2-.5.3-.5.4 0 0-.2.3-.4.7-.1.2-.4.6-.9 1.1-.4.4-.8.8-1.2 1.1-.5.4-.8.7-.9.8l-.5.8c-.1.2-.2.2-.4.2-.4 0-.8-.4-1-1.2-.2-.5-.3-.7-.7-.7-.2 0-.5 0-.8.1l-.7.1H115c-.9 0-2.1.2-2.6.5-.2.1-.4.1-.5.1-.2 0-.4-.2-.4-.7 0-1.5 1.1-3.7 2.6-5.2-.2-.9-.7-1.4-1.3-1.6-.5-.1-.8-.2-.8-.2-.1 0-.1-.1-.1-.2 0-.3.3-.6 1.1-.9 1.3-.6 1.7-.7 2.5-.7s1.6.3 2.4 1c1.3 1 1.6 1.2 2.2 1.2 1 0 1.9-.9 1.9-1.9 0-.6-.4-1.4-1.2-2.5-1.2-1.6-1.7-2.6-1.7-4 0-.9.2-1.4 1-2.7.1-.2.2-.4.2-.5 0-.3-.4-.5-.9-.5s-1.1.2-2 .6c-1.4.6-2.2 1.2-2.2 1.6 0 .1.1.3.2.4l.5.3c.1 0 .1.1.1.2s-.1.2-.2.4c-.1.1-.4.5-.9 1.2-.7.9-1.3 1.5-2 2.1-.3.2-.4.4-.5.5l-.4.7c-.3.6-1.2 1.5-2 2.1-.4.2-.6.4-.7.5s-.2.3-.4.7c-.5.9-1.2 1.9-1.7 2.4l-1.3 1.3c-.4.4-.9 1.5-1.4 2.9-.4 1.1-.6 1.6-.8 1.6-.1 0-.2-.1-.4-.3-.9-1-1.7-1.7-2.1-1.7-.1 0-.3.1-.5.2-.4.2-.8.4-1.3.5l-1.7.3c-1.4.3-2 .6-2.6 1.4-.2.2-.3.3-.4.3-.2 0-.3-.2-.3-.6v-.4s.1-.5.2-1.3c.2-1.3.6-2.4.9-3l.8-1.4c.1-.3.2-.5.2-.8 0-1.1-1-1.9-2.5-2.2-.3 0-.5-.2-.5-.3 0-.2.4-.6.9-1.1 1-.7 2.1-1.2 2.8-1.2.5 0 1.2.2 2.1.6l1 .4c.4.2.7.2 1 .2 1.1 0 2.1-1 3.4-3.2.6-1 .8-1.7.8-2.4 0-1.2-.5-1.9-1.5-1.9-.7 0-1.4.3-2 .9-.5.5-.8 1-.8 1.5v.7c0 .4-.1.5-.4.5-.4 0-.8-.3-1.6-1.3-.3-.4-.8-.9-1.3-1.5-1.4-1.7-1.7-2.3-1.8-4-1.6-2-2-3.1-2-4.3l.1-1c-1.1-1.4-1.4-1.9-1.4-3.2 0-.6 0-.8.3-1.2-.6-.8-.7-1.2-.9-1.8l-.2-1c-.2-.7-.4-1.2-.7-1.7-.4-.6-.5-.7-.5-.9 0-.5.5-.8 1.6-1.1l.4-.1c-.1-.5-.1-.8-.1-1 0-.3 0-.5.1-1.1l.3-1.7c.1-.7.2-1.2.2-1.5 0-.4-.1-.7-.3-1.5-.1-.5-.3-.8-.5-1.1s-.3-.5-.3-.6c0-.2.2-.3.4-.3.1 0 .3.1.5.2 1.6.9 3.3 2.2 4.5 3.6 1.1 1.2 1.4 2.1 1.6 4.8 1.4 1.1 2 2 2 3.5 0 .9-.3 1.8-.9 2.8-.6.9-.9 1.4-.9 1.4-.3.5-.4 1-.4 1.6 0 .8.3 1.6.9 2.8.7 1.2 1.3 1.8 2.1 1.8 1.2 0 2.3-2.1 2.3-4.4v-1.8l.1-1.1.1-1.4.1-1.1v-.6c0-.5-.1-.6-1.5-2.1-1.6-1.7-2.3-3.1-2.3-4.5 0-1.3 1.1-2.3 2.4-2.3.3 0 .5 0 1 .2v-2l.3-1.2c.2-1 .3-1.1.7-1.1l.2.1.8.7 1 .7.3.3c.1-.6.1-.7.6-1.3.2-.3.5-.6.7-.9l.5-.7.3-.4c.2-.3.3-.4.4-.4s.2.2.4.7c.1.2.2.4.4.6l.6.5c.5.4.8 1 1 1.9.4-.5.5-.6.9-.8l.7-.4c.3-.2.4-.2.5-.2 0 0 .1.1.2.3s.2.5.4.7c.6 1 .7 1.1.7 1.8v1c1.5.4 2.1 1.2 2.1 2.9 0 1.3-.6 2.5-1.8 4-.8 1-.9 1.3-.9 2 0 3.3 2.5 5.3 6.7 5.3h3.1c2 0 3.2.2 5.1.8 2.2.7 2.9.9 3.5.9.5 0 .9-.3.9-.6 0-.7-1.1-1.2-4.9-2.3-7.7-2.2-11-5.3-11-10.4 0-3.9 3.3-7 7.5-7 1.3 0 3.4.4 4.6.8l1.9.7c.4.1.7.2 1 .2.7 0 .9-.4 1-1.6 0-.5.2-.8.6-.8.5 0 1.4.8 2.1 1.7.7 1 1.2 2.3 1.2 3.1 0 1-.5 1.7-1.6 2.4-1 1.6-2.3 2.3-4.1 2.3-1.3 0-3.6-.9-6.4-2.6-1.1-.7-1.6-.8-2.2-.8-.8 0-1.4.5-1.4 1.2s.5 1.1 1.9 1.6c2.2.8 2.7 1 3.3 1.8 2.4.4 3.4.8 4.9 2 4.3 1.4 6.6 4 6.6 7.4 0 3.1-2.1 5.3-5 5.3.3-.1-.1-.2-1.2-.4"/><path class="st4" d="M137.9 101.2c-.1-.4-.1-.6-.1-.9l.1-.6c.1-.9.1-1.3.1-1.8 0-.3-.1-.6-.3-.9l-.6-.7c-.4-.5-.5-.9-.5-1.3 0-.3.1-.4.2-.4h.2l.4.2c.2.1.3.2.5.2.3 0 .4-.4.4-1.3 0-1.2-.2-1.8-.9-2.3l-.7-.5c-.1-.1-.2-.2-.2-.4s.1-.4.3-.4c.1 0 .3 0 .5.1l.5.1h.2c.2 0 .2-.1.2-.4v-.2l-.1-1c-.1-1-.3-1.4-.6-1.4h-.1l-1.2.2h-.2c-1.5 0-3.2-1.4-3.6-2.9l-.9-3c-.3-.9-1.1-1.9-2.2-2.8-.4-.3-.7-.5-1-.5l-.8-.1c-.2 0-.3-.1-.3-.2 0-.2.2-.3.5-.3 1.2 0 2.4.2 4.1.8 1.5.5 2.4.7 3.1.7 2.3 0 3.7-1.2 3.7-3.2 0-1-.4-2.3-.9-3.1-.5-.7-1.2-1.4-2.2-2-.1-.1-.3-.1-.4-.1-.1 0-.2.1-.2.2v.7c0 .2-.1.4-.3.4-.3 0-.5-.3-.8-.9-.9-1.8-2.2-2.9-3.7-2.9-.3 0-.5.1-.5.3 0 .1.1.4.2.6.1.2.3.5.4.8.1.2.1.3.1.4s-.1.1-.2.1c-.2 0-.6-.2-.8-.4l-.7-.7-.6-.9c-.5-.7-1-1.2-1.9-1.6l-1.2-.6c-.2-.1-.4-.2-.6-.2-.1 0-.2.1-.2.2s.1.3.2.5c.2.4.4.8.4.9 0 .2-.1.3-.2.3-.3 0-.9-.6-1.7-1.7-.6-.8-.9-1.7-.9-2.6 0-2 1.5-3.5 3.5-3.5 1 0 2.3.4 3.5 1.2l2.2 1.4c.8.5 1.9.8 2.6.8.4 0 .5 0 1.3-.2.2-.1.4-.1.6-.2.1-.1.2-.2.2-.3 0-.2-.1-.3-.4-.3-1-.1-3.2-.9-4.6-1.8-.8-.5-1.3-.8-1.5-.9-.4-.1-.6-.3-.6-.5 0-.1.1-.1.2-.1h.3l2 .7 2 .7c1 .3 2.5.7 3.1.7.9 0 1.5-.6 1.5-1.5 0-.4-.1-.9-.3-1.3-.3-.6-.7-1-.8-1-.2 0-.3.2-.3.5v.2l.1.6c0 .6-.3 1-.9 1-.2 0-.5-.1-.8-.1l-3-1c-2.6-.9-3.7-1.1-5-1.1-3.7 0-6.4 2.5-6.4 5.8 0 3.7 2.5 6 9.1 8.3 6.3 2.2 7.2 2.7 7.2 4.4 0 1-.9 1.7-2 1.7-.4 0-.8 0-1.1-.1s-1.3-.3-3.2-.7c-1.9-.5-3.6-.7-5.8-.7-4.6 0-6.8.7-9.3 2.9-.6.5-.8.6-1.4.6h-1c-.6 0-1 .3-1.3.8l-.7 1.3c-.1.2-.3.3-.5.3-.5 0-.7-.3-1.2-1.4-.2-.6-.6-1.1-.9-1.4l-1-.8c-.1-.1-.2-.2-.2-.3 0-.1.1-.3.2-.4.1-.2.3-.4.4-.7.1-.3.2-.5.2-.6v-.4c0-.1.2-.2.3-.2.3 0 .4.2.4 1.4 0 .3.1.7.4 1.3l.5 1.1c.1.1.2.2.4.2.5 0 1.1-1.1 1.3-2.3.1-1 .2-1.3.4-1.3s.3.1.7.9c.1.3.3.5.6.7.2.2.4.3.6.3h.1c.4 0 .5-.2.6-1.1v-.5l-.1-.7-.1-.5c0-.3.1-.5.3-.5.1 0 .2.1.3.2l.5.5c.3.3.6.5.9.5.4 0 .6-.2.6-.5 0-.2-.1-.3-.5-1 0-.1-.2-.3-.3-.6-.4-.8-.6-1-1-1h-.5l-.6.2c-.2.1-.3.1-.4.1s-.1-.1-.1-.2c0-.4.3-1.1.8-1.9.3-.5.6-1.8.8-3.7l.2-2.2c.1-1.3.3-1.8.6-1.8.1 0 .2 0 .2.1l.1.7v.5c0 .7.1 1.2.2 1.2.2 0 .5-.2.8-.6.2-.3.4-.6.5-.9.2-.5.2-.9.2-1.2 0-1.1-.5-1.5-1.9-1.9-.1 0-.2-.1-.3-.1V60.3l-.1-.6-.2-.5-.2-.5-.4.2c-1 .6-1.2.8-1.5 1.2-.4.5-.6.7-.7.7s-.2-.1-.2-.2l.2-.8v-.1c0-1-.6-2-1.6-2.8l-.3.4-.3.5-.6.7c-.3.4-.5.9-.5 1.4v.4c0 .4-.1.5-.2.5h-.1l-.4-.5-.5-.6-.8-.5-.4-.3c-.4 1-.5 1.1-.5 2.3v.4c0 .4-.1.7-.4.7-.1 0-.3-.1-.6-.2-.2-.1-.5-.2-.7-.2-.7 0-1.2.6-1.2 1.4 0 .9.2 1.4.8 2.4.4.6.8 1.1 1.1 1.1 0 0 .1-.4.1-1l-.1-.8v-.4c0-.3.1-.5.3-.5.3 0 .4.3.6 1.1l.4 1.7.4 2.2c.1.6.3 1.2.6 1.9.4.9.6 1.4.8 1.6.5.7.6.8.6.9s-.1.2-.2.2-.2 0-.4-.1-.3-.2-.6-.2l-.3-.1c-.8 0-.9.6-.9 3.7 0 1.9.4 4.5.9 5.8l1 2.5c.2.4.2.8.2 1.2 0 3.4-4.6 8.9-9.5 11.2-1.9.9-2.4 1.9-2.6 4.4.8-.4 1.1-.5 1.6-.7 1.4-.4 1.7-.6 1.9-1.2l.2-.6c.1-.3.3-.4 1.2-.9.4-.2.6-.4.7-.6.2-.4.4-.6.6-.6.1 0 .2.1.2.2v.1l-.5 1.3-.1.3c0 1 .5 1.8 1.6 2.3.1-.2.1-.4.1-.6.2-.7.3-1.2.5-1.4l.9-1.3c.3-.5.4-.8.4-2l-.1-1.5v-.4c0-.2.1-.4.3-.4.2 0 .3.1.3.1l.1.9c0 .2.2.3.5.3.5 0 1-.6 1.6-1.6.2-.4.3-.7.3-1.1 0-.3-.1-.9-.1-1.4V91c0-.2.1-.4.4-.4.1 0 .2 0 .2.1l.3 1.1c.1.4.4.6.6.6.7 0 1.5-1.5 1.5-3 0-1 .2-1.3.5-1.3.1 0 .2 0 .2.1l.2.6c.1.2.2.4.3.4.1 0 .4-.2.6-.6.2-.2.3-.4.4-.6s.1-.3.1-.5 0-.3-.4-.6c-.3-.3-.5-.6-.5-1 0-.7.3-1.4 1.1-2.8.8-1.3.9-1.5 1-1.5.2 0 .3.2.3.4 0 .1 0 .3-.1.4-.1.3-.2.5-.2.6 0 .2.2.3.4.3s.5-.1.8-.3c.2-.1.6-.3 1.3-.5.9-.3 1.4-.5 1.6-.6.3-.1.6-.1 1-.1.3 0 .5 0 .8.1.5.1.9.2 1.1.2.4 0 .8-.3.8-.7 0-.2-.1-.5-.3-.8-.2-.4-.4-.6-.4-.6-.2-.2-.3-.3-.3-.4l.1-.2c.1-.1.2-.2.3-.2.4 0 1.1.8 1.7 1.8 3.7 6 5.4 7.9 8.1 8.7 2.8.8 3.5 1.4 3.5 3.1 0 .9-.5 2-1.5 3.3-1.9 2.6-2.5 4.1-2.5 5.8v.4c.2-.1.4-.2.5-.2.4-.2.6-.3.7-.3l1.2-.2c.4-.1.7-.5.7-1v-.1l-.1-1v-.2c0-.6.3-1.1.6-1.1.1 0 .3.1.4.3l.7 1.6c.3.4.6.7 1.6 1.1M99.7 69.2v1.2c0 .8.1 1.1.4 1.1s.8-.6 1-1.2c.1-.4.2-.9.2-1.3 0-.2-.1-.4-.2-.9-.2-.5-.4-.7-.7-.7-.5 0-.7.5-.7 1.8"/><path class="st4" d="m96.4 60.6.7.7c1 1 1.6 2.9 1.6 4.8v.8l-.2 2.1v1.8c0 6.1 1.8 10.2 4.4 10.2.7 0 1.5-.6 2-1.5.1-.2.3-.3.4-.3s.2.1.2.4l.1 1 .1.9c0 .4.1.7.1 1 .1.4.1.8.1.9 0 .5-.1.5-1.2.7-.4.1-.9.2-1.3.5-.7.5-1.1.8-1.2.9l-.5 1.1c-.1.1-.2.2-.3.2-.3 0-.6-.4-1.2-1.3-.5-.8-.7-1.3-.7-1.5 0-.1.1-.2.4-.2h1.5c.2 0 .3-.2.3-.3 0-.1-.1-.2-.2-.3l-2.1-.9c-.5-.2-1-.8-1.5-1.5-.5-.9-.9-1.6-.9-2 0-.3.1-.5.4-.5.1 0 .2 0 .3.1.2.1.4.2.5.2s.2 0 .2-.1c.1-.1.1-.2.1-.2 0-.1-.1-.3-.4-.5-1.7-1.2-2.8-2.7-2.8-4 0-.4.1-.5.3-.5h.3c.3.1.6.1.7.1.3 0 .4-.1.4-.4 0-.1-.2-.3-.4-.4-1.2-.6-1.4-.9-2.2-2.6-.6-1.3-.9-1.8-1.4-2.4.6-.3.9-.4 1.4-.4.6 0 1 .4 1.5 1.5.3.7.6 1.2.8 1.2.1 0 .1-.1.1-.5 0-.5-.1-.9-.2-1.4-.1-.4-.2-.8-.1-1l-.1-.7-.3-.3c-.5-.3-.8-.9-.8-1.5 0-.3 0-.6.1-.8 0-.1.1-.4.3-1.1.2-.8.3-1.5.3-2v-.4l.4.4zM102 94.2c-1-.2-1.1-.2-2.2-.7-.8-.3-1.3-.5-1.8-.5-.7 0-1.3.2-2 .8l.4.3.9.7.9.7c.2.2.5.3.8.3 1 0 1.8-.4 3-1.6M120 102.7c.3-.6.4-.7.9-1.2 1.3-1.1 1.9-1.9 1.9-2.6v-1.1c0-.6.1-.8.4-.8.1 0 .3.1.3.1l.2.6c.1.1.2.2.4.2.3 0 .6-.2 1.1-1.2.2-.4.3-.7.3-.9 0-.2 0-.3-.1-.5 0-.1-.1-.3-.3-.7-.1-.2-.2-.6-.2-.7 0-.3.2-.5.4-.5.1 0 .3.1.3.1l.4.5c.1.1.1.2.2.2.2 0 .5-.2.6-.4l.4-.7c.1-.2.1-.3.1-.4 0-.2-.1-.3-.4-.4l-.7-.3c-.8-.3-1.4-1.6-1.4-2.9 0-.1 0-.3.1-.6l.3-.8c.1-.3.1-.5.1-.8 0-.5-.1-.9-.5-1.4-.3-.5-.5-.8-.6-1-.3-.7-.4-.9-.7-.9-.2 0-.3.1-.6.2l-.5.3-.7.7-.7.3c-.4.2-.8 1-.8 1.7 0 1 .2 1.6 1.7 4.3.6 1.2.9 2 .9 2.7 0 1.9-1.9 3.5-5.1 4.1-3.8.8-4.6 1.4-5 3.8.7-.3.9-.4 2.1-.4H115.6c.6 0 .7 0 1.1-.6.5-.6.9-1 1.5-1.3l.7-.3.6-.3h.2c.2 0 .3.1.3.2 0 .2-.2.4-.4.8-.5.5-.7 1.1-.7 1.5.6.5.7.9 1.1 1.4"/><path class="st4" d="M114.1 95.5c.5.3 1.1.8 1.4 1.3.4.6.5.7 1 .7.2 0 .4 0 .7-.1l.4-.1c.8-.2 1-.3 1-.5 0-.1-.1-.3-.2-.4l-.6-.5-.5-.5c-.3-.3-1-.5-1.5-.5s-1 .2-1.7.6M129.2 98H130.7c.5 0 .7-.1.9-.2.3-.2.6-.6.9-1.1.1-.2.2-.4.2-.5 0-.3-.3-.5-.8-.5-1.4 0-2.2.7-2.7 2.3"/><path class="st5" d="M111.8 65.8c.1.4.3.8.5.8s.5-.7 1-1.5c.7-1.1 1.2-2.1 1.2-2.7 0-.2-.1-.3-.2-.3h-.1l-.5.5c-.3.3-.9.6-1.5.8s-.8.4-.8.8l.1.4.4.8-.1.4zM107.7 62.3c-.2-.1-.4-.2-.5-.2-.2 0-.3.1-.3.3v.1c0 .3.1.5.2.8.2.7.5 1.2.6 1.3l.7 1.2c.3.4.8.6 1 .6.1 0 .2-.1.2-.2l.1-.9.2-.8v-.2c0-.2-.1-.4-.4-.5l-.8-.4-1-1.1zM110.8 68.3h-.7l-.6-.3c-.2-.1-.4-.2-.7-.2-.4 0-.7.3-.7.7 0 .4.2 1 .6 1.9.2.4.4.9.6 1.5.5 1.3 1 1.9 1.7 1.9.6 0 1.1-.5 1.5-1.5l.5-2.1c.2-.7.9-.9.9-1.4s-.6-1-1.1-1l-.3.1-.7.5-1-.1z"/><path class="st4" d="M110.8 69.6h-.6c-.1 0-.2.1-.2.1-.1.1-.1.2-.1.2l.2 1.1.2 1c.1.5.2.7.6.7.5 0 .8-.3.9-.9l.1-1c.1-.7.1-1 .1-1.1s-.1-.2-.1-.3c-.1-.1-.2-.1-.2-.1l-.9.3z"/></g><g><path d="M47.2 168.8c.4 1 .5 1.5.6 2.2l.1 2c.1 2 .7 2.9 2 2.9.4 0 .8-.1 1-.3l.5-.5.2-.1c.3 0 .5.2.5.6l-.1.8c0 .3 0 1.1.2 2.1.1.6.1 1.3.1 1.9 0 1-.1 1.4-.4 2.3.3.9.5 2 .5 2.8 0 1-.2 1.7-.6 2.3.2.8.2 1.1.2 1.6s-.1 1.1-.2 1.8c-.2 1-.2 1.7-.2 2.2v.1c0 .3-.1.4-.3.4s-.4-.1-.6-.4c-.3-.4-.5-.5-.7-.5-.3 0-.4.2-.9 1.6-.1.4-.5 1-1.1 1.7-.5.6-.8 1-.8 1.4-.1.6-.2.9-.3 1s-.2.2-.3.2h-.1c-.8 0-1.6-1.6-2.6-4.8-.3-.9-.6-1.3-1.1-1.3-.3 0-.7.2-.8.5v.7c0 .1-.1.2-.2.2-.4 0-.9-.7-1.3-1.5-.3-.7-.5-1.5-.5-2.1 0-1.5 1.1-2.5 4.3-4.4 1.4-.8 2-1.8 2-3.6 0-1.4-.4-2.3-1.7-3.2-1-.7-1.6-1-2.1-1-.4 0-.8.3-.8.7s.3.7.9.9c.7.3 1 .5 1 .8s-.3.9-.8 1.7-.8 1-1.5 1.5c-.2 1.3-.8 2.1-2.2 3-.3.8-.4 1.1-.9 1.7l-1 1.3c-.3.4-.6 1.1-.7 1.4-.1.7-.2.8-.4.8-.4 0-1.1-.7-1.9-1.6-.5-.6-.6-.8-.6-1.5-.5.4-.6.4-1.6.6-.6.1-1 .2-1.3.3-.7.4-.9.5-1.1.5s-.3-.1-.3-.4v-1c0-1.4.6-3.1 1.4-4.1-.8-.7-1.6-1.1-2.3-1.2-.3 0-.3-.1-.3-.2 0-.2.2-.5.4-.9.3-.4.6-.7.8-.9.7-.6 1.8-1 2.7-1 .6 0 1.5.2 2.7.7.4.2.8.2 1.1.2.5 0 .8-.3.8-.9 0-.8-.4-2.2-1.4-4.3-.6-1.4-.9-2.4-.9-3.1 0-1.6.8-3.3 1.7-3.8-.5-.2-.7-.3-1-.3-.5 0-.8.1-1.4.5-.7.4-1.1.8-1.1 1 0 .1.1.2.4.4.4.3.4.3.4.7 0 1.2-1 2.7-2.3 3.7-.3 1.6-1 2.6-2.5 3.3-.2.9-.3 1.1-1 2.1-1.2 1.7-1.5 2.2-1.7 3.2-.1.5-.2.7-.4.7s-.6-.3-1.1-.8c-.4-.4-.6-.7-.7-.9-.2-.3-.3-.6-.5-1.5-.3.1-.4.1-.7.1h-1.2c-1 0-2.1.2-2.7.6-.2.1-.3.2-.4.2-.3 0-.5-.6-.5-1.4 0-1.7.5-3.1 1.6-4.6-.4-.3-.5-.5-.9-.8-.2-.2-.3-.3-.4-.3l-.5-.3c-.2-.1-.3-.2-.3-.3 0-.2.7-.9 1.5-1.4.9-.6 1.6-.8 2.3-.8.8 0 1.2.2 2.1 1 .7.6 1.1.8 1.4.8.2 0 .5-.2.7-.4s.2-.5.2-.7c0-.9-1.1-2.4-2.2-3.2-.9-.6-1.8-.9-2.8-.9-1.3 0-2.4.6-2.9 1.7l-.5 1.1c-.1.3-.3.4-.4.4-.3 0-.5-.1-1.5-1.4l-1.2-1.4c-.4-.4-.6-.8-.7-1.2l-.2-.6c0-.1-.2-.2-.5-.4-.9-.7-1.6-2-2-3.9 0-.1-.1-.3-.1-.6-1.1-1.4-1.8-3.1-1.8-4.6 0-.2 0-.3.1-.6-.7-.7-.7-.8-1.3-2.6-.4-1.3-.6-1.8-1.1-2.4-.2-.4-.2-.5-.2-.6 0-.3.4-.5 1.1-.6.6-.1.7-.1.9-.1l.9.1-.1-1.3c0-.8.1-1.2.2-2.1.1-.4.1-.8.1-1 0-.1 0-.4-.1-.8 0-.3-.1-.6-.1-.7-.1-.2-.1-.3-.1-.4 0-.2.1-.2.3-.2.1 0 .3.1.6.2.8.4 1.5.8 2 1.2 1.6 1.3 2.9 3.2 2.9 4.4v.4c-.1.4-.1.6-.1.7 0 .2.1.5.3.8l.5.7c.5.6.7 1.3.7 1.8 0 .4-.1.6-.8 1.7-.6.8-.8 1.4-.8 2.1 0 .8.3 1.9.9 3 .5 1 1.2 1.5 1.8 1.5 1 0 1.5-.9 1.7-3.4.1-1.3.2-2.5.4-3.5v-.6c0-.3-.1-.5-.5-.9l-1.4-1.6c-1.3-1.6-1.7-2.4-1.7-3.5 0-1.3.8-2.2 2.1-2.2l.6.1v-.4c0-.3.1-.7.2-1.3.3-1 .7-1.8.9-1.8.1 0 .2.1.5.2.1 0 .4.2.8.3.3.1.4.2.9.5.2-.8.4-1.2.7-1.6.6-.8 1.3-1.4 1.5-1.4.1 0 .4.2.8.6l.9.9c.1.2.3.5.5.9l.2.4c.2-.1.4-.3.6-.3.4-.2.6-.4.7-.4.6-.3.9-.4.9-.4.2-.2.4-.2.5-.2.2 0 .2.3.6 1.8.2 1.1.3 1.3.3 2.1 1.5.2 2.2 1.1 2.2 2.7 0 1.5-.7 3-2.3 4.7-.4.5-.5.7-.5 1.1 0 4.1 1.4 5.4 6.6 6 3.2.3 4.1.5 7.9 1.7 2 .6 3.2.8 3.9.8.9 0 1.4-.3 1.4-.9 0-.9-.6-1.1-4.3-1.9-8.6-1.8-12-4.8-12-10.5 0-4.1 3-7.1 7.1-7.1 1.8 0 3.4.5 5.9 2 2.3 1.4 2.8 1.6 3.4 1.6.6 0 .9-.4.9-1.4 0-.7.2-1 .6-1 .4 0 .9.4 1.4 1 .8.9 1.1 1.4 1.1 2.6 0 1.7-.9 2.8-2.7 3.3-.2.2-.3.4-.4.5-1 1.1-1.8 1.4-3.3 1.4-1.3 0-3-.5-4.1-1.4l-2.2-1.6c-1-.7-1.7-1-2.3-1-1 0-1.5.6-1.5 1.5s.6 1.7 1.6 2l2.1.7c.7.2 1.1.4 2 .8.5-.1.8-.1 1-.1 1.3 0 2.7.4 3.9 1 .4.2.7.3.8.4l1.2.3c2.6.7 4.8 3.7 4.8 6.6 0 3.3-2.1 5.3-5.6 5.3l-1.2-.2z"/><path class="st4" d="m46.4 196.5.3-.6.7-.7c.6-.6.8-1.4.8-2.4 0-.5-.1-1-.2-1.5-.1-.4-.2-.7-.2-.8 0-.3.2-.6.4-.6.1 0 .2.1.4.2l.7.8c.4.5.6.6 1.1.7v-1.5c0-1.1-.4-2.4-1-3.2-.4-.5-.5-.8-.5-.9 0-.2.1-.3.3-.3 0 0 .1 0 .2.1.4.3.7.5.8.5.2 0 .4-.6.4-1.2 0-.9-.4-1.9-1-2.6-.3-.4-.5-.6-.6-.7-.1-.1-.1-.2-.1-.3 0-.2.2-.3.4-.3s.3 0 .6.2c.1.1.3.1.4.1.4 0 .5-.5.5-1.9v-1.4c-.1-1-.1-1.2-.6-1.2h-.4c-2.3 0-3.3-1.4-3.9-5.3-.4-2.8-1.5-4.8-2.7-5.2-.8-.3-1-.4-1-.6 0-.1.2-.3.4-.3s.6.1.9.2c1.9.7 3.4 1.1 4.8 1.1 2.2 0 4-1.6 4-3.7 0-1.6-.8-3.2-2.1-4.5-.4-.4-.8-.6-1.2-.7h-.1l-.2.1.1.7.2.5.1.2c0 .1-.1.2-.2.2s-.3-.1-.3-.2l-.8-1.3c-.7-1-2.1-1.8-3.2-1.8-.4 0-.6.2-.6.4 0 .1.1.4.3.5.2.3.4.6.4.7l-.1.2c0 .1-.1.2-.2.2-.2 0-.3-.1-1.4-1.3-.8-1-2.5-1.9-3.4-1.9-.1 0-.3.1-.3.1-.1.1-.1.1-.1.2s.1.3.3.5c.3.3.5.6.5.7 0 .1-.1.2-.3.2-.3 0-.9-.4-2-1.3-1.7-1.4-2.5-2.7-2.5-4.2 0-1.8 1.3-3.2 2.9-3.2 1 0 2.2.5 3.1 1.1l2.3 1.7c1 .8 2.3 1.2 3.7 1.2.3 0 .6-.1.8-.2.2-.1.3-.2.3-.3s-.2-.1-.4-.2c-.8-.2-1.5-.5-2-.8l-2.3-1.8c-.9-.7-1.5-1.1-1.8-1.3-1.2-.6-1.5-.8-1.5-.9 0-.1.1-.1.3-.1.1 0 .3 0 .4.1l1.2.5c.4.2 1 .6 2 1.2 2.5 1.7 3.8 2.2 5.2 2.2s2.4-1 2.4-2.3c0-.3-.1-.6-.2-.8l-.2-.5c-.1-.2-.2-.3-.3-.2l-.1.2-.1 1s-.1.2-.1.3c-.1.2-.2.3-.3.5-.3.2-.5.3-.9.3-.7 0-1.5-.4-3.7-1.8s-4.2-2.1-5.8-2.1c-3.4 0-6.1 2.7-6.1 6 0 4.7 2.8 6.8 11.8 8.7 3.4.7 4.9 1.7 4.9 3.2 0 1.4-1.1 2.3-2.9 2.3-.5 0-1 0-1.3-.1s-1.9-.5-4.8-1.3c-2-.6-4.2-.9-6.2-.9-3.5 0-5.9 1-7.5 3.3-.2.3-.4.4-.5.4s-.2-.1-.4-.2l-.7-.5c-.5-.4-1.2-.6-1.7-.6-.4 0-.7.1-1 .4-.2.2-.4.3-.5.3-.3 0-.7-.6-1.1-1.3-.5-1.1-.8-2.2-.8-3.2 0-.5.1-.8.4-.8.2 0 .3.1.4.4l.4 1.4c.2.8.6 1.4 1 1.4.1 0 .4-.2.7-.6.2-.2.3-.4.4-.7.3-.9.4-1 .6-1 .3 0 .4.2.6 1 0 .2.1.4.3.8.2.4.4.6.6.8.1.2.3.2.5.2.4 0 .8-.7.8-1.4v-.2l-.1-.9c0-.3.1-.4.2-.4s.2.1.3.2c.2.3.5.5.8.7s.5.2.7.2c.1 0 .3-.1.5-.2.1-.1.2-.3.2-.4 0-.1-.2-.3-.7-.8-.3-.3-.6-.9-.9-1.9-.1-.4-.3-.6-.4-.6 0 0-.1 0-.3.1l-.6.2-.4.2h-.2c-.2 0-.4-.1-.4-.3s.4-.7.9-1.1c.4-.3.6-.8.6-1.3 0-.8.2-1.4.3-1.4l.1-1.6c.1-.8.4-2.4.7-3.2.1-.2.1-.3.2-.3s.2.4.2.7v.7c0 .6.1.9.3.9.2 0 .4-.3.6-.8l.4-1.1c.1-.3.2-.6.2-.9 0-.9-.5-1.6-1.3-1.6l-.3.1c-.2.1-.3.1-.3.1-.2 0-.5-.3-.5-.6v-1.6l-.2-1v-.5l-.4.2-.5.4-.7.6-1 1.2c-.1.1-.2.1-.3.1-.4 0-.4-.1-.4-.8v-.2c0-.6-.3-1-1.2-2.2-.1-.1-.1-.2-.2-.3l-.2.3-.5.8-.5 1.3-.1.8c0 .2-.1.4-.2.4s-.3-.1-.4-.3c-.7-.8-.9-1-2-1.3l-.1.3c-.2.6-.3.9-.3 1v1.6c0 .3-.1.4-.3.4 0 0-.1-.1-.3-.2-.1-.1-.3-.1-.6-.1-.9 0-1.4.5-1.4 1.2 0 .6.2 1 1.1 2.3.4.6.8 1 1 1 .1 0 .2-.3.2-.7l-.1-.6c-.1-.3-.1-.5-.1-.7 0-.3.1-.4.2-.4.4 0 .9 1.2 1 2.9l.2 1.7c.1.6.3 1.2.6 1.9.4.9.8 1.5 1.2 1.7.4.3.7.6.7.8 0 .1-.1.3-.2.3l-.9-.3-.4-.1c-.9 0-1.2.5-1.2 2.1 0 1.9 1.3 4.7 2.8 5.9l2.1 1.7c1.1.9 1.9 2.3 1.9 3.4 0 1.4-1.5 2.7-4.1 3.6l-1.5.6c-1.2.4-1.7 1.2-2.1 3.5.6-.2.9-.2 1.3-.2H21.6c.6 0 1.1-.4 1.1-.9v-.4c0-.1.2-.3.4-.4.4-.2.6-.3.7-.3l.5-.4c.1-.1.2-.1.3-.1.1 0 .3.1.3.3 0 .1 0 .3-.1.4-.2.4-.2 1-.2 1.6 0 1.1.2 1.8.8 2.6.1-.3.1-.5.1-.6.1-.2.4-.7.8-1.3.7-1 1.2-2.2 1.2-2.8v-.2l-.1-1.1c0-.2.1-.4.2-.5s.2-.1.3-.1c.2 0 .3.1.5.5.1.3.2.4.3.4.2 0 .5-.4.7-.9.2-.4.2-.7.2-1 0-.2 0-.4-.1-.6-.1-.2-.1-.4-.1-.5s0-.2.2-.3c.1-.1.2-.1.2-.1.1 0 .2 0 .3.1l.4.3c.1.1.3.1.4.1.2 0 .5-.2.7-.5.4-.6.7-1.1.7-1.3 0-.1-.1-.2-.3-.4-.9-.7-1.5-1.6-1.5-2.5 0-.2 0-.4.1-.7l.5-1.3c.2-.6.4-1 .4-1l.1-.1c.2 0 .3.1.3.4 0 .2 0 .3-.1.5-.1.3-.2.7-.2.9 0 .3.2.5.5.5.2 0 .5-.1.8-.2 1.4-.6 2.5-.9 3.2-.9.6 0 1 .1 1.7.6.2.1.3.2.4.2.1 0 .2-.1.3-.2.1-.1.1-.2.1-.2 0-.2-.1-.4-.3-.6-.2-.3-.3-.5-.3-.7 0-.1.1-.2.3-.2.7 0 1.9 2.3 3 6 .9 2.9 1.1 3.2 3.9 4.8 2.3 1.3 3.2 2.6 3.2 4.8 0 2.1-.6 4.8-1.8 8.3-.4 1.1-.5 1.9-.5 2.5 0 .5.1 1 .5 2.2.2.6.3 1 .3 1.1-.8 0-.7.2-.5.5"/><path class="st4" d="M35.6 190c.3-.6.4-.8.9-1.6.8-1.1 1-1.7 1-2.3v-.7c0-.7.1-1 .4-1 .1 0 .2.1.2.1l.2.4c.1.1.2.2.3.2s.4-.2.5-.4c.3-.5.5-1.2.5-1.7v-1c0-.3.1-.4.4-.4.2 0 .3.1.4.4.1.2.2.4.4.4.1 0 .3-.1.4-.3l.4-.6.3-.4.1-.2c0-.1-.1-.2-.4-.4-.9-.6-1.2-1.6-1.3-3.3-.1-1.3-.1-2.2-.2-2.6 0-.1-.3-.8-.8-2-.2-.5-.4-1-.6-1.7-.1-.4-.2-.6-.6-.6-1.3 0-2.2 1.1-2.2 2.5 0 .8.4 2.2 1 3.8.9 2.3 1.1 3.1 1.1 3.9 0 1.7-.7 2.5-3 3.3-2.7 1-3.9 2.3-4.4 4.8.2-.1.4-.1.5-.2.3-.1.5-.2.6-.2l.7-.2c.6-.2 1.2-.5 1.3-.9l.2-.7c0-.2.1-.3.3-.3l.4-.2.4-.2.1.2-.2.6c-.1.2-.1.6-.1 1.1 0 1 .2 1.6.8 2.4M10.5 146.9c.1.3.1.4.1.5s-.1.5-.2 1.2l-.1.9c0 .8.1 1.7.4 2.5.2.7.3.9.3 1.1v.2c0 .2-.1.3-.2.3s-.3-.1-.5-.3c-.5-.5-1.1-.7-1.7-.7-.2 0-.5 0-.8.1l.2.5.7 1.7 1 1.5 1 .7.3.3c.1.1.1.2.1.3s-.1.2-.2.2H10c-.1 0-.3.1-.3.2 0 .2.1.6.4 1.4l.5 1.4.8.7.8.6c.2.2.4.4.4.5s-.1.3-.2.3h-.5c-.2 0-.2.1-.2.4 0 .3.3 1 .9 1.8.7 1 1.2 1.3 2.1 1.3h.7c.3 0 .5.2.5.4s-.1.3-.4.4c-.6.1-.8.3-.8.6 0 .1.1.3.2.5l.4.5c.3.4.7.7.9.7.1 0 .4-.1.7-.4.4-.5.9-.9 1.5-1 1.6-.4 2-.6 2-1 0-.1-.1-.3-.2-.5-.5-.9-.7-1.5-.7-2.3 0-.6-.2-1-.4-1-.1 0-.2.1-.4.4-.4.6-1 1-1.6 1-1.6 0-3.6-2.5-4.5-5.9-.2-.8-.3-1.7-.3-2.5 0-.9.1-1.9.3-2.8.3-1.4.5-2.1.5-2.3l.1-.6c0-1.2-1-2.7-2.7-3.8"/><path class="st4" d="M13.9 153.3c-.3.7-.7 2.1-.7 3 0 .5.2 1 .4 1 .1 0 .2-.1.3-.2l.5-.9c.1-.2.2-.3.3-.6.2-.3.3-.5.3-.7 0-.5-.5-1.2-1.1-1.6M19 174.4l.2.2.4.4c.9.9 1 1 1.5 1 .4 0 1.3-.2 1.7-.5.2-.1.3-.2.3-.3s-.2-.3-.5-.5l-.5-.5c-.4-.3-1-.7-1.2-.7-.5.1-1 .3-1.9.9M29.8 182.8c.5.2.7.3.9.5.4.3.7.4.7.5.1.1.4.1.7.1.2 0 .4 0 .6-.1l1-.4.9-.3c.3-.1.4-.2.4-.4 0-.1-.2-.2-.5-.2-.2-.1-.4-.1-.7-.2-1.1-.5-1.3-.5-1.7-.5-.8-.1-1.7.3-2.3 1M41.6 192.2c.3-.8.5-.9 1.6-.9 1.2-.1 2.3-2.2 2.3-3.7 0-.1 0-.3-.1-.3s-.2.1-.3.2c-.3.2-.6.4-.7.4l-1.4.6c-.9.4-1.7 1.6-1.7 2.6.1.3.1.5.3 1.1"/><path class="st5" d="m21.5 151.7.5.7c.1.1.9.7 1 .7s.2-.1.3-.4l.2-.7v-.8c0-.6-.3-.8-1.5-1.2-.3-.1-.4-.1-.7-.2-.2-.2-.4-.3-.6-.3-.1 0-.2.1-.2.1l.1.2.2.7.7 1.2zM26.5 151.7l-.6 1.1c-.1.2-.2.3-.2.3-.2 0-.5-.6-.5-1.2l-.1-.9c.1-.4.3-.6.9-.7.5-.1.8-.2.9-.3.4-.3.7-.5.7-.5h.1c.1 0 .2.1.2.2v.1l-.3.8-1.1 1.1zM25.3 154.8l.7-.4c.1-.1.3-.1.4-.1.4 0 .6.3.6.8s-.4 1.2-1 2.3-1.1 1.9-1.6 1.9c-.7 0-1.6-1.1-2.5-2.8-.2-.4-.4-.9-.4-1.3 0-.6.3-.9.8-.9.2 0 .4 0 .5.1l.4.3c.4.2.8.4 1.2.4.3-.1.6-.1.9-.3"/><path class="st4" d="m24.2 156-.5-.1h-.1c-.3 0-.4.2-.4.5 0 .5.4 1.3.8 2 .1.1.2.2.4.2.3 0 .5-.6.7-1.5l.1-.7v-.1c0-.3-.1-.4-.3-.4h-.1"/></g><g><path d="M128.3 168.1c.8 1.1 2 1.8 2.9 1.8.3 0 .8-.1 1.3-.2.3-.1.5-.1.6-.1.2 0 .3.1.3.3s-.1.6-.2.9c-.1.4-.2.6-.3.8l-.2 1-.5.8-.7.6-.2.2V174.8c0 1.1-.3 1.8-1.3 2.4-.1 0-.2.1-.3.2l-.1.4c-.2.9-.4 1.4-.5 1.6-.1.2-.4.7-.9 1.3-.6.7-.9 1.3-1.2 1.9-.2.5-.3.6-.6.6-.5 0-.9-.6-1-1.3-.1.1-.2.2-.2.3l-.6.4-.9.6c-.4.3-.6.5-.7.6l-.5.5c-.1.1-.2.1-.3.1-.2 0-.5-.4-.7-1.2l-.5-1.5c-.1-.4-.2-.9-.2-1.5 0-.8.1-1 .3-1.7-.9.1-1.2.2-1.7.3-.1.1-.3.1-.4.1-.2 0-.2-.1-.2-.3 0-.1.1-.4.2-.7l.6-1.6c.5-1.2 2-2.3 3.2-2.3.3 0 .7.1 1.2.2.3.1.5.1.7.1.5 0 1-.4 1-.9 0-.2-.2-.5-.4-.6-.1 0-.6-.2-1.7-.5-.8-.2-1.2-.5-2.1-1.5-.6-.7-.9-.9-1.1-.9s-.3.1-.3.3V171.1c0 1.3-.4 2.5-1.3 4.2l-1.3 2.4c-.6 1.1-.9 2-.9 2.8 0 .9.4 1.8.9 1.9l.7.2c.1 0 .2.1.2.1.1.1.1.2.1.3s-.1.3-.2.4c-.1.1-.4.5-.8 1.1-.8 1-1.3 1.4-2.3 1.7-.6 1.4-1.5 2.2-3.1 2.7l-.2.3c-.6 1-1.8 1.9-2.6 1.9h-.2c-.1.9-.7 1.7-1.6 2.4-.6.4-1 .7-1.1.8s-.1.2-.2.4c-.2.5-.4.7-.7.7-.5 0-.9-.5-1.2-1.4-.2.1-.3.2-.4.3-.5.4-.8.6-.9.6-.2.1-.8.3-1.6.5-1.1.3-2.1.8-2.4 1.2l-.4.7-.2.1c-.2 0-.5-.3-.6-.7-.3-1-.4-2-.4-2.6 0-1.7.5-2.7 2.2-4.4v-.4c0-2.6 2-4.3 4.9-4.3h.5l1.6.1h.1c.9 0 1.6-.3 2.5-1 1.1-.9 1.5-1.5 1.5-2.5 0-.3-.1-.7-.4-1.9-.2-.8-.3-1.5-.3-2.2 0-1.9 1.4-4.3 3.3-5.6.5-.3.9-.8.9-1.1 0-.1-.1-.2-.1-.2-.1 0-.3.1-.6.4-.2.2-.6.4-1.1.7l-.7.4-.8.3c-.3.1-.4.2-.4.4 0 .1 0 .2.1.4s.1.3.1.3c0 .1-.1.3-.2.5l-.6 1.1c-.6 1.1-1.1 1.5-1.9 1.9-.5 1.5-1.3 2.3-2.4 2.5-.9 1.8-1.7 2.4-3.2 2.6-.2.7-.6 1.2-1.4 2.1-.3.4-.5.6-.6.7-.4.7-.4.7-.6.7s-.7-.3-1.1-.7c-.2-.2-.3-.4-.4-.6l-.4-.7c-.1-.2-.3-.4-.4-.4h-.3l-1 .1c-.6.1-1.6.6-1.9 1.1l-.6.8c-.1.1-.1.1-.2.1-.4 0-.7-.9-.7-2.4 0-1.3.2-2.2.7-2.9l1.3-1.8c.2-.3.3-.5.3-.7s-.1-.4-.2-.6c-.3-.3-.5-.5-.7-.6l-1-.1c-.2 0-.2-.1-.2-.1 0-.1.1-.2.2-.3.3-.4.7-.8 1.2-1 1.2-.7 1.9-1 2.7-1 .8 0 1.7.3 2.4.8l1.4.9c.2.1.4.2.7.2.6 0 1.1-.4 1.5-1.2s.6-1.5.6-2.2c0-1.8-1.3-3-3-3-.8 0-1.6.3-2.4.9l-.5.5-.4.8c-.1.2-.2.3-.3.3-.2 0-.8-.7-1.2-1.5-.2-.5-.5-1-.7-1.7-.3-.9-.4-1.6-.4-2.3l.1-1.3c-.6-1-.8-1.7-.8-2.9 0-.4.1-.8.3-1.6-.4-.6-.5-1.1-.5-2.1v-.6l.1-.6.1-.6c-.4-.6-.6-1-1-3-.2-1.2-.4-1.7-.6-2-.1-.1-.1-.2-.1-.3 0-.3.6-.5 1.4-.5l.7.1c-.2-.4-.2-.6-.2-.9 0-.6.1-1.2.3-1.9.2-.7.3-.9.3-1.1 0-.6-.1-1.1-.2-1.4l-.4-.9c-.1-.2-.1-.4-.1-.5s.1-.1.2-.1c.9 0 2.7 1 4 2.3 1.4 1.3 1.8 2.3 1.8 4.2l-.1 1c1.3 1.1 1.8 2 1.8 3 0 .7-.2 1.2-.9 1.9-1.3 1.3-1.5 1.9-1.5 3.5 0 2.5.7 3.8 2.1 3.8 1.2 0 2.1-1.3 2.3-3.2l.1-1.8c0-.5.1-1 .2-1.7.1-.4.1-1 .1-1.2 0-.6-.4-1.4-1.6-2.8-1.3-1.5-1.8-2.4-1.8-3.5 0-1.4 1-2.5 2.3-2.5.3 0 .5 0 .9.3 0-.8.1-1 .5-2.1.4-.9.8-1.5.9-1.5s.2.1.3.2c.2.2.4.4.6.5.3.2.4.3.5.3l.4.4c.3-1 .6-1.5 1.4-2.4.7-.6.9-.8 1-.8s.2.1.3.2l.6.7.8.9c.3.3.4.6.6 1.4l.5-.3.7-.4c.1-.1.3-.2.6-.4.1-.1.2-.1.3-.1.1 0 .2.1.2.3l.3 1.1.6 1.2c.2.4.2.6.2 1.2v.3h.3c.9 0 1.7 1.1 1.7 2.3 0 1.7-1.3 3.8-3 4.9-.2.6-.2.8-.2 1.2 0 3.7 1 4.5 6.7 5.3 1.4.2 2.7.5 3.8.8.2.1 1.4.5 3.7 1.2 1.3.4 2.1.6 2.8.6s1.1-.2 1.1-.6c0-.6-.9-1.2-3.8-2.3l-4.1-1.6c-4.1-1.6-6.1-4.1-6.1-7.8 0-4.3 3.2-7.6 7.6-7.6 1.6 0 3.2.3 5.5 1.2 2.9 1.1 3.1 1.1 3.4 1.1.6 0 .9-.4 1-1.2.1-.7.3-1 .6-1 .6 0 1.2.5 1.6 1.4.4.8.6 1.6.6 2.4 0 1.5-.8 2.5-2.3 2.8-1 1.3-2.2 1.9-3.8 1.9-1.9 0-2.8-.4-5.9-2.3-1.1-.7-1.6-.9-2.4-.9-1.1 0-1.9.7-1.9 1.6 0 .9.7 1.4 2.2 1.8.9.2 1.1.3 1.5.8.4-.1.5-.1.8-.1 1.5 0 3.4.8 5 2.2 2.9.9 5.4 4 5.4 6.6 0 2.9-2.5 5.4-5.3 5.4-.8.5-2.3.3-3.6-.1"/><path class="st4" d="m126.6 181 .2-.5.2-.7c0-.1.2-.4.5-.8.5-.6.7-1.4.7-2.3 0-.3-.1-.6-.2-.9-.1-.2-.1-.3-.1-.4 0-.1 0-.1.1-.2s.1-.1.2-.1.3.1.5.3.4.4.5.4c.2 0 .4-.4.6-.9.1-.3.1-.4.1-.5 0-.2-.2-.8-.4-1.3-.1-.2-.1-.3-.1-.5s.1-.3.3-.3c.1 0 .4.1.6.4.1.1.3.2.4.2.3 0 .5-.3.7-1 .1-.5.2-.7.2-.7 0-.1-.1-.2-.2-.2h-.2l-.6.1c-.9 0-2.1-.6-2.6-1.3l-1.3-1.6c-.5-.6-1.2-1.5-1.2-1.5l-1.1-.7c-.2-.1-.3-.3-.3-.4 0-.2.2-.3.4-.3s1 .3 2.4.9c1.3.6 3.5 1 4.7 1 2.2 0 4.1-1.8 4.1-4 0-1.2-.5-2.3-1.8-3.8-.2-.3-.7-.6-.9-.6s-.3.1-.3.3c0 .1 0 .3.1.5.1.1.1.3.1.4 0 .2-.1.3-.2.3-.3 0-.6-.5-.8-1.3-.3-1-.9-1.7-2.3-2.4-.5-.3-1.2-.5-1.5-.5-.1 0-.2.1-.2.2 0 .2.1.4.2.6.2.3.3.6.4.9 0 .2-.1.3-.3.3-.3 0-.4-.1-1-1.1-.4-.5-1.3-1.2-2.1-1.6-.3-.1-.5-.2-.8-.2-.2 0-.3.1-.3.2l.2.4.1.3c0 .1-.1.3-.2.3-.3 0-1.1-.7-1.8-1.5-.7-.9-1.2-1.9-1.2-2.8 0-1.8 1.7-3.4 3.6-3.4.5 0 .9.1 1.2.2l1.6.8 1.9 1.3c1.1.7 2.6 1.3 3.5 1.3.3 0 .6 0 1.5-.3.5-.1.7-.3.7-.5l-.2-.1-1-.1c-.6-.1-1.9-.6-2.9-1.3l-2.1-1.4-1.9-.8-.2-.2c0-.1.1-.2.2-.2 0 0 .2 0 .5.1l1.8.5c.4.1 1.2.5 2.1 1 1.9 1 3.2 1.5 4.1 1.5 1.1 0 1.9-.7 1.9-1.7 0-.3-.1-.9-.2-1.3l-.3-.6-.2-.2c-.1 0-.2.1-.2.4v.6c0 .9-.3 1.2-1.3 1.2-.8 0-1.8-.3-4.2-1.3-2.2-.9-3.6-1.2-5-1.2-3.5 0-6.6 2.9-6.6 6.1 0 2.8 1.9 5 5.7 6.6l4 1.6c3.3 1.3 4.5 2.3 4.5 3.6 0 1.1-1 1.7-2.5 1.7-.7 0-1.5-.2-3-.7-3.7-1.2-6.1-1.7-8.2-1.7-3.5 0-5.9.9-7.9 3-.3.3-.4.4-.6.4s-.3-.1-.7-.3c-.4-.2-.7-.3-1-.3s-.9.3-1.1.6l-.5.6c-.1.2-.3.3-.4.3-.3 0-.9-.6-1.3-1.3-.2-.4-.4-.8-.5-1.2-.1-.3-.1-.8-.1-1.3v-.9l.1-.9c.1-.4.1-.7.1-.8s.1-.2.2-.2c.2 0 .3.2.3.7v.5c0 1.3.5 2.5 1.1 2.5.5 0 .9-.8 1.2-2.4.1-.3.2-.5.4-.5s.3.2.4.9c.1.5.4 1.1.7 1.5.2.2.4.4.5.4.4 0 .6-.6.8-1.9.1-.5.2-.8.4-.8.1 0 .1 0 .2.1 0 0 .1.2.3.5.1.2.3.3.5.5.2.1.4.2.5.2s.3-.1.4-.2c.2-.2.3-.3.3-.4 0-.1-.1-.2-.3-.4-.3-.3-.5-.8-.8-1.5-.2-.5-.3-.9-.4-1.1-.1-.2-.2-.3-.2-.3h-.4c-.1 0-.4.1-1 .3h-.3c-.1 0-.2-.1-.2-.2s.2-.4.4-.5c1.2-.9 1.9-2.5 2.1-4.8.2-1.4.3-1.9.9-2.8.1-.2.2-.3.3-.3.2 0 .3.1.3.4 0 .2-.1.4-.2.7-.1.2-.1.4-.1.6v.2l.1.3.5-.2.6-.6c.3-.4.6-1.3.6-1.9 0-.4-.1-.8-.4-1.1s-.5-.5-.7-.5h-.6c-.3 0-.5-.1-.5-.3l.1-.4v-.5l-.3-1.2-.2-.6-.1-.5-.3.2-.7.4c-.2.1-.4.3-.6.5-.7.8-.7.8-1 .8-.2 0-.3-.1-.3-.2v-.2c.1-.4.1-.7.1-1 0-.8-.6-2-1.3-2.7-1 .9-1.5 2-1.5 2.9v.6c0 .2-.1.3-.2.3s-.2-.1-.3-.2l-.6-.7c0-.1-.3-.3-.7-.6-.1-.1-.2-.2-.4-.3l-.2.4c-.5.9-.6 1.5-.7 2.2 0 .6-.1.8-.2.8s-.2 0-.3-.1c-.7-.4-.8-.4-1.1-.4-.8 0-1.4.6-1.4 1.5 0 .3.2.9.6 1.6.4.8 1.1 1.5 1.3 1.5.1 0 .1-.1.1-.3v-.9l-.1-.6v-.1c0-.2.1-.3.2-.3.4 0 .8 1.2 1.1 3.7.3 2.2.9 3.7 1.8 4.5.2.2.4.4.4.5s-.1.1-.2.1-.3-.1-.6-.2c-.2-.1-.3-.1-.5-.1-.5 0-1 .5-1.1 1.1l-.4 2.7-.3 3.7c-.1.7 0 1.7.3 2.8.2 1 .3 1.7.3 2.2 0 2.8-1.7 5-4.6 5.9l-3 .9c-1.9.6-2.8 1.8-3 4.1.5-.4.6-.4 1.4-.6l.9-.1c.4-.1.6-.1.8-.2.1-.1.3-.2.5-.5l.8-.9c.3-.3.6-.5.7-.5s.2.1.2.3-.1.4-.3.8c-.2.3-.3.8-.3 1.2 0 .6.2 1 .8 1.8.1-.3.1-.5.2-.6s.3-.5.7-1c.6-.8 1.1-1.7 1.1-2.1 0-.7.1-1 .3-1 .2 0 .2 0 .3.4 0 .1.1.2.1.3.1.1.2.2.3.2.1 0 .2-.1.4-.2.3-.2.6-.4.7-.7.2-.2.3-.5.5-.8.2-.4.2-.7.2-.9v-.6c0-.2.1-.3.2-.3s.3.2.5.5c.1.2.2.2.3.2.2 0 .3-.1.4-.2.6-.6.9-1.2.9-1.7v-.9l-.2-.7v-.1c0-.1.1-.3.2-.3.2 0 .4.3.8 1 .1.3.3.5.4.5.2 0 .4-.2.8-.8l.4-.6c.1-.1.1-.3.1-.5s0-.3-.1-.5l-.4-.6c-.1-.1-.1-.3-.1-.5 0-.6.2-1.4.7-2.2l.6-1.2c.1-.2.2-.3.3-.3.1 0 .2.1.2.2v1.3c.1.2.2.2.4.2.1 0 .3 0 .5-.1l1.2-.4c.3-.1.6-.3 1.1-.5 1.8-1 2.4-1.2 3.3-1.2.5 0 1.2.2 2.2.7.2.1.4.1.5.1s.3-.1.4-.2c.1-.1.1-.2.1-.4s-.1-.4-.2-.6c-.1-.3-.3-.6-.3-.7 0-.1.1-.2.2-.2s.3.1.4.2c.1.2.5.8 1.1 1.9.9 1.5 2 2.6 3 2.8l2 .5c.6.1.8.4.8 1.2 0 1.4-.7 2.7-1.9 3.5l-1.7 1.1c-.6.4-1.1 1.5-1.1 2.4 0 .6.1 1.6.3 2.4l.3-.3.8-.5.7-.7.4-1 .4-.9c.2-.5.4-.7.5-.7.2 0 .3.3.3.7V178.9c0 .8.1 1.1.6 2.1"/><path class="st4" d="M99 194.3c0-2.2.8-3.2 4-4.8 6.3-3.2 9.8-6.2 9.8-8.4 0-.5-.1-1.1-.6-2.5-.3-.9-.4-1.6-.4-2 0-1 .8-2.6 1.9-3.6l.9-.8c.5-.4.8-1.1.8-1.5v-.5c0-.5.2-.6.7-.7h.4c.2-.1.3-.1.4-.1.2 0 .3.1.4.2l.2.4.3.4c.1.1.2.2.3.2.1 0 .2 0 .4-.1s.4-.2.6-.2.4.1.4.4c0 .9-.6 2.3-1.7 3.7-1.8 2.4-2.4 3.7-2.4 5.3 0 1.2.3 2.3 1 3.2.1.2.2.3.2.3 0 .1-.1.3-.3.6-.1.1-.2.2-.3.4-.4.5-.6.7-.9.7-.2 0-.4-.2-.4-.4l-.2-.5c-.1-.1-.2-.2-.3-.2l-.2.2c-.1.2-.2.3-.2.5v.8c0 .3-.1.6-.3.9-.2.2-.4.5-.7.7-.2.2-.3.2-.4.2s-.3-.1-.3-.4l-.3-.9c0-.1-.1-.2-.2-.2-.2 0-.3.3-.3.7-.1 1.1-.3 1.7-.6 2l-.7.6c-.2.2-.5.3-.6.3s-.3-.1-.3-.2l-.3-.7c0-.1-.1-.1-.2-.1-.2 0-.3.4-.4 1.1-.2 1.7-.5 2.4-1.4 3.1-.7.5-.9.7-1.2 1.3-.4-.6-.6-1.1-.6-1.9 0-.4.1-.7.2-.9.2-.3.3-.6.3-.8 0-.1-.1-.2-.2-.2l-.2.2c-.1.2-.3.3-.6.5-.8.5-1 .7-1.2 1.6-.3 1.3-.9 1.8-2.1 2.1-1.6.3-1.7.4-2.2.9v-.9zM96 146.3v1.2c0 .2 0 .4-.1.8-.1.6-.2.9-.2 1.1 0 .9.1 1.3.7 2.3.3.5.5 1.1.5 1.6 0 .2-.1.3-.2.3s-.2 0-.2-.1l-.4-.5c-.3-.4-.6-.5-1.3-.5l-.8.1c.3.8.4 1.1.6 1.6.4 1.5.4 1.6 1.3 2.4.8.8.9.8.9 1.1 0 .2-.1.4-.3.4H96c-.3 0-.5.5-.5 1 0 .3.1.8.3 1.2.1.3.2.5.3.6l.5.5c.1.1.2.3.2.5s-.1.4-.3.4c-.1 0-.2-.1-.4-.2-.1-.1-.2-.1-.3-.1-.2 0-.3.1-.3.4l.1.7.3 1.2c.1.3.2.6.5.9.2.3.5.5.7.6.6.3.9.4.9.4.1.1.1.2.1.4s-.1.3-.3.3c-.1 0-.2 0-.5-.1h-.5c-.5 0-.5 0-.5.4 0 .2 0 .5.1.7l.2.7c.2.8.5 1.2.7 1.2.1 0 .2-.1.3-.2.7-.5 2-1 2.9-1s1.9.1 2.2.2c.2.1.4.1.4.1.1 0 .2-.1.2-.5l.1-.8.2-1.4.1-1.1V164c-.2.1-.3.3-.4.3-.8.7-1.3 1-2.1 1-2.1 0-3.4-2.4-3.4-6.6 0-1.7.3-4.2.7-7 .1-.6.1-1 .1-1.3 0-1.6-.9-3.1-2.6-4.1"/><path class="st4" d="m99.1 156.7.4-.4.4-.4c.3-.3.6-1 .6-1.4 0-.2 0-.4-.2-.7s-.5-.7-.7-.7-.3.4-.4 1l-.1.7-.1.7v.7l.1.5zM95 175.8c.5.2.6.3 1.1.8.6.8 1 .9 1.9.9.2 0 .5 0 .7-.1l.6-.2.5-.1.4-.2c0-.1-.4-.4-.9-.8-.4-.3-.7-.5-1.1-.7s-.7-.3-1.1-.3c-.8.1-1.4.3-2.1.7M101.3 188.9c0-1.5 1.5-2.7 3.3-2.7.9 0 1.4.2 1.4.5 0 .2-.4.6-1.3 1-.1 0-.5.3-1.4.7-.9.5-1.2.7-2.1 1l.1-.5zM120.3 177.6c.7-.1.9-.3 1.2-.3h.8c.1 0 .3-.2.6-.4.1-.1.4-.3.7-.5.9-.6 1-.7 1-.9 0-.3-.4-.4-1.2-.4-1.5.1-2.4.8-3.1 2.5"/><path class="st5" d="m106.2 149.2.7.4c.4.2.7.4.9.5.7.3 1 .4 1 .7 0 .1 0 .3-.1.5s-.1.4-.1.7c-.1.6-.5.8-.7.8-.3 0-.6-.5-1.2-1.4-.2-.4-.6-1.2-.7-1.9v-.2c0-.1.1-.2.2-.1M112.5 150.8l-1.1 1.1c-.4.5-.4.9-.5 1s-.2.1-.3.1h-.1c-.3 0-.5-.2-.5-.5v-1.6c0-.3.2-.5.4-.5l1-.3 1-.5c.3-.1.4-.2.4-.2.1 0 .2.1.2.3 0 .1 0 .2-.1.3l-.4.8zM107.8 154l.7.5c.2.1.4.2.6.2.3 0 .7-.1 1.1-.3l.6-.3c.1-.1.3-.1.4-.1.4 0 .7.4.7.9 0 .7-.5 1.4-1.2 2.4l-.5 1.1c-.4.6-.7.8-1 .8-.6 0-.8-.3-1.7-2-.6-1.2-.8-1.9-.8-2.5 0-.5.3-.8.6-.8.1 0 .3 0 .5.1"/><path class="st4" d="M108.4 156.6v.9c0 .4.4.8.7.8.4 0 .7-.7.9-1.6.1-.5.1-.5.1-.6 0-.3-.1-.4-.6-.4h-.7c-.3 0-.4.2-.4.8"/></g><g><path d="M55.9 135.5h4.6v9.4h5.4v-9.3h13.5v9.3h5.4v-9.3h4.6v-24.2h-5.2l-.2-.3c-.6-.9-1.5-1.4-2.5-1.4s-1.9.6-2.5 1.7h-3.8c-.4-1-1.4-1.7-2.5-1.7-1.2 0-2.2.6-2.7 1.7h-4c-.7-1.2-1.4-1.7-2.6-1.7-1.2 0-1.9.5-2.5 1.7H56v24.1h-.1z"/><path d="M57.9 113.4h29.6v20.3H57.9z"/><path class="st4" d="M61 118c-.8 0-1.4.6-1.4 1.4s.6 1.4 1.4 1.4c.8 0 1.4-.6 1.4-1.4 0-.7-.7-1.4-1.4-1.4"/><path d="M61 121c-.9 0-1.6-.7-1.6-1.6s.7-1.6 1.6-1.6c.9 0 1.6.7 1.6 1.6s-.8 1.6-1.6 1.6zm0-2.8c-.7 0-1.2.5-1.2 1.2s.5 1.2 1.2 1.2 1.2-.5 1.2-1.2c0-.6-.6-1.2-1.2-1.2z"/><path class="st4" d="M84.2 118c-.8 0-1.4.6-1.4 1.4s.6 1.4 1.4 1.4 1.4-.6 1.4-1.4c0-.7-.6-1.4-1.4-1.4"/><path d="M84.2 121c-.9 0-1.6-.7-1.6-1.6s.7-1.6 1.6-1.6 1.6.7 1.6 1.6c0 .9-.7 1.6-1.6 1.6zm0-2.8c-.7 0-1.2.5-1.2 1.2s.5 1.2 1.2 1.2 1.2-.5 1.2-1.2c.1-.6-.5-1.2-1.2-1.2z"/><path class="st4" d="M61 129.1c-.8 0-1.4.6-1.4 1.4s.7 1.4 1.5 1.4c.7 0 1.4-.6 1.4-1.4s-.8-1.4-1.5-1.4"/><path d="M61 132.1c-.9 0-1.7-.7-1.7-1.6 0-.9.7-1.6 1.6-1.6.9 0 1.6.7 1.6 1.6.1.9-.6 1.6-1.5 1.6zm0-2.8c-.7 0-1.2.5-1.2 1.2s.6 1.2 1.3 1.2c.6 0 1.2-.5 1.2-1.2-.1-.7-.7-1.2-1.3-1.2z"/><path class="st4" d="M84.2 129.1c-.8 0-1.4.6-1.4 1.4s.6 1.4 1.4 1.4 1.4-.6 1.4-1.4-.6-1.4-1.4-1.4"/><path d="M84.2 132.1c-.9 0-1.6-.7-1.6-1.6 0-.9.7-1.6 1.6-1.6s1.6.7 1.6 1.6c0 .9-.7 1.6-1.6 1.6zm0-2.8c-.7 0-1.2.5-1.2 1.2s.5 1.2 1.2 1.2 1.2-.5 1.2-1.2c.1-.7-.5-1.2-1.2-1.2z"/><path class="st4" d="M65.4 124.8c1.9 2.4 4.3 3.6 7.3 3.6 2.8 0 4.7-1 6.9-3.6-2.2-2.3-4.3-3.2-7-3.2-2.9-.1-5.5 1.1-7.2 3.2"/><path d="M66.8 124.8c2-1.5 3.6-2.2 5.7-2.2s3.6.6 5.6 2.2c-1.8 1.7-3.3 2.4-5.7 2.4-2.1 0-4-.8-5.6-2.4"/><path class="st4" d="M69.2 124.3c1.2.7 2.1 1 3.2 1 1.3 0 2.4-.3 3.4-1-1.1-.5-2.2-.8-3.4-.8-1.1 0-2.2.3-3.2.8"/><path class="st5" d="M57.5 114.4H88v1H57.5z"/><path d="M88 115.5H57.4v-1.2H88v1.2zm-30.5-.1h30.3v-.9H57.5v.9z"/><path class="st4" d="M62.1 113.1v2.9c0 .7.5 1.2 1.3 1.2s1.3-.4 1.3-1.2v-2.8c0-1.1-.5-1.8-1.2-1.8-.1 0-.4.1-.6.1-.2.1-.3.1-.3.2-.1.1-.2.2-.3.4-.1.3-.2.4-.2.5M71.3 115.5v.5c0 .7.5 1.2 1.3 1.2s1.3-.4 1.3-1.2v-2.9c0-1.1-.5-1.8-1.2-1.8-.8 0-1.4.7-1.4 1.7M80.2 113.1v2.9c0 .7.5 1.2 1.3 1.2s1.3-.4 1.3-1.2v-2.8c0-1.1-.5-1.8-1.2-1.8-.1 0-.4.1-.6.1-.2.1-.3.1-.3.2-.1.1-.2.2-.3.4-.1.3-.2.4-.2.5M61.5 137.7h2.8v3.6h-2.8zM61.5 142h2.8v1.1h-2.8zM80.4 137.7h2.8v3.6h-2.8zM80.4 142h2.8v1.1h-2.8z"/></g></g></svg>