<svg width="176" height="60" viewBox="0 0 176 60" fill="none" xmlns="http://www.w3.org/2000/svg">
<g id="CIPD_logo_Black" clip-path="url(#clip0_2276_2334)">
<g id="Group">
<g id="Group_2">
<path id="Vector" d="M29.7025 50.6425C18.6447 50.6425 10.6392 41.3551 10.6392 29.9124C10.6392 18.4696 18.6447 9.35748 29.7025 9.35748C36.2953 9.35748 41.2486 12.2664 45.8706 16.5596L52.3936 9.02453C46.8473 3.73248 40.4115 0 29.7723 0C12.2961 0 0 13.5105 0 30.0876C0 46.8224 12.5403 60 29.3711 60C40.1847 60 46.7775 56.0222 52.7948 49.7138L46.2717 43.09C41.3358 47.7336 36.7837 50.6425 29.7025 50.6425Z" fill="black"/>
<path id="Vector_2" d="M145.321 0.998779H124.775V59.0186H145.321C163.477 59.0186 176 46.3317 176 29.9299C176 13.5105 163.46 0.998779 145.321 0.998779ZM145.321 49.7313H134.926V10.2686H145.321C157.442 10.2686 165.361 18.6448 165.361 30.07C165.361 41.5303 157.442 49.7313 145.321 49.7313Z" fill="black"/>
<path id="Vector_3" d="M119.979 20.4672C119.979 8.62144 111.485 0.998779 98.0375 0.998779H76.3406V59.0186H86.4914V40.3563H96.8864C109.584 40.3563 119.979 33.5572 119.979 20.4672ZM109.671 20.5198C109.671 26.1623 104.892 31.0864 97.2178 31.0864H91.5319L86.4914 36.0806V16.7523C86.4914 12.7745 88.6541 10.2686 92.997 10.2686H97.2178C104.107 10.2686 109.671 14.2815 109.671 20.5198Z" fill="black"/>
<path id="Vector_4" d="M68.3348 0.998779H58.2363V59.0186H68.3348V0.998779Z" fill="black"/>
</g>
</g>
</g>
<defs>
<clipPath id="clip0_2276_2334">
<rect width="176" height="60" fill="white"/>
</clipPath>
</defs>
</svg>
