<svg width="24" height="24" viewBox="0 0 24 24" fill="none" xmlns="http://www.w3.org/2000/svg">
<g id="Group 540">
<path id="Fill 211" d="M13.31 9.70368L15.0755 12.872H15.9252V11.2571L13.1908 6.35132L10.3265 12.5175L9.2585 9.64232H5V11.2571H8.24225L10.25 16.1016L13.31 9.70368Z" fill="#DE00A5"/>
<path id="Fill 212" d="M11.5485 23.2542L11.9925 23.6143L12.4418 23.2615C12.6045 23.1339 16.4587 20.0875 19.6927 15.5903L18.507 14.6012C16.0298 18.0456 13.098 20.6632 12.0015 21.5909C8.694 18.8054 1.5 11.7866 1.5 7.18675C1.5 4.11456 3.855 1.61482 6.75 1.61482C8.65875 1.61482 10.4198 2.71855 11.346 4.49565L12 5.60584L12.654 4.49565C13.5802 2.71855 15.3412 1.61482 17.25 1.61482C20.145 1.61482 22.5 4.11456 22.5 7.18675C22.5 8.544 22.197 9.6114 21.321 11.2577H17.6752V12.8725H22.176L22.3942 12.4801C23.565 10.372 24 8.93721 24 7.18675C24 3.22399 20.9722 0 17.25 0C15.1943 0 13.2697 1.00038 12 2.67253C10.7303 1.00038 8.8065 0 6.75 0C3.0285 0 0 3.22399 0 7.18675C0 13.7922 11.0767 22.8707 11.5485 23.2542Z" fill="#3A343A"/>
</g>
</svg>
