<svg width="85" height="60" fill="none" xmlns="http://www.w3.org/2000/svg"><g fill="#000" clip-path="url(#a)"><path d="M58.83 43.15c1.944 0 3.226-1.224 3.226-4.047 0-2.294-1.412-3.879-3.226-3.879-2.034 0-3.174 1.682-3.174 3.88 0 2.341 1.283 4.047 3.174 4.047zM43.737 30.132c1.322 0 3.135-3.123 3.135-4.768 0-.552-.233-.925-.751-.925-1.321 0-3.135 3.015-3.135 4.804 0 .553.22.889.751.889zM60.903 25.16c0-.36-.181-.552-.518-.552-.48 0-.972.384-1.27.672a7.195 7.195 0 0 0-1.438 1.874c.389-.036.972-.192 1.62-.385.92-.264 1.606-.876 1.606-1.609zM46.613 43.078h.505c2.268 0 4.004-1.213 4.004-4.023 0-2.858-2.06-3.77-4.094-3.77-1.218 0-1.672.06-1.672.864v5.68c0 1.081.622 1.25 1.257 1.25zM61.55 31.417c0 .553.7 1.057 1.931 1.057.998 0 1.633-.396 1.633-.973 0-.312-.117-.504-.752-.864-.389-.217-.88-.42-1.23-.589-.778.252-1.581.72-1.581 1.37zM64.608 27.694c.48 0 .998-.216 1.633-1.2.337-.565.48-1.07.48-1.478 0-.384-.234-.588-.597-.588-.57 0-1.153.444-1.62 1.2-.323.529-.453.973-.453 1.334.013.432.195.732.557.732zM73.133 25.16c0-.36-.181-.552-.518-.552-.48 0-.972.384-1.27.672a7.195 7.195 0 0 0-1.438 1.874c.389-.036.972-.192 1.62-.385.92-.264 1.606-.876 1.606-1.609zM22.257 39.091c0 2.354 1.283 4.047 3.174 4.047 1.944 0 3.226-1.224 3.226-4.047 0-2.294-1.412-3.879-3.226-3.879-2.034 0-3.174 1.681-3.174 3.88z"/><path d="M0 0v60h85V0H0zm67.16 17.21c0-.192.091-.277.247-.277.155 0 .233.085.272.229.544 1.717 1.969 2.27 3.226 2.27 1.192 0 2.383-.529 2.383-1.946 0-1.441-1.14-1.777-2.694-2.294-1.412-.468-3.07-1.14-3.07-3.05 0-1.826 1.878-2.498 3.29-2.498 1.101 0 1.606.384 1.995.384.233 0 .337-.168.415-.336.051-.108.116-.144.181-.144.117 0 .181.048.207.192l.337 2.222c.026.132-.065.216-.181.216-.091 0-.156-.048-.234-.168-.686-1.31-1.67-1.718-2.604-1.718-1.282 0-1.878.66-1.878 1.465 0 .913.622 1.574 2.591 2.102 2.785.745 3.252 2.126 3.252 3.183 0 2.57-2.332 3.098-3.86 3.098-1.62 0-2.514-.745-2.98-.745-.234 0-.363.229-.441.385-.065.108-.143.144-.233.144-.143 0-.234-.084-.234-.228V17.21h.013zm3.058 12.778c.79 0 1.451-.564 1.904-1.009.052-.036.117-.084.182-.084.116 0 .207.084.207.192 0 .084-.052.144-.09.216-.7.817-1.53 1.418-2.799 1.418-.959 0-1.542-.613-1.542-1.478 0-2.534 2.799-5.14 4.846-5.14.7 0 1.204.3 1.204.949 0 .973-.867 1.753-2.526 2.234-.505.144-1.477.336-1.982.42-.156.336-.337.78-.337 1.25 0 .636.337 1.032.933 1.032zM65.373 9.632c.621 0 1.049.384 1.049 1.105 0 .804-.544 1.657-1.555 1.825-.142.024-.246-.048-.246-.144 0-.108.065-.168.156-.216.622-.228.984-.637.984-1.057a.329.329 0 0 0-.051-.168c-.065.168-.298.252-.48.252-.414 0-.829-.252-.829-.769.013-.636.557-.828.972-.828zm.66 14.411c.57 0 .868.108 1.14.252a.37.37 0 0 0 .208.06c.116 0 .207-.06.298-.108.362-.216.7-.3.997-.3.324 0 .519.132.519.384 0 .253-.182.42-.415.42-.272 0-.505-.215-.79-.215-.272 0-.454.108-.454.252 0 .144.065.3.065.672 0 .36-.09.733-.272 1.117-.687 1.345-1.8 1.585-2.617 1.585-.272 0-.635-.084-.907-.084-.505 0-.777.145-.777.469 0 .36.7.672 1.723 1.14.997.47 1.567.973 1.567 1.538 0 1.057-1.204 1.73-2.927 1.73-1.801 0-3.006-.673-3.006-1.562 0-.9 1.438-1.429 2.293-1.645-.48-.313-.726-.565-.726-.985 0-.552.61-.84 1.089-.949.272-.06.414-.108.414-.192 0-.048-.064-.108-.09-.144a1.737 1.737 0 0 1-.247-.889c0-.42.091-.804.545-1.393.647-.793 1.619-1.153 2.37-1.153zm-33.1 18.087c.025.972.621 1.105 1.14 1.189.142.024.207.084.207.168 0 .108-.065.168-.181.168h-3.02c-.116 0-.155-.06-.155-.168 0-.084.065-.144.208-.168.751-.108 1.023-.505 1.023-1.19l.052-6.208c0-.577-.298-.769-.933-.853-.142-.024-.207-.084-.207-.192s.065-.168.181-.168h2.591l6.09 6.617-.117-5.092c-.026-.853-.389-1.057-1.14-1.189-.143-.024-.208-.084-.208-.168 0-.108.065-.168.182-.168h3.018c.091 0 .156.06.156.168 0 .084-.065.144-.207.168-.752.108-1.024.504-1.024 1.189l-.052 7.422h-.53l-7.14-7.782.066 6.257zm8.796-17.498c-.052.108-.116.144-.233.144-.143 0-.233-.084-.233-.216 0-.108.026-.253.026-.36 0-1.37-.881-2.018-2.047-2.018-2.229 0-4.846 3.434-4.846 6.113 0 1.116.506 1.897 1.62 1.897 1.438 0 3.2-.889 3.938-2.018.117-.168.208-.228.337-.228.143 0 .246.108.156.313l-.96 2.57c-.05.084-.142.108-.232.108-.091 0-.182-.06-.182-.192-.026-.36-.051-.637-.272-.637-.181 0-.414.084-.635.168-.971.384-1.619.505-2.319.505-1.684 0-2.837-1.01-2.837-2.787 0-3.074 2.928-6.389 6.297-6.389.725 0 1.541.192 2.176.865.065.06.117.084.207.084.143 0 .324-.252.454-.42.09-.132.142-.144.207-.144.142 0 .207.108.142.3l-.764 2.342zm4.327-.709c1.14 0 1.723.889 1.723 1.958 0 2.21-1.813 4.828-4.003 4.828-1.114 0-1.71-.89-1.71-1.958.013-2.426 1.827-4.828 3.99-4.828zm-3.264 11.121c-.117 0-.208-.06-.208-.168 0-.108.065-.168.156-.168h4.599c2.746 0 5.402 1.189 5.402 4.395 0 3.603-3.342 4.564-5.35 4.564h-4.638c-.091 0-.156-.06-.156-.168 0-.084.065-.144.207-.168.752-.06 1.024-.505 1.024-1.19v-5.896c0-.685-.272-1.14-1.037-1.201zm9.897-4.383a1.83 1.83 0 0 1-.544.084c-.246 0-.427-.193-.427-.385 0-.168.09-.396.155-.552 1.114-2.486 2.229-4.828 3.382-7.314a.427.427 0 0 0 .064-.216c0-.048-.026-.084-.09-.108-.156-.048-.454-.06-.635-.084-.117 0-.208-.06-.208-.168 0-.084.091-.169.234-.193.337-.048.868-.06 1.088-.084.272-.024.609-.048.79-.048.117 0 .182.048.182.132s-.026.168-.091.313L53 29.724c-.026.06-.051.108-.051.168 0 .048.025.06.064.06a.457.457 0 0 0 .182-.06c.505-.252.79-.529 1.023-.673a.259.259 0 0 1 .156-.06c.09 0 .142.06.142.169a.253.253 0 0 1-.09.192c-.467.552-1.024.912-1.737 1.14zm5.3-.673c.79 0 1.45-.564 1.904-1.009.051-.036.116-.084.18-.084.117 0 .208.084.208.192 0 .084-.052.144-.09.216-.7.817-1.53 1.418-2.799 1.418-.933 0-1.542-.613-1.542-1.478 0-2.534 2.799-5.14 4.846-5.14.7 0 1.205.3 1.205.949 0 .973-.868 1.753-2.527 2.234-.505.144-1.477.336-1.982.42-.155.336-.337.78-.337 1.25 0 .636.337 1.032.933 1.032zm.841 4.66c2.89 0 4.846 1.993 4.846 4.455 0 2.798-2.009 4.624-4.846 4.624-2.902 0-4.806-1.994-4.806-4.624 0-2.426 2.02-4.455 4.806-4.455zM58.08 9.632c1.697 0 2.487.384 3.433.888.142.085.337.193.48.193.207 0 .336-.169.414-.42.052-.133.117-.217.246-.217.117 0 .207.084.207.216v2.294c0 .132-.09.228-.207.228-.142 0-.233-.06-.324-.228-.777-1.465-2.15-2.306-4.25-2.306-2.292 0-4.365 1.634-4.365 4.684 0 2.27 1.308 4.492 4.184 4.492.713 0 1.581-.084 2.423-.661.233-.168.363-.36.363-.72v-1.298c0-.828-.726-.972-1.645-1.044-.156 0-.273-.109-.273-.253 0-.132.117-.216.273-.216h4.625c.155 0 .233.084.233.192 0 .133-.065.229-.182.229-.596.048-1.282.132-1.282.996v1.934c-.415.312-1.995 1.49-4.535 1.49-2.837 0-6.089-1.226-6.089-5.213 0-3.843 3.472-5.26 6.27-5.26zm-6.09 12.033c.273-.024.61-.048.791-.048.117 0 .181.048.181.132 0 .085-.026.169-.09.313l-3.589 7.686a.398.398 0 0 0-.039.168c0 .048.026.06.065.06a.536.536 0 0 0 .181-.06c.506-.252.79-.529 1.024-.673a.26.26 0 0 1 .155-.06c.091 0 .143.06.143.169 0 .084-.052.144-.09.192-.48.528-1.05.888-1.75 1.116a1.83 1.83 0 0 1-.544.085c-.246 0-.428-.193-.428-.385 0-.168.091-.396.156-.552 1.114-2.486 2.228-4.828 3.381-7.314a.428.428 0 0 0 .065-.216c0-.048-.026-.084-.09-.108-.156-.048-.454-.06-.635-.084-.117 0-.208-.06-.208-.168 0-.084.091-.169.233-.193.337-.024.856-.036 1.089-.06zM38.478 19.66c.868-.108 1.076-.469 1.128-1.502.09-2.245.09-5.008.09-7.11 0-.696-.635-.912-1.114-.972-.156-.024-.246-.084-.246-.216 0-.108.09-.168.246-.168h2.863l7.203 7.482s-.026-4.132-.142-5.597c-.09-1.249-.622-1.405-1.348-1.5-.116-.025-.18-.109-.18-.193 0-.108.064-.192.155-.192h3.459c.155 0 .246.06.246.168 0 .132-.09.192-.246.216-.868.108-1.076.468-1.127 1.501-.091 2.246-.091 8.467-.091 8.467h-.531l-8.421-8.695s.051 5.344.142 6.81c.09 1.248.622 1.405 1.347 1.5.117.025.182.109.182.193 0 .108-.065.192-.156.192h-3.459c-.155 0-.246-.06-.246-.168-.013-.132.078-.192.246-.216zm-6.05-9.584c-.155-.024-.246-.084-.246-.216 0-.108.09-.168.246-.168h4.03c.155 0 .245.06.245.168 0 .132-.09.192-.246.216-.868.108-1.127.505-1.127 1.31v6.953c0 .804.246 1.213 1.127 1.309.156.024.246.084.246.216 0 .108-.09.168-.246.168h-4.029c-.155 0-.246-.06-.246-.168 0-.132.09-.192.246-.216.868-.108 1.127-.505 1.127-1.31v-6.94c0-.806-.246-1.214-1.127-1.322zM10.546 30.312c0-.168.142-.3.388-.312.894-.132 2.268-.312 2.358-2.714.052-1.045.065-3.29.065-5.849 0-3.987-.026-7.65-.052-8.395-.09-2.402-1.464-2.582-2.358-2.714-.246-.024-.388-.144-.388-.312 0-.192.155-.3.44-.3.324 0 2.423.06 4.068.06 1.918 0 2.604 0 4.159-.06.207 0 .35.132.35.3 0 .216-.143.312-.39.36-2.487.313-2.694 1.31-2.72 2.498-.052 2.582-.065 6.45-.065 6.618 0 .144.052.3.182.3a.431.431 0 0 0 .233-.084c.894-.685 3.563-3.135 5.74-5.212.92-.89 1.49-1.55 1.994-2.27.208-.3.363-.589.363-.937 0-.36-.207-.504-.57-.636-.363-.133-.686-.169-1.05-.229-.245-.048-.44-.168-.44-.36 0-.216.207-.336.48-.336.324 0 1.826.06 3.666.06 1.05 0 2.695-.06 3.252-.06.324 0 .453.144.453.336 0 .192-.116.276-.272.312-1.05.229-2.008.505-4.482 2.582-2.1 1.766-5.766 5.213-6.387 5.873 0 0 7.954 8.827 9.38 9.86 1.372 1.02 2.06 1.213 3.16 1.309.182 0 .324.144.324.336 0 .168-.09.277-.324.277h-5.817c-2.72-3.051-7.5-8.335-9.055-9.548a.763.763 0 0 0-.44-.144c-.182 0-.364.108-.39.42-.025.276-.051 1.585-.051 2.942 0 1.357.051 2.654.09 3.159.117 1.189.506 2.186 2.993 2.498.246.048.389.144.389.36 0 .168-.143.3-.337.3-1.555-.06-2.514-.06-4.444-.06-1.645 0-3.757.06-4.068.06-.272.012-.427-.096-.427-.288zm19.73 8.78c0 2.797-2.007 4.623-4.845 4.623-2.902 0-4.806-1.994-4.806-4.624 0-2.414 2.008-4.455 4.806-4.455 2.89.012 4.846 2.005 4.846 4.455zM11.18 43.486c0-.084.091-.168.208-.168.751-.06 1.023-.505 1.023-1.19v-5.896c0-.673-.272-1.14-1.023-1.189-.117 0-.207-.084-.207-.168 0-.108.064-.168.155-.168h3.705c.143 0 .233.084.233.192 0 .084-.064.144-.207.168-.48.024-1.14.216-1.14.937v6.113c0 .72.363.972 2.06.972 1.671 0 2.785-.216 3.498-2.03.052-.107.142-.167.246-.167.142 0 .233.108.181.276l-.505 2.498h-8.071c-.09-.012-.155-.072-.155-.18zm62.73 7.566H11.323v-1.49H73.91v1.49zm0-3.435H11.323v-.769H73.91v.77zm1.076-12.574c-.752.108-1.024.504-1.024 1.189l-.052 7.422h-.53l-7.14-7.782.065 6.257c.026.972.622 1.105 1.14 1.189.143.024.208.084.208.168 0 .108-.065.168-.182.168h-3.018c-.117 0-.156-.06-.156-.168 0-.084.065-.144.208-.168.751-.108 1.023-.505 1.023-1.19l.052-6.208c0-.577-.298-.769-.933-.853-.142-.024-.207-.084-.207-.192s.065-.168.181-.168h2.591l6.09 6.617-.117-5.092c-.026-.853-.389-1.057-1.14-1.189-.143-.024-.208-.084-.208-.168 0-.108.065-.168.182-.168h3.018c.091 0 .156.06.156.168 0 .084-.078.144-.207.168z"/></g><defs><clipPath id="a"><path fill="#fff" d="M0 0h85v60H0z"/></clipPath></defs></svg>