<svg width="24" height="24" viewBox="0 0 24 24" fill="none" xmlns="http://www.w3.org/2000/svg">
<path fill-rule="evenodd" clip-rule="evenodd" d="M12.8915 8.7345C12.5156 9.2265 12.2286 9.72825 11.9996 10.2367C11.7714 9.72825 11.4837 9.2265 11.1085 8.7345C10.0864 7.39725 8.75013 6.5565 7.386 6.033C8.94296 3.9375 10.9443 2.45475 11.9996 1.76175C13.0557 2.45475 15.057 3.9375 16.614 6.033C15.2499 6.5565 13.9129 7.39725 12.8915 8.7345ZM11.2464 18.0495C9.2902 18.0315 4.93118 17.67 2.87105 14.973C0.756696 12.2055 1.60334 8.38125 2.12459 6.7215C2.2677 6.717 2.42438 6.714 2.59311 6.714C4.48978 6.714 7.96223 7.0935 9.90937 9.64275C10.8464 10.8697 11.2464 12.2475 11.2464 14.25V18.0495ZM22.9639 5.2995C22.9639 5.2995 22.3522 5.214 21.4069 5.214C20.5316 5.214 19.3679 5.2905 18.1386 5.57475C15.6837 2.0115 11.9996 0 11.9996 0C11.9996 0 8.31626 2.0115 5.86143 5.57475C4.63214 5.2905 3.46838 5.214 2.59311 5.214C1.64778 5.214 1.03615 5.2995 1.03615 5.2995C1.03615 5.2995 -1.67402 11.5005 1.67189 15.8812C4.09884 19.0583 8.82771 19.5293 11.2464 19.5487V24H12.7529C12.7529 24 12.7536 15.708 12.7529 14.25C12.7536 12.2475 13.1536 10.8698 14.0906 9.64275C16.0378 7.0935 19.5102 6.714 21.4069 6.714C21.5756 6.714 21.7323 6.717 21.8754 6.7215C22.3967 8.38125 23.2433 12.2055 21.1289 14.973C19.8514 16.6462 17.6911 17.4172 15.7666 17.7682V19.29C18.0663 18.9105 20.7079 18.0022 22.3281 15.8812C25.674 11.5005 22.9639 5.2995 22.9639 5.2995Z" fill="#3A343A"/>
<path fill-rule="evenodd" clip-rule="evenodd" d="M16.4627 10.0403C17.6821 8.92531 19.1402 8.40096 20.1439 8.25757L20.3561 9.74249C19.6098 9.8491 18.4429 10.2623 17.4748 11.1473C16.5298 12.0113 15.75 13.3445 15.75 15.375H14.25C14.25 12.9056 15.2202 11.1762 16.4627 10.0403Z" fill="#DE00A5"/>
</svg>
