<svg width="24" height="24" viewBox="0 0 24 24" fill="none" xmlns="http://www.w3.org/2000/svg">
<path d="M17.051 5.025L12.026 0L7.00098 5.025L8.05098 6.075L11.276 2.85V13.05H12.776V2.85L16.001 6.075L17.051 5.025Z" fill="#3A343A"/>
<path d="M17.051 5.025L12.026 0L7.00098 5.025L8.05098 6.075L11.276 2.85V13.05H12.776V2.85L16.001 6.075L17.051 5.025Z" fill="#DE00A5"/>
<path d="M23.6509 7.95L20.1259 5.625L19.0009 6.675L21.7759 8.55L20.5759 11.7L21.7759 14.85L19.0009 16.725L18.1009 20.025L14.6509 19.95L12.0259 22.05L9.40088 19.875L5.95088 20.025L5.05088 16.725L2.27588 14.85L3.47588 11.7L2.27588 8.55L5.05088 6.675L3.92588 5.625L0.400879 7.95L1.82588 11.7L0.400879 15.45L3.77588 17.7L4.82588 21.6L8.87588 21.375L12.0259 24L15.1759 21.45L19.2259 21.6L20.2759 17.7L23.6509 15.45L22.2259 11.7L23.6509 7.95Z" fill="#3A343A"/>
<path d="M16.9009 10.05C17.1259 10.65 17.2759 11.325 17.2759 12C17.2759 14.925 14.9509 17.25 12.0259 17.25C9.10088 17.25 6.77588 14.925 6.77588 12C6.77588 11.25 6.92588 10.5 7.30088 9.82495L6.17588 8.69995C5.57588 9.67495 5.27588 10.8 5.27588 12C5.27588 15.75 8.27588 18.75 12.0259 18.75C15.7759 18.75 18.7759 15.75 18.7759 12C18.7759 10.875 18.4759 9.82495 18.0259 8.92495L16.9009 10.05Z" fill="#3A343A"/>
</svg>
