<svg width="24" height="24" viewBox="0 0 24 24" fill="none" xmlns="http://www.w3.org/2000/svg">
<path fill-rule="evenodd" clip-rule="evenodd" d="M12 15L2.646 8.5695L11.9842 2.57025L21.351 8.571L12 15ZM11.9843 0.75L0 8.57025L3.7605 11.1518L3.7485 17.6017L12 23.5702L15.75 20.8433V18.9893L12 21.75L5.2605 16.8202V12.183L12 16.8202L18.7395 12.174L18.75 18.6615L20.2507 17.5702V11.1353L22.5 9.59625V14.5702H24V8.57025L11.9843 0.75Z" fill="#3A343A"/>
<path fill-rule="evenodd" clip-rule="evenodd" d="M11.6346 4.35498L17.6661 8.37598L16.834 9.62406L11.6155 6.14506L7.90273 8.50777L7.09741 7.24228L11.6346 4.35498Z" fill="#DE00A5"/>
</svg>
