<svg width="24" height="24" viewBox="0 0 24 24" fill="none" xmlns="http://www.w3.org/2000/svg">
<path fill-rule="evenodd" clip-rule="evenodd" d="M7.61175 9.65994C7.068 8.82967 6.75 7.83981 6.75 6.77468C6.75 3.86985 9.105 1.50548 12 1.50548C14.8942 1.50548 17.25 3.86985 17.25 6.77468C17.25 7.83981 16.9313 8.82967 16.3875 9.65994L17.6348 10.5C18.3383 9.43035 18.75 8.15144 18.75 6.77468C18.75 3.0328 15.7275 0 12 0C8.27175 0 5.25 3.0328 5.25 6.77468C5.25 8.15144 5.661 9.43035 6.3645 10.5L7.61175 9.65994Z" fill="#DE00A5"/>
<path fill-rule="evenodd" clip-rule="evenodd" d="M15.0197 13.0635L14.9867 8.262C14.9867 6.618 13.6421 5.25 11.9991 5.25C10.3554 5.25 8.99958 6.58275 8.99958 8.22675V15.423L8.83085 15.2587C7.66853 14.0963 5.78407 14.0963 4.62174 15.2587C3.45942 16.4213 3.45942 18.3053 4.62174 19.4678L9.1533 24H11.2492L5.68208 18.4072C5.10617 17.8312 5.10617 16.8945 5.68208 16.3193C6.25724 15.7432 7.1946 15.7432 7.77051 16.3193L10.4993 18.75V8.22675C10.4993 7.41225 11.1847 6.75 11.9991 6.75C12.8135 6.75 13.4869 7.4475 13.4869 8.262V14.0092L19.5002 16.7108L19.498 24H21V15.75L15.0197 13.0635Z" fill="#3A343A"/>
</svg>
