<svg version="1.1" id="Layer_1" xmlns="http://www.w3.org/2000/svg" x="0" y="0" viewBox="0 0 323.2 95.6" style="enable-background:new 0 0 323.2 95.6" xml:space="preserve"><style>.st0{fill:#fff}</style><path d="M0 0v95.6h116.6c-.9-.6-1.8-1.3-2.5-2.1-6.8-6.5-6.8-14.1-7-21.2V31.9h21.6v42.4c0 2.9.1 5.9 2.5 8.2 1.7 1.8 4.3 2.5 6.9 2.5 3.4 0 5.6-1.2 6.8-2.4 2.5-2.4 2.6-5.4 2.6-8.3V31.9h21.7V68c0 7.8 0 17.9-8 25.4-.8.7-1.6 1.4-2.5 2.1H191c-9.5-6.8-14-18.3-14-29.3 0-18.2 12.3-36.8 35.3-36.8 10.3 0 20.2 3.7 27.3 11 2.9 3 4.2 5.3 5.7 8l-18 8.9c-1.7-4-5-11.2-14.1-11.2-4.7 0-7.7 2.2-9.2 3.6-5.1 4.9-5.1 12.6-5.1 15.3 0 10.1 3.8 19.6 14.4 19.6 10 0 13-8.8 13.8-11.1l18.3 8.8c-1.7 3.3-3.4 6.3-6.7 9.6-1.4 1.4-2.9 2.6-4.5 3.7H254V31.9h21.5V82h27.9v13.6h19.8V0H0z"/><path class="st0" d="m96.1 46-11.2-2.4L73.6 46c-.1 0 0 .1 0 .1l.2.6s.2 0 .3.1l.2.9s0 .1.1.1H95.5l.2-.9c.1-.2.3-.2.3-.2l.1-.7z"/><path class="st0" d="M94.9 48v-.3h-1.7v.3h.1v.1s0 .3.2.4v.1h-.1v6.5l-.1.1v.1h-.1v.2h1.7v-.2h-.1v-.1l-.1-.1V48.8h-.1s-.1-.1 0-.1c.2-.1.2-.4.2-.4 0-.2 0-.3.1-.3zM91.2 48v-.3h-1.7v.3h.1v.1s0 .3.2.4v.1h-.1v6.5l-.1.1v.1h-.1v.2h1.7v-.2h-.1v-.1l-.1-.1V48.8h-.1s-.1-.1 0-.1c.2-.1.2-.4.2-.4 0-.2 0-.3.1-.3zM87.5 48s.1 0 0 0v-.3h-1.7v.3h.1v.1s0 .3.2.4v.1H86v6.5l-.1.1v.1h-.1v.2h1.7v-.2h-.1v-.1l-.1-.1V48.8h-.1s-.1-.1 0-.1c.2-.1.2-.4.2-.4 0-.2 0-.3.1-.3zM83.8 48c.1 0 .1 0 0 0v-.3h-1.7v.3h.1v.1s0 .3.2.4v.1h-.1v6.5l-.1.1v.1h-.1v.2h1.7v-.2h-.1v-.1l-.1-.1V48.8h-.1s-.1-.1 0-.1c.2-.1.2-.4.2-.4 0-.2 0-.3.1-.3zM80.2 48v-.3h-1.7v.3h.1v.1s0 .3.2.4v.1h-.1v6.5l-.1.1v.1h-.1v.2h1.7v-.2H80v-.1l-.1-.1V48.8h-.1s-.1-.1 0-.1c.2-.1.2-.4.2-.4.1-.2.1-.3.2-.3zM76.5 48v-.3h-1.7v.3h.1v.1s0 .3.2.4v.1H75v6.5l-.1.1v.1h-.1v.2h1.7v-.2h-.1v-.1l-.1-.1V48.8h-.1s-.1-.1 0-.1c.2-.1.2-.4.2-.4 0-.2 0-.3.1-.3zM90.1 41.4h-.2v-.2h-.2V41h-.1s-.1 0-.1-.1c0-.2.1-1.9-.8-3.1-.7-1-1.7-1.6-2.2-1.8 0-.2-.3-.3-.5-.4-.1 0-.1-.1-.1-.1v-.1c0-.1.1-.1.2-.1h.1v-.2s0-.1-.1-.1h-.2s-.1 0-.1-.1v-.1c0-.1 0-.1-.1-.1v-1.3h.1v-.1h-.1V33h-.2c-.2-.2-.4-.4-.4-.5 0 0 0-.1-.1-.1s0-.1 0-.1v-.1l-.1-.2-.1.2v.2c-.1 0-.1.1-.1.1s-.2.3-.4.5h-.2V33.3H84v.1h.1v1.3l-.1.1v.1s0 .1-.1.1h-.2s-.1 0-.1.1v.2h.1c.1 0 .2 0 .2.1v.1c0 .1-.1.1-.1.1-.1 0-.5.1-.5.4-.5.2-1.5.8-2.2 1.8-.9 1.2-.8 2.9-.8 3.1 0 .1 0 .1-.1.1h-.1v.2h-.2v.2h-.2v.2c.1 0 .2.1.2.2 0 .2.1.2.2.2v.7c0 .2-.1.2-.2.3v.8l5.2-1.1 5.2 1.1V43c-.1 0-.2-.1-.2-.3V42s.2 0 .2-.2c0-.1.1-.2.2-.2-.4 0-.4-.1-.4-.2zM95.8 57.8v-1.5h-.9v-.6H74.8v.6h-.9v1.5H73v1.6h23.7v-1.6z"/></svg>