<svg width="24" height="24" viewBox="0 0 24 24" fill="none" xmlns="http://www.w3.org/2000/svg">
<g clip-path="url(#clip0_53_13)">
<path d="M14.6361 8.96411C14.1276 8.96411 13.7511 9.09236 13.4564 9.25436C13.4091 9.08636 13.2539 8.96336 13.0709 9.00011H10.8329C10.6116 8.96336 10.4324 9.14261 10.5006 9.37511V17.6251C10.4324 17.8351 10.6116 18.0151 10.8329 18.0001H13.0709C13.2921 18.0151 13.4714 17.8351 13.4714 17.6139L13.4706 12.6279C13.4699 12.6256 13.4616 12.3871 13.6124 12.2229C13.7331 12.0924 13.9409 12.0256 14.2281 12.0256C14.7066 12.0256 14.9196 12.2214 14.9991 12.6594V17.6139C14.9204 17.8351 15.0996 18.0151 15.3209 18.0001H17.6796C17.9009 18.0151 18.0801 17.8351 18.0006 17.6139V12.4929C18.0794 9.88886 16.2246 8.96411 14.6361 8.96411ZM17.2784 17.2501H15.7214V12.6594C15.7214 11.7736 15.1491 11.2246 14.2289 11.2246C13.7084 11.2246 13.3034 11.3776 13.0244 11.6791C12.6366 12.0991 12.6666 12.6316 12.7499 12.7501V17.2501H11.2334V9.76511H12.6704V10.0171C12.6698 10.0922 12.6904 10.1659 12.7298 10.2298C12.7692 10.2937 12.8259 10.3451 12.8932 10.3783C12.9606 10.4114 13.036 10.4249 13.1106 10.4171C13.1853 10.4093 13.2563 10.3806 13.3154 10.3344L13.4204 10.2534C13.7241 10.0141 14.0384 9.76586 14.6369 9.76586C15.2564 9.76586 17.2791 9.96311 17.2791 12.4936L17.2784 17.2501ZM8.24987 5.22461C7.40837 5.22461 6.72437 5.90861 6.72437 6.75011C6.72437 7.59161 7.40837 8.27561 8.24987 8.27561C9.09137 8.27561 9.77537 7.59161 9.77537 6.75011C9.77537 5.90861 9.09137 5.22461 8.24987 5.22461ZM8.24987 7.47461C7.85087 7.47461 7.52537 7.14911 7.52537 6.75011C7.52537 6.35111 7.85087 6.02561 8.24987 6.02561C8.64887 6.02561 8.97437 6.35111 8.97437 6.75011C8.97437 7.14911 8.64887 7.47461 8.24987 7.47461ZM9.32087 8.96336H7.09487C6.87362 8.96336 6.69437 9.14261 6.74987 9.37511V17.6251C6.69437 17.8351 6.87362 18.0151 7.09487 18.0001H9.32087C9.54212 18.0151 9.72137 17.8351 9.72137 17.6139V9.36386C9.72137 9.25764 9.67917 9.15577 9.60406 9.08066C9.52895 9.00555 9.42709 8.96336 9.32087 8.96336ZM8.99987 17.2501H7.49537V9.76511H8.99987V17.2501Z" fill="#0D99FF"/>
<path d="M12 -0.0253906C5.36849 -0.0253906 -0.0255127 5.36861 -0.0255127 12.0001C-0.0255127 18.6316 5.36849 24.0256 12 24.0256C18.6315 24.0256 24.0255 18.6316 24.0255 12.0001C24.0255 5.36861 18.6315 -0.0253906 12 -0.0253906ZM12 23.2246C5.81099 23.2246 0.775487 18.1891 0.775487 12.0001C0.775487 5.81111 5.81099 0.775609 12 0.775609C18.189 0.775609 23.2245 5.81111 23.2245 12.0001C23.2245 18.1891 18.189 23.2246 12 23.2246Z" fill="#0D99FF"/>
</g>
<defs>
<clipPath id="clip0_53_13">
<rect width="24" height="24" fill="white"/>
</clipPath>
</defs>
</svg>
