<svg width="24" height="24" viewBox="0 0 24 24" fill="none" xmlns="http://www.w3.org/2000/svg">
<g clip-path="url(#clip0_51_8)">
<path d="M12.0005 0C8.04581 0 4.80005 3.2352 4.80005 7.18128C4.80005 8.71056 5.28965 10.1357 6.11525 11.303L6.08573 11.257L10.6949 19.2245L10.7184 19.255C10.9042 19.4974 11.088 19.6927 11.3105 19.8398C11.533 19.987 11.8179 20.0798 12.0977 20.0518C12.6569 19.9956 12.9819 19.6092 13.2821 19.2022L13.3008 19.177L18.3826 10.5288L18.3867 10.5216C18.5084 10.302 18.5964 10.0805 18.6718 9.86592C19.0202 9.01372 19.1996 8.10193 19.2 7.18128C19.2 3.2352 15.9552 0 12.0005 0ZM12.0005 1.2C15.3015 1.2 18 3.89232 18 7.18128C18 7.94946 17.85 8.71024 17.5584 9.42096L17.5524 9.43584L17.5472 9.45144C17.484 9.63312 17.4154 9.798 17.3362 9.94104L12.306 18.5009C12.0833 18.7942 11.928 18.8633 11.978 18.858C12.0036 18.8556 12.0274 18.8758 11.9724 18.8393C11.9199 18.8047 11.8126 18.7025 11.6854 18.5402L7.11125 10.632L7.09541 10.6097C6.40541 9.63528 6.00005 8.4552 6.00005 7.18128C6.00005 3.89256 8.69957 1.2 12.0005 1.2ZM12.0005 3.084C9.72965 3.084 7.89293 4.91424 7.89293 7.18128C7.89293 9.44832 9.72989 11.2786 12.0005 11.2786C14.2712 11.2786 16.1072 9.44808 16.1072 7.18128C16.1072 4.91448 14.2712 3.084 12.0005 3.084ZM12.0005 4.284C13.6366 4.284 14.9072 5.5524 14.9072 7.18128C14.9072 8.81016 13.6368 10.0786 12.0005 10.0786C10.3642 10.0786 9.09293 8.80992 9.09293 7.18128C9.09293 5.5524 10.3644 4.284 12.0005 4.284Z" fill="#0D99FF"/>
<path d="M15.3236 17.605L14.9917 18.0154C15.4405 18.0696 15.8749 18.1332 16.2817 18.2103L14.9667 18.5998L16.7218 19.0666L18.0301 18.654C18.8336 18.9235 19.9462 19.2531 20.3149 19.6277H17.6917L17.9523 20.3899H20.6744C20.6662 20.8195 19.8982 21.1685 19.1648 21.4512L17.3045 21.049L15.5518 21.6771L17.4238 22.1043C16.3309 22.4019 14.4958 22.5828 12.9766 22.6661L12.9128 21.7925H11.0873L11.0233 22.6661C9.50405 22.5828 7.66925 22.4021 6.57605 22.1045L8.44829 21.6771L6.69557 21.049L4.83509 21.4512C4.11221 21.2316 3.33389 20.8193 3.32573 20.3899H6.04805L6.30869 19.6277H3.68549C4.05413 19.2531 5.16677 18.9235 5.97029 18.654L7.27853 19.0666L9.03365 18.5998L7.71869 18.2103C8.14336 18.1318 8.57047 18.0672 8.99933 18.0166L8.67221 17.6055C5.12381 17.9743 2.17469 18.7599 1.40141 20.0004C0.168051 21.9775 4.71797 23.9664 11.8489 23.9974C11.9549 24.0027 12.0596 23.9988 12.1585 23.9974C19.2853 23.9647 23.8311 21.9766 22.5987 20.0004C21.8249 18.7594 18.8741 17.9736 15.3236 17.605Z" fill="#0D99FF"/>
</g>
<defs>
<clipPath id="clip0_51_8">
<rect width="24" height="24" fill="white"/>
</clipPath>
</defs>
</svg>
