<svg width="24" height="24" viewBox="0 0 24 24" fill="none" xmlns="http://www.w3.org/2000/svg">
<path d="M12 15.2998C11.1049 15.2998 10.2465 14.9442 9.61351 14.3113C8.98058 13.6784 8.625 12.8199 8.625 11.9248C8.625 11.0297 8.98058 10.1713 9.61351 9.53832C10.2465 8.90538 11.1049 8.5498 12 8.5498C12.8951 8.5498 13.7535 8.90538 14.3865 9.53832C15.0194 10.1713 15.375 11.0297 15.375 11.9248C15.375 12.8199 15.0194 13.6784 14.3865 14.3113C13.7535 14.9442 12.8951 15.2998 12 15.2998Z" fill="#0D99FF"/>
<path fill-rule="evenodd" clip-rule="evenodd" d="M7.62002 1.57489C8.51102 1.52839 9.97502 1.50439 12 1.50439C14.025 1.50439 15.495 1.52839 16.38 1.57489C17.1675 1.60339 17.955 1.73689 18.705 1.97389C19.4715 2.24689 20.1675 2.68789 20.745 3.26389C21.3225 3.83989 21.7605 4.53589 22.0335 5.30389C22.2709 6.06335 22.413 6.84938 22.4565 7.6439C22.4865 8.5184 22.503 9.96889 22.503 12.0089C22.503 14.0489 22.479 15.5039 22.4325 16.3889C22.4021 17.178 22.2679 17.9598 22.0335 18.7139C21.7593 19.4807 21.3184 20.1771 20.7426 20.753C20.1667 21.3288 19.4703 21.7697 18.7035 22.0439C17.9494 22.2783 17.1677 22.4125 16.3785 22.4429C15.4855 22.4899 14.0255 22.5134 11.9985 22.5134C8.95802 22.5134 8.50352 22.4894 7.61852 22.4429C6.82544 22.414 6.04142 22.2643 5.29352 21.9989C4.52334 21.7554 3.82345 21.3293 3.25352 20.7569C2.67712 20.1813 2.23641 19.4844 1.96352 18.7169C1.72909 17.9628 1.59494 17.181 1.56452 16.3919C1.51752 15.4989 1.49402 14.0389 1.49402 12.0119C1.49402 8.97139 1.51802 8.51689 1.56452 7.63189C1.59302 6.84439 1.72652 6.05689 1.96352 5.30689C2.23678 4.53957 2.67737 3.84266 3.25333 3.2667C3.82929 2.69074 4.52619 2.25016 5.29352 1.97689C6.04766 1.74246 6.82937 1.60831 7.61852 1.57789L7.62002 1.57489ZM16.905 5.27989C17.1573 5.1117 17.4603 5.03662 17.762 5.06755C18.0636 5.09848 18.3451 5.2335 18.558 5.44939C18.804 5.69433 18.9435 6.02629 18.9465 6.37339C18.9202 6.71988 18.7744 7.04647 18.534 7.29739C18.4199 7.42212 18.2808 7.52134 18.1257 7.58855C17.9706 7.65576 17.803 7.68944 17.634 7.68739C17.4615 7.68911 17.2905 7.65538 17.1315 7.58829C16.9726 7.52121 16.8291 7.42219 16.71 7.29739C16.5722 7.16111 16.4665 6.99584 16.4006 6.8136C16.3346 6.63135 16.3101 6.43671 16.3288 6.2438C16.3474 6.05089 16.4088 5.86457 16.5085 5.69835C16.6082 5.53214 16.7436 5.39022 16.905 5.28289V5.27989ZM9.39002 7.45489C10.1848 6.98571 11.0921 6.74102 12.015 6.74689C12.938 6.74102 13.8452 6.98571 14.64 7.45489C15.435 7.91539 16.0965 8.57689 16.56 9.37489C17.0235 10.1729 17.268 11.0849 17.268 11.9999C17.2629 13.3915 16.7078 14.7246 15.7238 15.7087C14.7398 16.6927 13.4066 17.2478 12.015 17.2529C10.6237 17.2474 9.29092 16.6921 8.30723 15.7081C7.32354 14.7241 6.76865 13.3912 6.76352 11.9999C6.76352 11.0774 7.00802 10.1699 7.47002 9.37489C7.93202 8.57989 8.59202 7.91839 9.39002 7.45489Z" fill="#0D99FF"/>
</svg>
